<svg width="360" height="275" viewBox="0 0 360 275" fill="none" xmlns="http://www.w3.org/2000/svg">
<mask id="mask0_0_4" style="mask-type:alpha" maskUnits="userSpaceOnUse" x="0" y="0" width="360" height="275">
<path fill-rule="evenodd" clip-rule="evenodd" d="M0 0H360V275H0V0Z" fill="white"/>
</mask>
<g mask="url(#mask0_0_4)">
<path fill-rule="evenodd" clip-rule="evenodd" d="M-2 30L362 29V234C362 234 289.994 274 180.361 274C70.7282 274 -2 248 -2 248L-2 30Z" stroke="#FFB900"/>
<g filter="url(#filter0_b_0_4)">
<circle cx="62" cy="264" r="7" fill="#FFCB00" fill-opacity="0.76"/>
</g>
<circle opacity="0.114695" cx="348" cy="230" r="44" fill="#FFB900"/>
<path fill-rule="evenodd" clip-rule="evenodd" d="M0 0H360V235C360 235 289.994 261 180.361 261C70.7282 261 0 235 0 235V0Z" fill="#FFF200"/>
<mask id="mask1_0_4" style="mask-type:alpha" maskUnits="userSpaceOnUse" x="0" y="0" width="360" height="261">
<path fill-rule="evenodd" clip-rule="evenodd" d="M0 0H360V235C360 235 289.994 261 180.361 261C70.7282 261 0 235 0 235V0Z" fill="white"/>
</mask>
<g mask="url(#mask1_0_4)">
</g>
<rect x="174" y="61" width="69" height="69" rx="18" fill="#11CCCC"/>
<rect x="115" y="99" width="49" height="49" rx="13" fill="#FFCB00"/>
<rect x="65" y="148" width="16" height="16" rx="4" fill="#FFCB00"/>
<rect x="253" y="56" width="16" height="16" rx="4" fill="#11CCCC"/>
<rect x="96" y="90" width="9" height="9" rx="3" fill="#FFCB00"/>
<rect x="295" y="135" width="9" height="9" rx="3" fill="#11CCCC"/>
</g>
<defs>
<filter id="filter0_b_0_4" x="52.2817" y="254.282" width="19.4366" height="19.4366" filterUnits="userSpaceOnUse" color-interpolation-filters="sRGB">
<feFlood flood-opacity="0" result="BackgroundImageFix"/>
<feGaussianBlur in="BackgroundImageFix" stdDeviation="1.35914"/>
<feComposite in2="SourceAlpha" operator="in" result="effect1_backgroundBlur_0_4"/>
<feBlend mode="normal" in="SourceGraphic" in2="effect1_backgroundBlur_0_4" result="shape"/>
</filter>
</defs>
</svg>
