<svg width="310" height="60" viewBox="0 0 310 60" fill="none" xmlns="http://www.w3.org/2000/svg">
<path fill-rule="evenodd" clip-rule="evenodd" d="M43.1406 45C42.666 45 42.2812 44.6153 42.2812 44.1406V23.8594C42.2812 23.3847 42.666 23 43.1406 23C43.6153 23 44 23.3847 44 23.8594V44.1406C44 44.6153 43.6153 45 43.1406 45ZM40.6055 44.1406V27.3398C40.6055 26.8652 40.2208 26.4805 39.7461 26.4805C39.2714 26.4805 38.8867 26.8652 38.8867 27.3398V44.1406C38.8867 44.6153 39.2714 45 39.7461 45C40.2208 45 40.6055 44.6153 40.6055 44.1406ZM37.2109 30.7773V44.1406C37.2109 44.6153 36.8262 45 36.3516 45C35.8769 45 35.4922 44.6153 35.4922 44.1406V30.7773C35.4922 30.3027 35.8769 29.918 36.3516 29.918C36.8262 29.918 37.2109 30.3027 37.2109 30.7773ZM33.8164 44.1406V34.2148C33.8164 33.7402 33.4317 33.3555 32.957 33.3555C32.4824 33.3555 32.0977 33.7402 32.0977 34.2148V44.1406C32.0977 44.6153 32.4824 45 32.957 45C33.4317 45 33.8164 44.6153 33.8164 44.1406ZM30.4219 37.6523V44.1406C30.4219 44.6153 30.0372 45 29.5625 45C29.0878 45 28.7031 44.6153 28.7031 44.1406V37.6523C28.7031 37.1777 29.0878 36.793 29.5625 36.793C30.0372 36.793 30.4219 37.1777 30.4219 37.6523ZM27.0273 44.1406V40.6602C27.0273 40.1855 26.6426 39.8008 26.168 39.8008C25.6933 39.8008 25.3086 40.1855 25.3086 40.6602V44.1406C25.3086 44.6153 25.6933 45 26.168 45C26.6426 45 27.0273 44.6153 27.0273 44.1406ZM22.8594 43.2812C23.334 43.2812 23.7188 43.666 23.7188 44.1406C23.7188 44.6153 23.334 45 22.8594 45C22.3847 45 22 44.6153 22 44.1406C22 43.666 22.3847 43.2812 22.8594 43.2812Z" fill="#00A5B1"/>
<path d="M37.6141 -0.207058L37.2109 0.0886994L37.2109 0.0887006L37.6141 -0.207058ZM32.4284 6.49999L32.0471 6.17656L31.3486 6.99999H32.4284V6.49999ZM36.8581 -1.04123L36.6532 -0.799698L37.4158 -0.152836L37.6207 -0.394373L36.8581 -1.04123ZM36.4483 -0.558159L35.8654 0.12912L36.628 0.775979L37.2109 0.0887006L36.4483 -0.558159ZM34.6994 1.50368L33.5335 2.87824L34.2961 3.5251L35.462 2.15054L34.6994 1.50368ZM32.3676 4.25279L31.2017 5.62735L31.9643 6.27421L33.1302 4.89965L32.3676 4.25279ZM31.5 6.63806V6.56902H30.5V6.63806H31.5ZM31 5.99999H30V6.99999H31V5.99999ZM28.5 6.49999V6.99999H29.5V6.49999H28.5ZM29 7.99999H29.6344V6.99999H29V7.99999ZM30.2689 7.99999H30.6344V6.99999H30.2689V7.99999ZM31 7.99999H31.1743V6.99999H31V7.99999ZM31.3486 7.99999H32.1743V6.99999H31.3486V7.99999ZM33 7.99999H34V6.99999H33V7.99999ZM35 7.99999H36V6.99999H35V7.99999ZM37 7.99999H38V6.99999H37V7.99999ZM39 7.99999H40V6.99999H39V7.99999ZM41 7.99999H41.6406V6.99999H41V7.99999ZM42.2812 7.99999H42.6406V6.99999H42.2812V7.99999ZM43 7.99999H43.1341V6.99999H43V7.99999ZM43.6713 7.20423L43.5372 7.02145L42.7309 7.61297L42.865 7.79575L43.6713 7.20423ZM43.5 7.13443V6.81721H42.5V7.13443H43.5ZM43 5.99999H42.7673V6.99999H43V5.99999ZM42.9377 6.20423L42.3226 5.36585L41.5164 5.95737L42.1314 6.79575L42.9377 6.20423ZM41.0925 3.68909L39.8624 2.01233L39.0561 2.60384L40.2862 4.28061L41.0925 3.68909ZM38.6323 0.335564L38.0172 -0.502817L37.2109 0.0887006L37.826 0.927082L38.6323 0.335564ZM38.0172 -0.502816L37.8299 -0.758189L37.0236 -0.166673L37.2109 0.0886994L38.0172 -0.502816ZM41.6975 6.20423L41.0122 5.2701L40.2059 5.86162L40.8912 6.79575L41.6975 6.20423ZM39.6415 3.40184L38.2709 1.53358L37.4646 2.12509L38.8353 3.99336L39.6415 3.40184ZM36.8012 0.571775L36.2069 1.27237L36.9695 1.91923L37.5638 1.21863L36.8012 0.571775ZM35.0184 2.67357L33.8299 4.07477L34.5925 4.72163L35.781 3.32043L35.0184 2.67357ZM32.6414 5.47596L32.0471 6.17656L32.8097 6.82342L33.404 6.12282L32.6414 5.47596ZM32.4284 6.99999H32.7142V5.99999H32.4284V6.99999ZM33 6.99999H34V5.99999H33V6.99999ZM35 6.99999H36V5.99999H35V6.99999ZM37 6.99999H38V5.99999H37V6.99999ZM39 6.99999H40V5.99999H39V6.99999ZM41 6.99999H41.1472V5.99999H41V6.99999ZM26 6.99999C25.8292 6.99999 25.6588 7.00164 25.4888 7.00491L25.5081 8.00473C25.6717 8.00157 25.8356 7.99999 26 7.99999V6.99999ZM25.4967 7.50003L25.4774 7.0004L24.4781 7.03903L24.4974 7.53866L25.4967 7.50003ZM24.9777 7.01972C25.1477 7.01315 25.318 7.00821 25.4888 7.00491L25.4695 6.0051C25.2923 6.00852 25.1155 6.01364 24.9391 6.02046L24.9777 7.01972ZM26 6.99999H26.5V5.99999H26V6.99999ZM26.5 6.49999V6.99999H27.5V6.49999H26.5ZM27 6.99999H26.5V7.99999H27V6.99999ZM47 6.99999H46V7.99999H47V6.99999ZM45.5 7.49999V6.99999H44.5V7.49999H45.5ZM45 6.99999H46V5.99999H45V6.99999ZM46.5 6.49999V6.99999H47.5V6.49999H46.5ZM51 6.99999H50V7.99999H51V6.99999ZM49.5 7.49999V6.99999H48.5V7.49999H49.5ZM49 6.99999H50V5.99999H49V6.99999ZM50.5 6.49999V6.99999H51.5V6.49999H50.5ZM55 6.99999H54V7.99999H55V6.99999ZM53.5 7.49999V6.99999H52.5V7.49999H53.5ZM53 6.99999H54V5.99999H53V6.99999ZM54.5 6.49999V6.99999H55.5V6.49999H54.5ZM59 6.99999H58V7.99999H59V6.99999ZM57.5 7.49999V6.99999H56.5V7.49999H57.5ZM57 6.99999H58V5.99999H57V6.99999ZM58.5 6.49999V6.99999H59.5V6.49999H58.5ZM63 6.99999H62V7.99999H63V6.99999ZM61.5 7.49999V6.99999H60.5V7.49999H61.5ZM61 6.99999H62V5.99999H61V6.99999ZM62.5 6.49999V6.99999H63.5V6.49999H62.5ZM67 6.99999H66V7.99999H67V6.99999ZM65.5 7.49999V6.99999H64.5V7.49999H65.5ZM65 6.99999H66V5.99999H65V6.99999ZM66.5 6.49999V6.99999H67.5V6.49999H66.5ZM71 6.99999H70V7.99999H71V6.99999ZM69.5 7.49999V6.99999H68.5V7.49999H69.5ZM69 6.99999H70V5.99999H69V6.99999ZM70.5 6.49999V6.99999H71.5V6.49999H70.5ZM75 6.99999H74V7.99999H75V6.99999ZM73.5 7.49999V6.99999H72.5V7.49999H73.5ZM73 6.99999H74V5.99999H73V6.99999ZM74.5 6.49999V6.99999H75.5V6.49999H74.5ZM79 6.99999H78V7.99999H79V6.99999ZM77.5 7.49999V6.99999H76.5V7.49999H77.5ZM77 6.99999H78V5.99999H77V6.99999ZM78.5 6.49999V6.99999H79.5V6.49999H78.5ZM83 6.99999H82V7.99999H83V6.99999ZM81.5 7.49999V6.99999H80.5V7.49999H81.5ZM81 6.99999H82V5.99999H81V6.99999ZM82.5 6.49999V6.99999H83.5V6.49999H82.5ZM87 6.99999H86V7.99999H87V6.99999ZM85.5 7.49999V6.99999H84.5V7.49999H85.5ZM85 6.99999H86V5.99999H85V6.99999ZM86.5 6.49999V6.99999H87.5V6.49999H86.5ZM91 6.99999H90V7.99999H91V6.99999ZM89.5 7.49999V6.99999H88.5V7.49999H89.5ZM89 6.99999H90V5.99999H89V6.99999ZM90.5 6.49999V6.99999H91.5V6.49999H90.5ZM95 6.99999H94V7.99999H95V6.99999ZM93.5 7.49999V6.99999H92.5V7.49999H93.5ZM93 6.99999H94V5.99999H93V6.99999ZM94.5 6.49999V6.99999H95.5V6.49999H94.5ZM99 6.99999H98V7.99999H99V6.99999ZM97.5 7.49999V6.99999H96.5V7.49999H97.5ZM97 6.99999H98V5.99999H97V6.99999ZM98.5 6.49999V6.99999H99.5V6.49999H98.5ZM103 6.99999H102V7.99999H103V6.99999ZM101.5 7.49999V6.99999H100.5V7.49999H101.5ZM101 6.99999H102V5.99999H101V6.99999ZM102.5 6.49999V6.99999H103.5V6.49999H102.5ZM107 6.99999H106V7.99999H107V6.99999ZM105.5 7.49999V6.99999H104.5V7.49999H105.5ZM105 6.99999H106V5.99999H105V6.99999ZM106.5 6.49999V6.99999H107.5V6.49999H106.5ZM111 6.99999H110V7.99999H111V6.99999ZM109.5 7.49999V6.99999H108.5V7.49999H109.5ZM109 6.99999H110V5.99999H109V6.99999ZM110.5 6.49999V6.99999H111.5V6.49999H110.5ZM115 6.99999H114V7.99999H115V6.99999ZM113.5 7.49999V6.99999H112.5V7.49999H113.5ZM113 6.99999H114V5.99999H113V6.99999ZM114.5 6.49999V6.99999H115.5V6.49999H114.5ZM119 6.99999H118V7.99999H119V6.99999ZM117.5 7.49999V6.99999H116.5V7.49999H117.5ZM117 6.99999H118V5.99999H117V6.99999ZM118.5 6.49999V6.99999H119.5V6.49999H118.5ZM123 6.99999H122V7.99999H123V6.99999ZM121.5 7.49999V6.99999H120.5V7.49999H121.5ZM121 6.99999H122V5.99999H121V6.99999ZM122.5 6.49999V6.99999H123.5V6.49999H122.5ZM127 6.99999H126V7.99999H127V6.99999ZM125.5 7.49999V6.99999H124.5V7.49999H125.5ZM125 6.99999H126V5.99999H125V6.99999ZM126.5 6.49999V6.99999H127.5V6.49999H126.5ZM131 6.99999H130V7.99999H131V6.99999ZM129.5 7.49999V6.99999H128.5V7.49999H129.5ZM129 6.99999H130V5.99999H129V6.99999ZM130.5 6.49999V6.99999H131.5V6.49999H130.5ZM135 6.99999H134V7.99999H135V6.99999ZM133.5 7.49999V6.99999H132.5V7.49999H133.5ZM133 6.99999H134V5.99999H133V6.99999ZM134.5 6.49999V6.99999H135.5V6.49999H134.5ZM139 6.99999H138V7.99999H139V6.99999ZM137.5 7.49999V6.99999H136.5V7.49999H137.5ZM137 6.99999H138V5.99999H137V6.99999ZM138.5 6.49999V6.99999H139.5V6.49999H138.5ZM143 6.99999H142V7.99999H143V6.99999ZM141.5 7.49999V6.99999H140.5V7.49999H141.5ZM141 6.99999H142V5.99999H141V6.99999ZM142.5 6.49999V6.99999H143.5V6.49999H142.5ZM147 6.99999H146V7.99999H147V6.99999ZM145.5 7.49999V6.99999H144.5V7.49999H145.5ZM145 6.99999H146V5.99999H145V6.99999ZM146.5 6.49999V6.99999H147.5V6.49999H146.5ZM151 6.99999H150V7.99999H151V6.99999ZM149.5 7.49999V6.99999H148.5V7.49999H149.5ZM149 6.99999H150V5.99999H149V6.99999ZM150.5 6.49999V6.99999H151.5V6.49999H150.5ZM155 6.99999H154V7.99999H155V6.99999ZM153.5 7.49999V6.99999H152.5V7.49999H153.5ZM153 6.99999H154V5.99999H153V6.99999ZM154.5 6.49999V6.99999H155.5V6.49999H154.5ZM159 6.99999H158V7.99999H159V6.99999ZM157.5 7.49999V6.99999H156.5V7.49999H157.5ZM157 6.99999H158V5.99999H157V6.99999ZM158.5 6.49999V6.99999H159.5V6.49999H158.5ZM163 6.99999H162V7.99999H163V6.99999ZM161.5 7.49999V6.99999H160.5V7.49999H161.5ZM161 6.99999H162V5.99999H161V6.99999ZM162.5 6.49999V6.99999H163.5V6.49999H162.5ZM167 6.99999H166V7.99999H167V6.99999ZM165.5 7.49999V6.99999H164.5V7.49999H165.5ZM165 6.99999H166V5.99999H165V6.99999ZM166.5 6.49999V6.99999H167.5V6.49999H166.5ZM171 6.99999H170V7.99999H171V6.99999ZM169.5 7.49999V6.99999H168.5V7.49999H169.5ZM169 6.99999H170V5.99999H169V6.99999ZM170.5 6.49999V6.99999H171.5V6.49999H170.5ZM175 6.99999H174V7.99999H175V6.99999ZM173.5 7.49999V6.99999H172.5V7.49999H173.5ZM173 6.99999H174V5.99999H173V6.99999ZM174.5 6.49999V6.99999H175.5V6.49999H174.5ZM179 6.99999H178V7.99999H179V6.99999ZM177.5 7.49999V6.99999H176.5V7.49999H177.5ZM177 6.99999H178V5.99999H177V6.99999ZM178.5 6.49999V6.99999H179.5V6.49999H178.5ZM183 6.99999H182V7.99999H183V6.99999ZM181.5 7.49999V6.99999H180.5V7.49999H181.5ZM181 6.99999H182V5.99999H181V6.99999ZM182.5 6.49999V6.99999H183.5V6.49999H182.5ZM187 6.99999H186V7.99999H187V6.99999ZM185.5 7.49999V6.99999H184.5V7.49999H185.5ZM185 6.99999H186V5.99999H185V6.99999ZM186.5 6.49999V6.99999H187.5V6.49999H186.5ZM191 6.99999H190V7.99999H191V6.99999ZM189.5 7.49999V6.99999H188.5V7.49999H189.5ZM189 6.99999H190V5.99999H189V6.99999ZM190.5 6.49999V6.99999H191.5V6.49999H190.5ZM195 6.99999H194V7.99999H195V6.99999ZM193.5 7.49999V6.99999H192.5V7.49999H193.5ZM193 6.99999H194V5.99999H193V6.99999ZM194.5 6.49999V6.99999H195.5V6.49999H194.5ZM199 6.99999H198V7.99999H199V6.99999ZM197.5 7.49999V6.99999H196.5V7.49999H197.5ZM197 6.99999H198V5.99999H197V6.99999ZM198.5 6.49999V6.99999H199.5V6.49999H198.5ZM203 6.99999H202V7.99999H203V6.99999ZM201.5 7.49999V6.99999H200.5V7.49999H201.5ZM201 6.99999H202V5.99999H201V6.99999ZM202.5 6.49999V6.99999H203.5V6.49999H202.5ZM207 6.99999H206V7.99999H207V6.99999ZM205.5 7.49999V6.99999H204.5V7.49999H205.5ZM205 6.99999H206V5.99999H205V6.99999ZM206.5 6.49999V6.99999H207.5V6.49999H206.5ZM211 6.99999H210V7.99999H211V6.99999ZM209.5 7.49999V6.99999H208.5V7.49999H209.5ZM209 6.99999H210V5.99999H209V6.99999ZM210.5 6.49999V6.99999H211.5V6.49999H210.5ZM215 6.99999H214V7.99999H215V6.99999ZM213.5 7.49999V6.99999H212.5V7.49999H213.5ZM213 6.99999H214V5.99999H213V6.99999ZM214.5 6.49999V6.99999H215.5V6.49999H214.5ZM219 6.99999H218V7.99999H219V6.99999ZM217.5 7.49999V6.99999H216.5V7.49999H217.5ZM217 6.99999H218V5.99999H217V6.99999ZM218.5 6.49999V6.99999H219.5V6.49999H218.5ZM223 6.99999H222V7.99999H223V6.99999ZM221.5 7.49999V6.99999H220.5V7.49999H221.5ZM221 6.99999H222V5.99999H221V6.99999ZM222.5 6.49999V6.99999H223.5V6.49999H222.5ZM227 6.99999H226V7.99999H227V6.99999ZM225.5 7.49999V6.99999H224.5V7.49999H225.5ZM225 6.99999H226V5.99999H225V6.99999ZM226.5 6.49999V6.99999H227.5V6.49999H226.5ZM231 6.99999H230V7.99999H231V6.99999ZM229.5 7.49999V6.99999H228.5V7.49999H229.5ZM229 6.99999H230V5.99999H229V6.99999ZM230.5 6.49999V6.99999H231.5V6.49999H230.5ZM235 6.99999H234V7.99999H235V6.99999ZM233.5 7.49999V6.99999H232.5V7.49999H233.5ZM233 6.99999H234V5.99999H233V6.99999ZM234.5 6.49999V6.99999H235.5V6.49999H234.5ZM239 6.99999H238V7.99999H239V6.99999ZM237.5 7.49999V6.99999H236.5V7.49999H237.5ZM237 6.99999H238V5.99999H237V6.99999ZM238.5 6.49999V6.99999H239.5V6.49999H238.5ZM243 6.99999H242V7.99999H243V6.99999ZM241.5 7.49999V6.99999H240.5V7.49999H241.5ZM241 6.99999H242V5.99999H241V6.99999ZM242.5 6.49999V6.99999H243.5V6.49999H242.5ZM247 6.99999H246V7.99999H247V6.99999ZM245.5 7.49999V6.99999H244.5V7.49999H245.5ZM245 6.99999H246V5.99999H245V6.99999ZM246.5 6.49999V6.99999H247.5V6.49999H246.5ZM251 6.99999H250V7.99999H251V6.99999ZM249.5 7.49999V6.99999H248.5V7.49999H249.5ZM249 6.99999H250V5.99999H249V6.99999ZM250.5 6.49999V6.99999H251.5V6.49999H250.5ZM255 6.99999H254V7.99999H255V6.99999ZM253.5 7.49999V6.99999H252.5V7.49999H253.5ZM253 6.99999H254V5.99999H253V6.99999ZM254.5 6.49999V6.99999H255.5V6.49999H254.5ZM259 6.99999H258V7.99999H259V6.99999ZM257.5 7.49999V6.99999H256.5V7.49999H257.5ZM257 6.99999H258V5.99999H257V6.99999ZM258.5 6.49999V6.99999H259.5V6.49999H258.5ZM263 6.99999H262V7.99999H263V6.99999ZM261.5 7.49999V6.99999H260.5V7.49999H261.5ZM261 6.99999H262V5.99999H261V6.99999ZM262.5 6.49999V6.99999H263.5V6.49999H262.5ZM267 6.99999H266V7.99999H267V6.99999ZM265.5 7.49999V6.99999H264.5V7.49999H265.5ZM265 6.99999H266V5.99999H265V6.99999ZM266.5 6.49999V6.99999H267.5V6.49999H266.5ZM271 6.99999H270V7.99999H271V6.99999ZM269.5 7.49999V6.99999H268.5V7.49999H269.5ZM269 6.99999H270V5.99999H269V6.99999ZM270.5 6.49999V6.99999H271.5V6.49999H270.5ZM275 6.99999H274V7.99999H275V6.99999ZM273.5 7.49999V6.99999H272.5V7.49999H273.5ZM273 6.99999H274V5.99999H273V6.99999ZM274.5 6.49999V6.99999H275.5V6.49999H274.5ZM279 6.99999H278V7.99999H279V6.99999ZM277.5 7.49999V6.99999H276.5V7.49999H277.5ZM277 6.99999H278V5.99999H277V6.99999ZM278.5 6.49999V6.99999H279.5V6.49999H278.5ZM283 6.99999H282V7.99999H283V6.99999ZM281.5 7.49999V6.99999H280.5V7.49999H281.5ZM281 6.99999H282V5.99999H281V6.99999ZM282.5 6.49999V6.99999H283.5V6.49999H282.5ZM285.022 7.01972C284.852 7.01315 284.682 7.00821 284.511 7.00491L284.492 8.00473C284.656 8.0079 284.82 8.01265 284.984 8.01897L285.022 7.01972ZM284.5 7.49999V6.99999H283.5V7.49999H284.5ZM284 6.99999C284.171 6.99999 284.341 7.00164 284.511 7.00492L284.531 6.0051C284.354 6.0017 284.177 5.99999 284 5.99999V6.99999ZM284.542 6.50077L284.523 7.0004L285.522 7.03903L285.541 6.53941L284.542 6.50077ZM289.074 7.49487C288.741 7.42904 288.406 7.36955 288.069 7.31655L287.914 8.30442C288.238 8.35538 288.56 8.41257 288.88 8.47586L289.074 7.49487ZM287.496 7.73269L287.554 7.23609L286.561 7.11973L286.503 7.61633L287.496 7.73269ZM287.058 7.17791C287.397 7.21764 287.734 7.2639 288.069 7.31656L288.224 6.32869C287.877 6.274 287.526 6.22596 287.174 6.1847L287.058 7.17791ZM288.681 6.90733L288.584 7.39783L289.565 7.59192L289.662 7.10143L288.681 6.90733ZM22.9421 7.17791C22.603 7.21764 22.2659 7.2639 21.9309 7.31655L22.0861 8.30442C22.4082 8.2538 22.7324 8.20932 23.0585 8.17112L22.9421 7.17791ZM21.5133 7.88833L21.4163 7.39784L20.4353 7.59191L20.5323 8.0824L21.5133 7.88833ZM20.9258 7.49487C21.2586 7.42904 21.5936 7.36956 21.9308 7.31656L21.7755 6.32869C21.4253 6.38373 21.0774 6.44551 20.7317 6.51389L20.9258 7.49487ZM22.3874 6.73948L22.4455 7.23609L23.4388 7.11973L23.3806 6.62313L22.3874 6.73948ZM293.002 8.6004C292.683 8.48284 292.361 8.37133 292.037 8.26603L291.728 9.21714C292.04 9.31836 292.349 9.42554 292.655 9.53855L293.002 8.6004ZM291.406 8.58684L291.542 8.10555L290.579 7.83458L290.444 8.31587L291.406 8.58684ZM291.06 7.97006C291.389 8.06248 291.714 8.16118 292.037 8.26603L292.346 7.31491C292.011 7.206 291.672 7.10348 291.331 7.00748L291.06 7.97006ZM292.706 7.95822L292.532 8.42729L293.471 8.77351L293.644 8.30444L292.706 7.95822ZM18.9397 7.97006C18.6114 8.06248 18.2857 8.16118 17.9628 8.26603L18.2717 9.21714C18.582 9.11636 18.8951 9.02148 19.2106 8.93265L18.9397 7.97006ZM17.6406 8.89637L17.4675 8.42729L16.5294 8.77352L16.7025 9.24259L17.6406 8.89637ZM16.9985 8.6004C17.317 8.48284 17.6385 8.37133 17.9628 8.26603L17.654 7.31492C17.3171 7.4243 16.9831 7.54013 16.6522 7.66225L16.9985 8.6004ZM18.3229 7.62426L18.4584 8.10555L19.4209 7.83458L19.2855 7.35328L18.3229 7.62426ZM296.706 10.311C296.41 10.1446 296.11 9.98385 295.806 9.8289L295.352 10.7195C295.643 10.8685 295.932 11.023 296.217 11.183L296.706 10.311ZM295.132 10.0462L295.342 9.59226L294.434 9.17304L294.224 9.62698L295.132 10.0462ZM294.888 9.38265C295.197 9.52554 295.504 9.67433 295.806 9.82888L296.261 8.93824C295.947 8.77773 295.629 8.62319 295.307 8.47477L294.888 9.38265ZM296.515 9.63023L296.27 10.0663L297.142 10.5557L297.387 10.1196L296.515 9.63023ZM15.112 9.38265C14.8026 9.52555 14.4964 9.67434 14.1937 9.8289L14.6484 10.7195C14.9395 10.5709 15.2338 10.4279 15.5313 10.2905L15.112 9.38265ZM13.9744 10.5023L13.7297 10.0663L12.8577 10.5557L13.1024 10.9917L13.9744 10.5023ZM13.2937 10.311C13.5902 10.1446 13.8902 9.98384 14.1937 9.82889L13.739 8.93825C13.4238 9.09918 13.1122 9.26612 12.8043 9.43891L13.2937 10.311ZM14.4485 9.13833L14.6581 9.59227L15.566 9.17303L15.3564 8.71909L14.4485 9.13833ZM300.097 12.5808C299.83 12.37 299.559 12.1643 299.283 11.9639L298.695 12.7724C298.96 12.9651 299.221 13.1629 299.477 13.3657L300.097 12.5808ZM298.583 12.0729L298.861 11.6575L298.031 11.1011L297.752 11.5166L298.583 12.0729ZM298.446 11.3793C298.729 11.5688 299.008 11.7637 299.283 11.9639L299.872 11.1553C299.586 10.9475 299.296 10.7451 299.002 10.5483L298.446 11.3793ZM300.014 11.8785L299.704 12.271L300.489 12.8906L300.799 12.4981L300.014 11.8785ZM11.554 11.3793C11.2709 11.5688 10.9918 11.7637 10.7168 11.9639L11.3052 12.7724C11.5697 12.5799 11.8381 12.3925 12.1103 12.2103L11.554 11.3793ZM10.6053 12.6634L10.2955 12.271L9.5106 12.8906L9.8204 13.283L10.6053 12.6634ZM9.90305 12.5808C10.1701 12.37 10.4414 12.1643 10.7168 11.9639L10.1283 11.1553C9.8424 11.3634 9.56072 11.577 9.28344 11.7959L9.90305 12.5808ZM10.8603 11.242L11.1385 11.6574L11.9695 11.1011L11.6913 10.6856L10.8603 11.242ZM303.093 15.3512C302.861 15.1013 302.625 14.8559 302.385 14.6152L301.678 15.3223C301.909 15.5538 302.136 15.7898 302.358 16.0301L303.093 15.3512ZM301.676 14.614L302.016 14.2469L301.282 13.5679L300.942 13.935L301.676 14.614ZM301.649 13.9074C301.899 14.1386 302.144 14.3745 302.385 14.6152L303.092 13.9081C302.842 13.6582 302.587 13.4132 302.328 13.1733L301.649 13.9074ZM303.12 14.6446L302.753 14.9841L303.432 15.7182L303.799 15.3788L303.12 14.6446ZM8.35118 13.9074C8.10126 14.1386 7.85589 14.3745 7.61522 14.6152L8.32233 15.3223C8.5538 15.0908 8.78979 14.8639 9.03015 14.6416L8.35118 13.9074ZM7.61402 15.3236L7.24694 14.9841L6.56796 15.7182L6.93504 16.0577L7.61402 15.3236ZM6.90745 15.3512C7.13858 15.1013 7.37455 14.8559 7.61522 14.6152L6.90812 13.9081C6.65825 14.158 6.41325 14.4127 6.17329 14.6722L6.90745 15.3512ZM7.64461 13.8798L7.9841 14.2469L8.71826 13.5679L8.37877 13.2009L7.64461 13.8798ZM305.621 18.554C305.431 18.2709 305.236 17.9918 305.036 17.7167L304.228 18.3052C304.42 18.5697 304.608 18.8381 304.79 19.1103L305.621 18.554ZM304.337 17.6053L304.729 17.2955L304.109 16.5106L303.717 16.8204L304.337 17.6053ZM304.419 16.903C304.63 17.1701 304.836 17.4414 305.036 17.7168L305.845 17.1283C305.637 16.8424 305.423 16.5607 305.204 16.2834L304.419 16.903ZM305.758 17.8603L305.343 18.1385L305.899 18.9695L306.314 18.6913L305.758 17.8603ZM5.58079 16.903C5.36998 17.1701 5.1643 17.4414 4.96389 17.7167L5.77244 18.3052C5.96516 18.0404 6.16296 17.7795 6.3657 17.5227L5.58079 16.903ZM5.07294 18.4167L4.65746 18.1385L4.10114 18.9695L4.51662 19.2476L5.07294 18.4167ZM4.3793 18.554C4.5688 18.2709 4.76371 17.9918 4.96388 17.7168L4.15534 17.1283C3.94749 17.4139 3.7451 17.7037 3.54833 17.9977L4.3793 18.554ZM4.87853 16.9857L5.27099 17.2955L5.8906 16.5106L5.49814 16.2008L4.87853 16.9857ZM307.617 22.112C307.474 21.8026 307.326 21.4964 307.171 21.1937L306.28 21.6484C306.429 21.9395 306.572 22.2338 306.709 22.5313L307.617 22.112ZM306.498 20.9744L306.934 20.7297L306.444 19.8577L306.008 20.1024L306.498 20.9744ZM306.689 20.2937C306.855 20.5902 307.016 20.8902 307.171 21.1937L308.062 20.739C307.901 20.4238 307.734 20.1122 307.561 19.8043L306.689 20.2937ZM307.862 21.4485L307.408 21.6581L307.827 22.566L308.281 22.3564L307.862 21.4485ZM3.31098 20.2937C3.1446 20.5902 2.98386 20.8902 2.82891 21.1937L3.71955 21.6484C3.86852 21.3566 4.02306 21.0682 4.18303 20.7831L3.31098 20.2937ZM3.04622 21.8677L2.59228 21.6581L2.17304 22.566L2.62698 22.7756L3.04622 21.8677ZM2.38266 22.112C2.52555 21.8026 2.67435 21.4965 2.8289 21.1937L1.93826 20.739C1.77774 21.0534 1.6232 21.3714 1.47479 21.6928L2.38266 22.112ZM2.63024 20.485L3.06627 20.7297L3.55568 19.8577L3.11966 19.613L2.63024 20.485ZM309.03 25.9396C308.938 25.6113 308.839 25.2857 308.734 24.9628L307.783 25.2717C307.884 25.582 307.979 25.8951 308.067 26.2106L309.03 25.9396ZM308.104 24.6406L308.573 24.4675L308.226 23.5294L307.757 23.7025L308.104 24.6406ZM308.4 23.9984C308.517 24.317 308.629 24.6385 308.734 24.9628L309.685 24.654C309.576 24.3171 309.46 23.9831 309.338 23.6522L308.4 23.9984ZM309.376 25.3229L308.894 25.4583L309.165 26.4209L309.647 26.2854L309.376 25.3229ZM2.2426 23.7025L1.77353 23.5294L1.4273 24.4675L1.89638 24.6406L2.2426 23.7025ZM0.662263 23.6522C0.540141 23.9831 0.424313 24.3171 0.314926 24.654L1.26604 24.9628C1.37134 24.6385 1.48285 24.317 1.60041 23.9985L0.662263 23.6522ZM0.353293 26.2854L0.834587 26.4209L1.10556 25.4584L0.62427 25.3229L0.353293 26.2854ZM1.93266 26.2106C2.02149 25.8951 2.11637 25.582 2.21715 25.2717L1.26604 24.9628C1.16119 25.2857 1.06249 25.6114 0.970075 25.9396L1.93266 26.2106ZM309.822 29.9421C309.782 29.603 309.736 29.2659 309.683 28.9309L308.696 29.0861C308.746 29.4082 308.791 29.7324 308.829 30.0585L309.822 29.9421ZM309.112 28.5133L309.602 28.4163L309.408 27.4353L308.918 27.5323L309.112 28.5133ZM309.505 27.9258C309.571 28.2585 309.63 28.5936 309.683 28.9308L310.671 28.7755C310.616 28.4253 310.554 28.0773 310.486 27.7317L309.505 27.9258ZM310.261 29.3873L309.764 29.4455L309.88 30.4387L310.377 30.3806L310.261 29.3873ZM1.08241 27.5323L0.59192 27.4353L0.397851 28.4163L0.888345 28.5133L1.08241 27.5323ZM-0.486102 27.7317C-0.55448 28.0773 -0.616258 28.4253 -0.671301 28.7755L0.316571 28.9308C0.369571 28.5936 0.429053 28.2585 0.494885 27.9258L-0.486102 27.7317ZM-0.376864 30.3806L0.119739 30.4387L0.236099 29.4455L-0.260504 29.3874L-0.376864 30.3806ZM1.17113 30.0585C1.20933 29.7324 1.25381 29.4082 1.30443 29.0861L0.316561 28.9309C0.263906 29.2659 0.21765 29.603 0.177919 29.9421L1.17113 30.0585ZM310 33C310 32.8292 309.998 32.6588 309.995 32.4888L308.995 32.5081C308.998 32.6717 309 32.8356 309 33H310ZM309.5 32.4967L310 32.4773L309.961 31.4781L309.461 31.4974L309.5 32.4967ZM309.98 31.9777C309.987 32.1477 309.992 32.318 309.995 32.4887L310.995 32.4695C310.991 32.2923 310.986 32.1155 310.98 31.9391L309.98 31.9777ZM310 33C310 33.1708 309.998 33.3412 309.995 33.5112L310.995 33.5305C310.998 33.3541 311 33.1772 311 33H310ZM310.499 33.5419L310 33.5226L309.961 34.5219L310.461 34.5412L310.499 33.5419ZM309.98 34.0222C309.987 33.8523 309.992 33.682 309.995 33.5112L308.995 33.4919C308.992 33.6562 308.987 33.8201 308.981 33.9836L309.98 34.0222ZM0.53867 31.4974L0.0390437 31.4781L0.000412268 32.4774L0.500039 32.4967L0.53867 31.4974ZM-0.979525 31.9391C-0.986345 32.1155 -0.991471 32.2923 -0.994888 32.4695L0.00492605 32.4887C0.0082191 32.318 0.0131581 32.1477 0.019728 31.9777L-0.979525 31.9391ZM-1 33C-1 33.1772 -0.998291 33.3541 -0.994888 33.5305L0.00492617 33.5112C0.00164707 33.3412 0 33.1708 0 33H-1ZM-0.460581 34.5412L0.0390459 34.5219L0.000410617 33.5226L-0.499216 33.5419L-0.460581 34.5412ZM1.01898 33.9836C1.01266 33.8201 1.00791 33.6562 1.00474 33.4919L0.00492539 33.5112C0.00821849 33.682 0.0131578 33.8523 0.0197282 34.0223L1.01898 33.9836ZM1 33C1 32.8356 1.00158 32.6716 1.00474 32.5081L0.00492534 32.4888C0.00164678 32.6588 0 32.8292 0 33H1ZM309.505 38.0742C309.571 37.7414 309.63 37.4063 309.683 37.0691L308.696 36.9138C308.645 37.2381 308.587 37.5602 308.524 37.8801L309.505 38.0742ZM309.267 36.4963L309.764 36.5544L309.88 35.5612L309.384 35.5031L309.267 36.4963ZM309.822 36.0578C309.782 36.397 309.736 36.7341 309.683 37.0692L310.671 37.2244C310.726 36.8765 310.774 36.5264 310.815 36.1742L309.822 36.0578ZM310.093 37.6807L309.602 37.5837L309.408 38.5647L309.899 38.6617L310.093 37.6807ZM0.616344 35.5031L0.11974 35.5612L0.2361 36.5545L0.732703 36.4963L0.616344 35.5031ZM-0.815287 36.1742C-0.774028 36.5264 -0.725988 36.8765 -0.6713 37.2244L0.316572 37.0692C0.263914 36.7342 0.217653 36.397 0.17792 36.0578L-0.815287 36.1742ZM0.101426 38.6617L0.59192 38.5647L0.397851 37.5837L-0.0926426 37.6807L0.101426 38.6617ZM1.47587 37.8801C1.41258 37.5602 1.35539 37.2381 1.30443 36.9138L0.316561 37.0691C0.369565 37.4063 0.42905 37.7414 0.494886 38.0742L1.47587 37.8801ZM308.4 42.0015C308.517 41.683 308.629 41.3615 308.734 41.0372L307.783 40.7283C307.682 41.04 307.574 41.3491 307.461 41.6553L308.4 42.0015ZM308.413 40.4061L308.894 40.5416L309.165 39.579L308.684 39.4436L308.413 40.4061ZM309.03 40.0603C308.938 40.3886 308.839 40.7143 308.734 41.0372L309.685 41.346C309.794 41.0106 309.897 40.6723 309.993 40.3313L309.03 40.0603ZM309.042 41.7056L308.573 41.5325L308.226 42.4706L308.696 42.6437L309.042 41.7056ZM1.31588 39.4436L0.834588 39.579L1.10556 40.5416L1.58685 40.4061L1.31588 39.4436ZM0.00748875 40.3313C0.103487 40.6723 0.206014 41.0106 0.314926 41.346L1.26604 41.0372C1.16119 40.7143 1.06249 40.3886 0.970075 40.0603L0.00748875 40.3313ZM1.30445 42.6437L1.77353 42.4706L1.4273 41.5324L0.958227 41.7056L1.30445 42.6437ZM2.53857 41.6553C2.42556 41.3491 2.31837 41.04 2.21715 40.7283L1.26604 41.0372C1.37134 41.3615 1.48285 41.683 1.60041 42.0015L2.53857 41.6553ZM2.62698 43.2244L2.17304 43.434L2.59228 44.3419L3.04622 44.1323L2.62698 43.2244ZM1.47479 44.3072C1.6232 44.6286 1.77774 44.9466 1.93826 45.261L2.8289 44.8062C2.67435 44.5035 2.52555 44.1974 2.38266 43.8879L1.47479 44.3072ZM3.11966 46.387L3.55568 46.1423L3.06627 45.2703L2.63024 45.515L3.11966 46.387ZM4.18303 45.2169C4.02306 44.9318 3.86852 44.6433 3.71955 44.3516L2.82891 44.8063C2.98386 45.1098 3.1446 45.4098 3.31097 45.7063L4.18303 45.2169ZM306.008 45.8976L306.444 46.1423L306.934 45.2702L306.498 45.0255L306.008 45.8976ZM307.561 46.1957C307.734 45.8878 307.901 45.5762 308.062 45.2609L307.171 44.8062C307.016 45.1097 306.855 45.4098 306.689 45.7063L307.561 46.1957ZM308.281 43.6436L307.827 43.434L307.408 44.3419L307.862 44.5515L308.281 43.6436ZM306.709 43.4687C306.572 43.7662 306.429 44.0605 306.28 44.3516L307.171 44.8063C307.326 44.5035 307.474 44.1974 307.617 43.8879L306.709 43.4687ZM4.51662 46.7524L4.10114 47.0305L4.65746 47.8615L5.07294 47.5833L4.51662 46.7524ZM3.54833 48.0023C3.7451 48.2962 3.94749 48.5861 4.15533 48.8717L4.96388 48.2832C4.7637 48.0082 4.5688 47.729 4.3793 47.446L3.54833 48.0023ZM5.49814 49.7992L5.89059 49.4894L5.27098 48.7045L4.87853 49.0143L5.49814 49.7992ZM6.3657 48.4773C6.16296 48.2205 5.96516 47.9596 5.77244 47.6948L4.96389 48.2832C5.1643 48.5586 5.36998 48.8299 5.58079 49.0969L6.3657 48.4773ZM303.717 49.1796L304.109 49.4894L304.729 48.7045L304.337 48.3947L303.717 49.1796ZM305.204 49.7166C305.423 49.4393 305.637 49.1576 305.845 48.8717L305.036 48.2832C304.836 48.5586 304.63 48.8299 304.419 49.0969L305.204 49.7166ZM306.314 47.3087L305.899 47.0305L305.343 47.8615L305.758 48.1396L306.314 47.3087ZM304.79 46.8897C304.608 47.1619 304.42 47.4303 304.228 47.6948L305.036 48.2832C305.236 48.0082 305.431 47.7291 305.621 47.446L304.79 46.8897ZM6.93504 49.9422L6.56796 50.2817L7.24693 51.0159L7.61401 50.6764L6.93504 49.9422ZM6.17329 51.3278C6.41325 51.5873 6.65824 51.842 6.90811 52.0919L7.61522 51.3848C7.37455 51.1441 7.13858 50.8987 6.90745 50.6488L6.17329 51.3278ZM8.37877 52.7991L8.71826 52.432L7.9841 51.7531L7.64461 52.1201L8.37877 52.7991ZM9.03015 51.3584C8.78979 51.1361 8.5538 50.9091 8.32233 50.6777L7.61522 51.3848C7.85589 51.6254 8.10126 51.8614 8.35118 52.0925L9.03015 51.3584ZM300.942 52.065L301.282 52.432L302.016 51.7531L301.676 51.386L300.942 52.065ZM302.328 52.8267C302.587 52.5867 302.842 52.3417 303.092 52.0919L302.385 51.3848C302.144 51.6254 301.899 51.8614 301.649 52.0925L302.328 52.8267ZM303.799 50.6212L303.432 50.2817L302.753 51.0159L303.12 51.3554L303.799 50.6212ZM302.358 49.9698C302.136 50.2102 301.909 50.4462 301.678 50.6777L302.385 51.3848C302.625 51.1441 302.861 50.8987 303.093 50.6488L302.358 49.9698ZM297.752 54.4834L298.031 54.8989L298.861 54.3425L298.583 53.927L297.752 54.4834ZM299.002 55.4517C299.296 55.2549 299.586 55.0525 299.872 54.8446L299.283 54.0361C299.008 54.2363 298.729 54.4312 298.446 54.6207L299.002 55.4517ZM300.799 53.5018L300.489 53.1094L299.704 53.729L300.014 54.1215L300.799 53.5018ZM299.477 52.6343C299.221 52.837 298.96 53.0348 298.695 53.2276L299.283 54.0361C299.559 53.8357 299.83 53.63 300.097 53.4192L299.477 52.6343ZM9.8204 52.7169L9.5106 53.1094L10.2955 53.729L10.6053 53.3366L9.8204 52.7169ZM9.28344 54.2041C9.56072 54.423 9.8424 54.6366 10.1283 54.8447L10.7168 54.0361C10.4414 53.8357 10.1701 53.63 9.90305 53.4192L9.28344 54.2041ZM11.6913 55.3143L11.9695 54.8989L11.1385 54.3425L10.8603 54.758L11.6913 55.3143ZM12.1103 53.7897C11.8381 53.6075 11.5697 53.4201 11.3052 53.2276L10.7167 54.0361C10.9918 54.2363 11.2709 54.4312 11.554 54.6207L12.1103 53.7897ZM13.1024 55.0083L12.8577 55.4443L13.7297 55.9337L13.9744 55.4977L13.1024 55.0083ZM12.8043 56.5611C13.1122 56.7339 13.4238 56.9008 13.739 57.0617L14.1937 56.1711C13.8902 56.0161 13.5902 55.8554 13.2937 55.689L12.8043 56.5611ZM15.3564 57.2809L15.566 56.827L14.6581 56.4077L14.4485 56.8616L15.3564 57.2809ZM15.5313 55.7095C15.2338 55.5721 14.9395 55.429 14.6484 55.2804L14.1937 56.1711C14.4964 56.3256 14.8026 56.4744 15.112 56.6173L15.5313 55.7095ZM294.224 56.373L294.434 56.8269L295.342 56.4077L295.132 55.9538L294.224 56.373ZM295.307 57.5252C295.629 57.3768 295.947 57.2222 296.261 57.0617L295.806 56.1711C295.504 56.3256 295.197 56.4744 294.888 56.6173L295.307 57.5252ZM297.387 55.8803L297.142 55.4443L296.27 55.9337L296.515 56.3697L297.387 55.8803ZM296.217 54.817C295.932 54.9769 295.643 55.1315 295.352 55.2804L295.806 56.1711C296.11 56.0161 296.41 55.8554 296.706 55.689L296.217 54.817ZM290.444 57.6841L290.579 58.1654L291.542 57.8944L291.406 57.4131L290.444 57.6841ZM291.331 58.9925C291.672 58.8965 292.011 58.794 292.346 58.6851L292.037 57.7339C291.714 57.8388 291.389 57.9375 291.06 58.0299L291.331 58.9925ZM293.644 57.6955L293.471 57.2265L292.532 57.5727L292.706 58.0418L293.644 57.6955ZM292.655 56.4614C292.349 56.5744 292.04 56.6816 291.728 56.7828L292.037 57.7339C292.361 57.6286 292.683 57.5171 293.002 57.3996L292.655 56.4614ZM16.7025 56.7574L16.5294 57.2265L17.4675 57.5727L17.6406 57.1036L16.7025 56.7574ZM16.6522 58.3377C16.9831 58.4598 17.3171 58.5757 17.654 58.6851L17.9628 57.734C17.6385 57.6286 17.317 57.5171 16.9985 57.3996L16.6522 58.3377ZM19.2855 58.6467L19.4209 58.1654L18.4584 57.8944L18.3229 58.3757L19.2855 58.6467ZM19.2106 57.0673C18.8951 56.9785 18.582 56.8836 18.2717 56.7828L17.9628 57.734C18.2857 57.8388 18.6114 57.9375 18.9396 58.0299L19.2106 57.0673ZM20.5323 57.9176L20.4353 58.4081L21.4163 58.6021L21.5133 58.1116L20.5323 57.9176ZM20.7317 59.4861C21.0773 59.5545 21.4253 59.6163 21.7755 59.6713L21.9308 58.6834C21.5936 58.6304 21.2586 58.5709 20.9258 58.5051L20.7317 59.4861ZM23.3806 59.3769L23.4387 58.8803L22.4455 58.7639L22.3874 59.2605L23.3806 59.3769ZM23.0585 57.8289C22.7324 57.7907 22.4082 57.7462 22.0861 57.6956L21.9309 58.6834C22.2659 58.7361 22.603 58.7823 22.9421 58.8221L23.0585 57.8289ZM286.503 58.3836L286.561 58.8803L287.554 58.7639L287.496 58.2673L286.503 58.3836ZM287.174 59.8153C287.526 59.774 287.876 59.726 288.224 59.6713L288.069 58.6834C287.734 58.7361 287.397 58.7823 287.058 58.8221L287.174 59.8153ZM289.662 58.8986L289.565 58.4081L288.584 58.6021L288.681 59.0926L289.662 58.8986ZM288.88 57.5241C288.56 57.5874 288.238 57.6446 287.914 57.6956L288.069 58.6834C288.406 58.6304 288.741 58.5709 289.074 58.5051L288.88 57.5241ZM24.4974 58.4613L24.4781 58.9609L25.4774 58.9996L25.4967 58.5L24.4974 58.4613ZM24.9391 59.9795C25.1155 59.9863 25.2923 59.9915 25.4695 59.9949L25.4888 58.9951C25.318 58.9918 25.1477 58.9868 24.9777 58.9803L24.9391 59.9795ZM26.5 59.5V59H25.5V59.5H26.5ZM26 58C25.8356 58 25.6717 57.9984 25.5081 57.9952L25.4888 58.9951C25.6588 58.9983 25.8292 59 26 59V58ZM284 58H283.5V59H284V58ZM282.5 58.5V59H283.5V58.5H282.5ZM283 60H283.5V59H283V60ZM284 60C284.177 60 284.354 59.9983 284.531 59.9949L284.511 58.9951C284.341 58.9983 284.171 59 284 59V60ZM285.541 59.4606L285.522 58.9609L284.523 58.9996L284.542 59.4992L285.541 59.4606ZM284.984 57.981C284.82 57.9873 284.656 57.9921 284.492 57.9953L284.511 58.9951C284.682 58.9918 284.852 58.9868 285.022 58.9803L284.984 57.981ZM26.5 58.5V59H27.5V58.5H26.5ZM27 60H28V59H27V60ZM29.5 59.5V59H28.5V59.5H29.5ZM29 58H28V59H29V58ZM30.5 58.5V59H31.5V58.5H30.5ZM31 60H32V59H31V60ZM33.5 59.5V59H32.5V59.5H33.5ZM33 58H32V59H33V58ZM34.5 58.5V59H35.5V58.5H34.5ZM35 60H36V59H35V60ZM37.5 59.5V59H36.5V59.5H37.5ZM37 58H36V59H37V58ZM38.5 58.5V59H39.5V58.5H38.5ZM39 60H40V59H39V60ZM41.5 59.5V59H40.5V59.5H41.5ZM41 58H40V59H41V58ZM42.5 58.5V59H43.5V58.5H42.5ZM43 60H44V59H43V60ZM45.5 59.5V59H44.5V59.5H45.5ZM45 58H44V59H45V58ZM46.5 58.5V59H47.5V58.5H46.5ZM47 60H48V59H47V60ZM49.5 59.5V59H48.5V59.5H49.5ZM49 58H48V59H49V58ZM50.5 58.5V59H51.5V58.5H50.5ZM51 60H52V59H51V60ZM53.5 59.5V59H52.5V59.5H53.5ZM53 58H52V59H53V58ZM54.5 58.5V59H55.5V58.5H54.5ZM55 60H56V59H55V60ZM57.5 59.5V59H56.5V59.5H57.5ZM57 58H56V59H57V58ZM58.5 58.5V59H59.5V58.5H58.5ZM59 60H60V59H59V60ZM61.5 59.5V59H60.5V59.5H61.5ZM61 58H60V59H61V58ZM62.5 58.5V59H63.5V58.5H62.5ZM63 60H64V59H63V60ZM65.5 59.5V59H64.5V59.5H65.5ZM65 58H64V59H65V58ZM66.5 58.5V59H67.5V58.5H66.5ZM67 60H68V59H67V60ZM69.5 59.5V59H68.5V59.5H69.5ZM69 58H68V59H69V58ZM70.5 58.5V59H71.5V58.5H70.5ZM71 60H72V59H71V60ZM73.5 59.5V59H72.5V59.5H73.5ZM73 58H72V59H73V58ZM74.5 58.5V59H75.5V58.5H74.5ZM75 60H76V59H75V60ZM77.5 59.5V59H76.5V59.5H77.5ZM77 58H76V59H77V58ZM78.5 58.5V59H79.5V58.5H78.5ZM79 60H80V59H79V60ZM81.5 59.5V59H80.5V59.5H81.5ZM81 58H80V59H81V58ZM82.5 58.5V59H83.5V58.5H82.5ZM83 60H84V59H83V60ZM85.5 59.5V59H84.5V59.5H85.5ZM85 58H84V59H85V58ZM86.5 58.5V59H87.5V58.5H86.5ZM87 60H88V59H87V60ZM89.5 59.5V59H88.5V59.5H89.5ZM89 58H88V59H89V58ZM90.5 58.5V59H91.5V58.5H90.5ZM91 60H92V59H91V60ZM93.5 59.5V59H92.5V59.5H93.5ZM93 58H92V59H93V58ZM94.5 58.5V59H95.5V58.5H94.5ZM95 60H96V59H95V60ZM97.5 59.5V59H96.5V59.5H97.5ZM97 58H96V59H97V58ZM98.5 58.5V59H99.5V58.5H98.5ZM99 60H100V59H99V60ZM101.5 59.5V59H100.5V59.5H101.5ZM101 58H100V59H101V58ZM102.5 58.5V59H103.5V58.5H102.5ZM103 60H104V59H103V60ZM105.5 59.5V59H104.5V59.5H105.5ZM105 58H104V59H105V58ZM106.5 58.5V59H107.5V58.5H106.5ZM107 60H108V59H107V60ZM109.5 59.5V59H108.5V59.5H109.5ZM109 58H108V59H109V58ZM110.5 58.5V59H111.5V58.5H110.5ZM111 60H112V59H111V60ZM113.5 59.5V59H112.5V59.5H113.5ZM113 58H112V59H113V58ZM114.5 58.5V59H115.5V58.5H114.5ZM115 60H116V59H115V60ZM117.5 59.5V59H116.5V59.5H117.5ZM117 58H116V59H117V58ZM118.5 58.5V59H119.5V58.5H118.5ZM119 60H120V59H119V60ZM121.5 59.5V59H120.5V59.5H121.5ZM121 58H120V59H121V58ZM122.5 58.5V59H123.5V58.5H122.5ZM123 60H124V59H123V60ZM125.5 59.5V59H124.5V59.5H125.5ZM125 58H124V59H125V58ZM126.5 58.5V59H127.5V58.5H126.5ZM127 60H128V59H127V60ZM129.5 59.5V59H128.5V59.5H129.5ZM129 58H128V59H129V58ZM130.5 58.5V59H131.5V58.5H130.5ZM131 60H132V59H131V60ZM133.5 59.5V59H132.5V59.5H133.5ZM133 58H132V59H133V58ZM134.5 58.5V59H135.5V58.5H134.5ZM135 60H136V59H135V60ZM137.5 59.5V59H136.5V59.5H137.5ZM137 58H136V59H137V58ZM138.5 58.5V59H139.5V58.5H138.5ZM139 60H140V59H139V60ZM141.5 59.5V59H140.5V59.5H141.5ZM141 58H140V59H141V58ZM142.5 58.5V59H143.5V58.5H142.5ZM143 60H144V59H143V60ZM145.5 59.5V59H144.5V59.5H145.5ZM145 58H144V59H145V58ZM146.5 58.5V59H147.5V58.5H146.5ZM147 60H148V59H147V60ZM149.5 59.5V59H148.5V59.5H149.5ZM149 58H148V59H149V58ZM150.5 58.5V59H151.5V58.5H150.5ZM151 60H152V59H151V60ZM153.5 59.5V59H152.5V59.5H153.5ZM153 58H152V59H153V58ZM154.5 58.5V59H155.5V58.5H154.5ZM155 60H156V59H155V60ZM157.5 59.5V59H156.5V59.5H157.5ZM157 58H156V59H157V58ZM158.5 58.5V59H159.5V58.5H158.5ZM159 60H160V59H159V60ZM161.5 59.5V59H160.5V59.5H161.5ZM161 58H160V59H161V58ZM162.5 58.5V59H163.5V58.5H162.5ZM163 60H164V59H163V60ZM165.5 59.5V59H164.5V59.5H165.5ZM165 58H164V59H165V58ZM166.5 58.5V59H167.5V58.5H166.5ZM167 60H168V59H167V60ZM169.5 59.5V59H168.5V59.5H169.5ZM169 58H168V59H169V58ZM170.5 58.5V59H171.5V58.5H170.5ZM171 60H172V59H171V60ZM173.5 59.5V59H172.5V59.5H173.5ZM173 58H172V59H173V58ZM174.5 58.5V59H175.5V58.5H174.5ZM175 60H176V59H175V60ZM177.5 59.5V59H176.5V59.5H177.5ZM177 58H176V59H177V58ZM178.5 58.5V59H179.5V58.5H178.5ZM179 60H180V59H179V60ZM181.5 59.5V59H180.5V59.5H181.5ZM181 58H180V59H181V58ZM182.5 58.5V59H183.5V58.5H182.5ZM183 60H184V59H183V60ZM185.5 59.5V59H184.5V59.5H185.5ZM185 58H184V59H185V58ZM186.5 58.5V59H187.5V58.5H186.5ZM187 60H188V59H187V60ZM189.5 59.5V59H188.5V59.5H189.5ZM189 58H188V59H189V58ZM190.5 58.5V59H191.5V58.5H190.5ZM191 60H192V59H191V60ZM193.5 59.5V59H192.5V59.5H193.5ZM193 58H192V59H193V58ZM194.5 58.5V59H195.5V58.5H194.5ZM195 60H196V59H195V60ZM197.5 59.5V59H196.5V59.5H197.5ZM197 58H196V59H197V58ZM198.5 58.5V59H199.5V58.5H198.5ZM199 60H200V59H199V60ZM201.5 59.5V59H200.5V59.5H201.5ZM201 58H200V59H201V58ZM202.5 58.5V59H203.5V58.5H202.5ZM203 60H204V59H203V60ZM205.5 59.5V59H204.5V59.5H205.5ZM205 58H204V59H205V58ZM206.5 58.5V59H207.5V58.5H206.5ZM207 60H208V59H207V60ZM209.5 59.5V59H208.5V59.5H209.5ZM209 58H208V59H209V58ZM210.5 58.5V59H211.5V58.5H210.5ZM211 60H212V59H211V60ZM213.5 59.5V59H212.5V59.5H213.5ZM213 58H212V59H213V58ZM214.5 58.5V59H215.5V58.5H214.5ZM215 60H216V59H215V60ZM217.5 59.5V59H216.5V59.5H217.5ZM217 58H216V59H217V58ZM218.5 58.5V59H219.5V58.5H218.5ZM219 60H220V59H219V60ZM221.5 59.5V59H220.5V59.5H221.5ZM221 58H220V59H221V58ZM222.5 58.5V59H223.5V58.5H222.5ZM223 60H224V59H223V60ZM225.5 59.5V59H224.5V59.5H225.5ZM225 58H224V59H225V58ZM226.5 58.5V59H227.5V58.5H226.5ZM227 60H228V59H227V60ZM229.5 59.5V59H228.5V59.5H229.5ZM229 58H228V59H229V58ZM230.5 58.5V59H231.5V58.5H230.5ZM231 60H232V59H231V60ZM233.5 59.5V59H232.5V59.5H233.5ZM233 58H232V59H233V58ZM234.5 58.5V59H235.5V58.5H234.5ZM235 60H236V59H235V60ZM237.5 59.5V59H236.5V59.5H237.5ZM237 58H236V59H237V58ZM238.5 58.5V59H239.5V58.5H238.5ZM239 60H240V59H239V60ZM241.5 59.5V59H240.5V59.5H241.5ZM241 58H240V59H241V58ZM242.5 58.5V59H243.5V58.5H242.5ZM243 60H244V59H243V60ZM245.5 59.5V59H244.5V59.5H245.5ZM245 58H244V59H245V58ZM246.5 58.5V59H247.5V58.5H246.5ZM247 60H248V59H247V60ZM249.5 59.5V59H248.5V59.5H249.5ZM249 58H248V59H249V58ZM250.5 58.5V59H251.5V58.5H250.5ZM251 60H252V59H251V60ZM253.5 59.5V59H252.5V59.5H253.5ZM253 58H252V59H253V58ZM254.5 58.5V59H255.5V58.5H254.5ZM255 60H256V59H255V60ZM257.5 59.5V59H256.5V59.5H257.5ZM257 58H256V59H257V58ZM258.5 58.5V59H259.5V58.5H258.5ZM259 60H260V59H259V60ZM261.5 59.5V59H260.5V59.5H261.5ZM261 58H260V59H261V58ZM262.5 58.5V59H263.5V58.5H262.5ZM263 60H264V59H263V60ZM265.5 59.5V59H264.5V59.5H265.5ZM265 58H264V59H265V58ZM266.5 58.5V59H267.5V58.5H266.5ZM267 60H268V59H267V60ZM269.5 59.5V59H268.5V59.5H269.5ZM269 58H268V59H269V58ZM270.5 58.5V59H271.5V58.5H270.5ZM271 60H272V59H271V60ZM273.5 59.5V59H272.5V59.5H273.5ZM273 58H272V59H273V58ZM274.5 58.5V59H275.5V58.5H274.5ZM275 60H276V59H275V60ZM277.5 59.5V59H276.5V59.5H277.5ZM277 58H276V59H277V58ZM278.5 58.5V59H279.5V58.5H278.5ZM279 60H280V59H279V60ZM281.5 59.5V59H280.5V59.5H281.5ZM281 58H280V59H281V58Z" fill="#00A5B1"/>
</svg>
