<svg width="310" height="61" viewBox="0 0 310 61" fill="none" xmlns="http://www.w3.org/2000/svg">
<path fill-rule="evenodd" clip-rule="evenodd" d="M43.1406 47C42.666 47 42.2812 46.6153 42.2812 46.1407V25.8594C42.2812 25.3847 42.666 25 43.1406 25C43.6153 25 44 25.3847 44 25.8594V46.1407C44 46.6153 43.6153 47 43.1406 47ZM40.6055 46.1407V29.3399C40.6055 28.8652 40.2208 28.4805 39.7461 28.4805C39.2714 28.4805 38.8867 28.8652 38.8867 29.3399V46.1407C38.8867 46.6153 39.2714 47 39.7461 47C40.2208 47 40.6055 46.6153 40.6055 46.1407ZM37.2109 32.7774V46.1407C37.2109 46.6153 36.8262 47 36.3516 47C35.8769 47 35.4922 46.6153 35.4922 46.1407V32.7774C35.4922 32.3027 35.8769 31.918 36.3516 31.918C36.8262 31.918 37.2109 32.3027 37.2109 32.7774ZM33.8164 46.1407V36.2149C33.8164 35.7402 33.4317 35.3555 32.957 35.3555C32.4824 35.3555 32.0977 35.7402 32.0977 36.2149V46.1407C32.0977 46.6153 32.4824 47 32.957 47C33.4317 47 33.8164 46.6153 33.8164 46.1407ZM30.4219 39.6524V46.1407C30.4219 46.6153 30.0372 47 29.5625 47C29.0878 47 28.7031 46.6153 28.7031 46.1407V39.6524C28.7031 39.1777 29.0878 38.793 29.5625 38.793C30.0372 38.793 30.4219 39.1777 30.4219 39.6524ZM27.0273 46.1407V42.6602C27.0273 42.1855 26.6426 41.8008 26.168 41.8008C25.6933 41.8008 25.3086 42.1855 25.3086 42.6602V46.1407C25.3086 46.6153 25.6933 47 26.168 47C26.6426 47 27.0273 46.6153 27.0273 46.1407ZM22.8594 45.2813C23.334 45.2813 23.7188 45.666 23.7188 46.1407C23.7188 46.6153 23.334 47 22.8594 47C22.3847 47 22 46.6153 22 46.1407C22 45.666 22.3847 45.2813 22.8594 45.2813Z" fill="#F76F5A"/>
<circle cx="26" cy="29" r="6" stroke="#F76F5A"/>
<path d="M27.0939 28.8987L28.5494 27.4432C28.8799 27.1127 28.8799 26.5784 28.5494 26.2479C28.2189 25.9174 27.6846 25.9174 27.3541 26.2479L25.8986 27.7034L24.4432 26.2479C24.1127 25.9174 23.5783 25.9174 23.2479 26.2479C22.9174 26.5784 22.9174 27.1127 23.2479 27.4432L24.7033 28.8987L23.2479 30.3541C22.9174 30.6846 22.9174 31.219 23.2479 31.5494C23.5783 31.8799 24.1127 31.8799 24.4432 31.5494L25.8986 30.094L27.3541 31.5494C27.6846 31.8799 28.2189 31.8799 28.5494 31.5494C28.8799 31.219 28.8799 30.6846 28.5494 30.3541L27.0939 28.8987Z" fill="#F76F5A"/>
<path d="M37.6141 1.79297L37.2109 2.08873L37.2109 2.08873L37.6141 1.79297ZM32.4284 8.50002L32.0471 8.17659L31.3486 9.00002H32.4284V8.50002ZM36.8581 0.958796L36.6532 1.20033L37.4158 1.84719L37.6207 1.60566L36.8581 0.958796ZM36.4483 1.44187L35.8654 2.12915L36.628 2.77601L37.2109 2.08873L36.4483 1.44187ZM34.6994 3.50371L33.5335 4.87827L34.2961 5.52513L35.462 4.15057L34.6994 3.50371ZM32.3676 6.25282L31.2017 7.62738L31.9643 8.27424L33.1302 6.89968L32.3676 6.25282ZM31.5 8.63809V8.56906H30.5V8.63809H31.5ZM31 8.00002H30V9.00002H31V8.00002ZM28.5 8.50002V9.00002H29.5V8.50002H28.5ZM29 10H29.6344V9.00002H29V10ZM30.2689 10H30.6344V9.00002H30.2689V10ZM31 10H31.1743V9.00002H31V10ZM31.3486 10H32.1743V9.00002H31.3486V10ZM33 10H34V9.00002H33V10ZM35 10H36V9.00002H35V10ZM37 10H38V9.00002H37V10ZM39 10H40V9.00002H39V10ZM41 10H41.6406V9.00002H41V10ZM42.2812 10H42.6406V9.00002H42.2812V10ZM43 10H43.1341V9.00002H43V10ZM43.6713 9.20426L43.5372 9.02148L42.7309 9.613L42.865 9.79578L43.6713 9.20426ZM43.5 9.13446V8.81724H42.5V9.13446H43.5ZM43 8.00002H42.7673V9.00002H43V8.00002ZM42.9377 8.20426L42.3226 7.36588L41.5164 7.9574L42.1314 8.79578L42.9377 8.20426ZM41.0925 5.68912L39.8624 4.01236L39.0561 4.60387L40.2862 6.28064L41.0925 5.68912ZM38.6323 2.33559L38.0172 1.49721L37.2109 2.08873L37.826 2.92711L38.6323 2.33559ZM38.0172 1.49721L37.8299 1.24184L37.0236 1.83336L37.2109 2.08873L38.0172 1.49721ZM41.6975 8.20426L41.0122 7.27013L40.2059 7.86165L40.8912 8.79578L41.6975 8.20426ZM39.6415 5.40187L38.2709 3.53361L37.4646 4.12512L38.8353 5.99339L39.6415 5.40187ZM36.8012 2.57181L36.2069 3.2724L36.9695 3.91926L37.5638 3.21867L36.8012 2.57181ZM35.0184 4.6736L33.8299 6.0748L34.5925 6.72166L35.781 5.32046L35.0184 4.6736ZM32.6414 7.47599L32.0471 8.17659L32.8097 8.82345L33.404 8.12285L32.6414 7.47599ZM32.4284 9.00002H32.7142V8.00002H32.4284V9.00002ZM33 9.00002H34V8.00002H33V9.00002ZM35 9.00002H36V8.00002H35V9.00002ZM37 9.00002H38V8.00002H37V9.00002ZM39 9.00002H40V8.00002H39V9.00002ZM41 9.00002H41.1472V8.00002H41V9.00002ZM26 9.00002C25.8292 9.00002 25.6588 9.00167 25.4888 9.00494L25.5081 10.0048C25.6717 10.0016 25.8356 10 26 10V9.00002ZM25.4967 9.50006L25.4774 9.00043L24.4781 9.03906L24.4974 9.53869L25.4967 9.50006ZM24.9777 9.01975C25.1477 9.01318 25.318 9.00824 25.4888 9.00495L25.4695 8.00513C25.2923 8.00855 25.1155 8.01367 24.9391 8.02049L24.9777 9.01975ZM26 9.00002H26.5V8.00002H26V9.00002ZM26.5 8.50002V9.00002H27.5V8.50002H26.5ZM27 9.00002H26.5V10H27V9.00002ZM47 9.00002H46V10H47V9.00002ZM45.5 9.50002V9.00002H44.5V9.50002H45.5ZM45 9.00002H46V8.00002H45V9.00002ZM46.5 8.50002V9.00002H47.5V8.50002H46.5ZM51 9.00002H50V10H51V9.00002ZM49.5 9.50002V9.00002H48.5V9.50002H49.5ZM49 9.00002H50V8.00002H49V9.00002ZM50.5 8.50002V9.00002H51.5V8.50002H50.5ZM55 9.00002H54V10H55V9.00002ZM53.5 9.50002V9.00002H52.5V9.50002H53.5ZM53 9.00002H54V8.00002H53V9.00002ZM54.5 8.50002V9.00002H55.5V8.50002H54.5ZM59 9.00002H58V10H59V9.00002ZM57.5 9.50002V9.00002H56.5V9.50002H57.5ZM57 9.00002H58V8.00002H57V9.00002ZM58.5 8.50002V9.00002H59.5V8.50002H58.5ZM63 9.00002H62V10H63V9.00002ZM61.5 9.50002V9.00002H60.5V9.50002H61.5ZM61 9.00002H62V8.00002H61V9.00002ZM62.5 8.50002V9.00002H63.5V8.50002H62.5ZM67 9.00002H66V10H67V9.00002ZM65.5 9.50002V9.00002H64.5V9.50002H65.5ZM65 9.00002H66V8.00002H65V9.00002ZM66.5 8.50002V9.00002H67.5V8.50002H66.5ZM71 9.00002H70V10H71V9.00002ZM69.5 9.50002V9.00002H68.5V9.50002H69.5ZM69 9.00002H70V8.00002H69V9.00002ZM70.5 8.50002V9.00002H71.5V8.50002H70.5ZM75 9.00002H74V10H75V9.00002ZM73.5 9.50002V9.00002H72.5V9.50002H73.5ZM73 9.00002H74V8.00002H73V9.00002ZM74.5 8.50002V9.00002H75.5V8.50002H74.5ZM79 9.00002H78V10H79V9.00002ZM77.5 9.50002V9.00002H76.5V9.50002H77.5ZM77 9.00002H78V8.00002H77V9.00002ZM78.5 8.50002V9.00002H79.5V8.50002H78.5ZM83 9.00002H82V10H83V9.00002ZM81.5 9.50002V9.00002H80.5V9.50002H81.5ZM81 9.00002H82V8.00002H81V9.00002ZM82.5 8.50002V9.00002H83.5V8.50002H82.5ZM87 9.00002H86V10H87V9.00002ZM85.5 9.50002V9.00002H84.5V9.50002H85.5ZM85 9.00002H86V8.00002H85V9.00002ZM86.5 8.50002V9.00002H87.5V8.50002H86.5ZM91 9.00002H90V10H91V9.00002ZM89.5 9.50002V9.00002H88.5V9.50002H89.5ZM89 9.00002H90V8.00002H89V9.00002ZM90.5 8.50002V9.00002H91.5V8.50002H90.5ZM95 9.00002H94V10H95V9.00002ZM93.5 9.50002V9.00002H92.5V9.50002H93.5ZM93 9.00002H94V8.00002H93V9.00002ZM94.5 8.50002V9.00002H95.5V8.50002H94.5ZM99 9.00002H98V10H99V9.00002ZM97.5 9.50002V9.00002H96.5V9.50002H97.5ZM97 9.00002H98V8.00002H97V9.00002ZM98.5 8.50002V9.00002H99.5V8.50002H98.5ZM103 9.00002H102V10H103V9.00002ZM101.5 9.50002V9.00002H100.5V9.50002H101.5ZM101 9.00002H102V8.00002H101V9.00002ZM102.5 8.50002V9.00002H103.5V8.50002H102.5ZM107 9.00002H106V10H107V9.00002ZM105.5 9.50002V9.00002H104.5V9.50002H105.5ZM105 9.00002H106V8.00002H105V9.00002ZM106.5 8.50002V9.00002H107.5V8.50002H106.5ZM111 9.00002H110V10H111V9.00002ZM109.5 9.50002V9.00002H108.5V9.50002H109.5ZM109 9.00002H110V8.00002H109V9.00002ZM110.5 8.50002V9.00002H111.5V8.50002H110.5ZM115 9.00002H114V10H115V9.00002ZM113.5 9.50002V9.00002H112.5V9.50002H113.5ZM113 9.00002H114V8.00002H113V9.00002ZM114.5 8.50002V9.00002H115.5V8.50002H114.5ZM119 9.00002H118V10H119V9.00002ZM117.5 9.50002V9.00002H116.5V9.50002H117.5ZM117 9.00002H118V8.00002H117V9.00002ZM118.5 8.50002V9.00002H119.5V8.50002H118.5ZM123 9.00002H122V10H123V9.00002ZM121.5 9.50002V9.00002H120.5V9.50002H121.5ZM121 9.00002H122V8.00002H121V9.00002ZM122.5 8.50002V9.00002H123.5V8.50002H122.5ZM127 9.00002H126V10H127V9.00002ZM125.5 9.50002V9.00002H124.5V9.50002H125.5ZM125 9.00002H126V8.00002H125V9.00002ZM126.5 8.50002V9.00002H127.5V8.50002H126.5ZM131 9.00002H130V10H131V9.00002ZM129.5 9.50002V9.00002H128.5V9.50002H129.5ZM129 9.00002H130V8.00002H129V9.00002ZM130.5 8.50002V9.00002H131.5V8.50002H130.5ZM135 9.00002H134V10H135V9.00002ZM133.5 9.50002V9.00002H132.5V9.50002H133.5ZM133 9.00002H134V8.00002H133V9.00002ZM134.5 8.50002V9.00002H135.5V8.50002H134.5ZM139 9.00002H138V10H139V9.00002ZM137.5 9.50002V9.00002H136.5V9.50002H137.5ZM137 9.00002H138V8.00002H137V9.00002ZM138.5 8.50002V9.00002H139.5V8.50002H138.5ZM143 9.00002H142V10H143V9.00002ZM141.5 9.50002V9.00002H140.5V9.50002H141.5ZM141 9.00002H142V8.00002H141V9.00002ZM142.5 8.50002V9.00002H143.5V8.50002H142.5ZM147 9.00002H146V10H147V9.00002ZM145.5 9.50002V9.00002H144.5V9.50002H145.5ZM145 9.00002H146V8.00002H145V9.00002ZM146.5 8.50002V9.00002H147.5V8.50002H146.5ZM151 9.00002H150V10H151V9.00002ZM149.5 9.50002V9.00002H148.5V9.50002H149.5ZM149 9.00002H150V8.00002H149V9.00002ZM150.5 8.50002V9.00002H151.5V8.50002H150.5ZM155 9.00002H154V10H155V9.00002ZM153.5 9.50002V9.00002H152.5V9.50002H153.5ZM153 9.00002H154V8.00002H153V9.00002ZM154.5 8.50002V9.00002H155.5V8.50002H154.5ZM159 9.00002H158V10H159V9.00002ZM157.5 9.50002V9.00002H156.5V9.50002H157.5ZM157 9.00002H158V8.00002H157V9.00002ZM158.5 8.50002V9.00002H159.5V8.50002H158.5ZM163 9.00002H162V10H163V9.00002ZM161.5 9.50002V9.00002H160.5V9.50002H161.5ZM161 9.00002H162V8.00002H161V9.00002ZM162.5 8.50002V9.00002H163.5V8.50002H162.5ZM167 9.00002H166V10H167V9.00002ZM165.5 9.50002V9.00002H164.5V9.50002H165.5ZM165 9.00002H166V8.00002H165V9.00002ZM166.5 8.50002V9.00002H167.5V8.50002H166.5ZM171 9.00002H170V10H171V9.00002ZM169.5 9.50002V9.00002H168.5V9.50002H169.5ZM169 9.00002H170V8.00002H169V9.00002ZM170.5 8.50002V9.00002H171.5V8.50002H170.5ZM175 9.00002H174V10H175V9.00002ZM173.5 9.50002V9.00002H172.5V9.50002H173.5ZM173 9.00002H174V8.00002H173V9.00002ZM174.5 8.50002V9.00002H175.5V8.50002H174.5ZM179 9.00002H178V10H179V9.00002ZM177.5 9.50002V9.00002H176.5V9.50002H177.5ZM177 9.00002H178V8.00002H177V9.00002ZM178.5 8.50002V9.00002H179.5V8.50002H178.5ZM183 9.00002H182V10H183V9.00002ZM181.5 9.50002V9.00002H180.5V9.50002H181.5ZM181 9.00002H182V8.00002H181V9.00002ZM182.5 8.50002V9.00002H183.5V8.50002H182.5ZM187 9.00002H186V10H187V9.00002ZM185.5 9.50002V9.00002H184.5V9.50002H185.5ZM185 9.00002H186V8.00002H185V9.00002ZM186.5 8.50002V9.00002H187.5V8.50002H186.5ZM191 9.00002H190V10H191V9.00002ZM189.5 9.50002V9.00002H188.5V9.50002H189.5ZM189 9.00002H190V8.00002H189V9.00002ZM190.5 8.50002V9.00002H191.5V8.50002H190.5ZM195 9.00002H194V10H195V9.00002ZM193.5 9.50002V9.00002H192.5V9.50002H193.5ZM193 9.00002H194V8.00002H193V9.00002ZM194.5 8.50002V9.00002H195.5V8.50002H194.5ZM199 9.00002H198V10H199V9.00002ZM197.5 9.50002V9.00002H196.5V9.50002H197.5ZM197 9.00002H198V8.00002H197V9.00002ZM198.5 8.50002V9.00002H199.5V8.50002H198.5ZM203 9.00002H202V10H203V9.00002ZM201.5 9.50002V9.00002H200.5V9.50002H201.5ZM201 9.00002H202V8.00002H201V9.00002ZM202.5 8.50002V9.00002H203.5V8.50002H202.5ZM207 9.00002H206V10H207V9.00002ZM205.5 9.50002V9.00002H204.5V9.50002H205.5ZM205 9.00002H206V8.00002H205V9.00002ZM206.5 8.50002V9.00002H207.5V8.50002H206.5ZM211 9.00002H210V10H211V9.00002ZM209.5 9.50002V9.00002H208.5V9.50002H209.5ZM209 9.00002H210V8.00002H209V9.00002ZM210.5 8.50002V9.00002H211.5V8.50002H210.5ZM215 9.00002H214V10H215V9.00002ZM213.5 9.50002V9.00002H212.5V9.50002H213.5ZM213 9.00002H214V8.00002H213V9.00002ZM214.5 8.50002V9.00002H215.5V8.50002H214.5ZM219 9.00002H218V10H219V9.00002ZM217.5 9.50002V9.00002H216.5V9.50002H217.5ZM217 9.00002H218V8.00002H217V9.00002ZM218.5 8.50002V9.00002H219.5V8.50002H218.5ZM223 9.00002H222V10H223V9.00002ZM221.5 9.50002V9.00002H220.5V9.50002H221.5ZM221 9.00002H222V8.00002H221V9.00002ZM222.5 8.50002V9.00002H223.5V8.50002H222.5ZM227 9.00002H226V10H227V9.00002ZM225.5 9.50002V9.00002H224.5V9.50002H225.5ZM225 9.00002H226V8.00002H225V9.00002ZM226.5 8.50002V9.00002H227.5V8.50002H226.5ZM231 9.00002H230V10H231V9.00002ZM229.5 9.50002V9.00002H228.5V9.50002H229.5ZM229 9.00002H230V8.00002H229V9.00002ZM230.5 8.50002V9.00002H231.5V8.50002H230.5ZM235 9.00002H234V10H235V9.00002ZM233.5 9.50002V9.00002H232.5V9.50002H233.5ZM233 9.00002H234V8.00002H233V9.00002ZM234.5 8.50002V9.00002H235.5V8.50002H234.5ZM239 9.00002H238V10H239V9.00002ZM237.5 9.50002V9.00002H236.5V9.50002H237.5ZM237 9.00002H238V8.00002H237V9.00002ZM238.5 8.50002V9.00002H239.5V8.50002H238.5ZM243 9.00002H242V10H243V9.00002ZM241.5 9.50002V9.00002H240.5V9.50002H241.5ZM241 9.00002H242V8.00002H241V9.00002ZM242.5 8.50002V9.00002H243.5V8.50002H242.5ZM247 9.00002H246V10H247V9.00002ZM245.5 9.50002V9.00002H244.5V9.50002H245.5ZM245 9.00002H246V8.00002H245V9.00002ZM246.5 8.50002V9.00002H247.5V8.50002H246.5ZM251 9.00002H250V10H251V9.00002ZM249.5 9.50002V9.00002H248.5V9.50002H249.5ZM249 9.00002H250V8.00002H249V9.00002ZM250.5 8.50002V9.00002H251.5V8.50002H250.5ZM255 9.00002H254V10H255V9.00002ZM253.5 9.50002V9.00002H252.5V9.50002H253.5ZM253 9.00002H254V8.00002H253V9.00002ZM254.5 8.50002V9.00002H255.5V8.50002H254.5ZM259 9.00002H258V10H259V9.00002ZM257.5 9.50002V9.00002H256.5V9.50002H257.5ZM257 9.00002H258V8.00002H257V9.00002ZM258.5 8.50002V9.00002H259.5V8.50002H258.5ZM263 9.00002H262V10H263V9.00002ZM261.5 9.50002V9.00002H260.5V9.50002H261.5ZM261 9.00002H262V8.00002H261V9.00002ZM262.5 8.50002V9.00002H263.5V8.50002H262.5ZM267 9.00002H266V10H267V9.00002ZM265.5 9.50002V9.00002H264.5V9.50002H265.5ZM265 9.00002H266V8.00002H265V9.00002ZM266.5 8.50002V9.00002H267.5V8.50002H266.5ZM271 9.00002H270V10H271V9.00002ZM269.5 9.50002V9.00002H268.5V9.50002H269.5ZM269 9.00002H270V8.00002H269V9.00002ZM270.5 8.50002V9.00002H271.5V8.50002H270.5ZM275 9.00002H274V10H275V9.00002ZM273.5 9.50002V9.00002H272.5V9.50002H273.5ZM273 9.00002H274V8.00002H273V9.00002ZM274.5 8.50002V9.00002H275.5V8.50002H274.5ZM279 9.00002H278V10H279V9.00002ZM277.5 9.50002V9.00002H276.5V9.50002H277.5ZM277 9.00002H278V8.00002H277V9.00002ZM278.5 8.50002V9.00002H279.5V8.50002H278.5ZM283 9.00002H282V10H283V9.00002ZM281.5 9.50002V9.00002H280.5V9.50002H281.5ZM281 9.00002H282V8.00002H281V9.00002ZM282.5 8.50002V9.00002H283.5V8.50002H282.5ZM285.022 9.01975C284.852 9.01318 284.682 9.00824 284.511 9.00494L284.492 10.0048C284.656 10.0079 284.82 10.0127 284.984 10.019L285.022 9.01975ZM284.5 9.50002V9.00002H283.5V9.50002H284.5ZM284 9.00002C284.171 9.00002 284.341 9.00167 284.511 9.00495L284.531 8.00513C284.354 8.00173 284.177 8.00002 284 8.00002V9.00002ZM284.542 8.5008L284.523 9.00043L285.522 9.03906L285.541 8.53944L284.542 8.5008ZM289.074 9.49491C288.741 9.42907 288.406 9.36958 288.069 9.31658L287.914 10.3045C288.238 10.3554 288.56 10.4126 288.88 10.4759L289.074 9.49491ZM287.496 9.73272L287.554 9.23612L286.561 9.11976L286.503 9.61636L287.496 9.73272ZM287.058 9.17794C287.397 9.21767 287.734 9.26393 288.069 9.31659L288.224 8.32872C287.877 8.27403 287.526 8.22599 287.174 8.18473L287.058 9.17794ZM288.681 8.90737L288.584 9.39786L289.565 9.59195L289.662 9.10146L288.681 8.90737ZM22.9421 9.17794C22.603 9.21767 22.2659 9.26393 21.9309 9.31658L22.0861 10.3045C22.4082 10.2538 22.7324 10.2094 23.0585 10.1711L22.9421 9.17794ZM21.5133 9.88836L21.4163 9.39787L20.4353 9.59194L20.5323 10.0824L21.5133 9.88836ZM20.9258 9.4949C21.2586 9.42907 21.5936 9.36959 21.9308 9.31659L21.7755 8.32872C21.4253 8.38376 21.0774 8.44554 20.7317 8.51392L20.9258 9.4949ZM22.3874 8.73951L22.4455 9.23612L23.4388 9.11976L23.3806 8.62316L22.3874 8.73951ZM293.002 10.6004C292.683 10.4829 292.361 10.3714 292.037 10.2661L291.728 11.2172C292.04 11.3184 292.349 11.4256 292.655 11.5386L293.002 10.6004ZM291.406 10.5869L291.542 10.1056L290.579 9.83461L290.444 10.3159L291.406 10.5869ZM291.06 9.97009C291.389 10.0625 291.714 10.1612 292.037 10.2661L292.346 9.31494C292.011 9.20603 291.672 9.10351 291.331 9.00751L291.06 9.97009ZM292.706 9.95825L292.532 10.4273L293.471 10.7735L293.644 10.3045L292.706 9.95825ZM18.9397 9.97009C18.6114 10.0625 18.2857 10.1612 17.9628 10.2661L18.2717 11.2172C18.582 11.1164 18.8951 11.0215 19.2106 10.9327L18.9397 9.97009ZM17.6406 10.8964L17.4675 10.4273L16.5294 10.7735L16.7025 11.2426L17.6406 10.8964ZM16.9985 10.6004C17.317 10.4829 17.6385 10.3714 17.9628 10.2661L17.654 9.31495C17.3171 9.42433 16.9831 9.54016 16.6522 9.66228L16.9985 10.6004ZM18.3229 9.62429L18.4584 10.1056L19.4209 9.83461L19.2855 9.35331L18.3229 9.62429ZM296.706 12.311C296.41 12.1446 296.11 11.9839 295.806 11.8289L295.352 12.7196C295.643 12.8685 295.932 13.0231 296.217 13.183L296.706 12.311ZM295.132 12.0462L295.342 11.5923L294.434 11.1731L294.224 11.627L295.132 12.0462ZM294.888 11.3827C295.197 11.5256 295.504 11.6744 295.806 11.8289L296.261 10.9383C295.947 10.7778 295.629 10.6232 295.307 10.4748L294.888 11.3827ZM296.515 11.6303L296.27 12.0663L297.142 12.5557L297.387 12.1197L296.515 11.6303ZM15.112 11.3827C14.8026 11.5256 14.4964 11.6744 14.1937 11.8289L14.6484 12.7196C14.9395 12.571 15.2338 12.4279 15.5313 12.2906L15.112 11.3827ZM13.9744 12.5023L13.7297 12.0663L12.8577 12.5557L13.1024 12.9917L13.9744 12.5023ZM13.2937 12.311C13.5902 12.1446 13.8902 11.9839 14.1937 11.8289L13.739 10.9383C13.4238 11.0992 13.1122 11.2661 12.8043 11.4389L13.2937 12.311ZM14.4485 11.1384L14.6581 11.5923L15.566 11.1731L15.3564 10.7191L14.4485 11.1384ZM300.097 14.5808C299.83 14.37 299.559 14.1643 299.283 13.9639L298.695 14.7725C298.96 14.9652 299.221 15.163 299.477 15.3657L300.097 14.5808ZM298.583 14.073L298.861 13.6575L298.031 13.1012L297.752 13.5166L298.583 14.073ZM298.446 13.3793C298.729 13.5688 299.008 13.7637 299.283 13.9639L299.872 13.1554C299.586 12.9475 299.296 12.7451 299.002 12.5484L298.446 13.3793ZM300.014 13.8785L299.704 14.271L300.489 14.8906L300.799 14.4982L300.014 13.8785ZM11.554 13.3793C11.2709 13.5688 10.9918 13.7637 10.7168 13.9639L11.3052 14.7725C11.5697 14.58 11.8381 14.3925 12.1103 14.2103L11.554 13.3793ZM10.6053 14.6635L10.2955 14.271L9.5106 14.8906L9.8204 15.2831L10.6053 14.6635ZM9.90305 14.5808C10.1701 14.37 10.4414 14.1643 10.7168 13.9639L10.1283 13.1554C9.8424 13.3635 9.56072 13.577 9.28344 13.7959L9.90305 14.5808ZM10.8603 13.242L11.1385 13.6575L11.9695 13.1012L11.6913 12.6857L10.8603 13.242ZM303.093 17.3512C302.861 17.1013 302.625 16.8559 302.385 16.6152L301.678 17.3223C301.909 17.5538 302.136 17.7898 302.358 18.0302L303.093 17.3512ZM301.676 16.614L302.016 16.247L301.282 15.568L300.942 15.9351L301.676 16.614ZM301.649 15.9075C301.899 16.1386 302.144 16.3746 302.385 16.6152L303.092 15.9081C302.842 15.6583 302.587 15.4133 302.328 15.1733L301.649 15.9075ZM303.12 16.6446L302.753 16.9841L303.432 17.7183L303.799 17.3788L303.12 16.6446ZM8.35118 15.9075C8.10126 16.1386 7.85589 16.3746 7.61522 16.6152L8.32233 17.3224C8.5538 17.0909 8.78979 16.8639 9.03015 16.6416L8.35118 15.9075ZM7.61402 17.3236L7.24694 16.9841L6.56796 17.7183L6.93504 18.0578L7.61402 17.3236ZM6.90745 17.3512C7.13858 17.1013 7.37455 16.8559 7.61522 16.6152L6.90812 15.9081C6.65825 16.158 6.41325 16.4128 6.17329 16.6722L6.90745 17.3512ZM7.64461 15.8799L7.9841 16.247L8.71826 15.568L8.37877 15.2009L7.64461 15.8799ZM305.621 20.554C305.431 20.271 305.236 19.9918 305.036 19.7168L304.228 20.3052C304.42 20.5697 304.608 20.8381 304.79 21.1103L305.621 20.554ZM304.337 19.6053L304.729 19.2955L304.109 18.5106L303.717 18.8204L304.337 19.6053ZM304.419 18.9031C304.63 19.1701 304.836 19.4414 305.036 19.7168L305.845 19.1284C305.637 18.8424 305.423 18.5607 305.204 18.2835L304.419 18.9031ZM305.758 19.8604L305.343 20.1385L305.899 20.9695L306.314 20.6913L305.758 19.8604ZM5.58079 18.9031C5.36998 19.1701 5.1643 19.4414 4.96389 19.7168L5.77244 20.3052C5.96516 20.0404 6.16296 19.7795 6.3657 19.5227L5.58079 18.9031ZM5.07294 20.4167L4.65746 20.1385L4.10114 20.9695L4.51662 21.2477L5.07294 20.4167ZM4.3793 20.554C4.5688 20.271 4.76371 19.9918 4.96388 19.7168L4.15534 19.1284C3.94749 19.4139 3.7451 19.7038 3.54833 19.9977L4.3793 20.554ZM4.87853 18.9857L5.27099 19.2955L5.8906 18.5106L5.49814 18.2008L4.87853 18.9857ZM307.617 24.1121C307.474 23.8026 307.326 23.4965 307.171 23.1937L306.28 23.6484C306.429 23.9395 306.572 24.2338 306.709 24.5313L307.617 24.1121ZM306.498 22.9745L306.934 22.7298L306.444 21.8577L306.008 22.1024L306.498 22.9745ZM306.689 22.2937C306.855 22.5902 307.016 22.8903 307.171 23.1938L308.062 22.7391C307.901 22.4238 307.734 22.1122 307.561 21.8043L306.689 22.2937ZM307.862 23.4485L307.408 23.6581L307.827 24.566L308.281 24.3564L307.862 23.4485ZM3.31098 22.2937C3.1446 22.5902 2.98386 22.8902 2.82891 23.1937L3.71955 23.6484C3.86852 23.3567 4.02306 23.0682 4.18303 22.7831L3.31098 22.2937ZM3.04622 23.8678L2.59228 23.6581L2.17304 24.566L2.62698 24.7756L3.04622 23.8678ZM2.38266 24.1121C2.52555 23.8026 2.67435 23.4965 2.8289 23.1938L1.93826 22.7391C1.77774 23.0535 1.6232 23.3714 1.47479 23.6928L2.38266 24.1121ZM2.63024 22.4851L3.06627 22.7298L3.55568 21.8577L3.11966 21.613L2.63024 22.4851ZM309.03 27.9397C308.938 27.6114 308.839 27.2857 308.734 26.9628L307.783 27.2717C307.884 27.5821 307.979 27.8951 308.067 28.2107L309.03 27.9397ZM308.104 26.6407L308.573 26.4676L308.226 25.5294L307.757 25.7025L308.104 26.6407ZM308.4 25.9985C308.517 26.317 308.629 26.6386 308.734 26.9628L309.685 26.654C309.576 26.3171 309.46 25.9832 309.338 25.6523L308.4 25.9985ZM309.376 27.3229L308.894 27.4584L309.165 28.421L309.647 28.2855L309.376 27.3229ZM2.2426 25.7025L1.77353 25.5294L1.4273 26.4676L1.89638 26.6407L2.2426 25.7025ZM0.662263 25.6523C0.540141 25.9832 0.424313 26.3171 0.314926 26.654L1.26604 26.9628C1.37134 26.6385 1.48285 26.317 1.60041 25.9985L0.662263 25.6523ZM0.353293 28.2855L0.834587 28.421L1.10556 27.4584L0.62427 27.3229L0.353293 28.2855ZM1.93266 28.2106C2.02149 27.8951 2.11637 27.5821 2.21715 27.2717L1.26604 26.9628C1.16119 27.2857 1.06249 27.6114 0.970075 27.9397L1.93266 28.2106ZM309.822 31.9422C309.782 31.603 309.736 31.2659 309.683 30.9309L308.696 31.0862C308.746 31.4083 308.791 31.7324 308.829 32.0585L309.822 31.9422ZM309.112 30.5133L309.602 30.4163L309.408 29.4353L308.918 29.5323L309.112 30.5133ZM309.505 29.9258C309.571 30.2586 309.63 30.5936 309.683 30.9308L310.671 30.7756C310.616 30.4254 310.554 30.0774 310.486 29.7317L309.505 29.9258ZM310.261 31.3874L309.764 31.4456L309.88 32.4388L310.377 32.3806L310.261 31.3874ZM1.08241 29.5323L0.59192 29.4353L0.397851 30.4163L0.888345 30.5133L1.08241 29.5323ZM-0.486102 29.7317C-0.55448 30.0774 -0.616258 30.4254 -0.671301 30.7756L0.316571 30.9308C0.369571 30.5936 0.429053 30.2586 0.494885 29.9258L-0.486102 29.7317ZM-0.376864 32.3806L0.119739 32.4388L0.236099 31.4456L-0.260504 31.3874L-0.376864 32.3806ZM1.17113 32.0585C1.20933 31.7324 1.25381 31.4083 1.30443 31.0862L0.316561 30.9309C0.263906 31.2659 0.21765 31.603 0.177919 31.9422L1.17113 32.0585ZM310 35C310 34.8292 309.998 34.6588 309.995 34.4888L308.995 34.5081C308.998 34.6717 309 34.8357 309 35H310ZM309.5 34.4967L310 34.4774L309.961 33.4781L309.461 33.4974L309.5 34.4967ZM309.98 33.9778C309.987 34.1477 309.992 34.318 309.995 34.4888L310.995 34.4695C310.991 34.2923 310.986 34.1155 310.98 33.9391L309.98 33.9778ZM310 35C310 35.1708 309.998 35.3412 309.995 35.5113L310.995 35.5306C310.998 35.3541 311 35.1773 311 35H310ZM310.499 35.542L310 35.5227L309.961 36.5219L310.461 36.5412L310.499 35.542ZM309.98 36.0223C309.987 35.8523 309.992 35.682 309.995 35.5112L308.995 35.4919C308.992 35.6562 308.987 35.8202 308.981 35.9837L309.98 36.0223ZM0.53867 33.4974L0.0390437 33.4781L0.000412285 34.4774L0.500039 34.4967L0.53867 33.4974ZM-0.979525 33.9391C-0.986345 34.1155 -0.991471 34.2923 -0.994888 34.4695L0.00492603 34.4888C0.00821912 34.318 0.0131581 34.1477 0.019728 33.9778L-0.979525 33.9391ZM-1 35C-1 35.1773 -0.998291 35.3541 -0.994888 35.5305L0.00492615 35.5113C0.00164706 35.3412 0 35.1708 0 35H-1ZM-0.460581 36.5412L0.0390459 36.5219L0.000410616 35.5227L-0.499216 35.542L-0.460581 36.5412ZM1.01898 35.9837C1.01266 35.8202 1.00791 35.6563 1.00474 35.4919L0.00492537 35.5112C0.00821847 35.682 0.0131578 35.8523 0.0197282 36.0223L1.01898 35.9837ZM1 35C1 34.8357 1.00158 34.6717 1.00474 34.5081L0.00492537 34.4888C0.00164676 34.6588 0 34.8292 0 35H1ZM309.505 40.0742C309.571 39.7414 309.63 39.4064 309.683 39.0691L308.696 38.9139C308.645 39.2381 308.587 39.5602 308.524 39.8802L309.505 40.0742ZM309.267 38.4963L309.764 38.5545L309.88 37.5613L309.384 37.5031L309.267 38.4963ZM309.822 38.0579C309.782 38.397 309.736 38.7342 309.683 39.0692L310.671 39.2245C310.726 38.8765 310.774 38.5264 310.815 38.1742L309.822 38.0579ZM310.093 39.6808L309.602 39.5837L309.408 40.5647L309.899 40.6618L310.093 39.6808ZM0.616344 37.5031L0.11974 37.5613L0.2361 38.5545L0.732703 38.4963L0.616344 37.5031ZM-0.815287 38.1742C-0.774028 38.5264 -0.725988 38.8765 -0.6713 39.2245L0.316572 39.0692C0.263914 38.7342 0.217653 38.397 0.17792 38.0579L-0.815287 38.1742ZM0.101426 40.6618L0.59192 40.5647L0.397851 39.5837L-0.0926426 39.6808L0.101426 40.6618ZM1.47587 39.8802C1.41258 39.5602 1.35539 39.2381 1.30443 38.9139L0.316561 39.0691C0.369565 39.4064 0.42905 39.7414 0.494886 40.0742L1.47587 39.8802ZM308.4 44.0016C308.517 43.683 308.629 43.3615 308.734 43.0372L307.783 42.7284C307.682 43.0401 307.574 43.3491 307.461 43.6553L308.4 44.0016ZM308.413 42.4062L308.894 42.5417L309.165 41.5791L308.684 41.4436L308.413 42.4062ZM309.03 42.0604C308.938 42.3886 308.839 42.7143 308.734 43.0372L309.685 43.346C309.794 43.0106 309.897 42.6724 309.993 42.3314L309.03 42.0604ZM309.042 43.7056L308.573 43.5325L308.226 44.4706L308.696 44.6437L309.042 43.7056ZM1.31588 41.4436L0.834588 41.5791L1.10556 42.5417L1.58685 42.4062L1.31588 41.4436ZM0.00748873 42.3313C0.103487 42.6724 0.206014 43.0106 0.314926 43.346L1.26604 43.0372C1.16119 42.7143 1.06249 42.3887 0.970075 42.0604L0.00748873 42.3313ZM1.30445 44.6437L1.77353 44.4706L1.4273 43.5325L0.958227 43.7056L1.30445 44.6437ZM2.53857 43.6553C2.42556 43.3491 2.31837 43.0401 2.21715 42.7284L1.26604 43.0372C1.37134 43.3615 1.48285 43.683 1.60041 44.0016L2.53857 43.6553ZM2.62698 45.2244L2.17304 45.434L2.59228 46.3419L3.04622 46.1323L2.62698 45.2244ZM1.47479 46.3072C1.6232 46.6286 1.77774 46.9466 1.93826 47.261L2.8289 46.8063C2.67435 46.5036 2.52555 46.1974 2.38266 45.888L1.47479 46.3072ZM3.11966 48.387L3.55568 48.1423L3.06627 47.2703L2.63024 47.515L3.11966 48.387ZM4.18303 47.2169C4.02306 46.9319 3.86852 46.6434 3.71955 46.3516L2.82891 46.8063C2.98386 47.1098 3.1446 47.4099 3.31097 47.7063L4.18303 47.2169ZM306.008 47.8976L306.444 48.1423L306.934 47.2703L306.498 47.0256L306.008 47.8976ZM307.561 48.1957C307.734 47.8878 307.901 47.5762 308.062 47.261L307.171 46.8063C307.016 47.1098 306.855 47.4098 306.689 47.7063L307.561 48.1957ZM308.281 45.6437L307.827 45.434L307.408 46.3419L307.862 46.5515L308.281 45.6437ZM306.709 45.4687C306.572 45.7662 306.429 46.0605 306.28 46.3516L307.171 46.8063C307.326 46.5036 307.474 46.1974 307.617 45.888L306.709 45.4687ZM4.51662 48.7524L4.10114 49.0305L4.65746 49.8615L5.07294 49.5834L4.51662 48.7524ZM3.54833 50.0023C3.7451 50.2963 3.94749 50.5861 4.15533 50.8717L4.96388 50.2832C4.7637 50.0082 4.5688 49.7291 4.3793 49.446L3.54833 50.0023ZM5.49814 51.7992L5.89059 51.4894L5.27098 50.7045L4.87853 51.0143L5.49814 51.7992ZM6.3657 50.4774C6.16296 50.2205 5.96516 49.9596 5.77244 49.6948L4.96389 50.2833C5.1643 50.5586 5.36998 50.8299 5.58079 51.097L6.3657 50.4774ZM303.717 51.1796L304.109 51.4894L304.729 50.7045L304.337 50.3947L303.717 51.1796ZM305.204 51.7166C305.423 51.4393 305.637 51.1576 305.845 50.8717L305.036 50.2832C304.836 50.5586 304.63 50.8299 304.419 51.097L305.204 51.7166ZM306.314 49.3087L305.899 49.0305L305.343 49.8615L305.758 50.1397L306.314 49.3087ZM304.79 48.8897C304.608 49.1619 304.42 49.4303 304.228 49.6948L305.036 50.2833C305.236 50.0082 305.431 49.7291 305.621 49.446L304.79 48.8897ZM6.93504 51.9423L6.56796 52.2818L7.24693 53.0159L7.61401 52.6764L6.93504 51.9423ZM6.17329 53.3278C6.41325 53.5873 6.65824 53.842 6.90811 54.0919L7.61522 53.3848C7.37455 53.1441 7.13858 52.8988 6.90745 52.6488L6.17329 53.3278ZM8.37877 54.7991L8.71826 54.4321L7.98409 53.7531L7.64461 54.1202L8.37877 54.7991ZM9.03015 53.3584C8.78979 53.1361 8.5538 52.9092 8.32233 52.6777L7.61522 53.3848C7.85589 53.6255 8.10126 53.8614 8.35118 54.0926L9.03015 53.3584ZM300.942 54.065L301.282 54.4321L302.016 53.7531L301.676 53.386L300.942 54.065ZM302.328 54.8267C302.587 54.5868 302.842 54.3418 303.092 54.0919L302.385 53.3848C302.144 53.6255 301.899 53.8614 301.649 54.0926L302.328 54.8267ZM303.799 52.6212L303.432 52.2818L302.753 53.0159L303.12 53.3554L303.799 52.6212ZM302.358 51.9699C302.136 52.2102 301.909 52.4462 301.678 52.6777L302.385 53.3848C302.625 53.1441 302.861 52.8988 303.093 52.6488L302.358 51.9699ZM297.752 56.4834L298.031 56.8989L298.861 56.3426L298.583 55.9271L297.752 56.4834ZM299.002 57.4517C299.296 57.2549 299.586 57.0525 299.872 56.8447L299.283 56.0361C299.008 56.2363 298.729 56.4312 298.446 56.6207L299.002 57.4517ZM300.799 55.5019L300.489 55.1094L299.704 55.729L300.014 56.1215L300.799 55.5019ZM299.477 54.6343C299.221 54.8371 298.96 55.0349 298.695 55.2276L299.283 56.0361C299.559 55.8357 299.83 55.63 300.097 55.4192L299.477 54.6343ZM9.8204 54.717L9.5106 55.1094L10.2955 55.729L10.6053 55.3366L9.8204 54.717ZM9.28344 56.2041C9.56072 56.423 9.8424 56.6366 10.1283 56.8447L10.7168 56.0361C10.4414 55.8357 10.1701 55.63 9.90305 55.4192L9.28344 56.2041ZM11.6913 57.3144L11.9695 56.8989L11.1385 56.3426L10.8603 56.758L11.6913 57.3144ZM12.1103 55.7897C11.8381 55.6075 11.5697 55.4201 11.3052 55.2276L10.7167 56.0361C10.9918 56.2363 11.2709 56.4312 11.554 56.6207L12.1103 55.7897ZM13.1024 57.0083L12.8577 57.4443L13.7297 57.9338L13.9744 57.4977L13.1024 57.0083ZM12.8043 58.5611C13.1122 58.7339 13.4238 58.9008 13.739 59.0618L14.1937 58.1711C13.8902 58.0162 13.5902 57.8554 13.2937 57.689L12.8043 58.5611ZM15.3564 59.2809L15.566 58.827L14.6581 58.4077L14.4485 58.8617L15.3564 59.2809ZM15.5313 57.7095C15.2338 57.5721 14.9395 57.4291 14.6484 57.2805L14.1937 58.1711C14.4964 58.3257 14.8026 58.4745 15.112 58.6174L15.5313 57.7095ZM294.224 58.373L294.434 58.827L295.342 58.4077L295.132 57.9538L294.224 58.373ZM295.307 59.5252C295.629 59.3768 295.947 59.2223 296.261 59.0618L295.806 58.1711C295.504 58.3257 295.197 58.4745 294.888 58.6174L295.307 59.5252ZM297.387 57.8804L297.142 57.4443L296.27 57.9338L296.515 58.3698L297.387 57.8804ZM296.217 56.817C295.932 56.977 295.643 57.1315 295.352 57.2805L295.806 58.1711C296.11 58.0162 296.41 57.8554 296.706 57.689L296.217 56.817ZM290.444 59.6841L290.579 60.1654L291.542 59.8945L291.406 59.4132L290.444 59.6841ZM291.331 60.9925C291.672 60.8965 292.011 60.794 292.346 60.6851L292.037 59.734C291.714 59.8388 291.389 59.9375 291.06 60.0299L291.331 60.9925ZM293.644 59.6956L293.471 59.2265L292.532 59.5727L292.706 60.0418L293.644 59.6956ZM292.655 58.4614C292.349 58.5745 292.04 58.6816 291.728 58.7829L292.037 59.734C292.361 59.6287 292.683 59.5172 293.002 59.3996L292.655 58.4614ZM16.7025 58.7574L16.5294 59.2265L17.4675 59.5727L17.6406 59.1036L16.7025 58.7574ZM16.6522 60.3378C16.9831 60.4599 17.3171 60.5757 17.654 60.6851L17.9628 59.734C17.6385 59.6287 17.317 59.5172 16.9985 59.3996L16.6522 60.3378ZM19.2855 60.6467L19.4209 60.1654L18.4584 59.8945L18.3229 60.3758L19.2855 60.6467ZM19.2106 59.0674C18.8951 58.9785 18.582 58.8837 18.2717 58.7829L17.9628 59.734C18.2857 59.8388 18.6114 59.9375 18.9396 60.0299L19.2106 59.0674ZM20.5323 59.9176L20.4353 60.4081L21.4163 60.6022L21.5133 60.1117L20.5323 59.9176ZM20.7317 61.4861C21.0773 61.5545 21.4253 61.6163 21.7755 61.6713L21.9308 60.6834C21.5936 60.6304 21.2586 60.571 20.9258 60.5051L20.7317 61.4861ZM23.3806 61.3769L23.4387 60.8803L22.4455 60.7639L22.3874 61.2605L23.3806 61.3769ZM23.0585 59.8289C22.7324 59.7907 22.4082 59.7462 22.0861 59.6956L21.9309 60.6835C22.2659 60.7361 22.603 60.7824 22.9421 60.8221L23.0585 59.8289ZM286.503 60.3837L286.561 60.8803L287.554 60.7639L287.496 60.2673L286.503 60.3837ZM287.174 61.8153C287.526 61.774 287.876 61.726 288.224 61.6713L288.069 60.6834C287.734 60.7361 287.397 60.7824 287.058 60.8221L287.174 61.8153ZM289.662 60.8986L289.565 60.4081L288.584 60.6022L288.681 61.0927L289.662 60.8986ZM288.88 59.5241C288.56 59.5874 288.238 59.6446 287.914 59.6956L288.069 60.6835C288.406 60.6305 288.741 60.571 289.074 60.5051L288.88 59.5241ZM24.4974 60.4613L24.4781 60.961L25.4774 60.9996L25.4967 60.5L24.4974 60.4613ZM24.9391 61.9795C25.1155 61.9864 25.2923 61.9915 25.4695 61.9949L25.4888 60.9951C25.318 60.9918 25.1477 60.9869 24.9777 60.9803L24.9391 61.9795ZM26.5 61.5V61H25.5V61.5H26.5ZM26 60C25.8356 60 25.6717 59.9984 25.5081 59.9953L25.4888 60.9951C25.6588 60.9984 25.8292 61 26 61V60ZM284 60H283.5V61H284V60ZM282.5 60.5V61H283.5V60.5H282.5ZM283 62H283.5V61H283V62ZM284 62C284.177 62 284.354 61.9983 284.531 61.9949L284.511 60.9951C284.341 60.9984 284.171 61 284 61V62ZM285.541 61.4606L285.522 60.961L284.523 60.9996L284.542 61.4992L285.541 61.4606ZM284.984 59.981C284.82 59.9874 284.656 59.9921 284.492 59.9953L284.511 60.9951C284.682 60.9918 284.852 60.9869 285.022 60.9803L284.984 59.981ZM26.5 60.5V61H27.5V60.5H26.5ZM27 62H28V61H27V62ZM29.5 61.5V61H28.5V61.5H29.5ZM29 60H28V61H29V60ZM30.5 60.5V61H31.5V60.5H30.5ZM31 62H32V61H31V62ZM33.5 61.5V61H32.5V61.5H33.5ZM33 60H32V61H33V60ZM34.5 60.5V61H35.5V60.5H34.5ZM35 62H36V61H35V62ZM37.5 61.5V61H36.5V61.5H37.5ZM37 60H36V61H37V60ZM38.5 60.5V61H39.5V60.5H38.5ZM39 62H40V61H39V62ZM41.5 61.5V61H40.5V61.5H41.5ZM41 60H40V61H41V60ZM42.5 60.5V61H43.5V60.5H42.5ZM43 62H44V61H43V62ZM45.5 61.5V61H44.5V61.5H45.5ZM45 60H44V61H45V60ZM46.5 60.5V61H47.5V60.5H46.5ZM47 62H48V61H47V62ZM49.5 61.5V61H48.5V61.5H49.5ZM49 60H48V61H49V60ZM50.5 60.5V61H51.5V60.5H50.5ZM51 62H52V61H51V62ZM53.5 61.5V61H52.5V61.5H53.5ZM53 60H52V61H53V60ZM54.5 60.5V61H55.5V60.5H54.5ZM55 62H56V61H55V62ZM57.5 61.5V61H56.5V61.5H57.5ZM57 60H56V61H57V60ZM58.5 60.5V61H59.5V60.5H58.5ZM59 62H60V61H59V62ZM61.5 61.5V61H60.5V61.5H61.5ZM61 60H60V61H61V60ZM62.5 60.5V61H63.5V60.5H62.5ZM63 62H64V61H63V62ZM65.5 61.5V61H64.5V61.5H65.5ZM65 60H64V61H65V60ZM66.5 60.5V61H67.5V60.5H66.5ZM67 62H68V61H67V62ZM69.5 61.5V61H68.5V61.5H69.5ZM69 60H68V61H69V60ZM70.5 60.5V61H71.5V60.5H70.5ZM71 62H72V61H71V62ZM73.5 61.5V61H72.5V61.5H73.5ZM73 60H72V61H73V60ZM74.5 60.5V61H75.5V60.5H74.5ZM75 62H76V61H75V62ZM77.5 61.5V61H76.5V61.5H77.5ZM77 60H76V61H77V60ZM78.5 60.5V61H79.5V60.5H78.5ZM79 62H80V61H79V62ZM81.5 61.5V61H80.5V61.5H81.5ZM81 60H80V61H81V60ZM82.5 60.5V61H83.5V60.5H82.5ZM83 62H84V61H83V62ZM85.5 61.5V61H84.5V61.5H85.5ZM85 60H84V61H85V60ZM86.5 60.5V61H87.5V60.5H86.5ZM87 62H88V61H87V62ZM89.5 61.5V61H88.5V61.5H89.5ZM89 60H88V61H89V60ZM90.5 60.5V61H91.5V60.5H90.5ZM91 62H92V61H91V62ZM93.5 61.5V61H92.5V61.5H93.5ZM93 60H92V61H93V60ZM94.5 60.5V61H95.5V60.5H94.5ZM95 62H96V61H95V62ZM97.5 61.5V61H96.5V61.5H97.5ZM97 60H96V61H97V60ZM98.5 60.5V61H99.5V60.5H98.5ZM99 62H100V61H99V62ZM101.5 61.5V61H100.5V61.5H101.5ZM101 60H100V61H101V60ZM102.5 60.5V61H103.5V60.5H102.5ZM103 62H104V61H103V62ZM105.5 61.5V61H104.5V61.5H105.5ZM105 60H104V61H105V60ZM106.5 60.5V61H107.5V60.5H106.5ZM107 62H108V61H107V62ZM109.5 61.5V61H108.5V61.5H109.5ZM109 60H108V61H109V60ZM110.5 60.5V61H111.5V60.5H110.5ZM111 62H112V61H111V62ZM113.5 61.5V61H112.5V61.5H113.5ZM113 60H112V61H113V60ZM114.5 60.5V61H115.5V60.5H114.5ZM115 62H116V61H115V62ZM117.5 61.5V61H116.5V61.5H117.5ZM117 60H116V61H117V60ZM118.5 60.5V61H119.5V60.5H118.5ZM119 62H120V61H119V62ZM121.5 61.5V61H120.5V61.5H121.5ZM121 60H120V61H121V60ZM122.5 60.5V61H123.5V60.5H122.5ZM123 62H124V61H123V62ZM125.5 61.5V61H124.5V61.5H125.5ZM125 60H124V61H125V60ZM126.5 60.5V61H127.5V60.5H126.5ZM127 62H128V61H127V62ZM129.5 61.5V61H128.5V61.5H129.5ZM129 60H128V61H129V60ZM130.5 60.5V61H131.5V60.5H130.5ZM131 62H132V61H131V62ZM133.5 61.5V61H132.5V61.5H133.5ZM133 60H132V61H133V60ZM134.5 60.5V61H135.5V60.5H134.5ZM135 62H136V61H135V62ZM137.5 61.5V61H136.5V61.5H137.5ZM137 60H136V61H137V60ZM138.5 60.5V61H139.5V60.5H138.5ZM139 62H140V61H139V62ZM141.5 61.5V61H140.5V61.5H141.5ZM141 60H140V61H141V60ZM142.5 60.5V61H143.5V60.5H142.5ZM143 62H144V61H143V62ZM145.5 61.5V61H144.5V61.5H145.5ZM145 60H144V61H145V60ZM146.5 60.5V61H147.5V60.5H146.5ZM147 62H148V61H147V62ZM149.5 61.5V61H148.5V61.5H149.5ZM149 60H148V61H149V60ZM150.5 60.5V61H151.5V60.5H150.5ZM151 62H152V61H151V62ZM153.5 61.5V61H152.5V61.5H153.5ZM153 60H152V61H153V60ZM154.5 60.5V61H155.5V60.5H154.5ZM155 62H156V61H155V62ZM157.5 61.5V61H156.5V61.5H157.5ZM157 60H156V61H157V60ZM158.5 60.5V61H159.5V60.5H158.5ZM159 62H160V61H159V62ZM161.5 61.5V61H160.5V61.5H161.5ZM161 60H160V61H161V60ZM162.5 60.5V61H163.5V60.5H162.5ZM163 62H164V61H163V62ZM165.5 61.5V61H164.5V61.5H165.5ZM165 60H164V61H165V60ZM166.5 60.5V61H167.5V60.5H166.5ZM167 62H168V61H167V62ZM169.5 61.5V61H168.5V61.5H169.5ZM169 60H168V61H169V60ZM170.5 60.5V61H171.5V60.5H170.5ZM171 62H172V61H171V62ZM173.5 61.5V61H172.5V61.5H173.5ZM173 60H172V61H173V60ZM174.5 60.5V61H175.5V60.5H174.5ZM175 62H176V61H175V62ZM177.5 61.5V61H176.5V61.5H177.5ZM177 60H176V61H177V60ZM178.5 60.5V61H179.5V60.5H178.5ZM179 62H180V61H179V62ZM181.5 61.5V61H180.5V61.5H181.5ZM181 60H180V61H181V60ZM182.5 60.5V61H183.5V60.5H182.5ZM183 62H184V61H183V62ZM185.5 61.5V61H184.5V61.5H185.5ZM185 60H184V61H185V60ZM186.5 60.5V61H187.5V60.5H186.5ZM187 62H188V61H187V62ZM189.5 61.5V61H188.5V61.5H189.5ZM189 60H188V61H189V60ZM190.5 60.5V61H191.5V60.5H190.5ZM191 62H192V61H191V62ZM193.5 61.5V61H192.5V61.5H193.5ZM193 60H192V61H193V60ZM194.5 60.5V61H195.5V60.5H194.5ZM195 62H196V61H195V62ZM197.5 61.5V61H196.5V61.5H197.5ZM197 60H196V61H197V60ZM198.5 60.5V61H199.5V60.5H198.5ZM199 62H200V61H199V62ZM201.5 61.5V61H200.5V61.5H201.5ZM201 60H200V61H201V60ZM202.5 60.5V61H203.5V60.5H202.5ZM203 62H204V61H203V62ZM205.5 61.5V61H204.5V61.5H205.5ZM205 60H204V61H205V60ZM206.5 60.5V61H207.5V60.5H206.5ZM207 62H208V61H207V62ZM209.5 61.5V61H208.5V61.5H209.5ZM209 60H208V61H209V60ZM210.5 60.5V61H211.5V60.5H210.5ZM211 62H212V61H211V62ZM213.5 61.5V61H212.5V61.5H213.5ZM213 60H212V61H213V60ZM214.5 60.5V61H215.5V60.5H214.5ZM215 62H216V61H215V62ZM217.5 61.5V61H216.5V61.5H217.5ZM217 60H216V61H217V60ZM218.5 60.5V61H219.5V60.5H218.5ZM219 62H220V61H219V62ZM221.5 61.5V61H220.5V61.5H221.5ZM221 60H220V61H221V60ZM222.5 60.5V61H223.5V60.5H222.5ZM223 62H224V61H223V62ZM225.5 61.5V61H224.5V61.5H225.5ZM225 60H224V61H225V60ZM226.5 60.5V61H227.5V60.5H226.5ZM227 62H228V61H227V62ZM229.5 61.5V61H228.5V61.5H229.5ZM229 60H228V61H229V60ZM230.5 60.5V61H231.5V60.5H230.5ZM231 62H232V61H231V62ZM233.5 61.5V61H232.5V61.5H233.5ZM233 60H232V61H233V60ZM234.5 60.5V61H235.5V60.5H234.5ZM235 62H236V61H235V62ZM237.5 61.5V61H236.5V61.5H237.5ZM237 60H236V61H237V60ZM238.5 60.5V61H239.5V60.5H238.5ZM239 62H240V61H239V62ZM241.5 61.5V61H240.5V61.5H241.5ZM241 60H240V61H241V60ZM242.5 60.5V61H243.5V60.5H242.5ZM243 62H244V61H243V62ZM245.5 61.5V61H244.5V61.5H245.5ZM245 60H244V61H245V60ZM246.5 60.5V61H247.5V60.5H246.5ZM247 62H248V61H247V62ZM249.5 61.5V61H248.5V61.5H249.5ZM249 60H248V61H249V60ZM250.5 60.5V61H251.5V60.5H250.5ZM251 62H252V61H251V62ZM253.5 61.5V61H252.5V61.5H253.5ZM253 60H252V61H253V60ZM254.5 60.5V61H255.5V60.5H254.5ZM255 62H256V61H255V62ZM257.5 61.5V61H256.5V61.5H257.5ZM257 60H256V61H257V60ZM258.5 60.5V61H259.5V60.5H258.5ZM259 62H260V61H259V62ZM261.5 61.5V61H260.5V61.5H261.5ZM261 60H260V61H261V60ZM262.5 60.5V61H263.5V60.5H262.5ZM263 62H264V61H263V62ZM265.5 61.5V61H264.5V61.5H265.5ZM265 60H264V61H265V60ZM266.5 60.5V61H267.5V60.5H266.5ZM267 62H268V61H267V62ZM269.5 61.5V61H268.5V61.5H269.5ZM269 60H268V61H269V60ZM270.5 60.5V61H271.5V60.5H270.5ZM271 62H272V61H271V62ZM273.5 61.5V61H272.5V61.5H273.5ZM273 60H272V61H273V60ZM274.5 60.5V61H275.5V60.5H274.5ZM275 62H276V61H275V62ZM277.5 61.5V61H276.5V61.5H277.5ZM277 60H276V61H277V60ZM278.5 60.5V61H279.5V60.5H278.5ZM279 62H280V61H279V62ZM281.5 61.5V61H280.5V61.5H281.5ZM281 60H280V61H281V60Z" fill="#F76F5A"/>
</svg>
