<svg width="150" height="38" viewBox="0 0 150 38" fill="none" xmlns="http://www.w3.org/2000/svg">
<g id="logo BCP">
<path id="Shape" fill-rule="evenodd" clip-rule="evenodd" d="M42.2959 6.76122C42.9403 6.66479 44.4614 6.56836 45.9192 6.56836C49.0987 6.56836 51.3382 7.67193 51.2748 10.2326C51.1903 13.3398 48.0318 15.1076 43.4579 15.1076H41.6832C40.3945 15.1076 40.7748 13.6291 40.7748 13.6291L42.2959 6.76122ZM57.6974 25.5541C57.6974 20.2505 53.9368 17.9362 50.884 17.7112C54.729 17.0684 59.81 14.2505 59.81 9.06479C59.81 3.5255 54.2326 0.568359 45.8135 0.568359C41.9896 0.568359 38.2607 0.889788 34.9438 1.4255L28.9121 28.0934C28.9121 28.0934 26.8205 34.9826 32.7571 36.4184C34.4156 36.8255 35.5459 36.9755 37.3945 37.0826C53.1445 37.9505 57.6974 30.9005 57.6974 25.5541ZM37.141 29.5612L39.1374 20.7219H41.8734C45.7607 20.7219 48.9825 21.7934 48.898 25.3612C48.803 29.3898 44.6621 31.0291 40.1304 31.0291C39.4227 31.0291 38.7466 31.0291 38.1128 31.0076C36.8557 30.9005 37.141 29.5612 37.141 29.5612Z" fill="#012D74"/>
<path id="Shape_2" fill-rule="evenodd" clip-rule="evenodd" d="M107.028 7.01893C107.726 6.9225 108.93 6.8475 110.525 6.8475C113.662 6.8475 116.261 7.76893 116.261 11.5189C116.261 15.3332 113.356 19.0189 107.683 19.0618C107.303 19.0618 106.965 19.0511 106.659 19.0404C104.124 19.0404 104.831 16.9296 104.831 16.9296L107.028 7.01893ZM96.1904 37.1796C97.4686 37.1796 99.8771 36.6761 100.701 33.0225L102.455 25.1689C103.31 25.2225 104.504 25.3725 105.888 25.3725C119.377 25.3725 124.067 16.7368 124.067 10.8761C124.067 4.46893 119.588 0.793931 109.838 0.751074C105.845 0.718931 102.391 0.868931 99.1165 1.61893L91.1939 37.1796H96.1904Z" fill="#012D74"/>
<path id="Path" d="M71.4087 21.4714C71.4087 15.675 75.1798 7.03929 83.8101 7.03929C86.0601 7.03929 90.1165 7.61786 92.4404 9.69643C92.4404 9.69643 93.3172 6.75 93.5707 5.52857C93.8137 4.32857 93.3594 2.33571 89.6623 1.14643C87.2644 0.375 85.3946 0 82.7432 0C69.2326 0 62.2396 11.0571 62.2396 21.9429C62.2396 33.5786 70.046 37.5 78.0425 37.5C80.9157 37.5 82.8172 37.1893 84.6129 36.525C86.8207 35.7536 87.1904 33.7714 87.1904 33.7714L88.532 27.7929C85.12 30.2786 82.5953 30.6643 80.2925 30.6643C74.6833 30.6643 71.4087 27.075 71.4087 21.4714Z" fill="#012D74"/>
<path id="Path_2" d="M14.3557 16.8227C16.4472 11.7441 16.1092 4.87626 12.7712 3.37626C9.71835 1.94055 6.24298 6.01198 6.07397 6.22626C6.07397 6.22626 4.93312 7.61912 4.05636 9.56912C4.65847 9.90126 5.79932 10.4691 5.79932 10.4691C8.15496 11.5834 11.3345 13.5655 14.3557 16.8227Z" fill="#012D74"/>
<path id="Path_3" d="M24.1902 12.9107C24.4649 13.275 27.6867 17.2821 24.7184 22.0179C21.4649 27.1929 12.581 33.1071 10.0669 33.9857C5.17607 36.0321 1.85916 32.25 1.57395 31.8536C0.665495 30.675 0.443663 30.4286 0 29.5714C19.9437 20.5929 16.5529 5.14286 12.7712 3.375C13.986 3.98571 16.8486 5.625 19.4367 7.91786C22.0142 10.0929 24.243 12.9429 24.1902 12.9107Z" fill="#F26E27"/>
<path id="Path_4" d="M138.391 16.8227C140.483 11.7441 140.145 4.87626 136.807 3.37626C133.754 1.94055 130.279 6.01198 130.11 6.22626C130.11 6.22626 128.969 7.61912 128.092 9.56912C128.694 9.90126 129.835 10.4691 129.835 10.4691C132.191 11.5834 135.37 13.5655 138.391 16.8227Z" fill="#012D74"/>
<path id="Path_5" d="M148.226 12.9107C148.49 13.275 151.722 17.2821 148.754 22.0179C145.5 27.1929 136.617 33.1071 134.103 33.9857C129.201 36.0321 125.895 32.25 125.61 31.8536C124.701 30.675 124.479 30.4286 124.036 29.5714C143.979 20.5929 140.588 5.14286 136.807 3.375C138.022 3.98571 140.884 5.625 143.462 7.91786C146.039 10.0929 148.268 12.9429 148.226 12.9107Z" fill="#F26E27"/>
</g>
</svg>
