<svg width="24" height="24" viewBox="0 0 24 24" fill="none" xmlns="http://www.w3.org/2000/svg">
<path d="M6.99999 10.5902L11.29 14.8302C11.383 14.9239 11.4936 14.9983 11.6154 15.0491C11.7373 15.0998 11.868 15.126 12 15.126C12.132 15.126 12.2627 15.0998 12.3846 15.0491C12.5064 14.9983 12.617 14.9239 12.71 14.8302L16.95 10.5902C17.0437 10.4972 17.1181 10.3866 17.1689 10.2648C17.2197 10.1429 17.2458 10.0122 17.2458 9.88018C17.2458 9.74817 17.2197 9.61746 17.1689 9.4956C17.1181 9.37374 17.0437 9.26314 16.95 9.17018C16.7626 8.98393 16.5092 8.87939 16.245 8.87939C15.9808 8.87939 15.7274 8.98393 15.54 9.17018L12 12.7102L8.45999 9.17018C8.27373 8.98543 8.02233 8.88128 7.75999 8.88018C7.62838 8.87942 7.49792 8.90464 7.37608 8.95441C7.25425 9.00417 7.14343 9.0775 7.04999 9.17018C6.95292 9.2598 6.87456 9.36776 6.81945 9.48784C6.76435 9.60791 6.73358 9.73772 6.72893 9.86975C6.72428 10.0018 6.74584 10.1334 6.79237 10.2571C6.83889 10.3807 6.90946 10.494 6.99999 10.5902Z" fill="white"/>
</svg>
