<svg width="10" height="13" viewBox="0 0 10 13" fill="none" xmlns="http://www.w3.org/2000/svg">
<path fill-rule="evenodd" clip-rule="evenodd" d="M8.53267 9.04664C8.99131 9.49156 9.35252 10.0106 9.60432 10.5879C9.86511 11.1869 9.997 11.8208 10 12.4766C10 12.7659 9.75869 13 9.46043 13C9.16217 13 8.92086 12.7659 8.92086 12.4766C8.92086 11.4602 8.51319 10.505 7.77278 9.78671C7.03237 9.06845 6.04766 8.67297 5 8.67297C3.95234 8.67297 2.96763 9.06845 2.22722 9.78671C1.48681 10.505 1.07914 11.4602 1.07914 12.4766C1.07914 12.7659 0.83783 13 0.539568 13C0.241307 13 0 12.7659 0 12.4766C0 11.8208 0.131894 11.1869 0.392686 10.5879C0.644484 10.0106 1.0057 9.49156 1.46433 9.04664C1.92296 8.60172 2.45803 8.25131 3.05306 8.00705C3.2554 7.92272 3.46373 7.85438 3.67356 7.79767C3.08004 7.60284 2.53597 7.27715 2.08034 6.83514C1.29946 6.07907 0.870803 5.07292 0.870803 4.00425C0.870803 2.93558 1.30096 1.92943 2.08034 1.17336C2.85971 0.415837 3.89688 0 4.9985 0C6.10012 0 7.13729 0.417291 7.91667 1.17336C8.69754 1.92943 9.1262 2.93558 9.1262 4.00425C9.1262 5.07292 8.69604 6.07907 7.91667 6.83514C7.46103 7.27715 6.91697 7.60284 6.32344 7.79767C6.53327 7.85438 6.74161 7.92417 6.94394 8.00705C7.53897 8.25131 8.07404 8.60172 8.53267 9.04664ZM4.997 1.04686C3.31685 1.04686 1.94844 2.37289 1.94844 4.00425C1.94844 5.63416 3.31535 6.96164 4.997 6.96164C6.67866 6.96164 8.04556 5.63561 8.04556 4.00425C8.04556 2.37289 6.67716 1.04686 4.997 1.04686Z" fill="#00A5B1"/>
</svg>
