<svg width="125" height="38" viewBox="0 0 125 38" fill="none" xmlns="http://www.w3.org/2000/svg">
<g id="Group 68">
<path id="Path" d="M89.6865 5.08263L78.9789 25.558C78.7507 25.9959 78.0866 25.9959 77.8584 25.558L67.1508 5.08263C67.047 4.87413 66.8395 4.74902 66.6112 4.74902H61.4235C61.0707 4.74902 60.8424 5.12434 61.0084 5.4371L77.8791 37.1719C78.1074 37.6097 78.7299 37.6097 78.9789 37.1719L95.8496 5.4371C96.0156 5.12434 95.7874 4.74902 95.4346 4.74902H90.2468C89.9978 4.74902 89.7903 4.87413 89.6865 5.08263Z" fill="#072146"/>
<path id="Path_2" d="M95.7666 32.4176L106.474 11.9422C106.702 11.5044 107.367 11.5044 107.595 11.9422L118.302 32.4176C118.406 32.6261 118.614 32.7513 118.842 32.7513H124.03C124.382 32.7513 124.611 32.3759 124.445 32.0632L107.574 0.328399C107.346 -0.109466 106.723 -0.109466 106.474 0.328399L89.6035 32.0632C89.4375 32.3759 89.6658 32.7513 90.0186 32.7513H95.2064C95.4346 32.7304 95.6629 32.6053 95.7666 32.4176Z" fill="#072146"/>
<path id="Shape" fill-rule="evenodd" clip-rule="evenodd" d="M22.5773 19.8453C24.8184 18.7193 26.2087 16.2798 26.2087 13.2982C26.2087 8.18973 22.2452 4.72852 16.6632 4.72852H0.622535C0.269765 4.72852 0 4.99957 0 5.35404V36.8595C0 37.2139 0.269765 37.485 0.622535 37.485H15.9784C23.6563 37.485 27.7028 34.1697 27.7028 27.6643C27.7028 21.3257 22.5773 19.8453 22.5773 19.8453ZM6.01784 9.48248H15.5426C19.0496 9.48248 20.8342 10.9837 20.8342 13.7777C20.8342 16.5717 19.0496 18.073 15.5426 18.073H6.01784C5.68582 18.073 5.3953 17.8019 5.3953 17.4474V10.108C5.3953 9.75354 5.66507 9.48248 6.01784 9.48248ZM6.01784 32.731H15.6671C20.3154 32.731 22.3075 31.4383 22.3283 27.7477C22.3283 24.0988 20.2739 22.7852 15.6671 22.7852H6.01784C5.66507 22.7852 5.3953 23.0771 5.3953 23.4108V32.1055C5.3953 32.46 5.66507 32.731 6.01784 32.731Z" fill="#072146"/>
<path id="Shape_2" fill-rule="evenodd" clip-rule="evenodd" d="M55.5094 19.8453C57.7505 18.7193 59.1408 16.2798 59.1408 13.2982C59.1408 8.18973 55.1773 4.72852 49.5953 4.72852H33.5339C33.1811 4.72852 32.9113 4.99957 32.9113 5.35404V36.8595C32.9113 37.2139 33.1811 37.485 33.5339 37.485H48.8897C56.5677 37.485 60.6142 34.1697 60.6142 27.6643C60.6349 21.3257 55.5094 19.8453 55.5094 19.8453ZM38.9499 9.48248H48.4747C51.9817 9.48248 53.7663 10.9837 53.7663 13.7777C53.7663 16.5717 51.9817 18.073 48.4747 18.073H38.9499C38.5972 18.073 38.3274 17.8019 38.3274 17.4474V10.108C38.3274 9.75354 38.5972 9.48248 38.9499 9.48248ZM38.9292 32.731H48.5785C53.2267 32.731 55.2396 31.4383 55.2396 27.7477C55.2396 24.0988 53.1852 22.7852 48.5785 22.7852H38.9292C38.5764 22.7852 38.3067 23.0771 38.3067 23.4108V32.1055C38.3067 32.46 38.5972 32.731 38.9292 32.731Z" fill="#072146"/>
</g>
</svg>
