<svg width="24" height="24" viewBox="0 0 24 24" fill="none" xmlns="http://www.w3.org/2000/svg">
<g clip-path="url(#clip0_392_1967)">
<path d="M6 8.99956H3C2.45 8.99956 2 8.54956 2 7.99956C2 7.44956 2.45 6.99956 3 6.99956H6C6.55 6.99956 7 7.44956 7 7.99956C7 8.54956 6.55 8.99956 6 8.99956ZM6 11.9996H3C2.45 11.9996 2 12.4496 2 12.9996C2 13.5496 2.45 13.9996 3 13.9996H6C6.55 13.9996 7 13.5496 7 12.9996C7 12.4496 6.55 11.9996 6 11.9996ZM19.88 18.2896L16.76 15.1696C15.9 15.7296 14.87 16.0496 13.76 15.9896C11.39 15.8796 9.36 14.0296 9.04 11.6796C8.6 8.32956 11.49 5.49956 14.87 6.06956C16.82 6.39956 18.44 7.91956 18.87 9.84956C19.2 11.3096 18.88 12.6696 18.17 13.7496L21.3 16.8796C21.69 17.2696 21.69 17.8996 21.3 18.2896C20.91 18.6796 20.27 18.6796 19.88 18.2896ZM17 10.9996C17 9.34956 15.65 7.99956 14 7.99956C12.35 7.99956 11 9.34956 11 10.9996C11 12.6496 12.35 13.9996 14 13.9996C15.65 13.9996 17 12.6496 17 10.9996ZM3 18.9996H11C11.55 18.9996 12 18.5496 12 17.9996C12 17.4496 11.55 16.9996 11 16.9996H3C2.45 16.9996 2 17.4496 2 17.9996C2 18.5496 2.45 18.9996 3 18.9996Z" fill="#007689"/>
</g>
<defs>
<clipPath id="clip0_392_1967">
<rect width="24" height="24" fill="white"/>
</clipPath>
</defs>
</svg>
