<svg width="22" height="22" viewBox="0 0 22 22" fill="none" xmlns="http://www.w3.org/2000/svg">
<path opacity="0.6" fill-rule="evenodd" clip-rule="evenodd" d="M6.78243 5.36241L9.32309 9.76266C9.06736 10.1087 8.91618 10.5366 8.91618 10.9999C8.91618 11.463 9.06726 11.8909 9.32283 12.2368L6.89493 16.4424C6.66493 16.8412 6.80118 17.3512 7.19993 17.5812C7.33118 17.6562 7.47493 17.6924 7.61618 17.6924C7.90493 17.6924 8.18493 17.5424 8.33868 17.2762L10.7665 13.0707C10.8431 13.0793 10.921 13.0837 10.9999 13.0837C11.8543 13.0837 12.5886 12.5695 12.9102 11.8337H18.1874C18.6474 11.8337 19.0212 11.4599 19.0212 10.9999C19.0212 10.5399 18.6474 10.1662 18.1874 10.1662H12.9102C12.5886 9.43035 11.8543 8.91616 10.9999 8.91616C10.9212 8.91616 10.8434 8.92053 10.7669 8.92904L8.22618 4.52866C7.99493 4.12991 7.48618 3.99241 7.08743 4.22366C6.68868 4.45366 6.55243 4.96366 6.78243 5.36241Z" fill="#567790"/>
<path fill-rule="evenodd" clip-rule="evenodd" d="M19.17 9.3975L20.25 9.50625C20.6775 9.54875 21 9.905 21 10.3363V11.665C21 12.095 20.6775 12.4513 20.2475 12.4925L19.1675 12.6012C19.095 12.975 18.9975 13.3425 18.8762 13.6975L19.7563 14.33C20.105 14.5813 20.2062 15.0512 19.9912 15.4237L19.3263 16.575C19.1125 16.9475 18.6538 17.095 18.2625 16.9187L17.2775 16.4738C17.0275 16.76 16.7587 17.0287 16.4725 17.2787L16.9175 18.2638C17.095 18.6562 16.9475 19.1138 16.575 19.3288L15.4237 19.9937C15.05 20.2075 14.5813 20.1075 14.33 19.7588L13.6975 18.8787C13.3425 19 12.975 19.0975 12.6012 19.17L12.4925 20.25C12.45 20.6775 12.0938 21 11.6637 21H10.335C9.905 21 9.54875 20.6775 9.5075 20.2475L9.39875 19.1675C9.025 19.095 8.6575 18.9975 8.3025 18.8762L7.67 19.7563C7.41875 20.105 6.95 20.2075 6.57625 19.9912L5.425 19.3263C5.0525 19.1112 4.905 18.6538 5.08125 18.2625L5.52625 17.2775C5.24 17.0275 4.97125 16.7587 4.72125 16.4725L3.73625 16.9175C3.345 17.0962 2.88625 16.9475 2.67125 16.575L2.00625 15.4237C1.79125 15.05 1.8925 14.5813 2.24125 14.33L3.12125 13.6975C3 13.3425 2.9025 12.975 2.83 12.6012L1.75 12.4925C1.3225 12.45 1 12.0938 1 11.6637V10.335C1 9.905 1.3225 9.54875 1.75125 9.50625L2.83125 9.3975C2.90375 9.02375 3.00125 8.65625 3.1225 8.30125L2.2425 7.66875C1.89375 7.4175 1.7925 6.9475 2.0075 6.575L2.67375 5.42625C2.88875 5.05375 3.34625 4.90625 3.7375 5.0825L4.7225 5.5275C4.9725 5.24125 5.24125 4.9725 5.5275 4.7225L5.0825 3.7375C4.905 3.345 5.0525 2.8875 5.425 2.6725L6.57625 2.00625C6.95 1.79125 7.42 1.8925 7.67 2.24125L8.3025 3.12125C8.6575 3 9.025 2.9025 9.39875 2.83L9.5075 1.75C9.55 1.3225 9.90625 1 10.3363 1H11.665C12.095 1 12.4513 1.3225 12.4937 1.75125L12.6025 2.83125C12.9762 2.90375 13.3438 3.00125 13.6987 3.1225L14.3313 2.2425C14.5825 1.895 15.0513 1.7925 15.425 2.0075L16.575 2.6725C16.9475 2.8875 17.095 3.345 16.9187 3.73625L16.4738 4.72125C16.76 4.97125 17.0287 5.24 17.2787 5.52625L18.2638 5.08125C18.6575 4.905 19.115 5.05125 19.3288 5.42375L19.9937 6.575C20.2087 6.94875 20.1075 7.4175 19.7588 7.66875L18.8787 8.30125C19 8.65625 19.0975 9.02375 19.17 9.3975ZM5.16625 11C5.16625 14.2175 7.78375 16.8337 11 16.8337C14.2162 16.8337 16.8337 14.2175 16.8337 11C16.8337 7.7825 14.2175 5.16625 11 5.16625C7.7825 5.16625 5.16625 7.7825 5.16625 11Z" fill="#567790"/>
</svg>
