<svg width="34" height="34" viewBox="0 0 34 34" fill="none" xmlns="http://www.w3.org/2000/svg">
<rect width="34" height="34" rx="10" fill="#E3F8FA"/>
<path d="M21.5833 26.3743C18.9408 26.3743 16.7917 24.2252 16.7917 21.5827C16.7917 18.9402 18.9408 16.791 21.5833 16.791C24.2258 16.791 26.375 18.9402 26.375 21.5827C26.375 24.2252 24.2258 26.3743 21.5833 26.3743Z" fill="#E3F8FA"/>
<path fill-rule="evenodd" clip-rule="evenodd" d="M16.1667 21.5827C16.1667 24.5693 18.5967 26.9993 21.5833 26.9993C24.57 26.9993 27 24.5693 27 21.5827C27 18.596 24.57 16.166 21.5833 16.166C18.5967 16.166 16.1667 18.596 16.1667 21.5827ZM17.4167 21.5827C17.4167 19.2852 19.2858 17.416 21.5833 17.416C23.8808 17.416 25.75 19.2852 25.75 21.5827C25.75 23.8802 23.8808 25.7493 21.5833 25.7493C19.2858 25.7493 17.4167 23.8802 17.4167 21.5827Z" fill="#11CCCC"/>
<path d="M21.5833 24.4993C21.2383 24.4993 20.9583 24.2193 20.9583 23.8743V19.291C20.9583 18.946 21.2383 18.666 21.5833 18.666C21.9283 18.666 22.2083 18.946 22.2083 19.291V23.8743C22.2083 24.2193 21.9283 24.4993 21.5833 24.4993Z" fill="#11CCCC"/>
<path d="M23.875 22.209H19.2917C18.9467 22.209 18.6667 21.929 18.6667 21.584C18.6667 21.239 18.9467 20.959 19.2917 20.959H23.875C24.22 20.959 24.5 21.239 24.5 21.584C24.5 21.929 24.22 22.209 23.875 22.209Z" fill="#11CCCC"/>
<path d="M14.6583 24.5H9.29167C8.0275 24.5 7 23.4725 7 22.2083V9.29167C7 8.0275 8.0275 7 9.29167 7H18.875C20.1392 7 21.1667 8.0275 21.1667 9.29167V14.3667C21.1667 14.7117 20.8867 14.9917 20.5417 14.9917C20.1967 14.9917 19.9167 14.7117 19.9167 14.3667V9.29167C19.9167 8.7175 19.4492 8.25 18.875 8.25H9.29167C8.7175 8.25 8.25 8.7175 8.25 9.29167V22.2083C8.25 22.7825 8.7175 23.25 9.29167 23.25H14.6583C15.0033 23.25 15.2833 23.53 15.2833 23.875C15.2833 24.22 15.0033 24.5 14.6583 24.5Z" fill="#64DDDE"/>
<path d="M18.0417 14.916H10.125C9.78 14.916 9.5 14.636 9.5 14.291C9.5 13.946 9.78 13.666 10.125 13.666H18.0417C18.3867 13.666 18.6667 13.946 18.6667 14.291C18.6667 14.636 18.3867 14.916 18.0417 14.916Z" fill="#64DDDE"/>
<path d="M14.7083 18.25H10.125C9.78 18.25 9.5 17.97 9.5 17.625C9.5 17.28 9.78 17 10.125 17H14.7083C15.0533 17 15.3333 17.28 15.3333 17.625C15.3333 17.97 15.0533 18.25 14.7083 18.25Z" fill="#64DDDE"/>
<path d="M13.875 11.584H10.125C9.78 11.584 9.5 11.304 9.5 10.959C9.5 10.614 9.78 10.334 10.125 10.334H13.875C14.22 10.334 14.5 10.614 14.5 10.959C14.5 11.304 14.22 11.584 13.875 11.584Z" fill="#64DDDE"/>
</svg>
