<svg width="34" height="34" viewBox="0 0 34 34" fill="none" xmlns="http://www.w3.org/2000/svg">
<rect width="34" height="34" rx="10" fill="#E8FAFA"/>
<path d="M10.1975 10.21H13.874V8.03929C13.874 6.84189 14.8635 5.86786 16.0799 5.86786L22.0886 5.86719C22.6774 5.86719 23.2318 6.09336 23.6482 6.50336L27.9336 10.7225C28.35 11.1324 28.5798 11.6782 28.5798 12.2578V22.5154C28.5798 23.7128 27.5903 24.6861 26.3739 24.6861H22.6975V26.8582C22.6975 28.0556 21.708 29.029 20.4916 29.029C20.4916 29.029 19.3796 29.029 18.8235 29.029C15.9482 29.029 10.1975 29.029 10.1975 29.029C8.98109 29.029 7.9916 28.0556 7.9916 26.8582V12.3814C7.99165 11.184 8.98113 10.21 10.1975 10.21Z" fill="#DDD100"/>
<path d="M27.1093 22.517V12.2594C27.1093 12.0692 27.031 11.8826 26.8938 11.7476L22.6085 7.52846C22.4713 7.39347 22.2818 7.31641 22.0886 7.31641H16.0798C15.6741 7.31641 15.3445 7.64155 15.3445 8.04091V22.517C15.3445 22.9164 15.6741 23.2408 16.0798 23.2408H26.3739C26.7796 23.2409 27.1093 22.9164 27.1093 22.517Z" fill="#FFF200"/>
<path d="M9.46221 26.8569C9.46221 27.2563 9.79178 27.5807 10.1975 27.5807H20.4916C20.8973 27.5807 21.2269 27.2563 21.2269 26.8569V24.6848H16.0799C14.8635 24.6848 13.874 23.7115 13.874 22.5141V11.6562H10.1975C9.79183 11.6562 9.46221 11.9807 9.46221 12.3801V26.8569Z" fill="#FFF200"/>
<path d="M10.1975 10.2109L13.874 10.2109L13.8437 24.718L22.6974 24.6871L22.6974 26.8592C22.6974 28.0566 21.708 29.0299 20.4916 29.0299H10.1975C8.98106 29.0299 7.99157 28.0566 7.99157 26.8592V12.3824C7.99162 11.185 8.98111 10.2109 10.1975 10.2109Z" fill="#11CCCC"/>
<path d="M9.46221 26.8608C9.46221 27.2602 9.79178 27.5846 10.1975 27.5846H20.4916C20.8973 27.5846 21.2269 27.2602 21.2269 26.8608V24.6887H16.0799C14.8635 24.6887 13.874 23.7154 13.874 22.518V11.6602H10.1975C9.79183 11.6602 9.46221 11.9846 9.46221 12.384V26.8608Z" fill="#FFF200"/>
<path d="M9.46221 26.8569C9.46221 27.2563 9.79178 27.5807 10.1975 27.5807H20.4916C20.8973 27.5807 21.2269 27.2563 21.2269 26.8569V24.6848H16.0799C14.8635 24.6848 13.874 23.7115 13.874 22.5141V11.6562H10.1975C9.79183 11.6562 9.46221 11.9807 9.46221 12.3801V26.8569Z" fill="#64DDDE"/>
<path fill-rule="evenodd" clip-rule="evenodd" d="M10.7235 5.9676L8.85684 7.70037V7.70169C8.70172 7.84487 8.46043 7.83559 8.31725 7.68181C8.17407 7.52669 8.18335 7.2854 8.33714 7.14222L9.83127 5.75548L8.08127 4.71078C7.9646 4.64052 7.89434 4.51324 7.89566 4.37669C7.89831 4.24014 7.97256 4.11552 8.09187 4.04923C8.21119 3.98294 8.35702 3.98294 8.47369 4.05321L10.6599 5.3604C10.7633 5.42271 10.8309 5.52877 10.8428 5.64809C10.8561 5.76741 10.8123 5.8854 10.7235 5.9676ZM4.79206 11.4059C4.52028 8.83389 6.37237 6.52574 8.94168 6.23275L9.40835 5.79923L8.86346 5.47309C5.87388 5.80718 3.7129 8.49317 4.03108 11.4854C4.05362 11.6949 4.24187 11.8473 4.45134 11.8248C4.66081 11.8036 4.81327 11.6153 4.79206 11.4059Z" fill="#11CCCC"/>
<path d="M18.116 12.4651H20.1897C20.595 12.4651 20.9473 12.5254 21.2465 12.646C21.5456 12.7667 21.776 12.9452 21.9377 13.1816C22.1018 13.4181 22.1838 13.71 22.1838 14.0574C22.1838 14.359 22.1367 14.6112 22.0426 14.8138C21.9486 15.0165 21.8171 15.1842 21.6482 15.3169C21.4817 15.4472 21.2875 15.5545 21.0655 15.639L20.6493 15.8742H18.9086L18.9013 14.8934H20.1897C20.3514 14.8934 20.4853 14.8645 20.5914 14.8066C20.6976 14.7487 20.7772 14.6666 20.8303 14.5605C20.8858 14.4519 20.9135 14.3228 20.9135 14.1733C20.9135 14.0213 20.8858 13.891 20.8303 13.7824C20.7748 13.6738 20.6928 13.5906 20.5842 13.5327C20.478 13.4748 20.3465 13.4458 20.1897 13.4458H19.3863V17.7344H18.116V12.4651ZM21.0004 17.7344L19.835 15.4037L21.1813 15.3965L22.3611 17.6801V17.7344H21.0004ZM25.1152 12.4651L23.3129 18.1868H22.4444L24.2466 12.4651H25.1152Z" fill="#BDB300"/>
</svg>
