<svg width="12" height="13" viewBox="0 0 12 13" fill="none" xmlns="http://www.w3.org/2000/svg">
<path fill-rule="evenodd" clip-rule="evenodd" d="M4.07067 10.2916H10.1112C10.908 10.2916 11.5555 9.62384 11.5555 8.80212V3.11075C11.5555 2.56862 11.3507 2.05833 10.9783 1.67429L9.93197 0.595291C9.56592 0.216713 9.05801 0 8.53952 0H4.07067C3.27384 0 2.62628 0.667892 2.62628 1.48962V8.80212C2.62628 9.62384 3.27384 10.2916 4.07067 10.2916ZM3.41416 1.48962C3.41416 1.11639 3.70875 0.8125 4.07067 0.8125H8.53952C8.85104 0.8125 9.15515 0.942528 9.37521 1.16995L10.4215 2.24895C10.6447 2.47926 10.7677 2.78523 10.7677 3.11075V8.80212C10.7677 9.17534 10.4731 9.47913 10.1112 9.47913H4.07067C3.70875 9.47913 3.41416 9.17534 3.41416 8.80212V1.48962Z" fill="#00A5B1"/>
<path d="M7.74753 12.9994H1.44448C0.647655 12.9994 0 12.3315 0 11.5098V2.84313C0 2.02141 0.647655 1.35352 1.44448 1.35352H1.70704C1.9245 1.35352 2.10098 1.53551 2.10098 1.75977C2.10098 1.98402 1.9245 2.16602 1.70704 2.16602H1.44448C1.08257 2.16602 0.787881 2.46991 0.787881 2.84313V11.5098C0.787881 11.883 1.08257 12.1869 1.44448 12.1869H7.74753C8.10944 12.1869 8.40403 11.883 8.40403 11.5098V11.239C8.40403 11.0147 8.58052 10.8327 8.79797 10.8327C9.01543 10.8327 9.19191 11.0147 9.19191 11.239V11.5098C9.19191 12.3315 8.54435 12.9994 7.74753 12.9994Z" fill="#00A5B1"/>
<path d="M9.06064 4.60352H5.12124C4.90378 4.60352 4.72729 4.42152 4.72729 4.19727C4.72729 3.97301 4.90378 3.79102 5.12124 3.79102H9.06064C9.2781 3.79102 9.45458 3.97301 9.45458 4.19727C9.45458 4.42152 9.2781 4.60352 9.06064 4.60352Z" fill="#00A5B1"/>
<path d="M9.06064 6.22852H5.12124C4.90378 6.22852 4.72729 6.04652 4.72729 5.82227C4.72729 5.59801 4.90378 5.41602 5.12124 5.41602H9.06064C9.2781 5.41602 9.45458 5.59801 9.45458 5.82227C9.45458 6.04652 9.2781 6.22852 9.06064 6.22852Z" fill="#00A5B1"/>
<path d="M9.06064 7.85352H5.12124C4.90378 7.85352 4.72729 7.67152 4.72729 7.44727C4.72729 7.22301 4.90378 7.04102 5.12124 7.04102H9.06064C9.2781 7.04102 9.45458 7.22301 9.45458 7.44727C9.45458 7.67152 9.2781 7.85352 9.06064 7.85352Z" fill="#00A5B1"/>
</svg>
