<svg width="46" height="45" viewBox="0 0 46 45" fill="none" xmlns="http://www.w3.org/2000/svg">
<g filter="url(#filter0_d_673_2231)">
<ellipse cx="22.8064" cy="21" rx="18.3871" ry="19" fill="white"/>
</g>
<ellipse cx="22.8064" cy="22.6759" rx="3.3682" ry="3.3907" fill="#01AAB5"/>
<path fill-rule="evenodd" clip-rule="evenodd" d="M27.5094 13.0095L27.7246 14.093H17.8864L18.1017 13.0095C18.2179 12.4246 18.7324 12 19.3249 12H26.2861C26.8787 12 27.3932 12.4246 27.5094 13.0095ZM14.0325 15.3477H31.5804C32.6121 15.3477 33.4516 16.1927 33.4516 17.2314V28.1151C33.4516 29.1538 32.6121 29.9988 31.5804 29.9988H14.0325C13.0007 29.9988 12.1613 29.1538 12.1613 28.1151V17.2314C12.1613 16.1927 13.0007 15.3477 14.0325 15.3477ZM15.4879 19.2832H17.4838C17.8283 19.2832 18.1076 19.002 18.1076 18.6553C18.1076 18.3085 17.8283 18.0273 17.4838 18.0273H15.4879C15.1434 18.0273 14.8641 18.3085 14.8641 18.6553C14.8641 19.002 15.1434 19.2832 15.4879 19.2832ZM22.8064 27.3204C20.2613 27.3204 18.1907 25.236 18.1907 22.6739C18.1907 20.1117 20.2613 18.0273 22.8064 18.0273C25.3515 18.0273 27.4221 20.1117 27.4221 22.6739C27.4221 25.236 25.3515 27.3204 22.8064 27.3204Z" fill="#01AAB5"/>
<defs>
<filter id="filter0_d_673_2231" x="0.419312" y="0" width="44.7742" height="46" filterUnits="userSpaceOnUse" color-interpolation-filters="sRGB">
<feFlood flood-opacity="0" result="BackgroundImageFix"/>
<feColorMatrix in="SourceAlpha" type="matrix" values="0 0 0 0 0 0 0 0 0 0 0 0 0 0 0 0 0 0 127 0" result="hardAlpha"/>
<feOffset dy="2"/>
<feGaussianBlur stdDeviation="2"/>
<feColorMatrix type="matrix" values="0 0 0 0 0 0 0 0 0 0 0 0 0 0 0 0 0 0 0.0491423 0"/>
<feBlend mode="normal" in2="BackgroundImageFix" result="effect1_dropShadow_673_2231"/>
<feBlend mode="normal" in="SourceGraphic" in2="effect1_dropShadow_673_2231" result="shape"/>
</filter>
</defs>
</svg>
