<svg width="34" height="34" viewBox="0 0 34 34" fill="none" xmlns="http://www.w3.org/2000/svg">
<rect width="34" height="34" rx="10" fill="#E8FAFA"/>
<g clip-path="url(#clip0_815_1413)">
<path d="M10.4328 10.4444H14.1093V8.27367C14.1093 7.07627 15.0988 6.10224 16.3152 6.10224L22.3239 6.10156C22.9127 6.10156 23.467 6.32774 23.8835 6.73773L28.1689 10.9569C28.5853 11.3668 28.8151 11.9125 28.8151 12.4921V22.7498C28.8151 23.9472 27.8256 24.9205 26.6092 24.9205H22.9328V27.0926C22.9328 28.29 21.9433 29.2633 20.7269 29.2633H10.4328C9.21638 29.2633 8.22689 28.29 8.22689 27.0926V12.6158C8.22694 11.4184 9.21642 10.4444 10.4328 10.4444Z" fill="#DDD100"/>
<path d="M27.3445 22.7514V12.4937C27.3445 12.3036 27.2663 12.117 27.1291 11.982L22.8438 7.76284C22.7066 7.62785 22.517 7.55078 22.3239 7.55078H16.3151C15.9094 7.55078 15.5798 7.87593 15.5798 8.27528V22.7514C15.5798 23.1507 15.9094 23.4752 16.3151 23.4752H26.6092C27.0149 23.4753 27.3445 23.1508 27.3445 22.7514Z" fill="#FFF200"/>
<path d="M9.6975 27.0952C9.6975 27.4945 10.0271 27.819 10.4328 27.819H20.7269C21.1326 27.819 21.4622 27.4946 21.4622 27.0952V24.9231H16.3152C15.0988 24.9231 14.1093 23.9498 14.1093 22.7524V11.8945H10.4328C10.0271 11.8945 9.6975 12.219 9.6975 12.6184V27.0952Z" fill="#FFF200"/>
<path d="M10.4328 10.4453L14.1093 10.4453L14.079 24.9523L22.9327 24.9215L22.9327 27.0936C22.9327 28.291 21.9433 29.2643 20.7268 29.2643H10.4328C9.21635 29.2643 8.22686 28.291 8.22686 27.0936V12.6167C8.22691 11.4193 9.2164 10.4453 10.4328 10.4453Z" fill="#BDB300"/>
<path d="M9.6975 27.0952C9.6975 27.4945 10.0271 27.819 10.4328 27.819H20.7269C21.1326 27.819 21.4622 27.4946 21.4622 27.0952V24.9231H16.3152C15.0988 24.9231 14.1093 23.9498 14.1093 22.7524V11.8945H10.4328C10.0271 11.8945 9.6975 12.219 9.6975 12.6184V27.0952Z" fill="#FFF200"/>
<path d="M9.6975 27.0952C9.6975 27.4945 10.0271 27.819 10.4328 27.819H20.7269C21.1326 27.819 21.4622 27.4946 21.4622 27.0952V24.9231H16.3152C15.0988 24.9231 14.1093 23.9498 14.1093 22.7524V11.8945H10.4328C10.0271 11.8945 9.6975 12.219 9.6975 12.6184V27.0952Z" fill="#FFF200"/>
<path d="M10.4328 10.4453L14.1093 10.4453L14.079 24.9523L22.9327 24.9215L22.9327 27.0936C22.9327 28.291 21.9433 29.2643 20.7268 29.2643H10.4328C9.21635 29.2643 8.22686 28.291 8.22686 27.0936V12.6167C8.22691 11.4193 9.2164 10.4453 10.4328 10.4453Z" fill="#11CCCC"/>
<path d="M9.6975 27.0952C9.6975 27.4945 10.0271 27.819 10.4328 27.819H20.7269C21.1326 27.819 21.4622 27.4946 21.4622 27.0952V24.9231H16.3152C15.0988 24.9231 14.1093 23.9498 14.1093 22.7524V11.8945H10.4328C10.0271 11.8945 9.6975 12.219 9.6975 12.6184V27.0952Z" fill="#64DDDE"/>
<path fill-rule="evenodd" clip-rule="evenodd" d="M10.9588 6.20198L9.09213 7.93474V7.93607C8.93701 8.07925 8.69572 8.06997 8.55254 7.91618C8.40936 7.76107 8.41864 7.51978 8.57243 7.3766L10.0666 5.98985L8.31656 4.94516C8.19989 4.87489 8.12963 4.74762 8.13095 4.61107C8.1336 4.47451 8.20785 4.34989 8.32716 4.2836C8.44648 4.21732 8.59232 4.21732 8.70898 4.28758L10.8952 5.59478C10.9986 5.65709 11.0662 5.76315 11.0781 5.88247C11.0914 6.00179 11.0476 6.11978 10.9588 6.20198ZM5.02735 11.6402C4.75557 9.06826 6.60766 6.76012 9.17697 6.46713L9.64364 6.0336L9.09875 5.70747C6.10917 6.04156 3.94819 8.72754 4.26637 11.7198C4.28891 11.9292 4.47716 12.0817 4.68663 12.0592C4.8961 12.038 5.04857 11.8497 5.02735 11.6402Z" fill="#11CCCC"/>
<path d="M19.6216 12.6994V17.9688H18.3513V12.6994H19.6216ZM21.6699 14.8926V15.8697H19.2597V14.8926H21.6699ZM21.8762 12.6994V13.6802H19.2597V12.6994H21.8762ZM24.5688 12.6994L22.7665 18.4211H21.8979L23.7002 12.6994H24.5688Z" fill="#BDB300"/>
</g>
<defs>
<clipPath id="clip0_815_1413">
<rect width="26" height="26" fill="white" transform="translate(3.41174 3.63281)"/>
</clipPath>
</defs>
</svg>
