<svg width="68" height="68" viewBox="0 0 68 68" fill="none" xmlns="http://www.w3.org/2000/svg">
<g id="Group 7 Copy">
<rect id="Rectangle" width="68" height="68" rx="10" fill="#FFF9DD"/>
<g id="Group 4">
<g id="mobile">
<path id="Path" fill-rule="evenodd" clip-rule="evenodd" d="M50 22V46C50 54 48 56 40 56H28C20 56 18 54 18 46V22C18 14 20 12 28 12H40C48 12 50 14 50 22Z" stroke="#292D32" stroke-width="1.5" stroke-linecap="round" stroke-linejoin="round"/>
<path id="Path_2" fill-rule="evenodd" clip-rule="evenodd" d="M33.9994 50.2C35.7115 50.2 37.0995 48.812 37.0995 47.1C37.0995 45.388 35.7115 44 33.9994 44C32.2873 44 30.8994 45.388 30.8994 47.1C30.8994 48.812 32.2873 50.2 33.9994 50.2Z" stroke="#292D32" stroke-width="1.5" stroke-linecap="round" stroke-linejoin="round"/>
<path id="Path_3" d="M38 19H30" stroke="#292D32" stroke-width="1.5" stroke-linecap="round" stroke-linejoin="round"/>
</g>
</g>
</g>
</svg>
