<svg width="34" height="34" viewBox="0 0 34 34" fill="none" xmlns="http://www.w3.org/2000/svg">
<rect width="34" height="34" rx="10" fill="#FFF9DD"/>
<circle opacity="0.6" cx="17" cy="17" r="10" stroke="#FFC100" stroke-width="1.5"/>
<path fill-rule="evenodd" clip-rule="evenodd" d="M18.0074 19.7088V20.2177H16.5153L16.5068 19.5138C16.4897 18.2926 17.2826 17.5802 18.1267 16.9187C18.9196 16.2996 19.4227 15.8926 19.4227 15.0106C19.4227 13.8064 18.4848 13.323 17.4873 13.323C16.1316 13.323 15.4751 14.2049 15.4666 15.3329H14.0001C13.9831 12.8057 15.9099 12 17.5555 12C19.3204 12 21 12.9413 21 14.9258C21 16.3336 20.1559 17.0375 19.3459 17.6735L19.3308 17.6856C18.3617 18.4566 18.0074 18.7386 18.0074 19.7088ZM18.5786 22.8212C18.5786 23.4912 18.0585 24 17.3253 24C16.6432 24 16.1146 23.4912 16.1146 22.8212C16.1146 22.1258 16.6432 21.6254 17.3253 21.6254C18.05 21.6254 18.5786 22.1258 18.5786 22.8212Z" fill="#FFC100"/>
</svg>
