<svg width="22" height="22" viewBox="0 0 22 22" fill="none" xmlns="http://www.w3.org/2000/svg">
<path d="M18.5 7.70438L14.3325 3.80669L11.5675 1.22407C11.2463 0.925309 10.75 0.925309 10.43 1.22407L1.37625 9.68572C1.13375 9.92823 1 10.247 1 10.5833C1 11.272 1.56125 11.8333 2.25 11.8333H3.5V18.9174C3.5 20.065 4.435 21 5.58375 21H16.4175C17.565 21 18.5 20.065 18.5 18.9162V11.8321H19.75C20.4387 11.8321 21 11.2708 21 10.582C21 10.247 20.8662 9.92823 20.6012 9.66572L18.5 7.70438Z" fill="#567790"/>
<rect opacity="0.598792" x="7.84204" y="11.5254" width="5.78947" height="5.78947" rx="2.89474" fill="white"/>
</svg>
