<svg width="28" height="27" viewBox="0 0 28 27" fill="none" xmlns="http://www.w3.org/2000/svg">
<g opacity="0.8">
<circle cx="7" cy="7.69727" r="7" fill="#FEF432" style="mix-blend-mode:multiply"/>
</g>
<path fill-rule="evenodd" clip-rule="evenodd" d="M15.9456 26.6973C22.5731 26.6973 27.9456 21.3247 27.9456 14.6973C27.9456 8.06985 22.5731 2.69727 15.9456 2.69727C9.31822 2.69727 3.94564 8.06985 3.94564 14.6973C3.94564 21.3247 9.31822 26.6973 15.9456 26.6973ZM12.0096 13.2682V13.7318V13.7334H20.0554C20.5779 13.7334 21 14.1798 21 14.7324L20.997 20.6109C21 21.2103 20.5616 21.6973 20.0214 21.6973H11.9786C11.4384 21.6973 11 21.2103 11 20.6109V13.2714C11 12.519 11.1328 11.7916 11.3941 11.1079C11.645 10.4476 12.0066 9.85135 12.4672 9.33781C12.9247 8.82582 13.4576 8.42154 14.0554 8.13901C14.6738 7.84555 15.3292 7.69727 16.0022 7.69727C16.6753 7.69727 17.3292 7.84555 17.9476 8.13745C18.5454 8.42154 19.0797 8.82582 19.5358 9.33781C19.9919 9.84511 20.3535 10.4414 20.6089 11.1079C20.6089 11.1087 20.6092 11.1095 20.6096 11.1102C20.61 11.111 20.6103 11.1118 20.6103 11.1126C20.7107 11.3764 20.5247 11.662 20.2576 11.662H20.0554C19.859 11.662 19.679 11.5481 19.5875 11.3639C19.4 10.9877 19.062 10.3555 18.8037 10.0668C18.4332 9.65624 18.0052 9.33312 17.5343 9.10835C17.0487 8.88045 16.5321 8.76182 16.0022 8.76182C15.4694 8.76182 14.9542 8.87889 14.4716 9.11147L14.4524 9.11927H14.4494C13.986 9.34093 13.5668 9.66092 13.2007 10.0683C12.8317 10.4788 12.538 10.9612 12.3314 11.5028C12.1173 12.0663 12.0096 12.6595 12.0096 13.2682ZM19.9963 20.6311C19.9978 20.6265 19.9993 20.6187 19.9993 20.6093V14.7964H12.0096V20.6093C12.0096 20.6187 12.0111 20.6265 12.0125 20.6311H19.9963ZM15.5373 17.194V18.591C15.5373 18.8642 15.7469 19.0858 16.0052 19.0858C16.2635 19.0858 16.4731 18.8642 16.4731 18.591V17.1909C16.721 17.0223 16.8701 16.7382 16.8701 16.4229C16.8701 15.9171 16.4819 15.5066 16.0037 15.5066C15.5255 15.5066 15.1373 15.9171 15.1373 16.4229C15.1387 16.7335 15.2908 17.027 15.5373 17.194Z" fill="#29BDBE"/>
</svg>
