<svg width="18" height="16" viewBox="0 0 18 16" fill="none" xmlns="http://www.w3.org/2000/svg">
<path fill-rule="evenodd" clip-rule="evenodd" d="M3.23638 3.63429L1.06891 1.46682L1.06888 1.46679L1.82474 0.710938L16.0357 14.9219L15.2798 15.6778L12.9661 13.3641C11.6422 14.1418 10.1414 14.6087 8.55231 14.6087C4.72968 14.6087 1.30432 12.1005 0.0285537 8.36714C-0.0095586 8.25491 -0.0095586 8.13381 0.0285537 8.02158C0.648438 6.20762 1.80087 4.71993 3.23638 3.63429ZM1.10129 8.19439C2.27423 11.399 5.246 13.5397 8.55234 13.5397C9.85018 13.5397 11.0799 13.18 12.1839 12.5818L10.405 10.8029C9.88062 11.1766 9.24385 11.4015 8.55234 11.4015C6.78378 11.4015 5.34516 9.96289 5.34516 8.19436C5.34516 7.50285 5.57008 6.86608 5.94375 6.34166L3.99937 4.39728C2.71941 5.32796 1.6798 6.61369 1.10129 8.19439ZM6.71711 7.11505L9.63171 10.0297C9.31369 10.2175 8.94771 10.3325 8.55234 10.3325C7.37312 10.3325 6.41423 9.37361 6.41423 8.19442C6.41423 7.79906 6.52931 7.43308 6.71711 7.11505ZM8.55234 1.78001C7.35155 1.78001 6.20104 2.05216 5.13297 2.5074L5.94723 3.32166C6.77233 3.02275 7.64702 2.84905 8.55234 2.84905C11.8587 2.84905 14.8304 4.98976 16.0034 8.19433C15.5564 9.41554 14.8456 10.4789 13.9572 11.3316L14.7089 12.0833C15.7522 11.0774 16.58 9.81901 17.0761 8.36711C17.1142 8.25488 17.1142 8.13378 17.0761 8.02155C15.8003 4.28822 12.3749 1.78001 8.55234 1.78001ZM10.6759 8.05035L11.64 9.01443C11.7101 8.75109 11.7595 8.47958 11.7595 8.19436C11.7595 6.42583 10.3209 4.98718 8.55234 4.98718C8.26712 4.98718 7.99561 5.03659 7.73227 5.10674L8.69635 6.07081C9.75887 6.14309 10.6036 6.98783 10.6759 8.05035Z" fill="#919BA5"/>
</svg>
