<svg width="29" height="27" viewBox="0 0 29 27" fill="none" xmlns="http://www.w3.org/2000/svg">
<g opacity="0.8">
<circle cx="7.33905" cy="7.69727" r="7" fill="#FEF432" style="mix-blend-mode:multiply"/>
</g>
<path fill-rule="evenodd" clip-rule="evenodd" d="M16.3391 26.6973C22.9665 26.6973 28.3391 21.3247 28.3391 14.6973C28.3391 8.06985 22.9665 2.69727 16.3391 2.69727C9.71163 2.69727 4.33905 8.06985 4.33905 14.6973C4.33905 21.3247 9.71163 26.6973 16.3391 26.6973ZM20.9434 18.2851C20.6916 17.7079 20.3304 17.1888 19.8717 16.7439C19.4131 16.299 18.878 15.9486 18.283 15.7043C18.0807 15.6214 17.8723 15.5516 17.6625 15.4949C18.256 15.3001 18.8001 14.9744 19.2557 14.5324C20.0351 13.7763 20.4652 12.7702 20.4652 11.7015C20.4652 10.6328 20.0366 9.62669 19.2557 8.87062C18.4763 8.11456 17.4392 7.69727 16.3376 7.69727C15.2359 7.69727 14.1988 8.1131 13.4194 8.87062C12.64 9.62669 12.2099 10.6328 12.2099 11.7015C12.2099 12.7702 12.6385 13.7763 13.4194 14.5324C13.875 14.9744 14.4191 15.3001 15.0126 15.4949C14.8028 15.5516 14.5944 15.62 14.3921 15.7043C13.7971 15.9486 13.262 16.299 12.8034 16.7439C12.3447 17.1888 11.9835 17.7079 11.7317 18.2851C11.4709 18.8842 11.3391 19.5181 11.3391 20.1738C11.3391 20.4632 11.5804 20.6973 11.8786 20.6973C12.1769 20.6973 12.4182 20.4632 12.4182 20.1738C12.4182 19.1575 12.8259 18.2022 13.5663 17.484C14.3067 16.7657 15.2914 16.3702 16.3391 16.3702C17.3867 16.3702 18.3714 16.7657 19.1118 17.484C19.8522 18.2022 20.2599 19.1575 20.2599 20.1738C20.2599 20.4632 20.5012 20.6973 20.7995 20.6973C21.0977 20.6973 21.3391 20.4632 21.3391 20.1738C21.3361 19.5181 21.2042 18.8842 20.9434 18.2851ZM13.2875 11.7015C13.2875 10.0702 14.6559 8.74413 16.3361 8.74413C18.0162 8.74413 19.3846 10.0702 19.3846 11.7015C19.3846 13.3329 18.0177 14.6589 16.3361 14.6589C14.6544 14.6589 13.2875 13.3314 13.2875 11.7015Z" fill="#29BDBE"/>
</svg>
