<svg width="26" height="20" viewBox="0 0 26 20" fill="none" xmlns="http://www.w3.org/2000/svg">
<g clip-path="url(#clip0_368_1565)">
<rect x="1.18176" y="16.1284" width="23.6364" height="2.95455" fill="white"/>
<path d="M23.7148 12.5661H21.9375V3.60938C21.9375 3.18864 21.5965 2.84766 21.1758 2.84766C20.7551 2.84766 20.4141 3.18864 20.4141 3.60938V12.5661H5.58594V3.60938C5.58594 3.18864 5.24495 2.84766 4.82422 2.84766C4.40349 2.84766 4.0625 3.18864 4.0625 3.60938V12.5661H2.28516C1.02515 12.5661 0 13.591 0 14.8512V19.4215C0 19.8421 0.340988 20.1833 0.761719 20.1833H25.2383C25.659 20.1833 26 19.8421 26 19.4215V14.8512C26 13.591 24.9749 12.5661 23.7148 12.5661ZM24.4766 18.6598H1.52344V14.8512C1.52344 14.4311 1.86522 14.0895 2.28516 14.0895H23.7148C24.1348 14.0895 24.4766 14.4311 24.4766 14.8512V18.6598Z" fill="white"/>
<path d="M9.76828 5.52568C11.5504 3.74377 14.4497 3.74377 16.2318 5.52568C16.3804 5.67445 16.5754 5.74883 16.7703 5.74883C16.9651 5.74883 17.1601 5.67445 17.3089 5.52568C17.6065 5.22833 17.6065 4.74591 17.3089 4.44836C14.9329 2.07255 11.067 2.07255 8.69097 4.44836C8.39362 4.74591 8.39362 5.22813 8.69097 5.52568C8.98851 5.82302 9.47094 5.82302 9.76828 5.52568Z" fill="white"/>
<path d="M14.6158 7.90317C14.8106 7.90317 15.0056 7.82878 15.1543 7.68001C15.4517 7.38266 15.4517 6.90024 15.1543 6.60289C14.5789 6.02724 13.8138 5.71045 12.9999 5.71045C12.186 5.71045 11.4209 6.02724 10.8455 6.60289C10.5479 6.90024 10.5479 7.38246 10.8455 7.68001C11.1428 7.97756 11.6252 7.97736 11.9226 7.68001C12.2104 7.39218 12.5929 7.23389 12.9999 7.23389C13.4068 7.23389 13.7894 7.39218 14.077 7.68001C14.2258 7.82878 14.4208 7.90317 14.6158 7.90317Z" fill="white"/>
<path d="M10.7148 16.3745C10.7148 16.795 10.3739 17.1362 9.95312 17.1362C9.53239 17.1362 9.19141 16.795 9.19141 16.3745C9.19141 15.9538 9.53239 15.6128 9.95312 15.6128C10.3739 15.6128 10.7148 15.9538 10.7148 16.3745Z" fill="white"/>
<path d="M13.7617 16.3745C13.7617 16.795 13.4207 17.1362 12.9999 17.1362C12.5792 17.1362 12.2382 16.795 12.2382 16.3745C12.2382 15.9538 12.5792 15.6128 12.9999 15.6128C13.4207 15.6128 13.7617 15.9538 13.7617 16.3745Z" fill="white"/>
<path d="M16.8087 16.3745C16.8087 16.795 16.4677 17.1362 16.0469 17.1362C15.6262 17.1362 15.2852 16.795 15.2852 16.3745C15.2852 15.9538 15.6262 15.6128 16.0469 15.6128C16.4677 15.6128 16.8087 15.9538 16.8087 16.3745Z" fill="white"/>
<path d="M13.7617 9.51904C13.7617 9.93957 13.4207 10.2808 12.9999 10.2808C12.5792 10.2808 12.2382 9.93957 12.2382 9.51904C12.2382 9.09831 12.5792 8.75732 12.9999 8.75732C13.4207 8.75732 13.7617 9.09831 13.7617 9.51904Z" fill="white"/>
</g>
<defs>
<clipPath id="clip0_368_1565">
<rect width="26" height="26" fill="white" transform="translate(0 -6)"/>
</clipPath>
</defs>
</svg>
