<svg width="34" height="34" viewBox="0 0 34 34" fill="none" xmlns="http://www.w3.org/2000/svg">
<rect width="34" height="34" rx="10" fill="#E3F8FA"/>
<path fill-rule="evenodd" clip-rule="evenodd" d="M16.7143 16.5706C19.0811 16.5706 20.9996 14.6521 20.9996 12.2853C20.9996 9.91853 19.0811 8 16.7143 8C14.3475 8 12.429 9.91853 12.429 12.2853C12.429 14.6521 14.3475 16.5706 16.7143 16.5706ZM13.0706 18.2857H20.3567C22.6017 18.2857 24.4286 20.1126 24.4286 22.3576V24.3571C24.4286 24.7118 24.1404 25 23.7857 25C23.7857 25 21.2952 27 16.7455 27C12.1958 27 9.64286 25 9.64286 25C9.28816 25 9 24.7118 9 24.3571V22.3576C9 20.1126 10.8269 18.2857 13.0706 18.2857Z" fill="#11CCCC"/>
<path opacity="0.6" d="M29.367 15.2424L26.3674 12.4562C26.2466 12.3429 26.0896 12.2852 25.9302 12.2852C25.5058 12.2852 25.2873 12.6464 25.2873 12.9268V14.8553H21.8571C21.384 14.8553 20.9995 15.2399 20.9995 15.7129C20.9995 16.1859 21.3828 16.5705 21.8571 16.5705H25.2861V18.499C25.2861 18.8553 25.5755 19.1419 25.9289 19.1419C26.0884 19.1419 26.2453 19.0829 26.3662 18.9708L29.3658 16.1847C29.4967 16.0638 29.5714 15.8928 29.5714 15.7141C29.5714 15.5355 29.4967 15.3645 29.367 15.2424Z" fill="#11CCCC"/>
</svg>
