<svg width="26" height="26" viewBox="0 0 26 26" fill="none" xmlns="http://www.w3.org/2000/svg">
<g clip-path="url(#clip0_368_1559)">
<path d="M21.6667 4.33333H4.33335C3.14169 4.33333 2.16669 5.30833 2.16669 6.5V19.5C2.16669 20.6917 3.14169 21.6667 4.33335 21.6667H21.6667C22.8584 21.6667 23.8334 20.6917 23.8334 19.5V6.5C23.8334 5.30833 22.8584 4.33333 21.6667 4.33333ZM21.6667 19.5H4.33335V6.5H21.6667V19.5ZM4.33335 0H21.6667V2.16667H4.33335V0ZM4.33335 23.8333H21.6667V26H4.33335V23.8333ZM13 13C14.495 13 15.7084 11.7867 15.7084 10.2917C15.7084 8.79667 14.495 7.58333 13 7.58333C11.505 7.58333 10.2917 8.79667 10.2917 10.2917C10.2917 11.7867 11.505 13 13 13ZM13 9.20833C13.5959 9.20833 14.0834 9.69583 14.0834 10.2917C14.0834 10.8875 13.5959 11.375 13 11.375C12.4042 11.375 11.9167 10.8875 11.9167 10.2917C11.9167 9.69583 12.4042 9.20833 13 9.20833ZM18.4167 17.3225C18.4167 15.0583 14.8309 14.0833 13 14.0833C11.1692 14.0833 7.58335 15.0583 7.58335 17.3225V18.4167H18.4167V17.3225ZM9.54419 16.7917C10.205 16.2283 11.7434 15.7083 13 15.7083C14.2675 15.7083 15.8059 16.2283 16.4667 16.7917H9.54419Z" fill="white"/>
</g>
<defs>
<clipPath id="clip0_368_1559">
<rect width="26" height="26" fill="white"/>
</clipPath>
</defs>
</svg>
