<svg width="26" height="24" viewBox="0 0 26 24" fill="none" xmlns="http://www.w3.org/2000/svg">
<path d="M7.24965 1C6.98432 1 6.72988 1.10544 6.54232 1.29311L2.29268 5.54537C2.10527 5.73289 2 5.98715 2 6.25226V20.4286C2 20.9809 2.44772 21.4286 3 21.4286H17.7857V2C17.7857 1.44771 17.338 1 16.7857 1H7.24965Z" fill="white"/>
<path fill-rule="evenodd" clip-rule="evenodd" d="M13.8928 8.30309C13.7689 8.1133 13.5588 8 13.3309 8C13.2022 8 13.077 8.03669 12.9686 8.10613C10.6086 9.62084 9.10679 11.848 8.39597 13.0989L7.1993 11.5447C7.07203 11.3792 6.87831 11.2843 6.66774 11.2843C6.51996 11.2843 6.37982 11.3314 6.26248 11.4206C6.12065 11.5283 6.02956 11.6844 6.00597 11.8602C5.9824 12.036 6.02914 12.2103 6.13755 12.3511L7.97692 14.7396C8.10285 14.9027 8.30123 15 8.50766 15C8.5345 15 8.56169 14.9984 8.58858 14.9952C8.82269 14.9668 9.02649 14.8157 9.12036 14.6009C9.13527 14.5669 10.6428 11.1793 13.6942 9.22079C13.8442 9.12469 13.9474 8.97622 13.9849 8.80277C14.0223 8.62952 13.9896 8.45207 13.8928 8.30309Z" fill="#007689"/>
<circle cx="17.7857" cy="19.5" r="6.5" fill="#10C9C9"/>
<path fill-rule="evenodd" clip-rule="evenodd" d="M18.6135 22.6823C18.5698 22.7753 18.5355 22.8293 18.5105 22.8443H18.5011C18.3856 22.8443 18.3059 22.7693 18.2622 22.6193C18.2466 22.5653 18.2388 22.5038 18.2388 22.4348C18.2388 22.2248 18.32 21.9443 18.4824 21.5933C18.6416 21.2364 18.8462 20.8224 19.096 20.3514C19.7174 19.2114 20.4449 17.9814 21.2787 16.6615C21.5659 16.2205 21.7986 16 21.9766 16C22.1265 16 22.2295 16.1425 22.2857 16.4275C22.2857 16.4905 22.2139 16.5925 22.0702 16.7335C21.7736 17.0875 21.4941 17.4655 21.2318 17.8674C20.4512 19.0824 19.758 20.2929 19.1522 21.4988C19.0148 21.7778 18.8352 22.1723 18.6135 22.6823ZM16.8945 22.5878C16.4105 22.8848 15.9171 23.0213 15.4144 22.9973C14.921 22.9763 14.4526 22.8218 14.0092 22.5338C13.5002 22.1708 13.2598 21.7388 13.2879 21.2379C13.3066 20.8689 13.4472 20.4954 13.7095 20.1174C14.0935 19.6404 14.5151 19.4139 14.9741 19.4379C15.3551 19.4559 15.6814 19.6629 15.9531 20.0589C15.6658 20.1459 15.416 20.2449 15.2036 20.3559C15.0444 20.4339 14.8695 20.5554 14.679 20.7204C14.5104 20.8824 14.3964 21.0309 14.3371 21.1659C14.2809 21.2889 14.2512 21.3879 14.2481 21.4629L14.2434 21.4988C14.2341 21.6878 14.3558 21.8273 14.6088 21.9173C14.7056 21.9503 14.8149 21.9698 14.9366 21.9758L14.9788 21.9803C15.3317 21.9953 15.6954 21.9083 16.0702 21.7193C16.5417 21.4494 16.7884 21.0954 16.8102 20.6574C16.8289 20.2374 16.651 19.8384 16.2762 19.4604C16.2075 19.3974 16.0561 19.2714 15.8219 19.0824C15.5596 18.8424 15.3894 18.6579 15.3114 18.5289C15.0959 18.2229 14.9975 17.9109 15.0163 17.593C15.035 17.179 15.2271 16.8205 15.5924 16.5175C15.9484 16.2505 16.3512 16.1275 16.8008 16.1485H16.8336C17.2115 16.1665 17.5456 16.288 17.836 16.513C18.0046 16.63 18.1404 16.7755 18.2435 16.9495C18.3653 17.1625 18.4199 17.3845 18.4074 17.6155C18.3981 17.8195 18.3372 17.9889 18.2248 18.1239C18.1123 18.2259 17.9531 18.2724 17.747 18.2634C17.5097 18.2514 17.2958 18.1824 17.1053 18.0564C17.0647 18.0204 17.046 17.9889 17.0491 17.9619V17.9484C17.0491 17.9244 17.0866 17.8989 17.1615 17.8719C17.2989 17.809 17.3934 17.6785 17.4449 17.4805C17.4964 17.2825 17.4706 17.1235 17.3676 17.0035C17.2458 16.9015 17.0928 16.846 16.9086 16.837C16.6525 16.825 16.4378 16.8962 16.2645 17.0507C16.0912 17.2052 15.9999 17.365 15.9905 17.53V17.548C15.9749 17.8509 16.22 18.1929 16.7259 18.5739C16.8414 18.6609 17.0194 18.8274 17.2599 19.0734C17.7782 19.6854 18.0218 20.2854 17.9906 20.8734C17.9656 21.3834 17.7392 21.8468 17.3114 22.2638C17.1147 22.4378 16.9757 22.5458 16.8945 22.5878Z" fill="#007689"/>
<path d="M18.5105 22.8443V22.9943H18.552L18.5877 22.9729L18.5105 22.8443ZM18.6135 22.6823L18.7493 22.7462L18.7511 22.7421L18.6135 22.6823ZM18.2622 22.6193L18.1181 22.661L18.1182 22.6613L18.2622 22.6193ZM18.4824 21.5933L18.6185 21.6563L18.6194 21.6545L18.4824 21.5933ZM19.096 20.3514L18.9642 20.2796L18.9634 20.2811L19.096 20.3514ZM21.2787 16.6615L21.153 16.5796L21.1518 16.5814L21.2787 16.6615ZM22.2857 16.4275H22.4357V16.4128L22.4329 16.3985L22.2857 16.4275ZM22.0702 16.7335L21.9652 16.6264L21.96 16.6315L21.9553 16.6371L22.0702 16.7335ZM21.2318 17.8674L21.1062 17.7855L21.1056 17.7864L21.2318 17.8674ZM19.1522 21.4988L19.0181 21.4315L19.0176 21.4326L19.1522 21.4988ZM15.4144 22.9973L15.4216 22.8475L15.4208 22.8474L15.4144 22.9973ZM16.8945 22.5878L16.8254 22.4542L16.8161 22.46L16.8945 22.5878ZM14.0092 22.5338L13.9221 22.6561L13.9275 22.6596L14.0092 22.5338ZM13.2879 21.2379L13.4377 21.2463L13.4377 21.2455L13.2879 21.2379ZM13.7095 20.1174L13.5923 20.0231L13.5862 20.0319L13.7095 20.1174ZM14.9741 19.4379L14.9663 19.5877L14.967 19.5877L14.9741 19.4379ZM15.9531 20.0589L15.9965 20.2025L16.1927 20.143L16.0767 19.974L15.9531 20.0589ZM15.2036 20.3559L15.2696 20.4906L15.2731 20.4888L15.2036 20.3559ZM14.679 20.7204L14.5807 20.6068L14.5751 20.6122L14.679 20.7204ZM14.3371 21.1659L14.4736 21.2282L14.4744 21.2262L14.3371 21.1659ZM14.2481 21.4629L14.3974 21.4823L14.398 21.4691L14.2481 21.4629ZM14.2434 21.4988L14.0942 21.4794L14.0936 21.4914L14.2434 21.4988ZM14.6088 21.9173L14.5585 22.0587L14.5604 22.0593L14.6088 21.9173ZM14.9366 21.9758L14.9526 21.8264L14.944 21.826L14.9366 21.9758ZM14.9788 21.9803L14.9629 22.1298L14.9724 22.1302L14.9788 21.9803ZM16.0702 21.7193L16.1378 21.8535L16.1447 21.8495L16.0702 21.7193ZM16.8102 20.6574L16.96 20.6648L16.9601 20.6641L16.8102 20.6574ZM16.2762 19.4604L16.3829 19.3547L16.3776 19.3499L16.2762 19.4604ZM15.8219 19.0824L15.7205 19.1933L15.7277 19.1991L15.8219 19.0824ZM15.3114 18.5289L15.44 18.4511L15.434 18.4426L15.3114 18.5289ZM15.0163 17.593L15.166 17.6018L15.1661 17.5997L15.0163 17.593ZM15.5924 16.5175L15.5023 16.3973L15.4966 16.402L15.5924 16.5175ZM16.8008 16.1485L16.7938 16.2985H16.8008V16.1485ZM16.8336 16.1485L16.8408 15.9985H16.8336V16.1485ZM17.836 16.513L17.744 16.6317L17.7505 16.6362L17.836 16.513ZM18.2435 16.9495L18.3737 16.875L18.3726 16.873L18.2435 16.9495ZM18.4074 17.6155L18.2576 17.6074L18.2576 17.6086L18.4074 17.6155ZM18.2248 18.1239L18.3255 18.235L18.3333 18.228L18.34 18.2199L18.2248 18.1239ZM17.747 18.2634L17.7394 18.4133L17.7405 18.4133L17.747 18.2634ZM17.1053 18.0564L17.0058 18.1687L17.0137 18.1757L17.0225 18.1816L17.1053 18.0564ZM17.0491 17.9619L17.1981 17.9792L17.1991 17.9706V17.9619H17.0491ZM17.1615 17.8719L17.2125 18.0136L17.224 18.0083L17.1615 17.8719ZM17.3676 17.0035L17.4814 16.9057L17.4734 16.8964L17.4639 16.8885L17.3676 17.0035ZM16.9086 16.837L16.9159 16.6872L16.9156 16.6871L16.9086 16.837ZM16.2645 17.0507L16.3644 17.1627V17.1627L16.2645 17.0507ZM15.9905 17.53L15.8405 17.5214V17.53H15.9905ZM15.9905 17.548L16.1405 17.5557V17.548H15.9905ZM16.7259 18.5739L16.6357 18.6937L16.6357 18.6938L16.7259 18.5739ZM17.2599 19.0734L17.3746 18.9762L17.3671 18.9686L17.2599 19.0734ZM17.9906 20.8734L17.8408 20.8654L17.8407 20.866L17.9906 20.8734ZM17.3114 22.2638L17.4109 22.3763L17.4161 22.3712L17.3114 22.2638ZM18.5877 22.9729C18.6327 22.9459 18.6634 22.9016 18.6815 22.8731C18.7035 22.8385 18.7261 22.7954 18.7493 22.7461L18.4778 22.6185C18.4572 22.6622 18.4408 22.6926 18.4284 22.7121C18.4223 22.7217 18.4185 22.7265 18.4172 22.728C18.4151 22.7304 18.4203 22.7235 18.4333 22.7157L18.5877 22.9729ZM18.5011 22.9943H18.5105V22.6943H18.5011V22.9943ZM18.1182 22.6613C18.1445 22.7516 18.186 22.8352 18.2519 22.8973C18.3212 22.9625 18.4075 22.9943 18.5011 22.9943V22.6943C18.4792 22.6943 18.4679 22.6886 18.4576 22.6789C18.4438 22.6659 18.4236 22.6371 18.4062 22.5773L18.1182 22.6613ZM18.0888 22.4348C18.0888 22.5148 18.0978 22.5908 18.1181 22.661L18.4063 22.5777C18.3954 22.5399 18.3888 22.4928 18.3888 22.4348H18.0888ZM18.3462 21.5304C18.1811 21.8872 18.0888 22.1917 18.0888 22.4348H18.3888C18.3888 22.2579 18.4588 22.0015 18.6185 21.6563L18.3462 21.5304ZM18.9634 20.2811C18.7126 20.7541 18.5064 21.1713 18.3454 21.5322L18.6194 21.6545C18.7768 21.3015 18.9797 20.8906 19.2285 20.4217L18.9634 20.2811ZM21.1518 16.5814C20.3167 17.9035 19.5875 19.1363 18.9643 20.2796L19.2277 20.4232C19.8473 19.2865 20.5731 18.0594 21.4055 16.7416L21.1518 16.5814ZM21.9766 15.85C21.8283 15.85 21.6894 15.939 21.5654 16.0565C21.4369 16.1783 21.2995 16.3547 21.153 16.5796L21.4043 16.7434C21.5451 16.5273 21.6677 16.3729 21.7718 16.2742C21.8805 16.1712 21.9469 16.15 21.9766 16.15V15.85ZM22.4329 16.3985C22.403 16.2469 22.3577 16.1156 22.2878 16.019C22.2137 15.9164 22.1084 15.85 21.9766 15.85V16.15C21.9946 16.15 22.0158 16.1548 22.0447 16.1948C22.0779 16.2406 22.1122 16.3231 22.1385 16.4565L22.4329 16.3985ZM22.1753 16.8405C22.2502 16.767 22.3112 16.6991 22.3545 16.6376C22.3936 16.582 22.4357 16.5081 22.4357 16.4275H22.1357C22.1357 16.4099 22.1419 16.4185 22.1092 16.4649C22.0807 16.5054 22.0339 16.5589 21.9652 16.6264L22.1753 16.8405ZM21.3574 17.9494C21.6166 17.5522 21.8925 17.1791 22.1852 16.8298L21.9553 16.6371C21.6546 16.9959 21.3716 17.3787 21.1062 17.7855L21.3574 17.9494ZM19.2862 21.5662C19.8895 20.3652 20.58 19.1594 21.358 17.9485L21.1056 17.7864C20.3223 19.0055 19.6264 20.2205 19.0181 21.4315L19.2862 21.5662ZM18.7511 22.7421C18.9725 22.2329 19.1509 21.8409 19.2867 21.5651L19.0176 21.4326C18.8786 21.7147 18.698 22.1118 18.476 22.6225L18.7511 22.7421ZM15.4073 23.1471C15.9439 23.1728 16.4667 23.0263 16.973 22.7157L16.8161 22.46C16.3543 22.7433 15.8904 22.8699 15.4216 22.8475L15.4073 23.1471ZM13.9275 22.6596C14.3918 22.9612 14.8859 23.125 15.408 23.1472L15.4208 22.8474C14.9561 22.8277 14.5135 22.6825 14.0909 22.408L13.9275 22.6596ZM13.1381 21.2295C13.1064 21.7948 13.3831 22.2715 13.9221 22.6559L14.0963 22.4117C13.6174 22.0702 13.4132 21.6829 13.4377 21.2463L13.1381 21.2295ZM13.5862 20.0319C13.3119 20.4272 13.1586 20.8272 13.1381 21.2303L13.4377 21.2455C13.4547 20.9105 13.5825 20.5635 13.8327 20.2029L13.5862 20.0319ZM14.982 19.2881C14.4597 19.2608 13.996 19.5224 13.5926 20.0233L13.8263 20.2115C14.1911 19.7584 14.5705 19.567 14.9663 19.5877L14.982 19.2881ZM16.0767 19.974C15.7861 19.5504 15.421 19.3089 14.9812 19.2881L14.967 19.5877C15.2891 19.603 15.5767 19.7754 15.8294 20.1437L16.0767 19.974ZM15.2731 20.4888C15.4754 20.3831 15.7161 20.2874 15.9965 20.2025L15.9096 19.9153C15.6155 20.0044 15.3566 20.1067 15.1341 20.2229L15.2731 20.4888ZM14.7772 20.8337C14.9617 20.674 15.1257 20.5611 15.2696 20.4906L15.1377 20.2212C14.963 20.3067 14.7773 20.4368 14.5808 20.607L14.7772 20.8337ZM14.4744 21.2262C14.5226 21.1166 14.6211 20.984 14.783 20.8285L14.5751 20.6122C14.3997 20.7807 14.2703 20.9451 14.1998 21.1055L14.4744 21.2262ZM14.398 21.4691C14.3999 21.4233 14.42 21.3454 14.4735 21.2282L14.2007 21.1035C14.1418 21.2323 14.1026 21.3524 14.0982 21.4566L14.398 21.4691ZM14.3922 21.5182L14.3969 21.4822L14.0994 21.4435L14.0947 21.4795L14.3922 21.5182ZM14.6591 21.776C14.5466 21.736 14.4788 21.6902 14.4407 21.6466C14.406 21.6068 14.3904 21.5629 14.3932 21.5063L14.0936 21.4914C14.0871 21.6238 14.1277 21.7442 14.2147 21.8439C14.2985 21.9398 14.418 22.0087 14.5585 22.0587L14.6591 21.776ZM14.944 21.826C14.8336 21.8206 14.7385 21.8031 14.6572 21.7754L14.5604 22.0593C14.6727 22.0976 14.7961 22.1191 14.9293 22.1257L14.944 21.826ZM14.9947 21.8312L14.9526 21.8267L14.9207 22.125L14.9629 22.1295L14.9947 21.8312ZM16.0026 21.5854C15.6465 21.765 15.308 21.8442 14.9852 21.8305L14.9724 22.1302C15.3553 22.1465 15.7444 22.0516 16.1377 21.8533L16.0026 21.5854ZM16.6604 20.6499C16.6417 21.0243 16.4349 21.3376 15.9956 21.5892L16.1447 21.8495C16.6484 21.5611 16.935 21.1665 16.96 20.6648L16.6604 20.6499ZM16.1697 19.566C16.5233 19.9227 16.6768 20.2831 16.6604 20.6507L16.9601 20.6641C16.9811 20.1917 16.7786 19.7541 16.3828 19.3548L16.1697 19.566ZM15.7277 19.1991C15.9627 19.3888 16.1103 19.5118 16.1749 19.571L16.3776 19.3499C16.3048 19.2831 16.1495 19.154 15.9161 18.9657L15.7277 19.1991ZM15.183 18.6066C15.2733 18.7558 15.4582 18.953 15.7207 19.1931L15.9232 18.9717C15.661 18.7319 15.5055 18.56 15.4397 18.4513L15.183 18.6066ZM14.8665 17.5841C14.8455 17.9417 14.9573 18.2866 15.1887 18.6153L15.434 18.4426C15.2345 18.1593 15.1496 17.8802 15.166 17.6018L14.8665 17.5841ZM15.4966 16.402C15.104 16.7277 14.8874 17.1236 14.8664 17.5862L15.1661 17.5997C15.1827 17.2343 15.3501 16.9133 15.6882 16.6329L15.4966 16.402ZM16.8078 15.9987C16.3238 15.9761 15.8866 16.1093 15.5024 16.3975L15.6824 16.6375C16.0101 16.3917 16.3786 16.2789 16.7938 16.2983L16.8078 15.9987ZM16.8336 15.9985H16.8008V16.2985H16.8336V15.9985ZM17.9279 16.3944C17.6123 16.15 17.2484 16.0181 16.8408 15.9987L16.8265 16.2983C17.1745 16.3149 17.4788 16.426 17.7441 16.6316L17.9279 16.3944ZM18.3726 16.873C18.2584 16.6802 18.1076 16.5188 17.9215 16.3897L17.7505 16.6362C17.9017 16.7411 18.0225 16.8707 18.1144 17.0259L18.3726 16.873ZM18.5572 17.6236C18.5714 17.362 18.5089 17.1115 18.3737 16.875L18.1133 17.0239C18.2216 17.2135 18.2685 17.407 18.2576 17.6074L18.5572 17.6236ZM18.34 18.2199C18.4766 18.0559 18.5467 17.8535 18.5573 17.6223L18.2576 17.6086C18.2495 17.7854 18.1977 17.922 18.1095 18.028L18.34 18.2199ZM17.7405 18.4133C17.9715 18.4234 18.1746 18.372 18.3255 18.235L18.124 18.0129C18.0501 18.0799 17.9347 18.1215 17.7535 18.1136L17.7405 18.4133ZM17.0225 18.1816C17.2363 18.323 17.4764 18.3999 17.7394 18.4132L17.7546 18.1136C17.5429 18.1029 17.3552 18.0419 17.1881 17.9313L17.0225 18.1816ZM16.9001 17.9447C16.8936 18.0006 16.9115 18.0483 16.9319 18.0825C16.952 18.1163 16.9789 18.1448 17.0058 18.1687L17.2048 17.9442C17.1984 17.9385 17.1942 17.9342 17.1916 17.9313C17.189 17.9283 17.1888 17.9275 17.1897 17.9291C17.1914 17.9319 17.2014 17.9503 17.1981 17.9792L16.9001 17.9447ZM16.8991 17.9484V17.9619H17.1991V17.9484H16.8991ZM17.1107 17.7308C17.0688 17.7459 17.027 17.7641 16.9928 17.7873C16.9677 17.8044 16.8991 17.856 16.8991 17.9484H17.1991C17.1991 17.9836 17.1849 18.0085 17.1757 18.0207C17.1672 18.032 17.1601 18.0364 17.1616 18.0353C17.1624 18.0348 17.1666 18.0321 17.1758 18.0278C17.1848 18.0236 17.1968 18.0187 17.2123 18.0131L17.1107 17.7308ZM17.2997 17.4427C17.2553 17.6135 17.1822 17.6974 17.099 17.7356L17.224 18.0083C17.4156 17.9205 17.5314 17.7435 17.59 17.5182L17.2997 17.4427ZM17.2538 17.1012C17.3156 17.1732 17.3429 17.2767 17.2997 17.4427L17.59 17.5182C17.6499 17.2882 17.6257 17.0738 17.4814 16.9057L17.2538 17.1012ZM16.9013 16.9868C17.0583 16.9945 17.1785 17.0407 17.2713 17.1185L17.4639 16.8885C17.3132 16.7622 17.1273 16.6975 16.9159 16.6872L16.9013 16.9868ZM16.3644 17.1627C16.5052 17.0371 16.6802 16.9764 16.9016 16.9868L16.9156 16.6871C16.6248 16.6735 16.3705 16.7553 16.1647 16.9388L16.3644 17.1627ZM16.1403 17.5385C16.1466 17.427 16.2086 17.3016 16.3644 17.1627L16.1647 16.9388C15.9739 17.1089 15.8532 17.3029 15.8408 17.5215L16.1403 17.5385ZM16.1405 17.548V17.53H15.8405V17.548H16.1405ZM16.8161 18.4541C16.5699 18.2686 16.395 18.0984 16.2846 17.9443C16.1743 17.7904 16.1348 17.6622 16.1403 17.5557L15.8407 17.5402C15.8306 17.7367 15.9059 17.931 16.0407 18.1191C16.1754 18.307 16.3761 18.4982 16.6357 18.6937L16.8161 18.4541ZM17.3671 18.9686C17.1266 18.7225 16.9417 18.5486 16.8161 18.4541L16.6357 18.6938C16.7412 18.7732 16.9122 18.9323 17.1526 19.1783L17.3671 18.9686ZM18.1403 20.8813C18.1742 20.2431 17.9083 19.6069 17.3743 18.9765L17.1454 19.1704C17.6481 19.7639 17.8693 20.3277 17.8408 20.8654L18.1403 20.8813ZM17.4161 22.3712C17.8661 21.9326 18.1132 21.4349 18.1404 20.8807L17.8407 20.866C17.8179 21.3318 17.6123 21.7611 17.2067 22.1564L17.4161 22.3712ZM16.9634 22.721C17.0637 22.6692 17.216 22.5484 17.4108 22.3762L17.212 22.1515C17.0133 22.3272 16.8877 22.4225 16.8256 22.4546L16.9634 22.721Z" fill="#007689"/>
</svg>
