<svg width="24" height="24" viewBox="0 0 24 24" fill="none" xmlns="http://www.w3.org/2000/svg">
<path fill-rule="evenodd" clip-rule="evenodd" d="M19.5 18.5H20.1562C20.6227 18.5 21 18.8773 21 19.3438C21 19.8102 20.6227 20.1875 20.1562 20.1875H13.6875V21.3125C13.6875 22.2453 12.9328 23 12 23C11.0672 23 10.3125 22.2453 10.3125 21.3125V20.1875H3.84375C3.37734 20.1875 3 19.8102 3 19.3438C3 18.8773 3.37734 18.5 3.84375 18.5H4.5V10C4.5 6.14219 7.41094 2.96641 11.1562 2.54688V1.84375C11.1562 1.37734 11.5336 1 12 1C12.4664 1 12.8438 1.37734 12.8438 1.84375V2.54688C16.5891 2.96641 19.5 6.14219 19.5 10V18.5ZM6.1875 10V18.5H17.8125V10C17.8125 6.78906 15.2109 4.1875 12 4.1875C8.78906 4.1875 6.1875 6.78906 6.1875 10Z" fill="#007689"/>
</svg>
