<svg width="34" height="34" viewBox="0 0 34 34" fill="none" xmlns="http://www.w3.org/2000/svg">
<rect width="34" height="34" rx="10" fill="#F5E6FE"/>
<path fill-rule="evenodd" clip-rule="evenodd" d="M16.9997 20.75C16.9997 22.8177 18.6819 24.5 20.7496 24.5C22.8173 24.5 24.4995 22.8177 24.4995 20.75C24.4995 18.6823 22.8173 17 20.7496 17C18.6819 17 16.9997 18.6823 16.9997 20.75ZM18.1247 20.75C18.1247 19.3025 19.3021 18.125 20.7496 18.125C22.1971 18.125 23.3745 19.3025 23.3745 20.75C23.3745 22.1975 22.1971 23.375 20.7496 23.375C19.3021 23.375 18.1247 22.1975 18.1247 20.75Z" fill="#BE63F9"/>
<path d="M25.437 26.0006C25.293 26.0006 25.149 25.9458 25.0395 25.8356L22.602 23.3981C22.3823 23.1783 22.3823 22.8221 22.602 22.6023C22.8218 22.3826 23.178 22.3826 23.3978 22.6023L25.8352 25.0398C26.0549 25.2596 26.0549 25.6158 25.8352 25.8356C25.7249 25.9458 25.581 26.0006 25.437 26.0006Z" fill="#BE63F9"/>
<path d="M15.8973 23.75H10.0624C8.92472 23.75 8 22.8252 8 21.6875V10.0625C8 8.92475 8.92472 8 10.0624 8H18.6872C19.8249 8 20.7496 8.92475 20.7496 10.0625V15.3425C20.7496 15.653 20.4976 15.905 20.1871 15.905C19.8766 15.905 19.6246 15.653 19.6246 15.3425V10.0625C19.6246 9.54575 19.2039 9.125 18.6872 9.125H10.0624C9.5457 9.125 9.12496 9.54575 9.12496 10.0625V21.6875C9.12496 22.2043 9.5457 22.625 10.0624 22.625H15.8973C16.2077 22.625 16.4597 22.877 16.4597 23.1875C16.4597 23.498 16.2077 23.75 15.8973 23.75Z" fill="#D8A1FB"/>
<path d="M17.9372 15.125H10.8124C10.5019 15.125 10.2499 14.873 10.2499 14.5625C10.2499 14.252 10.5019 14 10.8124 14H17.9372C18.2477 14 18.4997 14.252 18.4997 14.5625C18.4997 14.873 18.2477 15.125 17.9372 15.125Z" fill="#D8A1FB"/>
<path d="M14.9373 18.125H10.8124C10.5019 18.125 10.2499 17.873 10.2499 17.5625C10.2499 17.252 10.5019 17 10.8124 17H14.9373C15.2478 17 15.4998 17.252 15.4998 17.5625C15.4998 17.873 15.2478 18.125 14.9373 18.125Z" fill="#D8A1FB"/>
<path d="M14.1873 12.125H10.8124C10.5019 12.125 10.2499 11.873 10.2499 11.5625C10.2499 11.252 10.5019 11 10.8124 11H14.1873C14.4978 11 14.7498 11.252 14.7498 11.5625C14.7498 11.873 14.4978 12.125 14.1873 12.125Z" fill="#D8A1FB"/>
</svg>
