<svg width="34" height="34" viewBox="0 0 34 34" fill="none" xmlns="http://www.w3.org/2000/svg">
<rect opacity="0.1" width="34" height="34" rx="10" fill="#00DC80"/>
<path fill-rule="evenodd" clip-rule="evenodd" d="M8.2135 13.4248C8.35526 13.5837 8.55286 13.6654 8.74903 13.6654C8.91943 13.6654 9.08839 13.6052 9.22586 13.4835C10.8768 12.0144 12.9946 11.2053 15.1897 11.2053C15.4962 11.2053 15.7926 11.2225 16.0904 11.2555C16.4885 11.297 16.8379 11.0178 16.8823 10.6254C16.9267 10.2331 16.6446 9.87797 16.2522 9.83358C15.9014 9.79348 15.5506 9.77344 15.1897 9.77344C12.6424 9.77344 10.1867 10.7113 8.27221 12.4139C7.97723 12.6773 7.95003 13.1298 8.2135 13.4248ZM7.38013 17.1778C7.5047 17.2623 7.64503 17.3038 7.78536 17.3038C8.01446 17.3038 8.23784 17.195 8.37817 16.9945C9.93179 14.7364 12.4791 13.3876 15.1912 13.3876C15.5334 13.3876 15.8527 13.4076 16.1405 13.4463C16.5386 13.5007 16.8937 13.2229 16.9467 12.832C16.9997 12.4411 16.7248 12.0802 16.3338 12.0273C15.9773 11.9786 15.6036 11.9557 15.1912 11.9557C12.0066 11.9557 9.01966 13.5365 7.19684 16.1827C6.97204 16.5077 7.05509 16.953 7.38013 17.1778ZM13.3927 27.9114C13.2109 27.9114 13.029 27.8427 12.8901 27.7052C12.7627 27.5806 9.79719 24.6223 9.79719 21.7485C9.79719 18.7501 12.2157 16.3115 15.1897 16.3115C18.1638 16.3115 20.5823 18.7501 20.5823 21.7485C20.5823 22.1437 20.2616 22.4644 19.8664 22.4644C19.4711 22.4644 19.1504 22.1437 19.1504 21.7485C19.1504 19.5405 17.3734 17.7434 15.1897 17.7434C13.0061 17.7434 11.2291 19.5405 11.2291 21.7485C11.2291 24.021 13.865 26.6568 13.8953 26.6871L13.8953 26.6871C14.176 26.9649 14.1788 27.4188 13.901 27.6995C13.7607 27.8398 13.5774 27.9114 13.3927 27.9114ZM9.36046 26.5883C9.50221 26.763 9.70841 26.8532 9.91604 26.8532C10.075 26.8532 10.2354 26.8002 10.3671 26.6928C10.6735 26.4437 10.7208 25.9926 10.4716 25.6862C9.55376 24.555 9.06835 23.1933 9.06835 21.747C9.06835 20.0316 9.78287 18.3778 11.0286 17.2108C12.2744 16.0438 13.9096 15.4667 15.5935 15.5741C16.0446 15.6085 16.4856 15.6915 16.9023 15.8218C17.2775 15.9421 17.6813 15.7302 17.8001 15.3536C17.919 14.9756 17.7099 14.5746 17.3319 14.4558C16.8092 14.2925 16.2594 14.188 15.6923 14.1465C13.5874 14.0162 11.5885 14.7264 10.0506 16.1669C8.51706 17.6031 7.63644 19.6378 7.63644 21.747C7.63644 23.5255 8.23211 25.1994 9.36046 26.5883ZM16.9854 27.9114C15.5764 27.9114 12.3059 25.2953 11.9894 22.3814C11.8777 21.3304 12.2028 20.2951 12.8801 19.5376C13.4801 18.866 14.2962 18.4937 15.1769 18.4895H15.1983C16.0503 18.4895 16.8522 18.8202 17.4593 19.4231C18.0808 20.0402 18.423 20.865 18.423 21.747V22.1093C18.423 22.9169 19.0688 23.5742 19.8635 23.5742C20.2515 23.5742 20.6109 23.4238 20.8773 23.1503C21.1622 22.8711 21.3126 22.506 21.3126 22.1093V21.989C21.3126 20.8564 21.0219 19.7467 20.4721 18.7787C20.2759 18.435 20.3962 17.9983 20.7398 17.8021C21.0835 17.606 21.5216 17.7277 21.7164 18.0699C22.3894 19.2527 22.7459 20.6072 22.7459 21.9876V22.1079C22.7459 22.8926 22.4424 23.6214 21.8925 24.1598C21.367 24.6996 20.6424 25.0046 19.8649 25.0046C18.2812 25.0046 16.9925 23.7045 16.9925 22.1079V21.7456C16.9925 21.2473 16.8006 20.7834 16.4513 20.4368C16.1119 20.1003 15.6523 19.9428 15.1869 19.9185C14.5826 19.9214 14.1803 20.2307 13.9483 20.4898C13.5459 20.9394 13.3455 21.5895 13.4128 22.2267C13.6619 24.5178 16.3954 26.4795 16.9854 26.4795C17.3806 26.4795 17.7013 26.8002 17.7013 27.1954C17.7013 27.5907 17.3806 27.9114 16.9854 27.9114ZM14.4294 21.3848C14.4294 24.3961 16.9854 26.8217 19.1031 26.8217C19.4984 26.8217 19.8191 26.501 19.8191 26.1058C19.8191 25.7106 19.4984 25.3898 19.1031 25.3898C17.823 25.3898 15.8613 23.5956 15.8613 21.3848C15.8613 20.9896 15.5406 20.6688 15.1454 20.6688C14.7502 20.6688 14.4294 20.9896 14.4294 21.3848Z" fill="#00DC80"/>
<path opacity="0.6" fill-rule="evenodd" clip-rule="evenodd" d="M17.5869 11.2045C17.5869 7.78363 20.3705 5 23.7914 5C27.2122 5 29.9958 7.78363 29.9958 11.2045C29.9958 14.6253 27.2122 17.4089 23.7914 17.4089C20.3705 17.4089 17.5869 14.6253 17.5869 11.2045ZM23.3761 13.5857L26.7168 9.76682C26.9774 9.46898 26.9473 9.01793 26.6466 8.75875C26.3502 8.49815 25.8977 8.52822 25.6371 8.82605L22.8005 12.0679L21.433 10.7004C21.1538 10.4212 20.6999 10.4212 20.4207 10.7004C20.1414 10.9796 20.1414 11.4336 20.4207 11.7128L22.3294 13.6215C22.464 13.7561 22.6473 13.8306 22.8363 13.8306H22.8606C23.0597 13.8234 23.2458 13.7346 23.3761 13.5857Z" fill="#00DC80"/>
</svg>
