<svg width="23" height="22" viewBox="0 0 23 22" fill="none" xmlns="http://www.w3.org/2000/svg">
<path opacity="0.604932" fill-rule="evenodd" clip-rule="evenodd" d="M10.3307 5.96575C10.4494 6.08315 10.6076 6.14617 10.7682 6.14617C10.8473 6.14617 10.9289 6.13011 11.0042 6.09921C11.2353 6.00282 11.3861 5.77791 11.3861 5.52829V2.64523C11.3861 2.30416 11.1093 2.02734 10.7682 2.02734H7.88515C7.63553 2.02734 7.40938 2.17811 7.31423 2.4092C7.21784 2.64029 7.27097 2.90598 7.44769 3.08269L8.30655 3.94156L3.38941 8.85869C3.06811 9.18123 3.06811 9.70273 3.38941 10.024C3.55006 10.1847 3.76014 10.265 3.97146 10.265C4.18278 10.265 4.39286 10.1847 4.55475 10.024L9.47188 5.10689L10.3307 5.96575Z" fill="#567790"/>
<path d="M7.26755 13.7657V18.5024H2.32446V13.7657C2.32446 13.1973 2.78541 12.7363 3.35386 12.7363H6.23692C6.80537 12.7363 7.26755 13.1973 7.26755 13.7657Z" fill="#567790"/>
<path d="M13.8579 10.4708V18.5033H8.91479V10.4708C8.91479 9.90235 9.37574 9.44141 9.94419 9.44141H12.8273C13.3969 9.44017 13.8579 9.90235 13.8579 10.4708Z" fill="#567790"/>
<path d="M20.4482 7.17588V18.5042H15.5051V7.17588C15.5051 6.60743 15.9661 6.14648 16.5345 6.14648H19.4188C19.9873 6.14648 20.4482 6.60743 20.4482 7.17588Z" fill="#567790"/>
<path opacity="0.6" d="M20.6545 20.9741H2.11789C1.77681 20.9741 1.5 20.6972 1.5 20.3562C1.5 20.0151 1.77681 19.7383 2.11789 19.7383H20.6545C20.9955 19.7383 21.2724 20.0151 21.2724 20.3562C21.2724 20.6972 20.9955 20.9741 20.6545 20.9741Z" fill="#567790"/>
</svg>
