<svg width="20" height="16" viewBox="0 0 20 16" fill="none" xmlns="http://www.w3.org/2000/svg">
<path d="M11.428 6.1371C11.428 6.95098 11.127 7.73152 10.5912 8.30702C10.0554 8.88252 9.32872 9.20584 8.57099 9.20584C7.81327 9.20584 7.08658 8.88252 6.55079 8.30702C6.01499 7.73152 5.71399 6.95098 5.71399 6.1371C5.71399 5.32322 6.01499 4.54267 6.55079 3.96717C7.08658 3.39167 7.81327 3.06836 8.57099 3.06836C9.32872 3.06836 10.0554 3.39167 10.5912 3.96717C11.127 4.54267 11.428 5.32322 11.428 6.1371ZM9.9995 6.1371C9.9995 5.73016 9.84899 5.33989 9.5811 5.05214C9.3132 4.76439 8.94986 4.60273 8.57099 4.60273C8.19213 4.60273 7.82879 4.76439 7.56089 5.05214C7.29299 5.33989 7.14249 5.73016 7.14249 6.1371C7.14249 6.54404 7.29299 6.93431 7.56089 7.22206C7.82879 7.50981 8.19213 7.67147 8.57099 7.67147C8.94986 7.67147 9.3132 7.50981 9.5811 7.22206C9.84899 6.93431 9.9995 6.54404 9.9995 6.1371Z" fill="#007689"/>
<path d="M0 1.91796C0 0.859247 0.799962 0 1.78563 0H15.3564C16.3421 0 17.142 0.859247 17.142 1.91796V10.357C17.142 11.4157 16.3421 12.275 15.3564 12.275H1.78563C0.799962 12.275 0 11.4157 0 10.357V1.91796ZM1.78563 1.53437C1.69091 1.53437 1.60008 1.57478 1.5331 1.64672C1.46613 1.71866 1.4285 1.81623 1.4285 1.91796V3.06874H2.14275C2.33219 3.06874 2.51386 2.98791 2.64781 2.84404C2.78175 2.70016 2.85701 2.50502 2.85701 2.30155V1.53437H1.78563ZM1.4285 10.357C1.4285 10.5687 1.5885 10.7406 1.78563 10.7406H2.85701V9.9734C2.85701 9.76993 2.78175 9.57479 2.64781 9.43092C2.51386 9.28704 2.33219 9.20622 2.14275 9.20622H1.4285V10.357ZM4.28551 9.9734V10.7406H12.8565V9.9734C12.8565 9.36299 13.0823 8.77758 13.4841 8.34596C13.886 7.91433 14.431 7.67185 14.9993 7.67185H15.7135V4.60311H14.9993C14.431 4.60311 13.886 4.36062 13.4841 3.929C13.0823 3.49737 12.8565 2.91196 12.8565 2.30155V1.53437H4.28551V2.30155C4.28551 2.91196 4.05975 3.49737 3.65791 3.929C3.25607 4.36062 2.71105 4.60311 2.14275 4.60311H1.4285V7.67185H2.14275C2.71105 7.67185 3.25607 7.91433 3.65791 8.34596C4.05975 8.77758 4.28551 9.36299 4.28551 9.9734ZM14.285 10.7406H15.3564C15.4511 10.7406 15.542 10.7002 15.6089 10.6282C15.6759 10.5563 15.7135 10.4587 15.7135 10.357V9.20622H14.9993C14.8098 9.20622 14.6282 9.28704 14.4942 9.43092C14.3603 9.57479 14.285 9.76993 14.285 9.9734V10.7406ZM15.7135 3.06874V1.91796C15.7135 1.81623 15.6759 1.71866 15.6089 1.64672C15.542 1.57478 15.4511 1.53437 15.3564 1.53437H14.285V2.30155C14.285 2.50502 14.3603 2.70016 14.4942 2.84404C14.6282 2.98791 14.8098 3.06874 14.9993 3.06874H15.7135Z" fill="#007689"/>
<path d="M5.00069 15.3438C4.54817 15.3439 4.10721 15.1902 3.74102 14.9047C3.37482 14.6191 3.1022 14.2164 2.96222 13.7541C3.16078 13.791 3.36363 13.8094 3.57219 13.8094H15.3573C16.2098 13.8094 17.0273 13.4457 17.6301 12.7982C18.2328 12.1508 18.5715 11.2727 18.5715 10.3571V3.19922C18.9894 3.35794 19.3512 3.65198 19.6071 4.04083C19.8629 4.42968 20.0002 4.8942 20 5.37035V10.3571C20 11.0119 19.8799 11.6604 19.6466 12.2654C19.4133 12.8704 19.0713 13.4201 18.6402 13.8832C18.2091 14.3462 17.6973 14.7136 17.134 14.9642C16.5707 15.2148 15.967 15.3438 15.3573 15.3438H5.00069Z" fill="#007689"/>
</svg>
