<svg width="34" height="34" viewBox="0 0 34 34" fill="none" xmlns="http://www.w3.org/2000/svg">
<rect width="34" height="34" rx="10" fill="#F5E6FE"/>
<path opacity="0.6" d="M19.2292 20.1163H14.3736C13.1375 20.1163 12.1323 19.1111 12.1323 17.8751C12.1323 16.7869 12.9123 15.8759 13.9433 15.6753C14.3321 14.3462 15.5704 13.3926 16.988 13.3926C18.1075 13.3926 19.1429 13.9876 19.71 14.9334C20.9303 15.1564 21.8448 16.2278 21.8448 17.5019C21.8436 18.943 20.6703 20.1163 19.2292 20.1163Z" fill="#BE63F9"/>
<path fill-rule="evenodd" clip-rule="evenodd" d="M16.965 9.19068C12.6394 9.19068 9.12062 12.7106 9.12062 17.035C9.12062 17.8015 9.23381 18.5647 9.45569 19.3032C9.54534 19.599 9.37725 19.9117 9.0814 20.0013C8.78219 20.0899 8.47178 19.9206 8.38325 19.6259C8.12887 18.7832 8 17.9125 8 17.0362C8 12.0931 12.0219 8.07118 16.965 8.07118C18.8207 8.07118 20.5767 8.64158 22.0492 9.66358L23.4792 8.23367C23.8333 7.87955 24.4362 8.13281 24.4362 8.62925V11.9911C24.4362 12.3004 24.1852 12.5514 23.8759 12.5514H20.514C20.0142 12.5514 19.7654 11.9463 20.1173 11.5955L21.2469 10.466C19.9951 9.64453 18.5182 9.19068 16.965 9.19068ZM24.8486 14.071C25.1466 13.9813 25.4571 14.1494 25.5467 14.4464C25.8011 15.288 25.93 16.1598 25.93 17.035C25.93 21.9781 21.908 26 16.965 26C15.1148 26 13.3622 25.4319 11.8919 24.4143L10.4889 25.833C10.1426 26.1849 9.53525 25.9429 9.53077 25.4453L9.49379 22.0834C9.49267 21.9344 9.55094 21.7898 9.65628 21.6834C9.7605 21.5769 9.90506 21.5175 10.0541 21.5175H13.416C13.9135 21.5175 14.1645 22.1182 13.8149 22.4712L12.6898 23.6086C13.9415 24.4278 15.414 24.8794 16.965 24.8794C21.2906 24.8794 24.8093 21.3595 24.8093 17.035C24.8093 16.2697 24.6962 15.5065 24.4743 14.7691C24.3846 14.4733 24.5527 14.1606 24.8486 14.071Z" fill="#BE63F9"/>
</svg>
