<svg width="12" height="12" viewBox="0 0 12 12" fill="none" xmlns="http://www.w3.org/2000/svg">
<path d="M8.00045 9.33464C8.73711 9.33464 9.33378 8.73797 9.33378 8.0013C9.33378 7.26464 8.73711 6.66797 8.00045 6.66797C7.26378 6.66797 6.66711 7.26464 6.66711 8.0013C6.66711 8.73797 7.26378 9.33464 8.00045 9.33464Z" fill="#E3EAF2"/>
<path fill-rule="evenodd" clip-rule="evenodd" d="M2 0C0.895333 0 0 0.895333 0 2V10C0 11.1047 0.895333 12 2 12H10C11.1047 12 12 11.1047 12 10V2C12 0.895333 11.1047 0 10 0H2ZM1.33333 10V3.33333H10.6667V10C10.6667 10.368 10.368 10.6667 10 10.6667H2C1.632 10.6667 1.33333 10.368 1.33333 10Z" fill="#E3EAF2"/>
</svg>
