<svg width="20" height="20" viewBox="0 0 20 20" fill="none" xmlns="http://www.w3.org/2000/svg">
<g clip-path="url(#clip0_1596_202)">
<path d="M10.8333 6.66634C10.8333 4.82467 9.34168 3.33301 7.50001 3.33301C5.65834 3.33301 4.16668 4.82467 4.16668 6.66634C4.16668 8.50801 5.65834 9.99967 7.50001 9.99967C9.34168 9.99967 10.8333 8.50801 10.8333 6.66634ZM12.5 8.33301V9.99967H15V12.4997H16.6667V9.99967H19.1667V8.33301H16.6667V5.83301H15V8.33301H12.5ZM0.833344 14.9997V16.6663H14.1667V14.9997C14.1667 12.783 9.72501 11.6663 7.50001 11.6663C5.27501 11.6663 0.833344 12.783 0.833344 14.9997Z" fill="#007689"/>
</g>
<defs>
<clipPath id="clip0_1596_202">
<rect width="20" height="20" fill="white"/>
</clipPath>
</defs>
</svg>
