<svg width="13" height="13" viewBox="0 0 13 13" fill="none" xmlns="http://www.w3.org/2000/svg">
<path fill-rule="evenodd" clip-rule="evenodd" d="M9.07444 8.46455L11.514 10.9029C11.6801 11.0702 11.6801 11.3406 11.5152 11.5078C11.431 11.5908 11.3231 11.6323 11.2128 11.6323C11.1025 11.6323 10.9934 11.5908 10.9104 11.5078L8.47077 9.06821C7.68209 9.72169 6.67044 10.1143 5.56629 10.1143C3.0508 10.1143 1.01208 8.07554 1.01208 5.56006C1.01208 3.04458 3.0508 1.00586 5.56629 1.00586C8.08177 1.00586 10.1205 3.04458 10.1205 5.56006C10.1205 6.66421 9.72792 7.67586 9.07444 8.46455ZM5.56635 9.25969C6.06683 9.25969 6.55072 9.16244 7.00614 8.96912C7.44733 8.78292 7.84226 8.51607 8.18264 8.17569C8.52302 7.83531 8.78987 7.43919 8.97607 6.99919C9.16938 6.54377 9.26663 6.05989 9.26663 5.5594C9.26663 5.05891 9.16938 4.57503 8.97607 4.11961C8.78987 3.67961 8.52302 3.28349 8.18264 2.94311C7.84226 2.60273 7.44614 2.33588 7.00614 2.14968C6.55072 1.95636 6.06683 1.85911 5.56635 1.85911C5.06586 1.85911 4.58198 1.95636 4.12656 2.14968C3.68655 2.33588 3.29043 2.60273 2.95005 2.94311C2.60967 3.28349 2.34283 3.67961 2.15663 4.11961C1.96331 4.57503 1.86606 5.05891 1.86606 5.5594C1.86606 6.05989 1.96331 6.54377 2.15663 6.99919C2.34283 7.43919 2.60967 7.83531 2.95005 8.17569C3.29043 8.51607 3.68655 8.78292 4.12656 8.96912C4.58198 9.16244 5.06586 9.25969 5.56635 9.25969Z" fill="#2B3A4A"/>
</svg>
