<svg width="20" height="20" viewBox="0 0 20 20" fill="none" xmlns="http://www.w3.org/2000/svg">
<g clip-path="url(#clip0_1596_211)">
<path d="M14.175 11.6667H13.5083L13.2833 11.4417C14.1 10.4917 14.5917 9.26667 14.5917 7.91667C14.5917 4.925 12.1667 2.5 9.17499 2.5C6.18332 2.5 3.75832 5 3.75832 7.91667H1.66666L4.86666 11.25L8.33332 7.91667H5.42499C5.42499 5.83333 7.10832 4.16667 9.17499 4.16667C11.2417 4.16667 12.925 5.84167 12.925 7.91667C12.925 9.98333 11.2417 11.6667 9.17499 11.6667C8.63332 11.6667 8.12499 11.55 7.65832 11.35L6.42499 12.5833C7.23332 13.0583 8.16666 13.3333 9.17499 13.3333C10.5167 13.3333 11.7417 12.8417 12.6917 12.025L12.9167 12.25V12.9083L17.0917 17.0667L18.3333 15.8333L14.175 11.6667Z" fill="#007689"/>
</g>
<defs>
<clipPath id="clip0_1596_211">
<rect width="20" height="20" fill="white"/>
</clipPath>
</defs>
</svg>
