<svg width="20" height="20" viewBox="0 0 20 20" fill="none" xmlns="http://www.w3.org/2000/svg">
<g clip-path="url(#clip0_1596_169)">
<path d="M17.7417 4.90817L9.40833 13.2415C9.08333 13.5665 8.55833 13.5665 8.23333 13.2415L5.875 10.8832C5.55 10.5582 5.55 10.0332 5.875 9.70817C6.2 9.38317 6.725 9.38317 7.05 9.70817L8.81667 11.4748L16.5583 3.73317C16.8833 3.40817 17.4083 3.40817 17.7333 3.73317C18.0667 4.05817 18.0667 4.58317 17.7417 4.90817ZM10 16.6665C6.075 16.6665 2.93333 13.2582 3.375 9.24983C3.7 6.3165 5.975 3.90817 8.88333 3.42483C10.3917 3.17483 11.825 3.4415 13.0417 4.07483C13.3667 4.2415 13.7583 4.18317 14.0167 3.92483C14.4167 3.52483 14.3167 2.84983 13.8167 2.5915C12.5917 1.9665 11.2083 1.62483 9.73333 1.6665C5.45 1.79983 1.89167 5.28317 1.675 9.55817C1.43333 14.3665 5.25 18.3332 10 18.3332C11 18.3332 11.95 18.1582 12.8417 17.8332C13.4083 17.6248 13.5667 16.8915 13.1333 16.4582C12.9083 16.2332 12.5667 16.1498 12.2667 16.2665C11.5583 16.5248 10.7917 16.6665 10 16.6665ZM15.8333 12.4998H14.1667C13.7083 12.4998 13.3333 12.8748 13.3333 13.3332C13.3333 13.7915 13.7083 14.1665 14.1667 14.1665H15.8333V15.8332C15.8333 16.2915 16.2083 16.6665 16.6667 16.6665C17.125 16.6665 17.5 16.2915 17.5 15.8332V14.1665H19.1667C19.625 14.1665 20 13.7915 20 13.3332C20 12.8748 19.625 12.4998 19.1667 12.4998H17.5V10.8332C17.5 10.3748 17.125 9.99983 16.6667 9.99983C16.2083 9.99983 15.8333 10.3748 15.8333 10.8332V12.4998Z" fill="#007689"/>
</g>
<defs>
<clipPath id="clip0_1596_169">
<rect width="20" height="20" fill="white"/>
</clipPath>
</defs>
</svg>
