<svg width="68" height="68" viewBox="0 0 68 68" fill="none" xmlns="http://www.w3.org/2000/svg">
<g id="Group 11">
<rect id="Rectangle" width="68" height="68" rx="10" fill="#E3F8FA"/>
<g id="simcard">
<path id="Path" fill-rule="evenodd" clip-rule="evenodd" d="M49.08 23.08L42.94 16.94C41.06 15.06 38.52 14 35.86 14H26C20 14 16 18 16 24V44C16 50 20 54 26 54H42C48 54 52 50 52 44V30.14C52 27.48 50.94 24.94 49.08 23.08Z" stroke="#292D32" stroke-width="1.5" stroke-linecap="round" stroke-linejoin="round"/>
<path id="Path_2" fill-rule="evenodd" clip-rule="evenodd" d="M30 47H38C41.3 47 44 44.3 44 41V35C44 31.7 41.3 29 38 29H30C26.7 29 24 31.7 24 35V41C24 44.3 26.7 47 30 47Z" stroke="#292D32" stroke-width="1.5" stroke-linecap="round" stroke-linejoin="round"/>
<path id="Path_3" d="M34 29V47" stroke="#292D32" stroke-width="1.5" stroke-linecap="round" stroke-linejoin="round"/>
<path id="Path_4" d="M25 38H43" stroke="#292D32" stroke-width="1.5" stroke-linecap="round" stroke-linejoin="round"/>
</g>
</g>
</svg>
