<svg width="68" height="54" viewBox="0 0 68 54" fill="none" xmlns="http://www.w3.org/2000/svg">
<path fill-rule="evenodd" clip-rule="evenodd" d="M4.33454 19.4994C9.00761 11.8299 19.0272 3.94069 29.8737 1.64098C40.7204 -0.658796 50.2227 -0.656211 54.3322 2.38198C57.6953 4.86821 56.132 8.33097 55.0773 11.2734C53.6694 15.2015 53.462 18.3202 59.2538 24.0266C65.8655 30.5405 67.6552 32.9859 67.9865 39.2845C68.2561 44.4074 64.4436 51.2982 59.4409 52.2855C52.4764 53.6602 49.8913 50.0293 43.0776 47.5816C37.6117 45.6179 33.8206 46.5362 28.8649 50.2994C23.9091 54.0627 13.2944 57.2508 4.41147 47.7382C-1.64153 41.2561 -1.27197 28.7012 4.33454 19.4994Z" fill="#11CCCC"/>
<path fill-rule="evenodd" clip-rule="evenodd" d="M22 26C22 19.3719 27.3719 14 34 14C40.6281 14 46 19.3719 46 26C46 32.6281 40.6281 38 34 38C27.3719 38 22 32.6281 22 26ZM38.0125 35.5016C39.2406 34.9836 40.3445 34.2383 41.2914 33.2914C42.2406 32.3445 42.9836 31.2406 43.5039 30.0125C44.0406 28.7422 44.3125 27.3922 44.3125 26C44.3125 24.6078 44.0406 23.2578 43.5016 21.9852C42.9836 20.757 42.2383 19.6531 41.2914 18.7063C40.3422 17.7594 39.2406 17.0164 38.0125 16.4961C36.7422 15.9594 35.3922 15.6875 34 15.6875C32.6078 15.6875 31.2578 15.9594 29.9852 16.4984C28.757 17.0164 27.6531 17.7617 26.7063 18.7086C25.7594 19.6578 25.0164 20.7594 24.4961 21.9875C23.9594 23.2578 23.6875 24.6078 23.6875 26C23.6875 27.3922 23.9594 28.7422 24.4984 30.0148C25.0164 31.243 25.7617 32.3469 26.7086 33.2938C27.6578 34.2406 28.7594 34.9836 29.9875 35.5039C31.2578 36.0406 32.6078 36.3125 34 36.3125C35.3922 36.3125 36.7422 36.0406 38.0125 35.5016ZM36.7703 30.5375H34.7734V22.332C34.7734 21.8656 34.3961 21.4883 33.9297 21.4883H33.0859H31.6797C31.2133 21.4883 30.8359 21.8656 30.8359 22.332C30.8359 22.7984 31.2133 23.1758 31.6797 23.1758H33.0859V30.5375H31.0891C30.6227 30.5375 30.2453 30.9148 30.2453 31.3813C30.2453 31.8477 30.6227 32.225 31.0891 32.225H33.0859H34.7734H36.7703C37.2367 32.225 37.6141 31.8477 37.6141 31.3813C37.6141 30.9148 37.2367 30.5375 36.7703 30.5375ZM33.9297 20.0117C33.4637 20.0117 33.0859 19.634 33.0859 19.168C33.0859 18.702 33.4637 18.3242 33.9297 18.3242C34.3957 18.3242 34.7734 18.702 34.7734 19.168C34.7734 19.634 34.3957 20.0117 33.9297 20.0117Z" fill="white"/>
</svg>
