<svg width="20" height="20" viewBox="0 0 20 20" fill="none" xmlns="http://www.w3.org/2000/svg">
<g clip-path="url(#clip0_1596_195)">
<path d="M9.16666 11.667H7.49999C7.49999 7.52533 10.8583 4.16699 15 4.16699V5.83366C11.775 5.83366 9.16666 8.44199 9.16666 11.667ZM15 9.16699V7.50033C12.7 7.50033 10.8333 9.36699 10.8333 11.667H12.5C12.5 10.2837 13.6167 9.16699 15 9.16699ZM5.83332 3.33366C5.83332 2.40866 5.09166 1.66699 4.16666 1.66699C3.24166 1.66699 2.49999 2.40866 2.49999 3.33366C2.49999 4.25866 3.24166 5.00033 4.16666 5.00033C5.09166 5.00033 5.83332 4.25866 5.83332 3.33366ZM9.54166 3.75033H7.87499C7.67499 4.93366 6.65832 5.83366 5.41666 5.83366H1.66666V9.16699H6.66666V7.28366C8.21666 6.79199 9.37499 5.42533 9.54166 3.75033ZM15.8333 14.167C16.7583 14.167 17.5 13.4253 17.5 12.5003C17.5 11.5753 16.7583 10.8337 15.8333 10.8337C14.9083 10.8337 14.1667 11.5753 14.1667 12.5003C14.1667 13.4253 14.9083 14.167 15.8333 14.167ZM14.5833 15.0003C13.3417 15.0003 12.325 14.1003 12.125 12.917H10.4583C10.625 14.592 11.7833 15.9587 13.3333 16.4503V18.3337H18.3333V15.0003H14.5833Z" fill="#007689"/>
</g>
<defs>
<clipPath id="clip0_1596_195">
<rect width="20" height="20" fill="white"/>
</clipPath>
</defs>
</svg>
