<svg width="68" height="54" viewBox="0 0 68 54" fill="none" xmlns="http://www.w3.org/2000/svg">
<path fill-rule="evenodd" clip-rule="evenodd" d="M4.33454 19.4994C9.00761 11.8299 19.0272 3.94069 29.8737 1.64098C40.7204 -0.658796 50.2227 -0.656211 54.3322 2.38198C57.6953 4.86821 56.132 8.33097 55.0773 11.2734C53.6694 15.2015 53.462 18.3202 59.2538 24.0266C65.8655 30.5405 67.6552 32.9859 67.9865 39.2845C68.2561 44.4074 64.4436 51.2982 59.4409 52.2855C52.4764 53.6602 49.8913 50.0293 43.0776 47.5816C37.6117 45.6179 33.8206 46.5362 28.8649 50.2994C23.9091 54.0627 13.2944 57.2508 4.41147 47.7382C-1.64153 41.2561 -1.27198 28.7012 4.33454 19.4994Z" fill="#F7A55A"/>
<path fill-rule="evenodd" clip-rule="evenodd" d="M34.4455 18.6686C34.2483 18.3226 33.7517 18.3226 33.5545 18.6686L24.3518 34.8189C24.1551 35.1641 24.4046 35.5909 24.7973 35.5909H43.2026C43.5954 35.5909 43.8449 35.1641 43.6482 34.8189L34.4455 18.6686ZM31.8996 17.7221C32.8281 16.0926 35.1719 16.0926 36.1004 17.7221L45.303 33.8724C46.2234 35.4876 45.0613 37.5 43.2026 37.5H24.7973C22.9387 37.5 21.7766 35.4876 22.697 33.8724L31.8996 17.7221Z" fill="white"/>
<path d="M35.1433 32.7273C35.1433 33.3599 34.6315 33.8727 34 33.8727C33.3685 33.8727 32.8567 33.3599 32.8567 32.7273C32.8567 32.0947 33.3685 31.5818 34 31.5818C34.6315 31.5818 35.1433 32.0947 35.1433 32.7273Z" fill="white"/>
<path fill-rule="evenodd" clip-rule="evenodd" d="M34 23.1818C34.6315 23.1818 35.1433 23.6947 35.1433 24.3273V29.2909C35.1433 29.9235 34.6315 30.4364 34 30.4364C33.3685 30.4364 32.8567 29.9235 32.8567 29.2909V24.3273C32.8567 23.6947 33.3685 23.1818 34 23.1818Z" fill="white"/>
</svg>
