<svg width="22" height="22" viewBox="0 0 22 22" fill="none" xmlns="http://www.w3.org/2000/svg">
<path opacity="0.604932" fill-rule="evenodd" clip-rule="evenodd" d="M19.7778 2.02734H1.75492C0.78729 2.02734 0 2.81598 0 3.78361V6.84529C0 8.64192 1.46153 10.1021 3.25682 10.1021C4.22041 10.1021 5.07768 9.67415 5.67387 9.00798C6.30774 9.67818 7.19865 10.1021 8.19051 10.1021C9.216 10.1021 10.1298 9.64723 10.765 8.938C11.4016 9.64723 12.314 10.1021 13.3395 10.1021C14.3327 10.1021 15.2236 9.67818 15.8561 9.00798C16.4523 9.67415 17.311 10.1021 18.2732 10.1021C20.0698 10.1021 21.53 8.64058 21.53 6.84529V3.78361C21.5327 2.81598 20.7454 2.02734 19.7778 2.02734ZM4.7197 6.84529C4.7197 7.65142 4.06295 8.30817 3.25682 8.30817C2.45069 8.30817 1.79394 7.65142 1.79394 6.84529L1.75492 3.82263H4.7197V6.63131V6.84529ZM6.51499 6.63131C6.51499 7.55587 7.26729 8.30817 8.19185 8.30817C9.11641 8.30817 9.86871 7.55587 9.87006 6.63131V3.82263H6.51499V6.63131ZM13.3409 8.30817C12.4163 8.30817 11.664 7.55587 11.664 6.63131V3.82263H15.0191V6.63131C15.0191 7.55587 14.2654 8.30817 13.3409 8.30817ZM18.2759 8.30817C19.082 8.30817 19.7388 7.65142 19.7388 6.84529V3.78361L16.813 3.81321V6.62996V6.84529C16.813 7.65142 17.4698 8.30817 18.2759 8.30817Z" fill="#567790"/>
<path d="M19.7388 11.6815V13.6908H1.79394V11.6815C1.13047 11.4743 0.519477 11.1432 0 10.7031V15.7095C0 16.5708 0.709234 17.28 1.57054 17.28H8.44217C8.3372 17.7295 8.05727 18.4589 7.31036 19.2059C7.1825 19.3337 7.14348 19.5275 7.21346 19.6944C7.28209 19.8626 7.44628 19.9716 7.62796 19.9716H13.9088C14.0905 19.9716 14.2547 19.8626 14.3233 19.6944C14.3919 19.5262 14.3542 19.3337 14.2264 19.2059C13.4808 18.4603 13.1942 17.7309 13.0825 17.28H19.9649C20.8262 17.28 21.5354 16.5708 21.5354 15.7095V10.7031C21.0132 11.1432 20.4022 11.4743 19.7388 11.6815Z" fill="#567790"/>
</svg>
