<svg width="68" height="54" viewBox="0 0 68 54" fill="none" xmlns="http://www.w3.org/2000/svg">
<path fill-rule="evenodd" clip-rule="evenodd" d="M4.33454 19.4994C9.00761 11.8299 19.0272 3.94069 29.8737 1.64098C40.7204 -0.658796 50.2227 -0.656211 54.3322 2.38198C57.6953 4.86821 56.132 8.33097 55.0773 11.2734C53.6694 15.2015 53.462 18.3202 59.2538 24.0266C65.8655 30.5405 67.6552 32.9859 67.9865 39.2845C68.2561 44.4074 64.4436 51.2982 59.4409 52.2855C52.4764 53.6602 49.8913 50.0293 43.0776 47.5816C37.6117 45.6179 33.8206 46.5362 28.8649 50.2994C23.9091 54.0627 13.2944 57.2508 4.41147 47.7382C-1.64153 41.2561 -1.27198 28.7012 4.33454 19.4994Z" fill="#11CCCC"/>
<path fill-rule="evenodd" clip-rule="evenodd" d="M44.0037 13.017C44.0037 13.4701 43.6364 13.8374 43.1834 13.8374C42.7303 13.8374 42.363 13.4701 42.363 13.017V11.8203C42.363 11.3673 42.7303 11 43.1834 11C43.6364 11 44.0037 11.3673 44.0037 11.8203V13.017ZM40.187 15.608H41.3838C41.8368 15.608 42.2041 15.2407 42.2041 14.7877C42.2041 14.3347 41.8368 13.9674 41.3838 13.9674H40.187C39.734 13.9674 39.3667 14.3347 39.3667 14.7877C39.3667 15.2407 39.734 15.608 40.187 15.608ZM33.4287 16.5957C27.2519 16.5957 22.2266 21.621 22.2266 27.7979C22.2266 33.9748 27.2519 39 33.4287 39C39.6055 39 44.6308 33.9747 44.6308 27.7979C44.6308 21.621 39.6056 16.5957 33.4287 16.5957ZM33.4287 37.3594C28.1565 37.3594 23.8672 33.0701 23.8672 27.7979C23.8672 22.5257 28.1565 18.2364 33.4287 18.2364C38.7009 18.2364 42.9902 22.5257 42.9902 27.7979C42.9902 33.0701 38.701 37.3594 33.4287 37.3594ZM37.1641 29.9697C37.4591 29.6257 37.9769 29.5861 38.3208 29.8811C38.6647 30.1761 38.7043 30.694 38.4094 31.0378C37.1607 32.4937 35.3453 33.3286 33.4287 33.3286C31.5123 33.3286 29.6969 32.4937 28.4481 31.0379C28.1532 30.6941 28.1928 30.1762 28.5367 29.8812C28.8806 29.5863 29.3984 29.6259 29.6934 29.9697C30.6301 31.0617 31.9916 31.688 33.4287 31.688C34.8659 31.688 36.2274 31.0617 37.1641 29.9697ZM28.8747 26.5076C29.3277 26.5076 29.695 26.1403 29.695 25.6873C29.695 25.4243 29.909 25.2103 30.172 25.2103C30.435 25.2103 30.649 25.4243 30.649 25.6873C30.649 26.1403 31.0163 26.5076 31.4693 26.5076C31.9223 26.5076 32.2896 26.1403 32.2896 25.6873C32.2896 24.5197 31.3396 23.5697 30.172 23.5697C29.0044 23.5697 28.0544 24.5197 28.0544 25.6873C28.0544 26.1404 28.4217 26.5076 28.8747 26.5076ZM34.5678 25.6874C34.5678 24.5197 35.5178 23.5698 36.6854 23.5698C37.8531 23.5698 38.8031 24.5197 38.8031 25.6874C38.8031 26.1404 38.4358 26.5077 37.9827 26.5077C37.5297 26.5077 37.1624 26.1404 37.1624 25.6874C37.1624 25.4244 36.9484 25.2104 36.6854 25.2104C36.4225 25.2104 36.2085 25.4244 36.2085 25.6874C36.2085 26.1404 35.8412 26.5077 35.3881 26.5077C34.9351 26.5077 34.5678 26.1404 34.5678 25.6874ZM44.0037 17.7551C44.0037 18.2081 43.6364 18.5754 43.1834 18.5754C42.7303 18.5754 42.363 18.2081 42.363 17.7551V16.5583C42.363 16.1053 42.7303 15.738 43.1834 15.738C43.6364 15.738 44.0037 16.1053 44.0037 16.5583V17.7551ZM46.1797 13.9674H44.983C44.5299 13.9674 44.1626 14.3347 44.1626 14.7877C44.1626 15.2407 44.5299 15.608 44.983 15.608H46.1797C46.6327 15.608 47 15.2407 47 14.7877C47 14.3347 46.6327 13.9674 46.1797 13.9674ZM20.7757 15.0611H19.8203C19.3673 15.0611 19 15.4284 19 15.8815C19 16.3345 19.3673 16.7018 19.8203 16.7018H20.7757C21.2287 16.7018 21.596 16.3345 21.596 15.8815C21.596 15.4284 21.2287 15.0611 20.7757 15.0611ZM23.3062 17.5685V18.5239C23.3062 18.9769 22.9389 19.3442 22.4859 19.3442C22.0329 19.3442 21.6656 18.9769 21.6656 18.5239V17.5685C21.6656 17.1155 22.0329 16.7482 22.4859 16.7482C22.9389 16.7482 23.3062 17.1155 23.3062 17.5685ZM24.196 16.7018H25.1514C25.6044 16.7018 25.9717 16.3345 25.9717 15.8815C25.9717 15.4284 25.6044 15.0611 25.1514 15.0611H24.196C23.743 15.0611 23.3757 15.4284 23.3757 15.8815C23.3757 16.3345 23.743 16.7018 24.196 16.7018ZM23.3062 14.1944C23.3062 14.6474 22.9389 15.0147 22.4859 15.0147C22.0329 15.0147 21.6656 14.6474 21.6656 14.1944V13.239C21.6656 12.786 22.0329 12.4187 22.4859 12.4187C22.9389 12.4187 23.3062 12.786 23.3062 13.239V14.1944Z" fill="white"/>
</svg>
