<svg width="58" height="77" viewBox="0 0 58 77" fill="none" xmlns="http://www.w3.org/2000/svg">
<path d="M34.9188 37.8645C33.5067 33.675 28.9655 31.4234 24.776 32.8356C20.8493 34.1592 18.5818 38.2604 19.5488 42.2898C22.4307 52.3091 32.9719 61.3006 42.6262 68.9407C43.3195 69.4897 44.3265 69.3729 44.8757 68.6796C45.4247 67.9863 45.308 66.9793 44.6147 66.4301C35.3478 59.0974 25.2453 50.5126 22.626 41.4059C21.8929 38.8548 23.3667 36.1927 25.9178 35.4596C28.4688 34.7265 31.131 36.2004 31.864 38.7514C33.6124 44.8353 42.306 52.3538 50.577 58.8988C51.2703 59.4479 52.2773 59.3311 52.8265 58.6378C53.3756 57.9445 53.2588 56.9375 52.5655 56.3883C48.1979 52.9398 36.632 43.7882 34.9188 37.8645Z" fill="#FFC107"/>
<path d="M47.0549 33.7375C43.5741 23.0655 32.2969 17.0372 21.4896 20.0709C10.4404 23.2413 4.05348 34.7686 7.22399 45.8178C7.22624 45.8256 7.2285 45.8335 7.23075 45.8413C9.8597 54.9737 4.22399 57.5064 2.42763 58.0636C1.58408 58.3288 1.11533 59.2278 1.38055 60.0713C1.64577 60.9149 2.5447 61.3836 3.38825 61.1184C8.28428 59.5878 13.0394 54.4389 10.3079 44.9542C7.61515 35.6078 13.009 25.8483 22.3553 23.1556C22.3603 23.1542 22.3652 23.1527 22.37 23.1514C31.6112 20.5538 41.2397 25.7912 44.0801 34.9606C44.1179 35.0855 44.1718 35.205 44.2403 35.316C44.4067 35.5915 44.7494 36.171 55.0408 44.522C55.7269 45.0799 56.7356 44.976 57.2935 44.2898C57.8514 43.6037 57.7475 42.595 57.0613 42.0371C53.3213 39.0017 47.8554 34.4899 47.0549 33.7375Z" fill="#FFC107"/>
<path d="M41.0799 36.0942C38.8685 28.458 30.8987 24.0472 23.2538 26.2286C15.7473 28.5461 11.3904 36.3571 13.3626 43.9617C16.5967 58.6912 14.1791 62.0918 7.54433 64.1668C6.70078 64.432 6.23202 65.3309 6.49725 66.1745C6.76247 67.018 7.6614 67.4868 8.50495 67.2215C17.775 64.3397 19.7891 58.2813 16.5101 43.2732C14.9171 37.3221 18.285 31.1702 24.1567 29.3057C30.1062 27.6167 36.3029 31.0505 38.0249 36.9907C38.6654 39.1745 40.3657 42.1716 53.4782 52.5497C54.1715 53.0987 55.1785 52.9819 55.7277 52.2886C56.2768 51.5953 56.16 50.5883 55.4667 50.0391C43.5646 40.6252 41.528 37.6441 41.0799 36.0942Z" fill="#FFC107"/>
<path d="M45.4857 58.3797C40.0677 54.2682 30.9995 47.3902 28.7677 39.6348C28.5089 38.7893 27.6136 38.3136 26.7681 38.5725C25.9433 38.825 25.4667 39.6855 25.6904 40.5186C28.2136 49.2987 37.8134 56.5802 43.5484 60.9318C44.7139 61.771 45.836 62.6687 46.9105 63.6216C47.5465 64.2359 48.5601 64.2183 49.1745 63.5824C49.7738 62.9619 49.7738 61.9781 49.1745 61.3578C48.0019 60.2964 46.7703 59.3022 45.4857 58.3797Z" fill="#FFC107"/>
<path d="M36.821 69.5171C35.2028 66.515 32.2222 64.4905 28.8351 64.0928C23.3915 64.0928 22.5494 73.3467 22.4309 75.2007C22.3761 76.0832 23.047 76.843 23.9294 76.8979H24.032C24.8788 76.8995 25.5805 76.2414 25.633 75.3962C25.8348 72.0981 27.0963 67.295 28.8351 67.295C31.2078 67.295 32.8921 69.5812 34.2434 71.416C34.6898 72.0524 35.1786 72.6579 35.7067 73.2285C36.3426 73.8428 37.3563 73.8251 37.9706 73.1891C38.5699 72.5686 38.5699 71.585 37.9706 70.9645C37.5565 70.5075 37.1724 70.024 36.821 69.5171Z" fill="#FFC107"/>
<path d="M22.3571 55.6004C22.0562 54.7691 21.1382 54.339 20.3068 54.64C19.5248 54.9231 19.0896 55.7579 19.3056 56.5611C20.6762 60.8423 17.9831 69.2445 13.9326 70.5605C13.0887 70.8247 12.6188 71.7229 12.8828 72.5667C13.147 73.4106 14.0452 73.8805 14.889 73.6165C14.9001 73.613 14.9111 73.6094 14.922 73.6057C21.0826 71.6205 24.0541 60.9191 22.3571 55.6004Z" fill="#FFC107"/>
<path d="M56.5459 33.7498C54.5447 33.1093 52.9724 30.5478 51.1504 27.6242C47.2951 21.3929 42.0084 12.8594 27.234 12.8594C12.2094 12.8771 0.0339188 25.0525 0.0163574 40.0771C0.0163574 40.9614 0.733223 41.6782 1.61745 41.6782C2.50167 41.6782 3.21854 40.9614 3.21854 40.0771C3.23265 26.8195 13.9765 16.0757 27.2341 16.0616C40.2249 16.0616 44.7751 23.4072 48.4319 29.3117C50.5837 32.786 52.4409 35.7863 55.5598 36.7981C56.3978 37.0805 57.3059 36.63 57.5882 35.7922C57.8705 34.9542 57.4201 34.0461 56.5822 33.7638C56.5713 33.76 56.5603 33.7565 56.5492 33.7529L56.5459 33.7498Z" fill="#FFC107"/>
<path d="M3.21829 52.885C4.10252 52.885 4.81938 52.1682 4.81923 51.2839C4.81923 51.0349 4.76114 50.7894 4.64962 50.5668C3.96638 49.286 3.48352 47.9081 3.21829 46.481C3.21829 45.5967 2.50143 44.8799 1.6172 44.8799C0.732979 44.8799 0.0161133 45.5967 0.0161133 46.481C0.27308 48.4118 0.87287 50.2813 1.78681 52.0014C2.05849 52.543 2.6125 52.885 3.21829 52.885Z" fill="#FFC107"/>
<path d="M2.38586 19.0296C3.14085 19.4898 4.12609 19.251 4.58628 18.496C4.58719 18.4945 4.58809 18.4932 4.58884 18.4917C5.97859 16.199 12.8245 9.65711 25.633 9.65711C37.9417 9.65711 46.6994 15.8916 48.278 18.4917C48.7369 19.2477 49.7218 19.4885 50.4778 19.0296C51.2339 18.5708 51.4746 17.5859 51.0158 16.8298C48.8191 13.2114 39.1201 6.45508 25.633 6.45508C11.2908 6.45508 3.6027 13.9448 1.84791 16.833C1.39086 17.5883 1.63162 18.5709 2.38586 19.0296Z" fill="#FFC107"/>
<path d="M11.8639 6.31438C12.5971 5.99422 13.2184 5.67391 13.8075 5.35375C16.2155 4.14021 17.9478 3.25314 25.6328 3.25314C30.8218 2.9672 36.0119 3.79814 40.8522 5.68997C41.4639 5.91737 42.0787 6.14462 42.7223 6.36556C42.8901 6.4238 43.0665 6.45412 43.2442 6.45517C44.1284 6.45682 44.8465 5.7413 44.8481 4.85708C44.8493 4.17173 44.4144 3.56174 43.7661 3.33959C43.1448 3.1251 42.5557 2.90731 41.9666 2.69913C36.7703 0.672662 31.2034 -0.229874 25.633 0.0511083C17.1667 0.0511083 15.0469 1.13977 12.3571 2.51991C11.816 2.79849 11.2397 3.09313 10.5672 3.39408C9.74559 3.72069 9.34423 4.6516 9.6707 5.47323C9.99731 6.29486 10.9282 6.69622 11.7498 6.36976C11.7919 6.3531 11.8332 6.33464 11.8735 6.31438H11.8639Z" fill="#FFC107"/>
<path d="M54.5252 27.7551C54.8261 28.5865 55.7441 29.0165 56.5755 28.7156C57.3575 28.4325 57.7927 27.5976 57.5767 26.7945C56.6683 24.4423 55.5415 22.1802 54.2113 20.0381C53.748 19.2848 52.7617 19.0496 52.0083 19.5129C51.255 19.9763 51.0198 20.9626 51.4832 21.7159C52.6751 23.6345 53.6932 25.6555 54.5252 27.7551Z" fill="#FFC107"/>
<path fill-rule="evenodd" clip-rule="evenodd" d="M43.2444 6.45543C43.0669 6.45573 42.8905 6.42661 42.7225 6.36897C42.1791 6.1815 41.6496 5.98711 41.128 5.79561L41.1278 5.79555L40.8493 5.69339C36.01 3.80126 30.8213 2.96912 25.633 3.2534C17.9481 3.2534 16.2158 4.14033 13.8238 5.36677C13.2347 5.67102 12.6103 5.98803 11.8802 6.3274C11.0703 6.68553 10.1233 6.31929 9.76519 5.50922C9.40706 4.69929 9.77329 3.75233 10.5834 3.39419C11.241 3.09802 11.8017 2.81109 12.3332 2.53908L12.3766 2.51687C15.0471 1.14003 17.1701 0.051222 25.6332 0.051222C31.202 -0.232762 36.7677 0.666472 41.9638 2.68979L42.1244 2.74921C42.6603 2.94757 43.1986 3.14685 43.7633 3.33025C44.6052 3.60043 45.0687 4.50206 44.7985 5.34396C44.5824 6.0167 43.9509 6.46849 43.2444 6.45543ZM48.2781 18.492C48.5684 18.9713 49.0882 19.264 49.6486 19.2637C49.9403 19.2634 50.2262 19.1832 50.4758 19.0321C51.2322 18.5742 51.4741 17.5897 51.016 16.8333C48.8195 13.2118 39.1203 6.45543 25.6332 6.45543C11.2911 6.45543 3.60279 13.9451 1.8513 16.8302C1.82999 16.8626 1.80972 16.8958 1.79081 16.9297C1.35928 17.7015 1.63531 18.677 2.40711 19.1083C3.17891 19.5399 4.15439 19.2638 4.58577 18.492C5.97868 16.1993 12.8248 9.65746 25.633 9.65746C37.9418 9.65746 46.7027 15.8919 48.2781 18.492ZM0.0163574 40.0773C0.0163574 40.9615 0.733223 41.6784 1.61745 41.6784C2.50167 41.6784 3.21839 40.9615 3.21839 40.0774C3.2325 26.8198 13.9763 16.0759 27.234 16.0618C40.2232 16.0618 44.7738 23.4055 48.4304 29.3065L48.4318 29.3088L48.435 29.314L48.435 29.314C50.5855 32.786 52.4423 35.7839 55.5596 36.7952C55.5706 36.799 55.5815 36.8026 55.5926 36.806C56.4365 37.0701 57.3348 36.6001 57.5989 35.7563C57.8629 34.9124 57.3929 34.0142 56.5491 33.7501C54.552 33.1014 52.9824 30.5718 51.1653 27.6435L51.1535 27.6244C47.295 21.3931 42.0084 12.8596 27.234 12.8596C12.2094 12.8772 0.0340689 25.0527 0.0163574 40.0773ZM2.89823 61.1822C2.014 61.1805 1.29849 60.4625 1.30014 59.5782C1.30134 58.88 1.75509 58.2631 2.42122 58.0537C4.21113 57.4934 9.84684 54.9605 7.22434 45.8314C4.04677 34.7844 10.4262 23.253 21.4732 20.0754L21.4896 20.0708C32.2981 17.0349 43.5773 23.0637 47.0583 33.7373C47.8556 34.4866 53.3215 39.0015 57.0615 42.0371C57.7306 42.615 57.8046 43.626 57.2268 44.2953C56.6735 44.9359 55.7172 45.0351 55.0442 44.5219C44.7652 36.1804 44.408 35.5899 44.2411 35.314L44.2403 35.3127C44.1741 35.2019 44.1214 35.0837 44.0835 34.9604C41.243 25.7893 31.6125 20.5515 22.3702 23.1512C13.0219 25.8372 7.62105 35.593 10.307 44.9412L10.3079 44.9445C13.0361 54.4258 8.28418 59.5779 3.38499 61.1086C3.22754 61.1583 3.06334 61.1832 2.89823 61.1822ZM43.6095 69.2867C43.2491 69.2864 42.8994 69.1645 42.6169 68.9409C32.9626 61.2974 22.431 52.3093 19.5491 42.29C18.5172 37.9909 21.1658 33.6695 25.4649 32.6375C29.4943 31.6705 33.5956 33.938 34.9191 37.8647C36.6141 43.7559 48.0741 52.8493 52.4654 56.3338L52.5305 56.3855C53.2406 56.9125 53.3891 57.9153 52.8621 58.6253C52.3351 59.3352 51.3323 59.4838 50.6223 58.9568C50.5961 58.9373 50.5702 58.9169 50.5452 58.8959C42.2742 52.3509 33.5741 44.8355 31.8291 38.7485C31.096 36.1983 28.4345 34.7252 25.8845 35.4583C23.3343 36.1914 21.8612 38.8529 22.5943 41.4029C25.2137 50.5096 35.3161 59.0945 44.5798 66.4272C45.2731 66.9761 45.3901 67.9831 44.8412 68.6762C44.5371 69.0603 44.0739 69.284 43.5839 69.2834L43.6095 69.2867ZM6.42342 65.6909C6.42177 66.5752 7.13728 67.2932 8.02151 67.2949C8.17776 67.2955 8.33311 67.2728 8.4826 67.2276C17.7685 64.333 19.7827 58.2907 16.4878 43.2793C14.8847 37.3239 18.2529 31.1618 24.1312 29.2958C30.0827 27.5971 36.2867 31.0342 38.0026 36.9808C38.627 39.1582 40.3273 42.1585 53.4559 52.5397C53.4809 52.5607 53.5067 52.5811 53.533 52.6006C54.243 53.1276 55.2458 52.9792 55.7728 52.2691C56.2998 51.5591 56.1513 50.5563 55.4412 50.0293C43.5583 40.6215 41.5249 37.6404 41.0799 36.0938C38.8625 28.4608 30.8958 24.0524 23.2507 26.2282C15.7452 28.5471 11.3889 36.3569 13.3594 43.9613C16.5936 58.6844 14.1793 62.0915 7.5445 64.1664C6.87836 64.3758 6.42462 64.9927 6.42342 65.6909ZM48.0475 64.0929C47.6226 64.0936 47.2148 63.9255 46.914 63.6253C45.8392 62.6717 44.717 61.773 43.5518 60.9324L43.545 60.9272L43.545 60.9272C37.8092 56.575 28.2161 49.2957 25.6938 40.5191C25.4351 39.6737 25.9106 38.7785 26.7561 38.5196C27.6016 38.2608 28.4968 38.7363 28.7557 39.5818C28.7611 39.5995 28.7662 39.6174 28.771 39.6352C31.0124 47.3906 40.0679 54.2687 45.4858 58.3801C46.7713 59.3041 48.0039 60.2993 49.1778 61.3612C49.802 61.9874 49.8005 63.0012 49.1742 63.6255C48.875 63.924 48.4701 64.092 48.0475 64.0929ZM23.9294 76.9011H24.032C24.8788 76.9028 25.5805 76.2446 25.6329 75.3996C25.8346 72.0982 27.0993 67.295 28.8349 67.295C31.2043 67.295 32.8858 69.5686 34.2479 71.4103L34.2593 71.4257C34.7046 72.0618 35.1935 72.6664 35.7226 73.2348C36.3431 73.8342 37.3267 73.8342 37.9472 73.2348C38.5832 72.6205 38.6009 71.6069 37.9865 70.9709C37.5724 70.5146 37.1895 70.0312 36.8402 69.5235C35.2174 66.5165 32.2292 64.4906 28.8351 64.096C23.3915 64.096 22.5461 73.35 22.4309 75.204C22.3761 76.0864 23.047 76.8462 23.9294 76.9011ZM14.4257 73.6991C13.5415 73.7007 12.8233 72.9854 12.8216 72.1012C12.8203 71.4046 13.2695 70.7871 13.9326 70.5739C17.98 69.2579 20.657 60.8556 19.3057 56.5745C18.9891 55.7488 19.4019 54.823 20.2274 54.5064C21.053 54.1899 21.9789 54.6026 22.2955 55.4282C22.3187 55.4888 22.3383 55.5508 22.354 55.6138C24.0543 60.9326 21.0732 71.6243 14.9188 73.6352C14.7588 73.682 14.5925 73.7036 14.4257 73.6991ZM3.21839 52.8855C2.61139 52.8867 2.05588 52.5445 1.78391 52.0018C0.870262 50.2818 0.271673 48.4122 0.0163574 46.4813C0.0163574 45.5971 0.733223 44.8802 1.61745 44.8802C2.50167 44.8802 3.21854 45.5971 3.21854 46.4813C3.48451 47.9083 3.96722 49.2862 4.64987 50.5671C5.04597 51.3577 4.72627 52.3197 3.9357 52.7158C3.71296 52.8274 3.4674 52.8855 3.21839 52.8855ZM54.5285 27.7556C54.7402 28.419 55.3564 28.8695 56.0527 28.8699C56.2175 28.8699 56.3814 28.8443 56.5383 28.7941C57.3806 28.5255 57.8456 27.6246 57.5768 26.7822C56.6691 24.4302 55.5436 22.1682 54.2146 20.0259C53.7513 19.2724 52.765 19.0374 52.0116 19.5007C51.2581 19.9641 51.0231 20.9503 51.4864 21.7037C52.6787 23.6264 53.6966 25.6518 54.5285 27.7556Z" fill="#6C8AA1"/>
</svg>
