<svg width="26" height="26" viewBox="0 0 26 26" fill="none" xmlns="http://www.w3.org/2000/svg">
<path d="M7.24965 1C6.98432 1 6.72988 1.10544 6.54232 1.29311L2.29268 5.54537C2.10527 5.73289 2 5.98715 2 6.25226V20.4286C2 20.9809 2.44772 21.4286 3 21.4286H17.7857V2C17.7857 1.44771 17.338 1 16.7857 1H7.24965Z" fill="white"/>
<path fill-rule="evenodd" clip-rule="evenodd" d="M13.8928 8.30309C13.7689 8.1133 13.5588 8 13.3309 8C13.2022 8 13.077 8.03669 12.9686 8.10613C10.6086 9.62084 9.10679 11.848 8.39597 13.0989L7.1993 11.5447C7.07203 11.3792 6.87831 11.2843 6.66774 11.2843C6.51996 11.2843 6.37982 11.3314 6.26248 11.4206C6.12065 11.5283 6.02956 11.6844 6.00597 11.8602C5.9824 12.036 6.02914 12.2103 6.13755 12.3511L7.97692 14.7396C8.10285 14.9027 8.30123 15 8.50766 15C8.5345 15 8.56169 14.9984 8.58858 14.9952C8.82269 14.9668 9.02649 14.8157 9.12036 14.6009C9.13527 14.5669 10.6428 11.1793 13.6942 9.22079C13.8442 9.12469 13.9474 8.97622 13.9849 8.80277C14.0223 8.62952 13.9896 8.45207 13.8928 8.30309Z" fill="#007689"/>
<circle cx="17.7856" cy="19.5" r="6.5" fill="#10C9C9"/>
<path fill-rule="evenodd" clip-rule="evenodd" d="M18.4955 19.1661H16.8492C15.6513 19.1661 15.2856 20 15.2856 20V17.6395V17.5841C15.2856 16.7104 15.9855 16 16.8492 16H18.4955C19.3585 16 20.0584 16.7104 20.0584 17.5841C20.0584 18.4592 19.3585 19.1661 18.4955 19.1661ZM16.9239 20H18.6487C19.5527 20 20.2856 20.7109 20.2856 21.5866C20.2856 22.4598 19.5527 23.1693 18.6487 23.1693H16.9239C15.6691 23.1693 15.2856 24 15.2856 24V21.6401V21.5866C15.2856 20.7109 16.0172 20 16.9239 20Z" fill="#007689"/>
</svg>
