<svg width="28" height="19" viewBox="0 0 28 19" fill="none" xmlns="http://www.w3.org/2000/svg">
<path opacity="0.969295" d="M10.9364 13.4211H21.3882C21.7026 13.4211 21.9092 13.2042 21.9092 12.8859V0H10.9319V13.4211H10.9364Z" fill="white"/>
<path d="M10.1396 13.4211H2.81997C2.50543 13.4211 2.29874 13.2042 2.29874 12.8859V0H10.1396V13.4211Z" fill="white"/>
<path d="M6.95033 4.29474H1.01875C0.704309 4.29474 0.497677 4.02689 0.497677 3.75905C0.497677 3.65284 0.497677 3.542 0.600993 3.49121L2.29661 0H10.1396L7.83974 3.81447C7.62862 4.08231 7.31867 4.29474 6.95033 4.29474Z" fill="#10C9C9"/>
<path d="M14.1214 4.29474H23.4789C23.7934 4.29474 24 4.02689 24 3.75905C24 3.65284 24 3.542 23.8967 3.49121L21.9111 0H10.9318L13.2319 3.81447C13.4385 4.08231 13.753 4.29474 14.1214 4.29474Z" fill="#10C9C9"/>
<path d="M7.85146 9.63778H4.42149C4.2495 9.63778 4.13647 9.75381 4.13647 9.93037C4.13647 10.1069 4.2495 10.223 4.42149 10.223H7.85146C8.02345 10.223 8.13647 10.1069 8.13647 9.93037C8.13647 9.75381 8.02345 9.63778 7.85146 9.63778Z" fill="#007689"/>
<path d="M7.83699 10.6984H5.43596C5.25524 10.6984 5.13647 10.8203 5.13647 11.0059C5.13647 11.1914 5.25524 11.3133 5.43596 11.3133H7.83699C8.01771 11.3133 8.13647 11.1914 8.13647 11.0059C8.13647 10.8203 8.01771 10.6984 7.83699 10.6984Z" fill="#007689"/>
<circle cx="20.5" cy="11.5" r="6.5" fill="#10C9C9" stroke="#007689"/>
<path fill-rule="evenodd" clip-rule="evenodd" d="M21.3278 14.6823C21.2841 14.7753 21.2497 14.8293 21.2248 14.8443H21.2154C21.0999 14.8443 21.0202 14.7693 20.9765 14.6193C20.9609 14.5653 20.9531 14.5038 20.9531 14.4348C20.9531 14.2248 21.0343 13.9443 21.1967 13.5933C21.3559 13.2364 21.5604 12.8224 21.8103 12.3514C22.4317 11.2114 23.1592 9.98145 23.993 8.66148C24.2802 8.22049 24.5129 8 24.6909 8C24.8407 8 24.9438 8.1425 25 8.42749C25 8.49049 24.9282 8.59248 24.7845 8.73348C24.4879 9.08747 24.2084 9.46546 23.9461 9.86745C23.1655 11.0824 22.4722 12.2929 21.8665 13.4988C21.7291 13.7778 21.5495 14.1723 21.3278 14.6823ZM19.6088 14.5878C19.1248 14.8848 18.6314 15.0213 18.1287 14.9973C17.6353 14.9763 17.1669 14.8218 16.7235 14.5338C16.2145 14.1708 15.9741 13.7388 16.0022 13.2379C16.0209 12.8689 16.1615 12.4954 16.4238 12.1174C16.8078 11.6404 17.2294 11.4139 17.6884 11.4379C18.0694 11.4559 18.3957 11.6629 18.6674 12.0589C18.3801 12.1459 18.1303 12.2449 17.9179 12.3559C17.7587 12.4339 17.5838 12.5554 17.3933 12.7204C17.2247 12.8824 17.1107 13.0309 17.0514 13.1659C16.9952 13.2889 16.9655 13.3879 16.9624 13.4629L16.9577 13.4988C16.9484 13.6878 17.0701 13.8273 17.3231 13.9173C17.4199 13.9503 17.5292 13.9698 17.6509 13.9758L17.6931 13.9803C18.046 13.9953 18.4097 13.9083 18.7844 13.7193C19.256 13.4494 19.5026 13.0954 19.5245 12.6574C19.5432 12.2374 19.3653 11.8384 18.9905 11.4604C18.9218 11.3974 18.7704 11.2714 18.5362 11.0824C18.2739 10.8424 18.1037 10.6579 18.0257 10.5289C17.8102 10.2229 17.7118 9.91095 17.7306 9.59296C17.7493 9.17897 17.9413 8.82048 18.3067 8.51749C18.6627 8.25049 19.0655 8.1275 19.5151 8.1485H19.5479C19.9258 8.1665 20.2599 8.28799 20.5503 8.51299C20.7189 8.62998 20.8547 8.77548 20.9578 8.94947C21.0796 9.16247 21.1342 9.38446 21.1217 9.61546C21.1124 9.81945 21.0515 9.98895 20.939 10.1239C20.8266 10.2259 20.6674 10.2724 20.4613 10.2634C20.224 10.2514 20.0101 10.1824 19.8196 10.0564C19.779 10.0204 19.7603 9.98895 19.7634 9.96195V9.94845C19.7634 9.92445 19.8009 9.89895 19.8758 9.87195C20.0132 9.80895 20.1077 9.67845 20.1592 9.48046C20.2107 9.28246 20.1849 9.12347 20.0819 9.00347C19.9601 8.90148 19.8071 8.84598 19.6229 8.83698C19.3668 8.82498 19.1521 8.89623 18.9788 9.05072C18.8055 9.20522 18.7142 9.36496 18.7048 9.52996V9.54796C18.6892 9.85095 18.9343 10.1929 19.4402 10.5739C19.5557 10.6609 19.7337 10.8274 19.9742 11.0734C20.4925 11.6854 20.7361 12.2854 20.7049 12.8734C20.6799 13.3834 20.4535 13.8468 20.0257 14.2638C19.829 14.4378 19.69 14.5458 19.6088 14.5878Z" fill="#007689"/>
<path d="M21.2248 14.8443V14.9943H21.2663L21.302 14.9729L21.2248 14.8443ZM21.3278 14.6823L21.4636 14.7462L21.4654 14.7421L21.3278 14.6823ZM20.9765 14.6193L20.8324 14.661L20.8325 14.6613L20.9765 14.6193ZM21.1967 13.5933L21.3328 13.6563L21.3337 13.6545L21.1967 13.5933ZM21.8103 12.3514L21.6785 12.2796L21.6777 12.2811L21.8103 12.3514ZM23.993 8.66148L23.8673 8.5796L23.8661 8.58138L23.993 8.66148ZM25 8.42749H25.15V8.41284L25.1472 8.39846L25 8.42749ZM24.7845 8.73348L24.6795 8.62643L24.6743 8.63154L24.6696 8.63714L24.7845 8.73348ZM23.9461 9.86745L23.8205 9.78548L23.8199 9.78636L23.9461 9.86745ZM21.8665 13.4988L21.7324 13.4315L21.7319 13.4326L21.8665 13.4988ZM18.1287 14.9973L18.1359 14.8475L18.1351 14.8474L18.1287 14.9973ZM19.6088 14.5878L19.5397 14.4542L19.5304 14.46L19.6088 14.5878ZM16.7235 14.5338L16.6364 14.6561L16.6418 14.6596L16.7235 14.5338ZM16.0022 13.2379L16.152 13.2463L16.152 13.2455L16.0022 13.2379ZM16.4238 12.1174L16.3066 12.0231L16.3005 12.0319L16.4238 12.1174ZM17.6884 11.4379L17.6806 11.5877L17.6813 11.5877L17.6884 11.4379ZM18.6674 12.0589L18.7108 12.2025L18.907 12.143L18.791 11.974L18.6674 12.0589ZM17.9179 12.3559L17.9839 12.4906L17.9874 12.4888L17.9179 12.3559ZM17.3933 12.7204L17.295 12.6068L17.2894 12.6122L17.3933 12.7204ZM17.0514 13.1659L17.1878 13.2282L17.1887 13.2262L17.0514 13.1659ZM16.9624 13.4629L17.1117 13.4823L17.1123 13.4691L16.9624 13.4629ZM16.9577 13.4988L16.8085 13.4794L16.8079 13.4914L16.9577 13.4988ZM17.3231 13.9173L17.2728 14.0587L17.2747 14.0593L17.3231 13.9173ZM17.6509 13.9758L17.6669 13.8264L17.6583 13.826L17.6509 13.9758ZM17.6931 13.9803L17.6771 14.1298L17.6867 14.1302L17.6931 13.9803ZM18.7844 13.7193L18.8521 13.8535L18.859 13.8495L18.7844 13.7193ZM19.5245 12.6574L19.6743 12.6648L19.6744 12.6641L19.5245 12.6574ZM18.9905 11.4604L19.0972 11.3547L19.0919 11.3499L18.9905 11.4604ZM18.5362 11.0824L18.4348 11.1933L18.442 11.1991L18.5362 11.0824ZM18.0257 10.5289L18.1543 10.4511L18.1483 10.4426L18.0257 10.5289ZM17.7306 9.59296L17.8803 9.60178L17.8804 9.59974L17.7306 9.59296ZM18.3067 8.51749L18.2166 8.39734L18.2109 8.40203L18.3067 8.51749ZM19.5151 8.1485L19.5081 8.2985H19.5151V8.1485ZM19.5479 8.1485L19.5551 7.9985H19.5479V8.1485ZM20.5503 8.51299L20.4583 8.63173L20.4648 8.63623L20.5503 8.51299ZM20.9578 8.94947L21.088 8.87501L21.0868 8.87304L20.9578 8.94947ZM21.1217 9.61546L20.9719 9.60736L20.9719 9.60857L21.1217 9.61546ZM20.939 10.1239L21.0398 10.235L21.0476 10.228L21.0543 10.2199L20.939 10.1239ZM20.4613 10.2634L20.4537 10.4133L20.4547 10.4133L20.4613 10.2634ZM19.8196 10.0564L19.7201 10.1687L19.728 10.1757L19.7368 10.1816L19.8196 10.0564ZM19.7634 9.96195L19.9124 9.97918L19.9134 9.97059V9.96195H19.7634ZM19.8758 9.87195L19.9268 10.0136L19.9383 10.0083L19.8758 9.87195ZM20.0819 9.00347L20.1957 8.90575L20.1877 8.89639L20.1782 8.88848L20.0819 9.00347ZM19.6229 8.83698L19.6302 8.68716L19.6299 8.68714L19.6229 8.83698ZM18.9788 9.05072L19.0786 9.16269V9.16269L18.9788 9.05072ZM18.7048 9.52996L18.5548 9.52144V9.52996H18.7048ZM18.7048 9.54796L18.8548 9.55569V9.54796H18.7048ZM19.4402 10.5739L19.35 10.6937L19.35 10.6938L19.4402 10.5739ZM19.9742 11.0734L20.0889 10.9762L20.0814 10.9686L19.9742 11.0734ZM20.7049 12.8734L20.5551 12.8654L20.555 12.866L20.7049 12.8734ZM20.0257 14.2638L20.1252 14.3763L20.1304 14.3712L20.0257 14.2638ZM21.302 14.9729C21.347 14.9459 21.3777 14.9016 21.3958 14.8731C21.4178 14.8385 21.4404 14.7954 21.4636 14.7461L21.1921 14.6185C21.1715 14.6622 21.1551 14.6926 21.1427 14.7121C21.1366 14.7217 21.1328 14.7265 21.1315 14.728C21.1294 14.7304 21.1346 14.7235 21.1476 14.7157L21.302 14.9729ZM21.2154 14.9943H21.2248V14.6943H21.2154V14.9943ZM20.8325 14.6613C20.8588 14.7516 20.9003 14.8352 20.9662 14.8973C21.0355 14.9625 21.1218 14.9943 21.2154 14.9943V14.6943C21.1935 14.6943 21.1822 14.6886 21.1719 14.6789C21.1581 14.6659 21.1379 14.6371 21.1205 14.5773L20.8325 14.6613ZM20.8031 14.4348C20.8031 14.5148 20.8121 14.5908 20.8324 14.661L21.1206 14.5777C21.1097 14.5399 21.1031 14.4928 21.1031 14.4348H20.8031ZM21.0605 13.5304C20.8954 13.8872 20.8031 14.1917 20.8031 14.4348H21.1031C21.1031 14.2579 21.1731 14.0015 21.3328 13.6563L21.0605 13.5304ZM21.6777 12.2811C21.4269 12.7541 21.2207 13.1713 21.0597 13.5322L21.3337 13.6545C21.4911 13.3015 21.694 12.8906 21.9428 12.4217L21.6777 12.2811ZM23.8661 8.58138C23.031 9.90354 22.3018 11.1363 21.6786 12.2796L21.942 12.4232C22.5616 11.2865 23.2874 10.0594 24.1198 8.74159L23.8661 8.58138ZM24.6909 7.85C24.5426 7.85 24.4037 7.93901 24.2797 8.0565C24.1512 8.17832 24.0138 8.35469 23.8673 8.57961L24.1186 8.74336C24.2594 8.52729 24.382 8.37291 24.4861 8.27424C24.5948 8.17124 24.6612 8.15 24.6909 8.15V7.85ZM25.1472 8.39846C25.1173 8.24685 25.072 8.11559 25.0021 8.01897C24.9279 7.91642 24.8227 7.85 24.6909 7.85V8.15C24.7089 8.15 24.7301 8.15482 24.759 8.19477C24.7922 8.24065 24.8265 8.32313 24.8528 8.45651L25.1472 8.39846ZM24.8896 8.84053C24.9645 8.76703 25.0255 8.6991 25.0688 8.63759C25.1079 8.582 25.15 8.50808 25.15 8.42749H24.85C24.85 8.4099 24.8562 8.41847 24.8235 8.46488C24.795 8.50537 24.7482 8.55893 24.6795 8.62643L24.8896 8.84053ZM24.0717 9.94942C24.3309 9.55223 24.6068 9.17906 24.8995 8.82982L24.6696 8.63714C24.3689 8.99588 24.0859 9.37869 23.8205 9.78548L24.0717 9.94942ZM22.0005 13.5662C22.6038 12.3652 23.2943 11.1594 24.0723 9.94853L23.8199 9.78636C23.0366 11.0055 22.3407 12.2205 21.7324 13.4315L22.0005 13.5662ZM21.4654 14.7421C21.6867 14.2329 21.8652 13.8409 22.001 13.5651L21.7319 13.4326C21.5929 13.7147 21.4123 14.1118 21.1902 14.6225L21.4654 14.7421ZM18.1215 15.1471C18.6581 15.1728 19.181 15.0263 19.6873 14.7157L19.5304 14.46C19.0686 14.7433 18.6047 14.8699 18.1359 14.8475L18.1215 15.1471ZM16.6418 14.6596C17.1061 14.9612 17.6002 15.125 18.1223 15.1472L18.1351 14.8474C17.6704 14.8277 17.2278 14.6825 16.8052 14.408L16.6418 14.6596ZM15.8524 13.2295C15.8207 13.7948 16.0974 14.2715 16.6364 14.6559L16.8106 14.4117C16.3317 14.0702 16.1275 13.6829 16.152 13.2463L15.8524 13.2295ZM16.3005 12.0319C16.0262 12.4272 15.8729 12.8272 15.8524 13.2303L16.152 13.2455C16.169 12.9105 16.2967 12.5635 16.547 12.2029L16.3005 12.0319ZM17.6962 11.2881C17.174 11.2608 16.7102 11.5224 16.3069 12.0233L16.5406 12.2115C16.9054 11.7584 17.2848 11.567 17.6806 11.5877L17.6962 11.2881ZM18.791 11.974C18.5004 11.5504 18.1353 11.3089 17.6955 11.2881L17.6813 11.5877C18.0034 11.603 18.291 11.7754 18.5437 12.1437L18.791 11.974ZM17.9874 12.4888C18.1897 12.3831 18.4304 12.2874 18.7108 12.2025L18.6239 11.9153C18.3298 12.0044 18.0709 12.1067 17.8484 12.2229L17.9874 12.4888ZM17.4915 12.8337C17.676 12.674 17.84 12.5611 17.9839 12.4906L17.8519 12.2212C17.6773 12.3067 17.4916 12.4368 17.2951 12.607L17.4915 12.8337ZM17.1887 13.2262C17.2369 13.1166 17.3354 12.984 17.4972 12.8285L17.2894 12.6122C17.114 12.7807 16.9846 12.9451 16.9141 13.1055L17.1887 13.2262ZM17.1123 13.4691C17.1142 13.4233 17.1343 13.3454 17.1878 13.2282L16.915 13.1035C16.8561 13.2323 16.8169 13.3524 16.8125 13.4566L17.1123 13.4691ZM17.1065 13.5182L17.1112 13.4822L16.8137 13.4435L16.809 13.4795L17.1065 13.5182ZM17.3734 13.776C17.2609 13.736 17.1931 13.6902 17.155 13.6466C17.1203 13.6068 17.1047 13.5629 17.1075 13.5063L16.8079 13.4914C16.8013 13.6238 16.842 13.7442 16.929 13.8439C17.0127 13.9398 17.1323 14.0087 17.2728 14.0587L17.3734 13.776ZM17.6583 13.826C17.5479 13.8206 17.4528 13.8031 17.3715 13.7754L17.2747 14.0593C17.387 14.0976 17.5104 14.1191 17.6436 14.1257L17.6583 13.826ZM17.709 13.8312L17.6669 13.8267L17.635 14.125L17.6772 14.1295L17.709 13.8312ZM18.7169 13.5854C18.3607 13.765 18.0223 13.8442 17.6995 13.8305L17.6867 14.1302C18.0696 14.1465 18.4587 14.0516 18.852 13.8533L18.7169 13.5854ZM19.3747 12.6499C19.356 13.0243 19.1492 13.3376 18.7099 13.5892L18.859 13.8495C19.3627 13.5611 19.6493 13.1665 19.6743 12.6648L19.3747 12.6499ZM18.884 11.566C19.2376 11.9227 19.3911 12.2831 19.3747 12.6507L19.6744 12.6641C19.6954 12.1917 19.4929 11.7541 19.0971 11.3548L18.884 11.566ZM18.442 11.1991C18.677 11.3888 18.8246 11.5118 18.8892 11.571L19.0919 11.3499C19.0191 11.2831 18.8638 11.154 18.6304 10.9657L18.442 11.1991ZM17.8973 10.6066C17.9876 10.7558 18.1725 10.953 18.4349 11.1931L18.6375 10.9717C18.3753 10.7319 18.2198 10.56 18.154 10.4513L17.8973 10.6066ZM17.5808 9.58413C17.5598 9.9417 17.6716 10.2866 17.903 10.6153L18.1483 10.4426C17.9488 10.1593 17.8639 9.88019 17.8803 9.60178L17.5808 9.58413ZM18.2109 8.40203C17.8183 8.72768 17.6017 9.12363 17.5807 9.58617L17.8804 9.59974C17.897 9.2343 18.0644 8.91328 18.4024 8.63295L18.2109 8.40203ZM19.5221 7.99866C19.0381 7.97605 18.6009 8.10932 18.2167 8.39749L18.3967 8.63748C18.7244 8.39167 19.0929 8.27894 19.5081 8.29833L19.5221 7.99866ZM19.5479 7.9985H19.5151V8.2985H19.5479V7.9985ZM20.6422 8.39441C20.3266 8.14995 19.9627 8.01809 19.5551 7.99867L19.5408 8.29833C19.8888 8.31491 20.1931 8.42603 20.4584 8.63156L20.6422 8.39441ZM21.0868 8.87304C20.9726 8.68021 20.8219 8.51884 20.6358 8.38975L20.4648 8.63623C20.616 8.74112 20.7368 8.87075 20.8287 9.02591L21.0868 8.87304ZM21.2715 9.62355C21.2856 9.36196 21.2232 9.11148 21.088 8.87502L20.8276 9.02393C20.9359 9.21345 20.9828 9.40697 20.9719 9.60736L21.2715 9.62355ZM21.0543 10.2199C21.1909 10.0559 21.2609 9.85349 21.2716 9.62234L20.9719 9.60857C20.9638 9.78541 20.912 9.92204 20.8238 10.028L21.0543 10.2199ZM20.4547 10.4133C20.6858 10.4234 20.8889 10.372 21.0398 10.235L20.8383 10.0129C20.7644 10.0799 20.649 10.1215 20.4678 10.1136L20.4547 10.4133ZM19.7368 10.1816C19.9506 10.323 20.1907 10.3999 20.4537 10.4132L20.4689 10.1136C20.2572 10.1029 20.0695 10.0419 19.9023 9.93134L19.7368 10.1816ZM19.6144 9.94471C19.6079 10.0006 19.6258 10.0483 19.6462 10.0825C19.6663 10.1163 19.6932 10.1448 19.7201 10.1687L19.9191 9.94422C19.9127 9.93853 19.9085 9.93419 19.9059 9.93126C19.9033 9.92827 19.9031 9.92754 19.904 9.92914C19.9057 9.93189 19.9157 9.9503 19.9124 9.97918L19.6144 9.94471ZM19.6134 9.94845V9.96195H19.9134V9.94845H19.6134ZM19.825 9.73083C19.7831 9.7459 19.7413 9.76407 19.7071 9.78731C19.682 9.80442 19.6134 9.85601 19.6134 9.94845H19.9134C19.9134 9.98361 19.8992 10.0085 19.89 10.0207C19.8815 10.032 19.8744 10.0364 19.8759 10.0353C19.8767 10.0348 19.8809 10.0321 19.8901 10.0278C19.899 10.0236 19.9111 10.0187 19.9266 10.0131L19.825 9.73083ZM20.014 9.44268C19.9696 9.61346 19.8965 9.69745 19.8133 9.7356L19.9383 10.0083C20.1299 9.92045 20.2457 9.74345 20.3043 9.51824L20.014 9.44268ZM19.9681 9.1012C20.0299 9.17319 20.0572 9.27674 20.014 9.44268L20.3043 9.51824C20.3642 9.28819 20.34 9.07375 20.1957 8.90575L19.9681 9.1012ZM19.6156 8.9868C19.7726 8.99447 19.8928 9.04074 19.9856 9.11847L20.1782 8.88848C20.0274 8.76221 19.8416 8.69748 19.6302 8.68716L19.6156 8.9868ZM19.0786 9.16269C19.2195 9.03713 19.3945 8.97644 19.6158 8.98681L19.6299 8.68714C19.3391 8.67351 19.0848 8.75532 18.879 8.93875L19.0786 9.16269ZM18.8546 9.53846C18.8609 9.427 18.9229 9.30157 19.0786 9.16269L18.879 8.93875C18.6882 9.10887 18.5675 9.30293 18.5551 9.52146L18.8546 9.53846ZM18.8548 9.54796V9.52996H18.5548V9.54796H18.8548ZM19.5304 10.4541C19.2842 10.2686 19.1093 10.0984 18.9989 9.94431C18.8886 9.7904 18.8491 9.66221 18.8546 9.55568L18.555 9.54024C18.5449 9.73669 18.6202 9.931 18.755 10.1191C18.8897 10.307 19.0904 10.4982 19.35 10.6937L19.5304 10.4541ZM20.0814 10.9686C19.8409 10.7225 19.656 10.5486 19.5304 10.4541L19.35 10.6938C19.4555 10.7732 19.6265 10.9323 19.8669 11.1783L20.0814 10.9686ZM20.8546 12.8813C20.8885 12.2431 20.6226 11.6069 20.0886 10.9765L19.8597 11.1704C20.3624 11.7639 20.5836 12.3277 20.5551 12.8654L20.8546 12.8813ZM20.1304 14.3712C20.5804 13.9326 20.8275 13.4349 20.8547 12.8807L20.555 12.866C20.5322 13.3318 20.3266 13.7611 19.921 14.1564L20.1304 14.3712ZM19.6777 14.721C19.778 14.6692 19.9303 14.5484 20.1251 14.3762L19.9263 14.1515C19.7276 14.3272 19.602 14.4225 19.5399 14.4546L19.6777 14.721Z" fill="#007689"/>
</svg>
