<svg width="26" height="26" viewBox="0 0 26 26" fill="none" xmlns="http://www.w3.org/2000/svg">
<path d="M7.24965 1C6.98432 1 6.72988 1.10544 6.54232 1.29311L2.29268 5.54537C2.10527 5.73289 2 5.98715 2 6.25226V20.4286C2 20.9809 2.44772 21.4286 3 21.4286H17.7857V2C17.7857 1.44771 17.338 1 16.7857 1H7.24965Z" fill="white"/>
<path fill-rule="evenodd" clip-rule="evenodd" d="M13.8928 8.30309C13.7689 8.1133 13.5588 8 13.3309 8C13.2022 8 13.077 8.03669 12.9686 8.10613C10.6086 9.62084 9.10679 11.848 8.39597 13.0989L7.1993 11.5447C7.07203 11.3792 6.87831 11.2843 6.66774 11.2843C6.51996 11.2843 6.37982 11.3314 6.26248 11.4206C6.12065 11.5283 6.02956 11.6844 6.00597 11.8602C5.9824 12.036 6.02914 12.2103 6.13755 12.3511L7.97692 14.7396C8.10285 14.9027 8.30123 15 8.50766 15C8.5345 15 8.56169 14.9984 8.58858 14.9952C8.82269 14.9668 9.02649 14.8157 9.12036 14.6009C9.13527 14.5669 10.6428 11.1793 13.6942 9.22079C13.8442 9.12469 13.9474 8.97622 13.9849 8.80277C14.0223 8.62952 13.9896 8.45207 13.8928 8.30309Z" fill="#007689"/>
<circle cx="17.7856" cy="19.5" r="6.5" fill="#10C9C9"/>
<path fill-rule="evenodd" clip-rule="evenodd" d="M18.6135 22.6823C18.5697 22.7753 18.5354 22.8293 18.5104 22.8443H18.501C18.3855 22.8443 18.3059 22.7693 18.2622 22.6193C18.2466 22.5653 18.2387 22.5038 18.2387 22.4348C18.2387 22.2248 18.3199 21.9443 18.4823 21.5933C18.6416 21.2364 18.8461 20.8224 19.0959 20.3514C19.7173 19.2114 20.4449 17.9814 21.2786 16.6615C21.5659 16.2205 21.7985 16 21.9765 16C22.1264 16 22.2294 16.1425 22.2856 16.4275C22.2856 16.4905 22.2138 16.5925 22.0702 16.7335C21.7735 17.0875 21.4941 17.4655 21.2318 17.8674C20.4511 19.0824 19.7579 20.2929 19.1521 21.4988C19.0147 21.7778 18.8352 22.1723 18.6135 22.6823ZM16.8945 22.5878C16.4105 22.8848 15.9171 23.0213 15.4143 22.9973C14.921 22.9763 14.4526 22.8218 14.0092 22.5338C13.5002 22.1708 13.2597 21.7388 13.2879 21.2379C13.3066 20.8689 13.4471 20.4954 13.7094 20.1174C14.0935 19.6404 14.515 19.4139 14.9741 19.4379C15.355 19.4559 15.6813 19.6629 15.953 20.0589C15.6657 20.1459 15.4159 20.2449 15.2036 20.3559C15.0443 20.4339 14.8695 20.5554 14.679 20.7204C14.5104 20.8824 14.3964 21.0309 14.337 21.1659C14.2808 21.2889 14.2512 21.3879 14.2481 21.4629L14.2434 21.4988C14.234 21.6878 14.3558 21.8273 14.6087 21.9173C14.7055 21.9503 14.8148 21.9698 14.9366 21.9758L14.9787 21.9803C15.3316 21.9953 15.6954 21.9083 16.0701 21.7193C16.5416 21.4494 16.7883 21.0954 16.8102 20.6574C16.8289 20.2374 16.6509 19.8384 16.2762 19.4604C16.2075 19.3974 16.056 19.2714 15.8218 19.0824C15.5595 18.8424 15.3894 18.6579 15.3113 18.5289C15.0958 18.2229 14.9975 17.9109 15.0162 17.593C15.0349 17.179 15.227 16.8205 15.5923 16.5175C15.9483 16.2505 16.3511 16.1275 16.8008 16.1485H16.8336C17.2114 16.1665 17.5455 16.288 17.8359 16.513C18.0045 16.63 18.1404 16.7755 18.2434 16.9495C18.3652 17.1625 18.4199 17.3845 18.4074 17.6155C18.398 17.8195 18.3371 17.9889 18.2247 18.1239C18.1123 18.2259 17.953 18.2724 17.7469 18.2634C17.5096 18.2514 17.2957 18.1824 17.1052 18.0564C17.0646 18.0204 17.0459 17.9889 17.049 17.9619V17.9484C17.049 17.9244 17.0865 17.8989 17.1614 17.8719C17.2988 17.809 17.3933 17.6785 17.4448 17.4805C17.4963 17.2825 17.4706 17.1235 17.3675 17.0035C17.2458 16.9015 17.0927 16.846 16.9085 16.837C16.6525 16.825 16.4378 16.8962 16.2645 17.0507C16.0912 17.2052 15.9998 17.365 15.9905 17.53V17.548C15.9749 17.8509 16.22 18.1929 16.7258 18.5739C16.8414 18.6609 17.0194 18.8274 17.2598 19.0734C17.7782 19.6854 18.0217 20.2854 17.9905 20.8734C17.9655 21.3834 17.7391 21.8468 17.3113 22.2638C17.1146 22.4378 16.9757 22.5458 16.8945 22.5878Z" fill="#007689"/>
<path d="M18.5104 22.8443V22.9943H18.552L18.5876 22.9729L18.5104 22.8443ZM18.6135 22.6823L18.7493 22.7462L18.751 22.7421L18.6135 22.6823ZM18.2622 22.6193L18.1181 22.661L18.1182 22.6613L18.2622 22.6193ZM18.4823 21.5933L18.6185 21.6563L18.6193 21.6545L18.4823 21.5933ZM19.0959 20.3514L18.9642 20.2796L18.9634 20.2811L19.0959 20.3514ZM21.2786 16.6615L21.1529 16.5796L21.1518 16.5814L21.2786 16.6615ZM22.2856 16.4275H22.4356V16.4128L22.4328 16.3985L22.2856 16.4275ZM22.0702 16.7335L21.9651 16.6264L21.9599 16.6315L21.9552 16.6371L22.0702 16.7335ZM21.2318 17.8674L21.1061 17.7855L21.1056 17.7864L21.2318 17.8674ZM19.1521 21.4988L19.0181 21.4315L19.0175 21.4326L19.1521 21.4988ZM15.4143 22.9973L15.4215 22.8475L15.4207 22.8474L15.4143 22.9973ZM16.8945 22.5878L16.8254 22.4542L16.816 22.46L16.8945 22.5878ZM14.0092 22.5338L13.922 22.6561L13.9275 22.6596L14.0092 22.5338ZM13.2879 21.2379L13.4376 21.2463L13.4377 21.2455L13.2879 21.2379ZM13.7094 20.1174L13.5923 20.0231L13.5862 20.0319L13.7094 20.1174ZM14.9741 19.4379L14.9662 19.5877L14.967 19.5877L14.9741 19.4379ZM15.953 20.0589L15.9965 20.2025L16.1926 20.143L16.0767 19.974L15.953 20.0589ZM15.2036 20.3559L15.2696 20.4906L15.2731 20.4888L15.2036 20.3559ZM14.679 20.7204L14.5806 20.6068L14.5751 20.6122L14.679 20.7204ZM14.337 21.1659L14.4735 21.2282L14.4744 21.2262L14.337 21.1659ZM14.2481 21.4629L14.3974 21.4823L14.3979 21.4691L14.2481 21.4629ZM14.2434 21.4988L14.0941 21.4794L14.0936 21.4914L14.2434 21.4988ZM14.6087 21.9173L14.5584 22.0587L14.5603 22.0593L14.6087 21.9173ZM14.9366 21.9758L14.9525 21.8264L14.944 21.826L14.9366 21.9758ZM14.9787 21.9803L14.9628 22.1298L14.9724 22.1302L14.9787 21.9803ZM16.0701 21.7193L16.1377 21.8535L16.1446 21.8495L16.0701 21.7193ZM16.8102 20.6574L16.96 20.6648L16.96 20.6641L16.8102 20.6574ZM16.2762 19.4604L16.3828 19.3547L16.3776 19.3499L16.2762 19.4604ZM15.8218 19.0824L15.7204 19.1933L15.7276 19.1991L15.8218 19.0824ZM15.3113 18.5289L15.4399 18.4511L15.4339 18.4426L15.3113 18.5289ZM15.0162 17.593L15.166 17.6018L15.1661 17.5997L15.0162 17.593ZM15.5923 16.5175L15.5022 16.3973L15.4966 16.402L15.5923 16.5175ZM16.8008 16.1485L16.7938 16.2985H16.8008V16.1485ZM16.8336 16.1485L16.8407 15.9985H16.8336V16.1485ZM17.8359 16.513L17.7439 16.6317L17.7504 16.6362L17.8359 16.513ZM18.2434 16.9495L18.3737 16.875L18.3725 16.873L18.2434 16.9495ZM18.4074 17.6155L18.2576 17.6074L18.2575 17.6086L18.4074 17.6155ZM18.2247 18.1239L18.3255 18.235L18.3333 18.228L18.34 18.2199L18.2247 18.1239ZM17.7469 18.2634L17.7394 18.4133L17.7404 18.4133L17.7469 18.2634ZM17.1052 18.0564L17.0057 18.1687L17.0136 18.1757L17.0225 18.1816L17.1052 18.0564ZM17.049 17.9619L17.198 17.9792L17.199 17.9706V17.9619H17.049ZM17.1614 17.8719L17.2125 18.0136L17.224 18.0083L17.1614 17.8719ZM17.3675 17.0035L17.4813 16.9057L17.4733 16.8964L17.4639 16.8885L17.3675 17.0035ZM16.9085 16.837L16.9158 16.6872L16.9155 16.6871L16.9085 16.837ZM16.2645 17.0507L16.3643 17.1627V17.1627L16.2645 17.0507ZM15.9905 17.53L15.8405 17.5214V17.53H15.9905ZM15.9905 17.548L16.1405 17.5557V17.548H15.9905ZM16.7258 18.5739L16.6356 18.6937L16.6356 18.6938L16.7258 18.5739ZM17.2598 19.0734L17.3746 18.9762L17.3671 18.9686L17.2598 19.0734ZM17.9905 20.8734L17.8407 20.8654L17.8407 20.866L17.9905 20.8734ZM17.3113 22.2638L17.4108 22.3763L17.416 22.3712L17.3113 22.2638ZM18.5876 22.9729C18.6327 22.9459 18.6633 22.9016 18.6815 22.8731C18.7035 22.8385 18.7261 22.7954 18.7492 22.7461L18.4777 22.6185C18.4571 22.6622 18.4407 22.6926 18.4283 22.7121C18.4222 22.7217 18.4184 22.7265 18.4172 22.728C18.415 22.7304 18.4202 22.7235 18.4332 22.7157L18.5876 22.9729ZM18.501 22.9943H18.5104V22.6943H18.501V22.9943ZM18.1182 22.6613C18.1445 22.7516 18.1859 22.8352 18.2518 22.8973C18.3211 22.9625 18.4074 22.9943 18.501 22.9943V22.6943C18.4791 22.6943 18.4678 22.6886 18.4575 22.6789C18.4438 22.6659 18.4236 22.6371 18.4062 22.5773L18.1182 22.6613ZM18.0887 22.4348C18.0887 22.5148 18.0978 22.5908 18.1181 22.661L18.4063 22.5777C18.3953 22.5399 18.3887 22.4928 18.3887 22.4348H18.0887ZM18.3462 21.5304C18.1811 21.8872 18.0887 22.1917 18.0887 22.4348H18.3887C18.3887 22.2579 18.4588 22.0015 18.6184 21.6563L18.3462 21.5304ZM18.9634 20.2811C18.7125 20.7541 18.5064 21.1713 18.3453 21.5322L18.6193 21.6545C18.7768 21.3015 18.9797 20.8906 19.2284 20.4217L18.9634 20.2811ZM21.1518 16.5814C20.3167 17.9035 19.5874 19.1363 18.9642 20.2796L19.2276 20.4232C19.8472 19.2865 20.5731 18.0594 21.4054 16.7416L21.1518 16.5814ZM21.9765 15.85C21.8282 15.85 21.6893 15.939 21.5654 16.0565C21.4368 16.1783 21.2994 16.3547 21.1529 16.5796L21.4043 16.7434C21.545 16.5273 21.6676 16.3729 21.7717 16.2742C21.8804 16.1712 21.9468 16.15 21.9765 16.15V15.85ZM22.4328 16.3985C22.4029 16.2469 22.3576 16.1156 22.2878 16.019C22.2136 15.9164 22.1084 15.85 21.9765 15.85V16.15C21.9945 16.15 22.0158 16.1548 22.0447 16.1948C22.0778 16.2406 22.1122 16.3231 22.1385 16.4565L22.4328 16.3985ZM22.1753 16.8405C22.2501 16.767 22.3111 16.6991 22.3544 16.6376C22.3936 16.582 22.4356 16.5081 22.4356 16.4275H22.1356C22.1356 16.4099 22.1418 16.4185 22.1091 16.4649C22.0806 16.5054 22.0339 16.5589 21.9651 16.6264L22.1753 16.8405ZM21.3574 17.9494C21.6166 17.5522 21.8925 17.1791 22.1852 16.8298L21.9552 16.6371C21.6546 16.9959 21.3716 17.3787 21.1061 17.7855L21.3574 17.9494ZM19.2861 21.5662C19.8894 20.3652 20.58 19.1594 21.358 17.9485L21.1056 17.7864C20.3223 19.0055 19.6264 20.2205 19.0181 21.4315L19.2861 21.5662ZM18.751 22.7421C18.9724 22.2329 19.1508 21.8409 19.2867 21.5651L19.0175 21.4326C18.8786 21.7147 18.6979 22.1118 18.4759 22.6225L18.751 22.7421ZM15.4072 23.1471C15.9438 23.1728 16.4666 23.0263 16.9729 22.7157L16.816 22.46C16.3543 22.7433 15.8904 22.8699 15.4215 22.8475L15.4072 23.1471ZM13.9275 22.6596C14.3917 22.9612 14.8859 23.125 15.408 23.1472L15.4207 22.8474C14.9561 22.8277 14.5134 22.6825 14.0909 22.408L13.9275 22.6596ZM13.1381 21.2295C13.1064 21.7948 13.383 22.2715 13.9221 22.6559L14.0963 22.4117C13.6174 22.0702 13.4131 21.6829 13.4376 21.2463L13.1381 21.2295ZM13.5862 20.0319C13.3118 20.4272 13.1585 20.8272 13.138 21.2303L13.4377 21.2455C13.4547 20.9105 13.5824 20.5635 13.8326 20.2029L13.5862 20.0319ZM14.9819 19.2881C14.4596 19.2608 13.9959 19.5224 13.5926 20.0233L13.8262 20.2115C14.1911 19.7584 14.5704 19.567 14.9662 19.5877L14.9819 19.2881ZM16.0767 19.974C15.7861 19.5504 15.421 19.3089 14.9811 19.2881L14.967 19.5877C15.2891 19.603 15.5766 19.7754 15.8293 20.1437L16.0767 19.974ZM15.2731 20.4888C15.4753 20.3831 15.716 20.2874 15.9965 20.2025L15.9095 19.9153C15.6154 20.0044 15.3565 20.1067 15.1341 20.2229L15.2731 20.4888ZM14.7772 20.8337C14.9616 20.674 15.1257 20.5611 15.2695 20.4906L15.1376 20.2212C14.963 20.3067 14.7773 20.4368 14.5808 20.607L14.7772 20.8337ZM14.4744 21.2262C14.5225 21.1166 14.6211 20.984 14.7829 20.8285L14.5751 20.6122C14.3996 20.7807 14.2702 20.9451 14.1997 21.1055L14.4744 21.2262ZM14.3979 21.4691C14.3998 21.4233 14.4199 21.3454 14.4735 21.2282L14.2006 21.1035C14.1418 21.2323 14.1025 21.3524 14.0982 21.4566L14.3979 21.4691ZM14.3921 21.5182L14.3968 21.4822L14.0993 21.4435L14.0946 21.4795L14.3921 21.5182ZM14.659 21.776C14.5466 21.736 14.4787 21.6902 14.4407 21.6466C14.4059 21.6068 14.3904 21.5629 14.3932 21.5063L14.0936 21.4914C14.087 21.6238 14.1276 21.7442 14.2147 21.8439C14.2984 21.9398 14.4179 22.0087 14.5584 22.0587L14.659 21.776ZM14.944 21.826C14.8336 21.8206 14.7384 21.8031 14.6571 21.7754L14.5603 22.0593C14.6726 22.0976 14.796 22.1191 14.9292 22.1257L14.944 21.826ZM14.9947 21.8312L14.9525 21.8267L14.9207 22.125L14.9628 22.1295L14.9947 21.8312ZM16.0025 21.5854C15.6464 21.765 15.3079 21.8442 14.9851 21.8305L14.9724 22.1302C15.3553 22.1465 15.7444 22.0516 16.1376 21.8533L16.0025 21.5854ZM16.6603 20.6499C16.6417 21.0243 16.4349 21.3376 15.9956 21.5892L16.1446 21.8495C16.6484 21.5611 16.9349 21.1665 16.96 20.6648L16.6603 20.6499ZM16.1697 19.566C16.5232 19.9227 16.6767 20.2831 16.6603 20.6507L16.96 20.6641C16.9811 20.1917 16.7786 19.7541 16.3827 19.3548L16.1697 19.566ZM15.7276 19.1991C15.9627 19.3888 16.1102 19.5118 16.1748 19.571L16.3776 19.3499C16.3047 19.2831 16.1494 19.154 15.916 18.9657L15.7276 19.1991ZM15.183 18.6066C15.2733 18.7558 15.4581 18.953 15.7206 19.1931L15.9231 18.9717C15.661 18.7319 15.5054 18.56 15.4396 18.4513L15.183 18.6066ZM14.8665 17.5841C14.8454 17.9417 14.9572 18.2866 15.1887 18.6153L15.4339 18.4426C15.2345 18.1593 15.1496 17.8802 15.166 17.6018L14.8665 17.5841ZM15.4966 16.402C15.1039 16.7277 14.8873 17.1236 14.8664 17.5862L15.1661 17.5997C15.1826 17.2343 15.3501 16.9133 15.6881 16.6329L15.4966 16.402ZM16.8078 15.9987C16.3238 15.9761 15.8865 16.1093 15.5023 16.3975L15.6823 16.6375C16.0101 16.3917 16.3785 16.2789 16.7938 16.2983L16.8078 15.9987ZM16.8336 15.9985H16.8008V16.2985H16.8336V15.9985ZM17.9278 16.3944C17.6123 16.15 17.2484 16.0181 16.8407 15.9987L16.8264 16.2983C17.1745 16.3149 17.4788 16.426 17.7441 16.6316L17.9278 16.3944ZM18.3725 16.873C18.2583 16.6802 18.1075 16.5188 17.9214 16.3897L17.7504 16.6362C17.9016 16.7411 18.0225 16.8707 18.1144 17.0259L18.3725 16.873ZM18.5571 17.6236C18.5713 17.362 18.5088 17.1115 18.3736 16.875L18.1132 17.0239C18.2216 17.2135 18.2684 17.407 18.2576 17.6074L18.5571 17.6236ZM18.34 18.2199C18.4766 18.0559 18.5466 17.8535 18.5572 17.6223L18.2575 17.6086C18.2494 17.7854 18.1976 17.922 18.1094 18.028L18.34 18.2199ZM17.7404 18.4133C17.9714 18.4234 18.1746 18.372 18.3255 18.235L18.1239 18.0129C18.05 18.0799 17.9346 18.1215 17.7535 18.1136L17.7404 18.4133ZM17.0225 18.1816C17.2363 18.323 17.4764 18.3999 17.7394 18.4132L17.7545 18.1136C17.5429 18.1029 17.3551 18.0419 17.188 17.9313L17.0225 18.1816ZM16.9 17.9447C16.8936 18.0006 16.9115 18.0483 16.9318 18.0825C16.9519 18.1163 16.9788 18.1448 17.0057 18.1687L17.2048 17.9442C17.1983 17.9385 17.1941 17.9342 17.1916 17.9313C17.1889 17.9283 17.1887 17.9275 17.1897 17.9291C17.1913 17.9319 17.2014 17.9503 17.198 17.9792L16.9 17.9447ZM16.899 17.9484V17.9619H17.199V17.9484H16.899ZM17.1106 17.7308C17.0688 17.7459 17.0269 17.7641 16.9927 17.7873C16.9676 17.8044 16.899 17.856 16.899 17.9484H17.199C17.199 17.9836 17.1849 18.0085 17.1757 18.0207C17.1671 18.032 17.16 18.0364 17.1615 18.0353C17.1623 18.0348 17.1665 18.0321 17.1757 18.0278C17.1847 18.0236 17.1967 18.0187 17.2123 18.0131L17.1106 17.7308ZM17.2997 17.4427C17.2552 17.6135 17.1821 17.6974 17.0989 17.7356L17.224 18.0083C17.4156 17.9205 17.5314 17.7435 17.59 17.5182L17.2997 17.4427ZM17.2537 17.1012C17.3156 17.1732 17.3428 17.2767 17.2997 17.4427L17.59 17.5182C17.6499 17.2882 17.6256 17.0738 17.4813 16.9057L17.2537 17.1012ZM16.9012 16.9868C17.0582 16.9945 17.1784 17.0407 17.2712 17.1185L17.4639 16.8885C17.3131 16.7622 17.1273 16.6975 16.9158 16.6872L16.9012 16.9868ZM16.3643 17.1627C16.5051 17.0371 16.6802 16.9764 16.9015 16.9868L16.9155 16.6871C16.6247 16.6735 16.3704 16.7553 16.1647 16.9388L16.3643 17.1627ZM16.1402 17.5385C16.1466 17.427 16.2085 17.3016 16.3643 17.1627L16.1647 16.9388C15.9738 17.1089 15.8531 17.3029 15.8407 17.5215L16.1402 17.5385ZM16.1405 17.548V17.53H15.8405V17.548H16.1405ZM16.8161 18.4541C16.5698 18.2686 16.395 18.0984 16.2845 17.9443C16.1742 17.7904 16.1348 17.6622 16.1403 17.5557L15.8407 17.5402C15.8305 17.7367 15.9059 17.931 16.0407 18.1191C16.1754 18.307 16.376 18.4982 16.6356 18.6937L16.8161 18.4541ZM17.3671 18.9686C17.1266 18.7225 16.9416 18.5486 16.8161 18.4541L16.6356 18.6938C16.7412 18.7732 16.9122 18.9323 17.1525 19.1783L17.3671 18.9686ZM18.1403 20.8813C18.1742 20.2431 17.9082 19.6069 17.3743 18.9765L17.1453 19.1704C17.6481 19.7639 17.8693 20.3277 17.8407 20.8654L18.1403 20.8813ZM17.416 22.3712C17.866 21.9326 18.1132 21.4349 18.1403 20.8807L17.8407 20.866C17.8179 21.3318 17.6122 21.7611 17.2066 22.1564L17.416 22.3712ZM16.9634 22.721C17.0637 22.6692 17.2159 22.5484 17.4107 22.3762L17.212 22.1515C17.0133 22.3272 16.8876 22.4225 16.8255 22.4546L16.9634 22.721Z" fill="#007689"/>
</svg>
