<svg width="26" height="26" viewBox="0 0 26 26" fill="none" xmlns="http://www.w3.org/2000/svg">
<path d="M3.97116 19.5242V3.112C3.97116 3.03432 4.03432 2.97116 4.112 2.97116H13.8749C13.9526 2.97116 14.0158 3.03432 14.0158 3.112V3.17305C14.0158 3.71684 14.4566 4.15832 15.0011 4.15832C15.5455 4.15832 15.9869 3.71684 15.9869 3.17305V3.112C15.9869 1.94737 15.0396 1 13.8749 1H4.112C2.94737 1 2 1.94737 2 3.112V22.888C2 24.0526 2.94737 25 4.112 25H13.8749C15.0396 25 15.9869 24.0526 15.9869 22.888V20.5095C15.9869 19.9657 15.5455 19.5242 15.0017 19.5242H3.97116Z" fill="white"/>
<path fill-rule="evenodd" clip-rule="evenodd" d="M3.09082 22.2731C3.09082 21.3693 3.82345 20.6367 4.72718 20.6367H13.4545C14.3582 20.6367 15.0908 21.3693 15.0908 22.2731C15.0908 23.1768 14.3582 23.9094 13.4545 23.9094H4.72718C3.82345 23.9094 3.09082 23.1768 3.09082 22.2731Z" fill="white"/>
<rect x="7.45459" y="21.1816" width="3.27273" height="1.63636" rx="0.818182" fill="#007689"/>
<circle cx="18.5" cy="11.5" r="6.5" fill="#10C9C9"/>
<path fill-rule="evenodd" clip-rule="evenodd" d="M19.3278 14.6823C19.2841 14.7753 19.2497 14.8293 19.2248 14.8443H19.2154C19.0999 14.8443 19.0202 14.7693 18.9765 14.6193C18.9609 14.5653 18.9531 14.5038 18.9531 14.4348C18.9531 14.2248 19.0343 13.9443 19.1967 13.5933C19.3559 13.2364 19.5604 12.8224 19.8103 12.3514C20.4317 11.2114 21.1592 9.98145 21.993 8.66148C22.2802 8.22049 22.5129 8 22.6909 8C22.8407 8 22.9438 8.1425 23 8.42749C23 8.49049 22.9282 8.59248 22.7845 8.73348C22.4879 9.08747 22.2084 9.46546 21.9461 9.86745C21.1655 11.0824 20.4722 12.2929 19.8665 13.4988C19.7291 13.7778 19.5495 14.1723 19.3278 14.6823ZM17.6088 14.5878C17.1248 14.8848 16.6314 15.0213 16.1287 14.9973C15.6353 14.9763 15.1669 14.8218 14.7235 14.5338C14.2145 14.1708 13.9741 13.7388 14.0022 13.2379C14.0209 12.8689 14.1615 12.4954 14.4238 12.1174C14.8078 11.6404 15.2294 11.4139 15.6884 11.4379C16.0694 11.4559 16.3957 11.6629 16.6674 12.0589C16.3801 12.1459 16.1303 12.2449 15.9179 12.3559C15.7587 12.4339 15.5838 12.5554 15.3933 12.7204C15.2247 12.8824 15.1107 13.0309 15.0514 13.1659C14.9952 13.2889 14.9655 13.3879 14.9624 13.4629L14.9577 13.4988C14.9484 13.6878 15.0701 13.8273 15.3231 13.9173C15.4199 13.9503 15.5292 13.9698 15.6509 13.9758L15.6931 13.9803C16.046 13.9953 16.4097 13.9083 16.7844 13.7193C17.256 13.4494 17.5026 13.0954 17.5245 12.6574C17.5432 12.2374 17.3653 11.8384 16.9905 11.4604C16.9218 11.3974 16.7704 11.2714 16.5362 11.0824C16.2739 10.8424 16.1037 10.6579 16.0257 10.5289C15.8102 10.2229 15.7118 9.91095 15.7306 9.59296C15.7493 9.17897 15.9413 8.82048 16.3067 8.51749C16.6627 8.25049 17.0655 8.1275 17.5151 8.1485H17.5479C17.9258 8.1665 18.2599 8.28799 18.5503 8.51299C18.7189 8.62998 18.8547 8.77548 18.9578 8.94947C19.0796 9.16247 19.1342 9.38446 19.1217 9.61546C19.1124 9.81945 19.0515 9.98895 18.939 10.1239C18.8266 10.2259 18.6674 10.2724 18.4613 10.2634C18.224 10.2514 18.0101 10.1824 17.8196 10.0564C17.779 10.0204 17.7603 9.98895 17.7634 9.96195V9.94845C17.7634 9.92445 17.8009 9.89895 17.8758 9.87195C18.0132 9.80895 18.1077 9.67845 18.1592 9.48046C18.2107 9.28246 18.1849 9.12347 18.0819 9.00347C17.9601 8.90148 17.8071 8.84598 17.6229 8.83698C17.3668 8.82498 17.1521 8.89623 16.9788 9.05072C16.8055 9.20522 16.7142 9.36496 16.7048 9.52996V9.54796C16.6892 9.85095 16.9343 10.1929 17.4402 10.5739C17.5557 10.6609 17.7337 10.8274 17.9742 11.0734C18.4925 11.6854 18.7361 12.2854 18.7049 12.8734C18.6799 13.3834 18.4535 13.8468 18.0257 14.2638C17.829 14.4378 17.69 14.5458 17.6088 14.5878Z" fill="#007689"/>
<path d="M19.2248 14.8443V14.9943H19.2663L19.302 14.9729L19.2248 14.8443ZM19.3278 14.6823L19.4636 14.7462L19.4654 14.7421L19.3278 14.6823ZM18.9765 14.6193L18.8324 14.661L18.8325 14.6613L18.9765 14.6193ZM19.1967 13.5933L19.3328 13.6563L19.3337 13.6545L19.1967 13.5933ZM19.8103 12.3514L19.6785 12.2796L19.6777 12.2811L19.8103 12.3514ZM21.993 8.66148L21.8673 8.5796L21.8661 8.58138L21.993 8.66148ZM23 8.42749H23.15V8.41284L23.1472 8.39846L23 8.42749ZM22.7845 8.73348L22.6795 8.62643L22.6743 8.63154L22.6696 8.63714L22.7845 8.73348ZM21.9461 9.86745L21.8205 9.78548L21.8199 9.78636L21.9461 9.86745ZM19.8665 13.4988L19.7324 13.4315L19.7319 13.4326L19.8665 13.4988ZM16.1287 14.9973L16.1359 14.8475L16.1351 14.8474L16.1287 14.9973ZM17.6088 14.5878L17.5397 14.4542L17.5304 14.46L17.6088 14.5878ZM14.7235 14.5338L14.6364 14.6561L14.6418 14.6596L14.7235 14.5338ZM14.0022 13.2379L14.152 13.2463L14.152 13.2455L14.0022 13.2379ZM14.4238 12.1174L14.3066 12.0231L14.3005 12.0319L14.4238 12.1174ZM15.6884 11.4379L15.6806 11.5877L15.6813 11.5877L15.6884 11.4379ZM16.6674 12.0589L16.7108 12.2025L16.907 12.143L16.791 11.974L16.6674 12.0589ZM15.9179 12.3559L15.9839 12.4906L15.9874 12.4888L15.9179 12.3559ZM15.3933 12.7204L15.295 12.6068L15.2894 12.6122L15.3933 12.7204ZM15.0514 13.1659L15.1878 13.2282L15.1887 13.2262L15.0514 13.1659ZM14.9624 13.4629L15.1117 13.4823L15.1123 13.4691L14.9624 13.4629ZM14.9577 13.4988L14.8085 13.4794L14.8079 13.4914L14.9577 13.4988ZM15.3231 13.9173L15.2728 14.0587L15.2747 14.0593L15.3231 13.9173ZM15.6509 13.9758L15.6669 13.8264L15.6583 13.826L15.6509 13.9758ZM15.6931 13.9803L15.6771 14.1298L15.6867 14.1302L15.6931 13.9803ZM16.7844 13.7193L16.8521 13.8535L16.859 13.8495L16.7844 13.7193ZM17.5245 12.6574L17.6743 12.6648L17.6744 12.6641L17.5245 12.6574ZM16.9905 11.4604L17.0972 11.3547L17.0919 11.3499L16.9905 11.4604ZM16.5362 11.0824L16.4348 11.1933L16.442 11.1991L16.5362 11.0824ZM16.0257 10.5289L16.1543 10.4511L16.1483 10.4426L16.0257 10.5289ZM15.7306 9.59296L15.8803 9.60178L15.8804 9.59974L15.7306 9.59296ZM16.3067 8.51749L16.2166 8.39734L16.2109 8.40203L16.3067 8.51749ZM17.5151 8.1485L17.5081 8.2985H17.5151V8.1485ZM17.5479 8.1485L17.5551 7.9985H17.5479V8.1485ZM18.5503 8.51299L18.4583 8.63173L18.4648 8.63623L18.5503 8.51299ZM18.9578 8.94947L19.088 8.87501L19.0868 8.87304L18.9578 8.94947ZM19.1217 9.61546L18.9719 9.60736L18.9719 9.60857L19.1217 9.61546ZM18.939 10.1239L19.0398 10.235L19.0476 10.228L19.0543 10.2199L18.939 10.1239ZM18.4613 10.2634L18.4537 10.4133L18.4547 10.4133L18.4613 10.2634ZM17.8196 10.0564L17.7201 10.1687L17.728 10.1757L17.7368 10.1816L17.8196 10.0564ZM17.7634 9.96195L17.9124 9.97918L17.9134 9.97059V9.96195H17.7634ZM17.8758 9.87195L17.9268 10.0136L17.9383 10.0083L17.8758 9.87195ZM18.0819 9.00347L18.1957 8.90575L18.1877 8.89639L18.1782 8.88848L18.0819 9.00347ZM17.6229 8.83698L17.6302 8.68716L17.6299 8.68714L17.6229 8.83698ZM16.9788 9.05072L17.0786 9.16269V9.16269L16.9788 9.05072ZM16.7048 9.52996L16.5548 9.52144V9.52996H16.7048ZM16.7048 9.54796L16.8548 9.55569V9.54796H16.7048ZM17.4402 10.5739L17.35 10.6937L17.35 10.6938L17.4402 10.5739ZM17.9742 11.0734L18.0889 10.9762L18.0814 10.9686L17.9742 11.0734ZM18.7049 12.8734L18.5551 12.8654L18.555 12.866L18.7049 12.8734ZM18.0257 14.2638L18.1252 14.3763L18.1304 14.3712L18.0257 14.2638ZM19.302 14.9729C19.347 14.9459 19.3777 14.9016 19.3958 14.8731C19.4178 14.8385 19.4404 14.7954 19.4636 14.7461L19.1921 14.6185C19.1715 14.6622 19.1551 14.6926 19.1427 14.7121C19.1366 14.7217 19.1328 14.7265 19.1315 14.728C19.1294 14.7304 19.1346 14.7235 19.1476 14.7157L19.302 14.9729ZM19.2154 14.9943H19.2248V14.6943H19.2154V14.9943ZM18.8325 14.6613C18.8588 14.7516 18.9003 14.8352 18.9662 14.8973C19.0355 14.9625 19.1218 14.9943 19.2154 14.9943V14.6943C19.1935 14.6943 19.1822 14.6886 19.1719 14.6789C19.1581 14.6659 19.1379 14.6371 19.1205 14.5773L18.8325 14.6613ZM18.8031 14.4348C18.8031 14.5148 18.8121 14.5908 18.8324 14.661L19.1206 14.5777C19.1097 14.5399 19.1031 14.4928 19.1031 14.4348H18.8031ZM19.0605 13.5304C18.8954 13.8872 18.8031 14.1917 18.8031 14.4348H19.1031C19.1031 14.2579 19.1731 14.0015 19.3328 13.6563L19.0605 13.5304ZM19.6777 12.2811C19.4269 12.7541 19.2207 13.1713 19.0597 13.5322L19.3337 13.6545C19.4911 13.3015 19.694 12.8906 19.9428 12.4217L19.6777 12.2811ZM21.8661 8.58138C21.031 9.90354 20.3018 11.1363 19.6786 12.2796L19.942 12.4232C20.5616 11.2865 21.2874 10.0594 22.1198 8.74159L21.8661 8.58138ZM22.6909 7.85C22.5426 7.85 22.4037 7.93901 22.2797 8.0565C22.1512 8.17832 22.0138 8.35469 21.8673 8.57961L22.1186 8.74336C22.2594 8.52729 22.382 8.37291 22.4861 8.27424C22.5948 8.17124 22.6612 8.15 22.6909 8.15V7.85ZM23.1472 8.39846C23.1173 8.24685 23.072 8.11559 23.0021 8.01897C22.9279 7.91642 22.8227 7.85 22.6909 7.85V8.15C22.7089 8.15 22.7301 8.15482 22.759 8.19477C22.7922 8.24065 22.8265 8.32313 22.8528 8.45651L23.1472 8.39846ZM22.8896 8.84053C22.9645 8.76703 23.0255 8.6991 23.0688 8.63759C23.1079 8.582 23.15 8.50808 23.15 8.42749H22.85C22.85 8.4099 22.8562 8.41847 22.8235 8.46488C22.795 8.50537 22.7482 8.55893 22.6795 8.62643L22.8896 8.84053ZM22.0717 9.94942C22.3309 9.55223 22.6068 9.17906 22.8995 8.82982L22.6696 8.63714C22.3689 8.99588 22.0859 9.37869 21.8205 9.78548L22.0717 9.94942ZM20.0005 13.5662C20.6038 12.3652 21.2943 11.1594 22.0723 9.94853L21.8199 9.78636C21.0366 11.0055 20.3407 12.2205 19.7324 13.4315L20.0005 13.5662ZM19.4654 14.7421C19.6867 14.2329 19.8652 13.8409 20.001 13.5651L19.7319 13.4326C19.5929 13.7147 19.4123 14.1118 19.1902 14.6225L19.4654 14.7421ZM16.1215 15.1471C16.6581 15.1728 17.181 15.0263 17.6873 14.7157L17.5304 14.46C17.0686 14.7433 16.6047 14.8699 16.1359 14.8475L16.1215 15.1471ZM14.6418 14.6596C15.1061 14.9612 15.6002 15.125 16.1223 15.1472L16.1351 14.8474C15.6704 14.8277 15.2278 14.6825 14.8052 14.408L14.6418 14.6596ZM13.8524 13.2295C13.8207 13.7948 14.0974 14.2715 14.6364 14.6559L14.8106 14.4117C14.3317 14.0702 14.1275 13.6829 14.152 13.2463L13.8524 13.2295ZM14.3005 12.0319C14.0262 12.4272 13.8729 12.8272 13.8524 13.2303L14.152 13.2455C14.169 12.9105 14.2967 12.5635 14.547 12.2029L14.3005 12.0319ZM15.6962 11.2881C15.174 11.2608 14.7102 11.5224 14.3069 12.0233L14.5406 12.2115C14.9054 11.7584 15.2848 11.567 15.6806 11.5877L15.6962 11.2881ZM16.791 11.974C16.5004 11.5504 16.1353 11.3089 15.6955 11.2881L15.6813 11.5877C16.0034 11.603 16.291 11.7754 16.5437 12.1437L16.791 11.974ZM15.9874 12.4888C16.1897 12.3831 16.4304 12.2874 16.7108 12.2025L16.6239 11.9153C16.3298 12.0044 16.0709 12.1067 15.8484 12.2229L15.9874 12.4888ZM15.4915 12.8337C15.676 12.674 15.84 12.5611 15.9839 12.4906L15.8519 12.2212C15.6773 12.3067 15.4916 12.4368 15.2951 12.607L15.4915 12.8337ZM15.1887 13.2262C15.2369 13.1166 15.3354 12.984 15.4972 12.8285L15.2894 12.6122C15.114 12.7807 14.9846 12.9451 14.9141 13.1055L15.1887 13.2262ZM15.1123 13.4691C15.1142 13.4233 15.1343 13.3454 15.1878 13.2282L14.915 13.1035C14.8561 13.2323 14.8169 13.3524 14.8125 13.4566L15.1123 13.4691ZM15.1065 13.5182L15.1112 13.4822L14.8137 13.4435L14.809 13.4795L15.1065 13.5182ZM15.3734 13.776C15.2609 13.736 15.1931 13.6902 15.155 13.6466C15.1203 13.6068 15.1047 13.5629 15.1075 13.5063L14.8079 13.4914C14.8013 13.6238 14.842 13.7442 14.929 13.8439C15.0127 13.9398 15.1323 14.0087 15.2728 14.0587L15.3734 13.776ZM15.6583 13.826C15.5479 13.8206 15.4528 13.8031 15.3715 13.7754L15.2747 14.0593C15.387 14.0976 15.5104 14.1191 15.6436 14.1257L15.6583 13.826ZM15.709 13.8312L15.6669 13.8267L15.635 14.125L15.6772 14.1295L15.709 13.8312ZM16.7169 13.5854C16.3607 13.765 16.0223 13.8442 15.6995 13.8305L15.6867 14.1302C16.0696 14.1465 16.4587 14.0516 16.852 13.8533L16.7169 13.5854ZM17.3747 12.6499C17.356 13.0243 17.1492 13.3376 16.7099 13.5892L16.859 13.8495C17.3627 13.5611 17.6493 13.1665 17.6743 12.6648L17.3747 12.6499ZM16.884 11.566C17.2376 11.9227 17.3911 12.2831 17.3747 12.6507L17.6744 12.6641C17.6954 12.1917 17.4929 11.7541 17.0971 11.3548L16.884 11.566ZM16.442 11.1991C16.677 11.3888 16.8246 11.5118 16.8892 11.571L17.0919 11.3499C17.0191 11.2831 16.8638 11.154 16.6304 10.9657L16.442 11.1991ZM15.8973 10.6066C15.9876 10.7558 16.1725 10.953 16.4349 11.1931L16.6375 10.9717C16.3753 10.7319 16.2198 10.56 16.154 10.4513L15.8973 10.6066ZM15.5808 9.58413C15.5598 9.9417 15.6716 10.2866 15.903 10.6153L16.1483 10.4426C15.9488 10.1593 15.8639 9.88019 15.8803 9.60178L15.5808 9.58413ZM16.2109 8.40203C15.8183 8.72768 15.6017 9.12363 15.5807 9.58617L15.8804 9.59974C15.897 9.2343 16.0644 8.91328 16.4024 8.63295L16.2109 8.40203ZM17.5221 7.99866C17.0381 7.97605 16.6009 8.10932 16.2167 8.39749L16.3967 8.63748C16.7244 8.39167 17.0929 8.27894 17.5081 8.29833L17.5221 7.99866ZM17.5479 7.9985H17.5151V8.2985H17.5479V7.9985ZM18.6422 8.39441C18.3266 8.14995 17.9627 8.01809 17.5551 7.99867L17.5408 8.29833C17.8888 8.31491 18.1931 8.42603 18.4584 8.63156L18.6422 8.39441ZM19.0868 8.87304C18.9726 8.68021 18.8219 8.51884 18.6358 8.38975L18.4648 8.63623C18.616 8.74112 18.7368 8.87075 18.8287 9.02591L19.0868 8.87304ZM19.2715 9.62355C19.2856 9.36196 19.2232 9.11148 19.088 8.87502L18.8276 9.02393C18.9359 9.21345 18.9828 9.40697 18.9719 9.60736L19.2715 9.62355ZM19.0543 10.2199C19.1909 10.0559 19.2609 9.85349 19.2716 9.62234L18.9719 9.60857C18.9638 9.78541 18.912 9.92204 18.8238 10.028L19.0543 10.2199ZM18.4547 10.4133C18.6858 10.4234 18.8889 10.372 19.0398 10.235L18.8383 10.0129C18.7644 10.0799 18.649 10.1215 18.4678 10.1136L18.4547 10.4133ZM17.7368 10.1816C17.9506 10.323 18.1907 10.3999 18.4537 10.4132L18.4689 10.1136C18.2572 10.1029 18.0695 10.0419 17.9023 9.93134L17.7368 10.1816ZM17.6144 9.94471C17.6079 10.0006 17.6258 10.0483 17.6462 10.0825C17.6663 10.1163 17.6932 10.1448 17.7201 10.1687L17.9191 9.94422C17.9127 9.93853 17.9085 9.93419 17.9059 9.93126C17.9033 9.92827 17.9031 9.92754 17.904 9.92914C17.9057 9.93189 17.9157 9.9503 17.9124 9.97918L17.6144 9.94471ZM17.6134 9.94845V9.96195H17.9134V9.94845H17.6134ZM17.825 9.73083C17.7831 9.7459 17.7413 9.76407 17.7071 9.78731C17.682 9.80442 17.6134 9.85601 17.6134 9.94845H17.9134C17.9134 9.98361 17.8992 10.0085 17.89 10.0207C17.8815 10.032 17.8744 10.0364 17.8759 10.0353C17.8767 10.0348 17.8809 10.0321 17.8901 10.0278C17.899 10.0236 17.9111 10.0187 17.9266 10.0131L17.825 9.73083ZM18.014 9.44268C17.9696 9.61346 17.8965 9.69745 17.8133 9.7356L17.9383 10.0083C18.1299 9.92045 18.2457 9.74345 18.3043 9.51824L18.014 9.44268ZM17.9681 9.1012C18.0299 9.17319 18.0572 9.27674 18.014 9.44268L18.3043 9.51824C18.3642 9.28819 18.34 9.07375 18.1957 8.90575L17.9681 9.1012ZM17.6156 8.9868C17.7726 8.99447 17.8928 9.04074 17.9856 9.11847L18.1782 8.88848C18.0274 8.76221 17.8416 8.69748 17.6302 8.68716L17.6156 8.9868ZM17.0786 9.16269C17.2195 9.03713 17.3945 8.97644 17.6158 8.98681L17.6299 8.68714C17.3391 8.67351 17.0848 8.75532 16.879 8.93875L17.0786 9.16269ZM16.8546 9.53846C16.8609 9.427 16.9229 9.30157 17.0786 9.16269L16.879 8.93875C16.6882 9.10887 16.5675 9.30293 16.5551 9.52146L16.8546 9.53846ZM16.8548 9.54796V9.52996H16.5548V9.54796H16.8548ZM17.5304 10.4541C17.2842 10.2686 17.1093 10.0984 16.9989 9.94431C16.8886 9.7904 16.8491 9.66221 16.8546 9.55568L16.555 9.54024C16.5449 9.73669 16.6202 9.931 16.755 10.1191C16.8897 10.307 17.0904 10.4982 17.35 10.6937L17.5304 10.4541ZM18.0814 10.9686C17.8409 10.7225 17.656 10.5486 17.5304 10.4541L17.35 10.6938C17.4555 10.7732 17.6265 10.9323 17.8669 11.1783L18.0814 10.9686ZM18.8546 12.8813C18.8885 12.2431 18.6226 11.6069 18.0886 10.9765L17.8597 11.1704C18.3624 11.7639 18.5836 12.3277 18.5551 12.8654L18.8546 12.8813ZM18.1304 14.3712C18.5804 13.9326 18.8275 13.4349 18.8547 12.8807L18.555 12.866C18.5322 13.3318 18.3266 13.7611 17.921 14.1564L18.1304 14.3712ZM17.6777 14.721C17.778 14.6692 17.9303 14.5484 18.1251 14.3762L17.9263 14.1515C17.7276 14.3272 17.602 14.4225 17.5399 14.4546L17.6777 14.721Z" fill="#007689"/>
<path fill-rule="evenodd" clip-rule="evenodd" d="M7.90863 11.7973L8.99495 12.8722L8.30653 13.5669L6 11.2838L8.30653 9L8.99495 9.69537L7.85937 10.8196H10.9255V11.7973H7.90863Z" fill="#10C9C9"/>
</svg>
