<svg width="26" height="26" viewBox="0 0 26 26" fill="none" xmlns="http://www.w3.org/2000/svg">
<g filter="url(#filter0_d_673_3793)">
<rect x="3" y="2" width="20" height="20" rx="10" fill="#7998AF"/>
<path fill-rule="evenodd" clip-rule="evenodd" d="M17.1113 8.67167L17.3479 9.37488C17.4017 9.53498 17.3744 9.71235 17.2749 9.84926C17.1755 9.98609 17.0145 10.0679 16.8444 10.0679H16.7075L16.1633 16.7417C16.1229 17.237 15.6991 17.625 15.1985 17.625H10.9119C10.4113 17.625 9.98755 17.237 9.94709 16.7418L9.40289 10.0679H9.15564C8.98547 10.0679 8.82453 9.98609 8.72506 9.84918C8.62558 9.71226 8.59828 9.53498 8.65215 9.37488L8.88869 8.67167C8.97876 8.40384 9.23059 8.22388 9.51528 8.22388H11.5033V7.58195C11.5033 7.2611 11.7664 7 12.0897 7H13.9103C14.2337 7 14.4967 7.2611 14.4967 7.58195V8.22388H16.4848C16.7694 8.22388 17.0212 8.40384 17.1113 8.67167ZM13.869 7.62256H12.131V8.22388H13.869V7.62256ZM15.5376 16.6916C15.5233 16.8659 15.3744 17.0024 15.1985 17.0024H10.9119C10.736 17.0024 10.5871 16.8659 10.5729 16.6916L10.0327 10.0679H16.0777L15.5376 16.6916ZM9.48422 8.86865L9.29026 9.44533H16.7098L16.5159 8.86865C16.5114 8.85535 16.4989 8.84644 16.4848 8.84644H9.51528C9.50114 8.84644 9.48863 8.85535 9.48422 8.86865Z" fill="white"/>
<path d="M14.5365 16.669C14.5421 16.6694 14.5475 16.6694 14.5531 16.6694C14.7189 16.6694 14.8576 16.5406 14.8662 16.3744L15.161 10.7631C15.1699 10.5914 15.0369 10.4449 14.8638 10.436C14.6903 10.4268 14.5431 10.559 14.534 10.7307L14.2394 16.342C14.2304 16.5136 14.3634 16.6601 14.5365 16.669Z" fill="white"/>
<path d="M11.1478 16.3751C11.1569 16.541 11.2954 16.6694 11.4609 16.6694C11.4666 16.6694 11.4725 16.6692 11.4783 16.6689C11.6514 16.6596 11.784 16.5129 11.7746 16.3412L11.4659 10.7299C11.4565 10.5582 11.3086 10.4266 11.1354 10.436C10.9624 10.4453 10.8298 10.5921 10.8392 10.7638L11.1478 16.3751Z" fill="white"/>
<path d="M13.0035 16.6694C13.1769 16.6694 13.3174 16.5301 13.3174 16.3581V10.7468C13.3174 10.5749 13.1769 10.4355 13.0035 10.4355C12.8301 10.4355 12.6896 10.5749 12.6896 10.7468V16.3581C12.6896 16.5301 12.8301 16.6694 13.0035 16.6694Z" fill="white"/>
</g>
<defs>
<filter id="filter0_d_673_3793" x="0" y="0" width="26" height="26" filterUnits="userSpaceOnUse" color-interpolation-filters="sRGB">
<feFlood flood-opacity="0" result="BackgroundImageFix"/>
<feColorMatrix in="SourceAlpha" type="matrix" values="0 0 0 0 0 0 0 0 0 0 0 0 0 0 0 0 0 0 127 0" result="hardAlpha"/>
<feOffset dy="1"/>
<feGaussianBlur stdDeviation="1.5"/>
<feColorMatrix type="matrix" values="0 0 0 0 0 0 0 0 0 0 0 0 0 0 0 0 0 0 0.08 0"/>
<feBlend mode="normal" in2="BackgroundImageFix" result="effect1_dropShadow_673_3793"/>
<feBlend mode="normal" in="SourceGraphic" in2="effect1_dropShadow_673_3793" result="shape"/>
</filter>
</defs>
</svg>
