<svg width="18" height="20" viewBox="0 0 18 20" fill="none" xmlns="http://www.w3.org/2000/svg">
<path fill-rule="evenodd" clip-rule="evenodd" d="M6.34085 15.8333H15.7501C16.9913 15.8333 18 14.8059 18 13.5417V4.78577C18 3.95172 17.6809 3.16666 17.1008 2.57584L15.471 0.915833C14.9008 0.333405 14.1096 0 13.302 0H6.34085C5.09964 0 4.09094 1.02753 4.09094 2.29172V13.5417C4.09094 14.8059 5.09964 15.8333 6.34085 15.8333ZM5.31822 2.29172C5.31822 1.71753 5.7771 1.25 6.34085 1.25H13.302C13.7872 1.25 14.2609 1.45004 14.6037 1.79993L16.2335 3.45993C16.5812 3.81424 16.7727 4.28497 16.7727 4.78577V13.5417C16.7727 14.1159 16.3138 14.5833 15.7501 14.5833H6.34085C5.7771 14.5833 5.31822 14.1159 5.31822 13.5417V2.29172Z" fill="white"/>
<path d="M12.0683 20.0007H2.25006C1.00885 20.0007 0 18.9732 0 17.709V4.3757C0 3.11151 1.00885 2.08398 2.25006 2.08398H2.65905C2.99778 2.08398 3.27269 2.36398 3.27269 2.70898C3.27269 3.05399 2.99778 3.33398 2.65905 3.33398H2.25006C1.68631 3.33398 1.22728 3.80151 1.22728 4.3757V17.709C1.22728 18.2832 1.68631 18.7507 2.25006 18.7507H12.0683C12.632 18.7507 13.0909 18.2832 13.0909 17.709V17.2924C13.0909 16.9474 13.3658 16.6674 13.7045 16.6674C14.0433 16.6674 14.3182 16.9474 14.3182 17.2924V17.709C14.3182 18.9732 13.3095 20.0007 12.0683 20.0007Z" fill="white"/>
<path d="M14.1137 7.08398H7.97729C7.63856 7.08398 7.36365 6.80399 7.36365 6.45898C7.36365 6.11398 7.63856 5.83398 7.97729 5.83398H14.1137C14.4524 5.83398 14.7273 6.11398 14.7273 6.45898C14.7273 6.80399 14.4524 7.08398 14.1137 7.08398Z" fill="white"/>
<path d="M14.1137 9.58398H7.97729C7.63856 9.58398 7.36365 9.30399 7.36365 8.95898C7.36365 8.61398 7.63856 8.33398 7.97729 8.33398H14.1137C14.4524 8.33398 14.7273 8.61398 14.7273 8.95898C14.7273 9.30399 14.4524 9.58398 14.1137 9.58398Z" fill="white"/>
<path d="M14.1137 12.084H7.97729C7.63856 12.084 7.36365 11.804 7.36365 11.459C7.36365 11.114 7.63856 10.834 7.97729 10.834H14.1137C14.4524 10.834 14.7273 11.114 14.7273 11.459C14.7273 11.804 14.4524 12.084 14.1137 12.084Z" fill="white"/>
</svg>
