<svg width="23" height="21" viewBox="0 0 23 21" fill="none" xmlns="http://www.w3.org/2000/svg">
<circle opacity="0.442" r="7" transform="matrix(-1 0 0 1 16 7)" fill="#FFF200"/>
<path d="M9.0059 3C4.3179 3 0.472897 6.59 0.0598965 11.17H7.3719V8.72C7.3719 8.39 7.5719 8.09 7.8759 7.964C8.1819 7.838 8.5329 7.908 8.7659 8.141L12.0359 11.41C12.3549 11.73 12.3549 12.245 12.0359 12.565L8.7659 15.833C8.5329 16.067 8.1819 16.137 7.8759 16.01C7.5719 15.884 7.3719 15.585 7.3719 15.255V12.805H0.0598965C0.472897 17.385 4.3179 20.975 9.0059 20.975C13.9699 20.975 17.9939 16.951 17.9939 11.987C17.9939 7.024 13.9699 3 9.0059 3Z" fill="#FFF200"/>
</svg>
