<svg width="129" height="87" viewBox="0 0 129 87" fill="none" xmlns="http://www.w3.org/2000/svg">
<path fill-rule="evenodd" clip-rule="evenodd" d="M15.2915 0.534998C11.4593 -0.0789432 8.06136 3.05186 8.36013 6.92135L13.1586 69.0683C13.3999 72.1936 16.0062 74.6064 19.1407 74.6064H42.6737L65.4605 86.0461L66.6822 86.6595L66.1446 85.4026L61.5261 74.6064H117.729C120.798 74.6064 123.372 72.2908 123.696 69.2391L128.448 24.4169C128.785 21.245 126.581 18.3644 123.431 17.8598L15.2915 0.534998ZM44.9025 74.6064H60.4384L64.6875 84.5391L44.9025 74.6064Z" fill="#00A5B1"/>
<g filter="url(#filter0_b_1968_1897)">
<path fill-rule="evenodd" clip-rule="evenodd" d="M0.348186 20.1601C0.152421 16.4714 2.8566 13.2654 6.52551 12.8364L109.119 0.842227C112.858 0.40508 116.071 3.47939 115.8 7.23421L111.676 64.2784C111.441 67.5286 108.655 69.9971 105.4 69.8387L8.13204 65.1035C5.05776 64.9538 2.59533 62.5022 2.43221 59.4286L0.348186 20.1601Z" fill="#FEF200"/>
</g>
<path fill-rule="evenodd" clip-rule="evenodd" d="M49.8227 39.1611C50.9516 39.1611 51.629 38.4837 51.629 37.3548V36.8064C51.629 35.6774 50.9516 35 49.8227 35H47.855C46.726 35 46.0486 35.6774 46.0486 36.8064V37.3548C46.0486 38.4837 46.726 39.1611 47.855 39.1611H49.8227ZM34.0317 57.9022C38.4509 57.9022 42.3863 55.6119 42.3863 51.1282C42.3863 48.9993 41.4831 47.0316 39.3541 45.9026C40.9347 44.6123 41.4831 43.3543 41.4831 41.7415C41.4831 37.0642 37.3219 35.3223 33.2898 35.3223H20.4838C19.6451 35.3223 19 35.9997 19 36.8062V56.4184C19 57.2248 19.6451 57.9022 20.4838 57.9022H34.0317ZM33.3544 44.0965H24.9353V39.5805H33.3544C34.6769 39.5805 35.5478 40.3869 35.5478 41.8385C35.5478 43.2901 34.6769 44.0965 33.3544 44.0965ZM24.9353 53.6445H33.935C35.6124 53.6445 36.451 52.5478 36.451 50.9349C36.451 49.3221 35.6124 48.2253 33.935 48.2253H24.9353V53.6445ZM51.5645 56.9346C51.5645 57.483 51.1452 57.9023 50.5968 57.9023H47.0808C46.5325 57.9023 46.1131 57.483 46.1131 56.9346V41.9997C46.1131 41.4513 46.5325 41.032 47.0808 41.032H50.5968C51.1452 41.032 51.5645 41.4513 51.5645 41.9997V56.9346ZM63.0329 58.2248C64.4845 58.2248 66.2586 58.0957 67.2263 57.9022C67.7747 57.8054 68.194 57.4183 68.194 56.9345V55.2571C68.194 54.7087 67.7747 54.2894 67.2263 54.2894H66.6457C66.3057 54.2894 65.9879 54.3338 65.6568 54.3801L65.6568 54.3801C65.2969 54.4304 64.9213 54.4829 64.4845 54.4829C62.8394 54.4829 61.7104 53.3217 61.7104 51.1282V45.3542H66.0973C66.6457 45.3542 67.065 44.9349 67.065 44.3865V42.5156C67.065 41.9673 66.6457 41.5479 66.0973 41.5479H61.7104V36.2901C61.7104 35.7417 61.291 35.3223 60.7427 35.3223H57.2267C56.6783 35.3223 56.259 35.7417 56.259 36.2901V51.1282C56.259 55.9668 58.5169 58.2248 63.0329 58.2248ZM88.0492 53.7089C88.0492 57.0636 84.5977 58.2249 79.4366 58.2249C73.6949 58.2249 70.2434 55.1282 70.2434 49.2897C70.2434 43.4835 73.7271 40.3223 79.4366 40.3223C85.1783 40.3223 88.6298 43.3867 88.6298 49.0639V49.9671C88.6298 50.5155 88.2105 50.9348 87.6621 50.9348H75.7916C76.0174 53.5154 77.1786 54.6443 79.8237 54.6443C81.1785 54.6443 82.372 54.2573 82.9203 53.5799C83.3397 53.0638 83.9203 52.7412 84.7267 52.7412H87.0815C87.6299 52.7412 88.0492 53.1605 88.0492 53.7089ZM83.0817 47.6124H75.7594C75.8884 45.1931 77.1142 43.9028 79.4367 43.9028C81.8237 43.9028 82.9849 45.1931 83.0817 47.6124ZM97.7436 56.9345C97.7436 57.4828 97.3242 57.9022 96.7759 57.9022H93.2598C92.7115 57.9022 92.2921 57.4828 92.2921 56.9345V36.2901C92.2921 35.7417 92.7115 35.3223 93.2598 35.3223H96.7759C97.3242 35.3223 97.7436 35.7417 97.7436 36.2901V56.9345Z" fill="#007689"/>
<path fill-rule="evenodd" clip-rule="evenodd" d="M103.812 16.7286C103.812 15.7382 103.633 14.7756 103.294 13.8758C103.704 13.4783 104.135 13.0882 104.587 12.7108C105.144 13.9358 105.457 15.2952 105.457 16.7286C105.457 22.1016 101.102 26.4572 95.7286 26.4572C90.3556 26.4572 86 22.1016 86 16.7286C86 11.3556 90.3556 7 95.7286 7C97.8534 7 99.8182 7.68224 101.418 8.83822C100.977 9.20481 100.553 9.57994 100.147 9.96063C98.8446 9.10625 97.3225 8.64574 95.7286 8.64574C93.5696 8.64574 91.5398 9.48648 90.0131 11.0132C88.4865 12.5398 87.6457 14.5696 87.6457 16.7286C87.6457 18.8876 88.4865 20.9174 90.0131 22.4441C91.5398 23.9707 93.5696 24.8115 95.7286 24.8115C97.8876 24.8115 99.9174 23.9707 101.444 22.4441C102.971 20.9174 103.812 18.8876 103.812 16.7286ZM105.209 7.76069C105.682 7.76069 106.118 7.99746 106.375 8.39406C106.576 8.7054 106.644 9.0762 106.566 9.43825C106.488 9.80072 106.274 10.111 105.963 10.3118C99.6289 14.4046 96.4997 21.4836 96.4688 21.5547C96.2739 22.0035 95.8509 22.3193 95.365 22.3787C95.3092 22.3854 95.2527 22.3887 95.197 22.3887C94.7685 22.3887 94.3567 22.1853 94.0953 21.8445L90.2773 16.8532C90.0523 16.5591 89.9553 16.1948 90.0042 15.8274C90.0532 15.4601 90.2423 15.1338 90.5367 14.9087C90.7802 14.7224 91.0711 14.6239 91.3779 14.6239C91.8149 14.6239 92.2171 14.8223 92.4812 15.1682L94.9652 18.416C96.4406 15.802 99.558 11.1478 104.457 7.98247C104.682 7.83737 104.942 7.76069 105.209 7.76069Z" fill="#29BDBE"/>
<defs>
<filter id="filter0_b_1968_1897" x="-2.38039" y="-1.9175" width="120.915" height="74.4817" filterUnits="userSpaceOnUse" color-interpolation-filters="sRGB">
<feFlood flood-opacity="0" result="BackgroundImageFix"/>
<feGaussianBlur in="BackgroundImageFix" stdDeviation="1.35914"/>
<feComposite in2="SourceAlpha" operator="in" result="effect1_backgroundBlur_1968_1897"/>
<feBlend mode="normal" in="SourceGraphic" in2="effect1_backgroundBlur_1968_1897" result="shape"/>
</filter>
</defs>
</svg>
