<svg width="26" height="26" viewBox="0 0 26 26" fill="none" xmlns="http://www.w3.org/2000/svg">
<path fill-rule="evenodd" clip-rule="evenodd" d="M6.54232 1.29311C6.72988 1.10544 6.98432 1 7.24965 1H16.7857C17.338 1 17.7857 1.44771 17.7857 2V15.3082L15.5589 17.6349C15.5589 17.6349 14.0733 16.1677 13.4128 15.4889C12.7523 14.81 11.4543 15.1254 10.8249 15.7935C10.2789 16.3731 6.32364 20.3777 5.28525 21.4286H3C2.44772 21.4286 2 20.9809 2 20.4286V6.25226C2 5.98715 2.10527 5.73289 2.29268 5.54537L6.54232 1.29311Z" fill="white"/>
<path fill-rule="evenodd" clip-rule="evenodd" d="M11.2098 9.16608H9.56359C8.36568 9.16608 8 10 8 10V7.63946V7.5841C8 6.71043 8.69983 6 9.56359 6H11.2098C12.0729 6 12.7727 6.71043 12.7727 7.5841C12.7727 8.45919 12.0729 9.16608 11.2098 9.16608ZM9.63826 10H11.3631C12.2671 10 13 10.7109 13 11.5866C13 12.4598 12.2671 13.1693 11.3631 13.1693H9.63826C8.38344 13.1693 8 14 8 14V11.6401V11.5866C8 10.7109 8.73159 10 9.63826 10Z" fill="#007689"/>
<path d="M20.1875 13C19.8975 13 19.6615 13.245 19.6615 13.547C19.6615 13.85 19.8965 14.095 20.1875 14.095H22.1215L15.5105 20.984L12.6745 17.987C12.4695 17.773 12.1375 17.773 11.9315 17.987L6.1545 24.008C5.9485 24.222 5.9485 24.568 6.1545 24.782C6.2565 24.889 6.3915 24.942 6.5255 24.942C6.6595 24.942 6.7945 24.889 6.8965 24.782L12.3035 19.148L15.1385 22.145C15.3445 22.359 15.6765 22.359 15.8815 22.145L22.8635 14.868V16.926C22.8635 17.229 23.0985 17.473 23.3895 17.473C23.6795 17.473 23.9145 17.229 23.9145 16.926V13.547C23.9145 13.245 23.6795 13 23.3895 13H20.1875Z" fill="#FFF200" stroke="#FFF200" stroke-width="0.2"/>
</svg>
