<svg width="26" height="26" viewBox="0 0 26 26" fill="none" xmlns="http://www.w3.org/2000/svg">
<path fill-rule="evenodd" clip-rule="evenodd" d="M5.97116 19.5242H17.0011H17.0017C17.5455 19.5242 17.9869 19.9657 17.9869 20.5095V22.888C17.9869 24.0526 17.0396 25 15.8749 25H6.112C4.94737 25 4 24.0526 4 22.888V3.112C4 1.94737 4.94737 1 6.112 1H15.8749C17.0396 1 17.9869 1.94737 17.9869 3.112V7.17305C17.9869 7.71684 17.5455 8.15832 17.0011 8.15832C16.4566 8.15832 16.0158 7.71684 16.0158 7.17305V3.112C16.0158 3.03432 15.9526 2.97116 15.8749 2.97116H6.112C6.03432 2.97116 5.97116 3.03432 5.97116 3.112V19.5242ZM6.112 23.0288H15.8749V23.0282C15.9526 23.0282 16.0158 22.9651 16.0158 22.8874V21.4947H5.97116V22.888C5.97116 22.9657 6.03432 23.0288 6.112 23.0288Z" fill="white"/>
<path fill-rule="evenodd" clip-rule="evenodd" d="M12.0185 11.3844H19.0353V10.4067H11.9692L13.1048 9.28253L12.4164 8.58716L10.1099 10.8709L12.4164 13.1541L13.1048 12.4594L12.0185 11.3844ZM9.8269 16.2741H10.8046V15.2964H9.8269V16.2741ZM12.7606 16.2741H11.7829V15.2964H12.7606V16.2741ZM19.7383 18.0444L22.0448 15.7606H22.0454L19.7389 13.4775L19.0505 14.1722L20.1867 15.2964H13.7389V16.2741H20.1362L19.0499 17.3491L19.7383 18.0444ZM20.9913 11.3844H20.0136V10.4067H20.9913V11.3844ZM21.9696 11.3844H22.9473V10.4067H21.9696V11.3844Z" fill="#FFF200"/>
<path fill-rule="evenodd" clip-rule="evenodd" d="M5.09082 22.2728C5.09082 21.3691 5.82345 20.6365 6.72718 20.6365H15.4545C16.3582 20.6365 17.0908 21.3691 17.0908 22.2728C17.0908 23.1766 16.3582 23.9092 15.4545 23.9092H6.72718C5.82345 23.9092 5.09082 23.1766 5.09082 22.2728Z" fill="white"/>
<rect x="9.45459" y="21.1819" width="3.27273" height="1.63636" rx="0.818182" fill="#007689"/>
</svg>
