<svg width="22" height="22" viewBox="0 0 22 22" fill="none" xmlns="http://www.w3.org/2000/svg">
<path fill-rule="evenodd" clip-rule="evenodd" d="M1.83026 4.92516C3.25267 2.77414 5.38694 1.19261 7.85881 0.457876C13.6701 -1.26947 19.7813 2.04114 21.5086 7.85239L20.1035 8.26952C18.8913 4.23424 15.1983 1.45414 10.9852 1.40516C7.43253 1.45218 4.19345 3.4485 2.55475 6.601H5.86253V8.06462H0.00805664V2.21015H1.47167V6.06678C1.51293 5.66593 1.63491 5.27761 1.83026 4.92516ZM16.1078 15.3827V13.9191H21.9623V19.7736H20.4987V15.9169C20.4966 16.2411 20.4163 16.5599 20.2645 16.8463C18.848 19.0922 16.6653 20.7486 14.121 21.5084C8.31198 23.2432 2.19653 19.9403 0.461778 14.1313L1.86685 13.7142C3.07909 17.7495 6.77203 20.5296 10.9852 20.5785C14.5378 20.5315 17.7769 18.5352 19.4156 15.3827H16.1078Z" fill="#415263"/>
</svg>
