<svg width="46" height="46" viewBox="0 0 46 46" fill="none" xmlns="http://www.w3.org/2000/svg">
<path d="M22.9009 45.4121C35.3273 45.4121 45.4009 35.3385 45.4009 22.9121C45.4009 10.4857 35.3273 0.412109 22.9009 0.412109C10.4745 0.412109 0.400879 10.4857 0.400879 22.9121C0.400879 35.3385 10.4745 45.4121 22.9009 45.4121Z" fill="#FFCB57"/>
<mask id="mask0_3593_12407" style="mask-type:luminance" maskUnits="userSpaceOnUse" x="6" y="6" width="34" height="34">
<path d="M23.1198 39.1418C32.0831 39.0209 39.2512 31.6568 39.1303 22.6935C39.0095 13.7302 31.6453 6.56208 22.682 6.68297C13.7188 6.80386 6.55063 14.168 6.67152 23.1313C6.79241 32.0945 14.1566 39.2627 23.1198 39.1418Z" fill="white"/>
</mask>
<g mask="url(#mask0_3593_12407)">
<path d="M39.677 28.8503L39.5533 28.7266C39.5533 28.7266 39.5286 28.7266 39.5286 28.7019L39.677 28.5534L34.5553 23.4317C34.4811 23.1596 34.3326 22.8874 34.11 22.6647L34.0852 22.64C35.2976 20.4379 35.1986 17.7162 33.7636 15.6131V14.0544H32.3038C29.9038 12.1987 26.5388 12.1987 24.1388 14.0544H22.9016V15.2915C21.046 17.6915 21.046 21.0565 22.9016 23.4812V24.941H24.4357C26.514 26.3513 29.1862 26.4751 31.3636 25.3122L31.413 25.3616C31.6357 25.5843 31.9079 25.7328 32.1801 25.807L37.3017 30.9287L37.4749 30.7802C37.4749 30.7802 37.4749 30.805 37.4997 30.805L37.6234 30.9287C38.1677 31.473 39.0337 31.473 39.578 30.9287L39.7018 30.805C40.1966 30.2607 40.1966 29.3947 39.677 28.8503Z" fill="#D8A535"/>
<path d="M33.2987 17.6272L13.2821 17.6572L13.3211 43.5873L33.3377 43.5572L33.2987 17.6272Z" fill="#D8A535"/>
<path d="M31.839 14.7821L11.8224 14.812L11.8612 40.7421L31.8778 40.7121L31.839 14.7821Z" fill="#D3D3D3"/>
<path d="M30.1568 16.4645L10.1401 16.4941L10.1785 42.4242L30.1951 42.3946L30.1568 16.4645Z" fill="white"/>
<path d="M27.9491 23.4566C27.9491 25.4113 26.3656 26.9948 24.411 26.9948H16.4191C14.4645 26.9948 12.881 25.4113 12.881 23.4566C12.881 21.502 14.4645 19.9185 16.4191 19.9185H24.411C26.3656 19.9185 27.9491 21.502 27.9491 23.4566Z" fill="#D3D3D3"/>
<path d="M26.9346 29.9146H13.549V32.3393H26.9346V29.9146Z" fill="#D3D3D3"/>
<path d="M26.9346 34.4424H13.549V36.8671H26.9346V34.4424Z" fill="#D3D3D3"/>
<path d="M16.5675 25.6836C17.1861 24.5949 17.5325 23.1599 17.8541 21.9722C17.5325 21.9722 17.2108 21.9722 16.8892 21.9722C17.5325 23.8774 18.1016 25.832 18.7943 27.7125C18.9428 28.1331 19.6851 28.2568 19.7593 27.7125C20.2542 24.9166 20.848 22.1454 21.4418 19.3743C21.1201 19.3743 20.7985 19.3743 20.4768 19.3743C21.1201 22.3681 21.3428 25.4114 22.0603 28.3805C22.1593 28.7764 22.8026 28.9248 22.9758 28.5042C23.7676 26.6485 24.4851 24.7681 25.1532 22.8629C25.3758 22.2444 24.3861 21.9722 24.1882 22.5908C23.5449 24.397 22.8521 26.2032 22.1098 27.9846C22.4067 28.0341 22.7284 28.0589 23.0253 28.1083C22.3325 25.1392 22.0851 22.0959 21.4418 19.1021C21.3428 18.6072 20.5758 18.6072 20.4768 19.1021C19.883 21.8732 19.2892 24.6444 18.7943 27.4403C19.116 27.4403 19.4377 27.4403 19.7593 27.4403C19.0418 25.5599 18.4727 23.6052 17.8541 21.7C17.7057 21.2299 17.0129 21.2052 16.8892 21.7C16.5923 22.8135 16.2954 24.1743 15.7015 25.1887C15.3799 25.7331 16.2459 26.2527 16.5675 25.6836Z" fill="white"/>
<g opacity="0.7">
<mask id="mask1_3593_12407" style="mask-type:luminance" maskUnits="userSpaceOnUse" x="23" y="12" width="12" height="12">
<path d="M34.0604 12.8667H23.1985V23.7286H34.0604V12.8667Z" fill="white"/>
</mask>
<g mask="url(#mask1_3593_12407)">
<path d="M32.6501 14.6237C34.7779 16.7516 34.7779 20.1908 32.6501 22.3186C30.5222 24.4465 27.0831 24.4465 24.9552 22.3186C22.8274 20.1908 22.8274 16.7516 24.9552 14.6237C27.0831 12.4959 30.5222 12.4959 32.6501 14.6237Z" fill="#EAEAE9"/>
</g>
</g>
<path d="M39.9739 27.6379C40.5182 28.1823 40.5182 29.0482 39.9739 29.5926L39.8501 29.7163C39.3058 30.2606 38.4398 30.2606 37.8955 29.7163L37.7718 29.5926C37.2274 29.0482 37.2274 28.1823 37.7718 27.6379L37.8955 27.5142C38.4398 26.9699 39.3058 26.9699 39.8501 27.5142L39.9739 27.6379Z" fill="#C93831"/>
<path d="M23.7676 13.4358C21.1449 16.0585 21.1449 20.3142 23.7676 22.9369C26.3903 25.5596 30.646 25.5596 33.2687 22.9369C35.8913 20.3142 35.8913 16.0585 33.2687 13.4358C30.646 10.8131 26.3903 10.8131 23.7676 13.4358ZM32.0563 21.7245C30.1016 23.6791 26.9346 23.6791 24.9799 21.7245C23.0253 19.7698 23.0253 16.6028 24.9799 14.6482C26.9346 12.6935 30.1016 12.6935 32.0563 14.6482C34.0357 16.6028 34.0357 19.7698 32.0563 21.7245Z" fill="#E74C3C"/>
<path d="M34.44 21.8174L32.0607 24.1968L37.6067 29.7428L39.9861 27.3634L34.44 21.8174Z" fill="#E74C3C"/>
<path d="M34.4316 21.4527C35.1491 22.1702 35.1491 23.3579 34.4316 24.0754L34.3573 24.1496C33.6398 24.8672 32.4522 24.8672 31.7346 24.1496L31.6604 24.0754C30.9429 23.3579 30.9429 22.1702 31.6604 21.4527L31.7346 21.3785C32.4522 20.6609 33.6398 20.6609 34.3573 21.3785L34.4316 21.4527Z" fill="#C93831"/>
</g>
</svg>
