<svg width="33" height="30" viewBox="0 0 33 30" fill="none" xmlns="http://www.w3.org/2000/svg">
<path d="M29.1895 3.60547L26.6406 11H25.0996L28.3105 2.46875H29.2949L29.1895 3.60547ZM31.3223 11L28.7676 3.60547L28.6562 2.46875H29.6465L32.8691 11H31.3223ZM31.1992 7.83594V9.00195H26.5586V7.83594H31.1992Z" fill="#2B3A4A"/>
<path d="M31.832 25.834V27H25.9082V25.834H31.832ZM31.6973 19.377L26.4531 27H25.4688V26.0684L30.7305 18.4688H31.6973V19.377ZM31.1523 18.4688V19.6406H25.5039V18.4688H31.1523Z" fill="#2B3A4A"/>
<g clip-path="url(#clip0_246_510)">
<path d="M10.59 10.41L12 9L8 5L4 9L5.41 10.41L7 8.83L7 24L9 24L9 8.83L10.59 10.41Z" fill="#2B3A4A"/>
<path d="M13.41 19.59L12 21L16 25L20 21L18.59 19.59L17 21.17L17 6L15 6L15 21.17L13.41 19.59Z" fill="#2B3A4A"/>
</g>
<defs>
<clipPath id="clip0_246_510">
<rect width="24" height="24" fill="white" transform="translate(24 3) rotate(90)"/>
</clipPath>
</defs>
</svg>
