<svg width="46" height="46" viewBox="0 0 46 46" fill="none" xmlns="http://www.w3.org/2000/svg">
<rect x="0.272827" y="0.137695" width="45" height="45" rx="22.5" fill="#007689"/>
<path d="M28.99 16.8064C29.3279 16.8064 29.4231 16.3482 29.1185 16.2098L17.2233 10.9212C16.4998 10.5967 15.6478 10.9212 15.3241 11.6515L11.1591 21.0162C10.8354 21.7417 11.1591 22.5961 11.8874 22.9207L14.2864 23.9612C14.5863 24.0948 14.929 23.8753 14.929 23.5459V19.57C14.929 18.0474 16.1618 16.8112 17.6803 16.8112H28.99V16.8064Z" fill="white"/>
<path d="M32.103 18.1035H17.6755C16.8711 18.1035 16.2189 18.7574 16.2189 19.5641V29.7832C16.2189 30.5898 16.8711 31.2437 17.6755 31.2437H19.6128C19.5652 30.9573 19.5414 30.6662 19.5414 30.3702C19.5414 30.0361 19.5747 29.7116 19.6318 29.3918H18.0706V24.4994H31.7127V29.387H30.1466C30.2038 29.7068 30.2371 30.0314 30.2371 30.3655C30.2371 30.6614 30.2133 30.9525 30.1657 31.2389H32.103C32.9074 31.2389 33.5595 30.585 33.5595 29.7784V19.5641C33.5595 18.7574 32.9074 18.1035 32.103 18.1035ZM31.7127 21.4876H18.0706V19.9555H31.7127V21.4876Z" fill="white"/>
<path d="M24.8917 26.6138C22.8258 26.6138 21.1503 28.2939 21.1503 30.3654C21.1503 32.4369 22.8258 34.117 24.8917 34.117C26.9575 34.117 28.633 32.4369 28.633 30.3654C28.633 28.2939 26.9575 26.6138 24.8917 26.6138ZM25.9674 31.845C25.8056 32.0455 25.5914 32.1791 25.3439 32.246C25.2344 32.2746 25.1868 32.3319 25.1916 32.4464C25.1963 32.5562 25.1916 32.666 25.1916 32.7805C25.1916 32.8808 25.1392 32.9333 25.044 32.9333C24.925 32.9381 24.806 32.9381 24.687 32.9333C24.5823 32.9333 24.5347 32.8712 24.5347 32.771V32.5276C24.5347 32.351 24.5252 32.3414 24.3538 32.3128C24.1348 32.2794 23.9206 32.2269 23.7207 32.1314C23.5636 32.055 23.5446 32.0169 23.5922 31.8498C23.6255 31.7257 23.6588 31.6016 23.6969 31.4823C23.7398 31.3391 23.7778 31.3248 23.9111 31.3916C24.1348 31.5061 24.3681 31.573 24.6156 31.6016C24.7727 31.6207 24.9298 31.6064 25.0773 31.5396C25.3534 31.4202 25.3962 31.1004 25.163 30.9095C25.0821 30.8427 24.9964 30.795 24.9012 30.7568C24.6584 30.6518 24.4062 30.5706 24.1824 30.4322C23.8112 30.2126 23.5779 29.9072 23.6065 29.4537C23.635 28.943 23.9254 28.628 24.3919 28.4562C24.5823 28.3846 24.587 28.3893 24.587 28.1889V27.9836C24.5918 27.8309 24.6156 27.807 24.7679 27.8023H24.906C25.2296 27.8023 25.2296 27.8023 25.2296 28.1268C25.2296 28.3559 25.2296 28.3559 25.4581 28.3893C25.6295 28.418 25.7961 28.4657 25.9579 28.5373C26.0484 28.5755 26.0817 28.6375 26.0531 28.733C26.015 28.8714 25.977 29.0146 25.9294 29.1483C25.8865 29.2771 25.8437 29.2962 25.7199 29.2389C25.4676 29.1148 25.2058 29.0671 24.9298 29.0814C24.8584 29.0862 24.787 29.0958 24.7203 29.1244C24.4823 29.2294 24.4395 29.4967 24.6442 29.659C24.7489 29.7401 24.8631 29.8022 24.9869 29.8547C25.2011 29.9406 25.4105 30.0265 25.6152 30.141C26.2435 30.4895 26.4196 31.2961 25.9674 31.845Z" fill="white"/>
</svg>
