<svg width="45" height="45" viewBox="0 0 45 45" fill="none" xmlns="http://www.w3.org/2000/svg">
<path d="M22.5 45C34.9264 45 45 34.9264 45 22.5C45 10.0736 34.9264 0 22.5 0C10.0736 0 0 10.0736 0 22.5C0 34.9264 10.0736 45 22.5 45Z" fill="#007689"/>
<g clip-path="url(#clip0_3733_10759)">
<path d="M31.29 15.8902L21.29 25.8902C20.9 26.2802 20.27 26.2802 19.88 25.8902L17.05 23.0602C16.66 22.6702 16.66 22.0402 17.05 21.6502C17.44 21.2602 18.07 21.2602 18.46 21.6502L20.58 23.7702L29.87 14.4802C30.26 14.0902 30.89 14.0902 31.28 14.4802C31.68 14.8702 31.68 15.5002 31.29 15.8902ZM22 30.0002C17.29 30.0002 13.52 25.9102 14.05 21.1002C14.44 17.5802 17.17 14.6902 20.66 14.1102C22.47 13.8102 24.19 14.1302 25.65 14.8902C26.04 15.0902 26.51 15.0202 26.82 14.7102C27.3 14.2302 27.18 13.4202 26.58 13.1102C25.11 12.3602 23.45 11.9502 21.68 12.0002C16.54 12.1602 12.27 16.3402 12.01 21.4702C11.72 27.2402 16.3 32.0002 22 32.0002C23.2 32.0002 24.34 31.7902 25.41 31.4002C26.09 31.1502 26.28 30.2702 25.76 29.7502C25.49 29.4802 25.08 29.3802 24.72 29.5202C23.87 29.8302 22.95 30.0002 22 30.0002ZM29 25.0002H27C26.45 25.0002 26 25.4502 26 26.0002C26 26.5502 26.45 27.0002 27 27.0002H29V29.0002C29 29.5502 29.45 30.0002 30 30.0002C30.55 30.0002 31 29.5502 31 29.0002V27.0002H33C33.55 27.0002 34 26.5502 34 26.0002C34 25.4502 33.55 25.0002 33 25.0002H31V23.0002C31 22.4502 30.55 22.0002 30 22.0002C29.45 22.0002 29 22.4502 29 23.0002V25.0002Z" fill="white"/>
</g>
<defs>
<clipPath id="clip0_3733_10759">
<rect width="24" height="24" fill="white" transform="translate(10 10)"/>
</clipPath>
</defs>
</svg>
