<svg width="24" height="24" viewBox="0 0 24 24" fill="none" xmlns="http://www.w3.org/2000/svg">
<path d="M15.7203 13.9998C16.5281 12.8396 16.968 11.4583 16.9755 10.0368C16.9839 8.44807 16.4515 6.90371 15.4659 5.65758C14.4803 4.41145 13.1001 3.53767 11.5521 3.17985C10.0041 2.82202 8.38049 3.00144 6.94799 3.68862C5.51549 4.37579 4.35937 5.52984 3.66964 6.96111C2.9799 8.39237 2.79757 10.0157 3.15262 11.5643C3.50767 13.1129 4.37898 14.4947 5.62334 15.4825C6.86771 16.4703 8.41111 17.0055 9.99989 17L15.7203 13.9998ZM15.7203 13.9998L15.7039 13.9884L15.4199 14.4L15.8088 14.7142C15.8167 14.7044 15.8246 14.6946 15.8325 14.6847L16.4199 15.09C16.5761 15.1899 16.7203 15.3073 16.8499 15.44L15.7203 13.9998ZM20.4778 19.775L20.4763 19.7764L19.7763 20.4764L19.7749 20.4779L19.7734 20.4764L15.7736 16.4766C15.7735 16.4765 15.7735 16.4765 15.7734 16.4764C15.6841 16.387 15.6031 16.2898 15.5313 16.1858L15.5257 16.1778L15.5199 16.17L14.7699 15.17L14.4606 14.7576L14.0579 15.0792C12.9056 15.9994 11.4746 16.5004 10 16.5L9.99815 16.5C8.52286 16.5051 7.0897 16.0082 5.93422 15.0909C4.77874 14.1736 3.96967 12.8906 3.63998 11.4526C3.31029 10.0146 3.47959 8.5072 4.12006 7.17817C4.76053 5.84914 5.83407 4.77752 7.16425 4.13943C8.49442 3.50134 10.0021 3.33474 11.4395 3.667C12.8769 3.99927 14.1585 4.81063 15.0737 5.96775C15.9889 7.12488 16.4833 8.55892 16.4755 10.0342C16.4677 11.5095 15.9583 12.9383 15.031 14.0857L14.692 14.5052L15.1359 14.8115L16.1359 15.5015L16.1431 15.5064L16.1504 15.5111C16.2745 15.5906 16.3892 15.6839 16.4922 15.7894L16.4922 15.7894L16.4963 15.7935L20.4778 19.775ZM6.94425 14.573C7.84872 15.1774 8.91209 15.5 9.99989 15.5C11.4586 15.5 12.8575 14.9205 13.889 13.8891C14.9204 12.8576 15.4999 11.4587 15.4999 9.99996C15.4999 8.91217 15.1773 7.8488 14.573 6.94433C13.9686 6.03986 13.1096 5.33491 12.1046 4.91863C11.0997 4.50234 9.99379 4.39343 8.92689 4.60565C7.86 4.81786 6.87999 5.34169 6.1108 6.11088C5.34161 6.88007 4.81779 7.86007 4.60557 8.92697C4.39335 9.99386 4.50227 11.0997 4.91855 12.1047C5.33483 13.1097 6.03978 13.9687 6.94425 14.573Z" fill="#141415" stroke="white"/>
</svg>
