<svg width="46" height="46" viewBox="0 0 46 46" fill="none" xmlns="http://www.w3.org/2000/svg">
<path d="M22.6082 45.4121C35.0346 45.4121 45.1082 35.3385 45.1082 22.9121C45.1082 10.4857 35.0346 0.412109 22.6082 0.412109C10.1818 0.412109 0.108215 10.4857 0.108215 22.9121C0.108215 35.3385 10.1818 45.4121 22.6082 45.4121Z" fill="#007689"/>
<mask id="mask0_3593_13084" style="mask-type:luminance" maskUnits="userSpaceOnUse" x="6" y="6" width="33" height="34">
<path d="M22.8271 39.1418C31.7903 39.0209 38.9585 31.6568 38.8376 22.6935C38.7167 13.7302 31.3526 6.56208 22.3893 6.68297C13.4261 6.80386 6.25791 14.168 6.3788 23.1313C6.49968 32.0945 13.8638 39.2627 22.8271 39.1418Z" fill="white"/>
</mask>
<g mask="url(#mask0_3593_13084)">
<path d="M39.3842 28.8503L39.2605 28.7266C39.2605 28.7266 39.2357 28.7266 39.2357 28.7019L39.3842 28.5534L34.2625 23.4317C34.1883 23.1596 34.0398 22.8874 33.8172 22.6647L33.7924 22.64C35.0048 20.4379 34.9058 17.7162 33.4708 15.6131V14.0544H32.011C29.6109 12.1987 26.246 12.1987 23.846 14.0544H22.6088V15.2915C20.7532 17.6915 20.7532 21.0565 22.6088 23.4812V24.941H24.1429C26.2212 26.3513 28.8934 26.4751 31.0707 25.3122L31.1202 25.3616C31.3429 25.5843 31.6151 25.7328 31.8872 25.807L37.0089 30.9287L37.1821 30.7802C37.1821 30.7802 37.1821 30.805 37.2069 30.805L37.3306 30.9287C37.8749 31.473 38.7409 31.473 39.2852 30.9287L39.4089 30.805C39.9038 30.2607 39.9038 29.3947 39.3842 28.8503Z" fill="#FFF200"/>
<path d="M33.0059 17.6272L12.9893 17.6572L13.0283 43.5873L33.0449 43.5572L33.0059 17.6272Z" fill="#FFF200"/>
<path d="M31.5463 14.7821L11.5296 14.812L11.5684 40.7421L31.5851 40.7121L31.5463 14.7821Z" fill="#D3D3D3"/>
<path d="M29.864 16.4645L9.84735 16.4941L9.8857 42.4242L29.9023 42.3946L29.864 16.4645Z" fill="white"/>
<path d="M27.6563 23.4566C27.6563 25.4113 26.0728 26.9948 24.1181 26.9948H16.1263C14.1717 26.9948 12.5881 25.4113 12.5881 23.4566C12.5881 21.502 14.1717 19.9185 16.1263 19.9185H24.1181C26.0728 19.9185 27.6563 21.502 27.6563 23.4566Z" fill="#D3D3D3"/>
<path d="M26.6418 29.9146H13.2562V32.3393H26.6418V29.9146Z" fill="#D3D3D3"/>
<path d="M26.6418 34.4424H13.2562V36.8671H26.6418V34.4424Z" fill="#D3D3D3"/>
<path d="M16.2748 25.6836C16.8933 24.5949 17.2397 23.1599 17.5614 21.9722C17.2397 21.9722 16.9181 21.9722 16.5964 21.9722C17.2397 23.8774 17.8088 25.832 18.5016 27.7125C18.65 28.1331 19.3923 28.2568 19.4665 27.7125C19.9614 24.9166 20.5552 22.1454 21.149 19.3743C20.8274 19.3743 20.5057 19.3743 20.1841 19.3743C20.8274 22.3681 21.0501 25.4114 21.7676 28.3805C21.8666 28.7764 22.5099 28.9248 22.6831 28.5042C23.4748 26.6485 24.1924 24.7681 24.8604 22.8629C25.0831 22.2444 24.0934 21.9722 23.8954 22.5908C23.2521 24.397 22.5593 26.2032 21.8171 27.9846C22.114 28.0341 22.4356 28.0589 22.7325 28.1083C22.0398 25.1392 21.7923 22.0959 21.149 19.1021C21.0501 18.6072 20.283 18.6072 20.1841 19.1021C19.5903 21.8732 18.9964 24.6444 18.5016 27.4403C18.8232 27.4403 19.1449 27.4403 19.4665 27.4403C18.749 25.5599 18.1799 23.6052 17.5614 21.7C17.4129 21.2299 16.7201 21.2052 16.5964 21.7C16.2995 22.8135 16.0026 24.1743 15.4088 25.1887C15.0871 25.7331 15.9531 26.2527 16.2748 25.6836Z" fill="white"/>
<g opacity="0.7">
<mask id="mask1_3593_13084" style="mask-type:luminance" maskUnits="userSpaceOnUse" x="22" y="12" width="12" height="12">
<path d="M33.7677 12.8667H22.9057V23.7286H33.7677V12.8667Z" fill="white"/>
</mask>
<g mask="url(#mask1_3593_13084)">
<path d="M32.3573 14.6237C34.4852 16.7516 34.4852 20.1908 32.3573 22.3186C30.2295 24.4465 26.7903 24.4465 24.6624 22.3186C22.5346 20.1908 22.5346 16.7516 24.6624 14.6237C26.7903 12.4959 30.2295 12.4959 32.3573 14.6237Z" fill="#EAEAE9"/>
</g>
</g>
<path d="M39.6811 27.6379C40.2254 28.1823 40.2254 29.0482 39.6811 29.5926L39.5574 29.7163C39.013 30.2606 38.1471 30.2606 37.6027 29.7163L37.479 29.5926C36.9347 29.0482 36.9347 28.1823 37.479 27.6379L37.6027 27.5142C38.1471 26.9699 39.013 26.9699 39.5574 27.5142L39.6811 27.6379Z" fill="#C93831"/>
<path d="M23.4748 13.4358C20.8521 16.0585 20.8521 20.3142 23.4748 22.9369C26.0975 25.5596 30.3532 25.5596 32.9759 22.9369C35.5986 20.3142 35.5986 16.0585 32.9759 13.4358C30.3532 10.8131 26.0975 10.8131 23.4748 13.4358ZM31.7635 21.7245C29.8089 23.6791 26.6418 23.6791 24.6872 21.7245C22.7325 19.7698 22.7325 16.6028 24.6872 14.6482C26.6418 12.6935 29.8089 12.6935 31.7635 14.6482C33.7429 16.6028 33.7429 19.7698 31.7635 21.7245Z" fill="#E74C3C"/>
<path d="M34.1473 21.8174L31.7679 24.1968L37.314 29.7428L39.6933 27.3634L34.1473 21.8174Z" fill="#E74C3C"/>
<path d="M34.1388 21.4527C34.8563 22.1702 34.8563 23.3579 34.1388 24.0754L34.0646 24.1496C33.347 24.8672 32.1594 24.8672 31.4419 24.1496L31.3676 24.0754C30.6501 23.3579 30.6501 22.1702 31.3676 21.4527L31.4419 21.3785C32.1594 20.6609 33.347 20.6609 34.0646 21.3785L34.1388 21.4527Z" fill="#C93831"/>
</g>
</svg>
