<svg width="46" height="46" viewBox="0 0 46 46" fill="none" xmlns="http://www.w3.org/2000/svg">
<path d="M45.8428 22.9121C45.8428 35.3488 35.7795 45.4121 23.3428 45.4121C10.9061 45.4121 0.842773 35.3172 0.842773 22.9121C0.842773 10.4754 10.9061 0.412109 23.3428 0.412109C35.7478 0.412109 45.8428 10.4754 45.8428 22.9121Z" fill="#FFCB57"/>
<mask id="mask0_3593_12436" style="mask-type:luminance" maskUnits="userSpaceOnUse" x="2" y="2" width="43" height="42">
<path d="M44.1023 22.9436C44.1023 34.3993 34.7985 43.7031 23.3428 43.7031C11.8871 43.7031 2.58331 34.3993 2.58331 22.9436C2.58331 11.4879 11.8871 2.18408 23.3428 2.18408C34.7985 2.18408 44.1023 11.4879 44.1023 22.9436Z" fill="white"/>
</mask>
<g mask="url(#mask0_3593_12436)">
<path d="M19.8302 35.001C19.4821 34.0516 18.4694 33.1655 18.4694 33.1655C18.4694 33.1655 16.2542 32.5326 15.5897 31.9946C15.2416 31.7098 15.2416 30.7921 15.3365 29.9377C17.4568 29.1782 18.9758 26.7731 18.9758 23.925C18.9758 20.444 16.6973 17.6592 13.8492 17.6592C11.0327 17.6592 8.72259 20.4756 8.72259 23.925C8.72259 26.8047 10.3049 29.2415 12.4568 29.9693C12.5517 30.8237 12.5517 31.7098 12.2036 31.9946C11.5074 32.5326 9.32385 33.1655 9.32385 33.1655C9.32385 33.1655 8.3112 34.0516 7.96309 35.001L7.67828 35.7288L8.75423 37.3744C8.75423 37.3744 9.16563 44.4946 10.2416 44.4946C11.096 44.4946 13.0897 44.4946 13.8492 44.4946C14.039 44.4946 14.134 44.4946 14.134 44.4946C14.8935 44.4946 16.8555 44.4946 17.7416 44.4946C18.8175 44.4946 19.2289 37.3744 19.2289 37.3744L20.2416 36.2351L19.8302 35.001Z" fill="#D8A535"/>
</g>
<mask id="mask1_3593_12436" style="mask-type:luminance" maskUnits="userSpaceOnUse" x="2" y="2" width="43" height="42">
<path d="M44.1023 22.9436C44.1023 34.3993 34.7985 43.7031 23.3428 43.7031C11.8871 43.7031 2.58331 34.3993 2.58331 22.9436C2.58331 11.4879 11.8871 2.18408 23.3428 2.18408C34.7985 2.18408 44.1023 11.4879 44.1023 22.9436Z" fill="white"/>
</mask>
<g mask="url(#mask1_3593_12436)">
<path fill-rule="evenodd" clip-rule="evenodd" d="M32.8682 15.7606C31.1277 20.3809 25.3049 21.5517 21.9504 17.9441C21.7922 17.7859 21.6656 17.7543 21.4441 17.7859C20.7479 17.9125 20.0517 18.0707 19.3239 18.1657C19.134 18.1973 18.6277 18.3239 18.5644 18.229C18.4061 18.0707 18.596 17.8492 18.8175 17.4378C18.8492 17.4062 18.8492 17.3745 18.8808 17.3429C19.3239 16.615 19.7669 15.8872 20.2099 15.1277C20.2732 15.0011 20.3365 14.8112 20.3049 14.653C20.1467 13.6404 20.2099 12.6593 20.4948 11.6783C21.4441 8.51376 24.672 6.55174 27.9631 7.15301C32.2036 7.9125 34.0707 12.5011 32.8682 15.7606Z" fill="#D8A535"/>
<path fill-rule="evenodd" clip-rule="evenodd" d="M33.3745 14.4312C31.6973 19.3362 25.6213 20.7603 21.9821 17.0894C21.8239 16.9312 21.6656 16.8995 21.4441 16.9312C20.7163 17.0894 19.9884 17.2793 19.2289 17.4058C19.0074 17.4375 18.5011 17.5957 18.4378 17.5008C18.2796 17.3426 18.4694 17.121 18.691 16.6464C18.7226 16.6147 18.7226 16.5831 18.7542 16.5198C19.1973 15.7286 19.6403 14.9691 20.0834 14.178C20.1466 14.0514 20.2099 13.8299 20.1783 13.6717C19.9884 12.6274 20.0201 11.5831 20.2732 10.5388C21.191 7.15269 24.5137 5.00078 27.9631 5.53876C32.4251 6.20331 34.5454 10.9818 33.3745 14.4312Z" fill="white"/>
<path fill-rule="evenodd" clip-rule="evenodd" d="M24.5453 12.5639C24.5453 13.1336 24.1023 13.5766 23.5327 13.5766C22.9631 13.5766 22.52 13.1336 22.52 12.5639C22.52 11.9943 22.9631 11.5513 23.5327 11.5513C24.1023 11.5513 24.5453 11.9943 24.5453 12.5639Z" fill="#343433"/>
<path fill-rule="evenodd" clip-rule="evenodd" d="M31.3808 12.5639C31.3808 13.1336 30.9377 13.5766 30.3681 13.5766C29.7985 13.5766 29.3555 13.1336 29.3555 12.5639C29.3555 11.9943 29.7985 11.5513 30.3681 11.5513C30.9377 11.5513 31.3808 11.9943 31.3808 12.5639Z" fill="#343433"/>
<path fill-rule="evenodd" clip-rule="evenodd" d="M28.0264 12.5639C28.0264 13.1336 27.5834 13.5766 27.0138 13.5766C26.4441 13.5766 26.0011 13.1336 26.0011 12.5639C26.0011 11.9943 26.4441 11.5513 27.0138 11.5513C27.5834 11.5513 28.0264 11.9943 28.0264 12.5639Z" fill="#343433"/>
</g>
<mask id="mask2_3593_12436" style="mask-type:luminance" maskUnits="userSpaceOnUse" x="2" y="2" width="43" height="42">
<path d="M44.1023 22.9436C44.1023 34.3993 34.7985 43.7031 23.3428 43.7031C11.8871 43.7031 2.58331 34.3993 2.58331 22.9436C2.58331 11.4879 11.8871 2.18408 23.3428 2.18408C34.7985 2.18408 44.1023 11.4879 44.1023 22.9436Z" fill="white"/>
</mask>
<g mask="url(#mask2_3593_12436)">
<path d="M18.7226 34.463C18.3428 33.4819 17.2985 32.5642 17.2985 32.5642C17.2985 32.5642 15.0201 31.8997 14.2922 31.3617C13.9441 31.0769 13.9441 30.1275 14.0391 29.2414C16.2226 28.4503 17.8365 25.9503 17.8365 23.0073C17.8365 19.3997 15.4631 16.4883 12.5517 16.4883C9.64032 16.4883 7.2669 19.3997 7.2669 23.0073C7.2669 25.982 8.91247 28.5136 11.1277 29.2731C11.2226 30.1592 11.2226 31.0769 10.8745 31.3617C10.1783 31.8997 7.86816 32.5642 7.86816 32.5642C7.86816 32.5642 6.82386 33.4819 6.44411 34.463L6.1593 35.2225L7.29854 36.7731C7.29854 36.7731 7.74158 43.5452 8.84918 43.5452C9.73525 43.5452 11.7922 43.5452 12.5834 43.5452C12.7732 43.5452 12.8682 43.5452 12.8682 43.5452C13.6277 43.5452 15.6846 43.5452 16.6023 43.5452C17.7099 43.5452 18.153 36.7731 18.153 36.7731L19.1973 35.6655L18.7226 34.463Z" fill="white"/>
</g>
<mask id="mask3_3593_12436" style="mask-type:luminance" maskUnits="userSpaceOnUse" x="2" y="2" width="43" height="42">
<path d="M44.1023 22.9436C44.1023 34.3993 34.7985 43.7031 23.3428 43.7031C11.8871 43.7031 2.58331 34.3993 2.58331 22.9436C2.58331 11.4879 11.8871 2.18408 23.3428 2.18408C34.7985 2.18408 44.1023 11.4879 44.1023 22.9436Z" fill="white"/>
</mask>
<g mask="url(#mask3_3593_12436)">
<path d="M25.8744 30.001C25.7162 29.5896 25.2732 29.2098 25.2732 29.2098C25.2732 29.2098 24.3238 28.925 24.039 28.7035C23.8808 28.5769 23.8808 28.1972 23.9441 27.8174C24.8618 27.4693 25.5263 26.4567 25.5263 25.2225C25.5263 23.7352 24.5453 22.501 23.3112 22.501C22.1086 22.501 21.096 23.7035 21.096 25.2225C21.096 26.4567 21.7605 27.501 22.7099 27.8174C22.7415 28.1655 22.7415 28.5769 22.5833 28.7035C22.2985 28.925 21.3491 29.2098 21.3491 29.2098C21.3491 29.2098 20.9061 29.5896 20.7479 30.001L20.6213 30.3174L21.096 30.8554C21.096 30.8554 21.2858 33.1022 21.7289 33.1022C22.1086 33.1022 22.963 33.1022 23.2795 33.1022C23.3428 33.1022 23.4061 33.1022 23.4061 33.1022C23.7225 33.1022 24.577 33.1022 24.9567 33.1022C25.4314 33.1022 25.5896 30.8554 25.5896 30.8554L26.0327 30.444L25.8744 30.001Z" fill="#C93831"/>
<path d="M33.4377 30.001C33.2795 29.5896 32.8365 29.2098 32.8365 29.2098C32.8365 29.2098 31.8871 28.925 31.6023 28.7035C31.4441 28.5769 31.4441 28.1972 31.5074 27.8174C32.4251 27.4693 33.0896 26.4567 33.0896 25.2225C33.0896 23.7352 32.1086 22.501 30.8744 22.501C29.6719 22.501 28.6593 23.7035 28.6593 25.2225C28.6593 26.4567 29.3555 27.501 30.2732 27.8174C30.3048 28.1655 30.3048 28.5769 30.1466 28.7035C29.8618 28.925 28.9124 29.2098 28.9124 29.2098C28.9124 29.2098 28.4694 29.5896 28.3112 30.001L28.1846 30.3174L28.6593 30.8554C28.6593 30.8554 28.8491 33.1022 29.2922 33.1022C29.6719 33.1022 30.5263 33.1022 30.8428 33.1022C30.9061 33.1022 30.9694 33.1022 30.9694 33.1022C31.2858 33.1022 32.1403 33.1022 32.52 33.1022C32.9631 33.1022 33.1529 30.8554 33.1529 30.8554L33.596 30.444L33.4377 30.001Z" fill="#C93831"/>
<path d="M41.1276 30.001C40.9693 29.5896 40.5263 29.2098 40.5263 29.2098C40.5263 29.2098 39.5769 28.925 39.2921 28.7035C39.1339 28.5769 39.1339 28.1972 39.1972 27.8174C40.1149 27.4693 40.7795 26.4567 40.7795 25.2225C40.7795 23.7352 39.7984 22.501 38.5643 22.501C37.3301 22.501 36.3491 23.7035 36.3491 25.2225C36.3491 26.4567 37.0136 27.501 37.963 27.8174C37.9946 28.1655 37.9946 28.5769 37.8364 28.7035C37.5516 28.925 36.6022 29.2098 36.6022 29.2098C36.6022 29.2098 36.1592 29.5896 36.001 30.001L35.8744 30.3174L36.3491 30.8554C36.3491 30.8554 36.5389 33.1022 36.982 33.1022C37.3617 33.1022 38.2162 33.1022 38.5326 33.1022C38.5959 33.1022 38.6592 33.1022 38.6592 33.1022C38.9757 33.1022 39.8301 33.1022 40.2098 33.1022C40.6845 33.1022 40.8427 30.8554 40.8427 30.8554L41.2858 30.444L41.1276 30.001Z" fill="#C93831"/>
<path d="M30.02 33.4506C29.8618 33.0076 29.3871 32.5962 29.3871 32.5962C29.3871 32.5962 28.3428 32.3114 28.0264 32.0582C27.8681 31.9316 27.8681 31.4886 27.8998 31.0772C28.9124 30.6974 29.6403 29.5898 29.6403 28.2291C29.6403 26.5835 28.5643 25.2544 27.2352 25.2544C25.9061 25.2544 24.8302 26.5835 24.8302 28.2291C24.8302 29.5898 25.5896 30.7291 26.6023 31.0772C26.6339 31.4886 26.6339 31.9 26.4757 32.0265C26.1593 32.2797 25.115 32.5645 25.115 32.5645C25.115 32.5645 24.6403 32.9759 24.482 33.4189L24.3555 33.7671L24.8618 34.4C24.8618 34.4 25.0517 36.9 25.558 36.9C25.9694 36.9 26.9188 36.9 27.2669 36.9C27.3618 36.9 27.3934 36.9 27.3934 36.9C27.7415 36.9 28.6909 36.9 29.1023 36.9C29.6086 36.9 29.7985 34.4 29.7985 34.4L30.2732 33.9253L30.02 33.4506Z" fill="#E74C3C"/>
<path d="M37.7099 33.4506C37.5516 33.0076 37.077 32.5962 37.077 32.5962C37.077 32.5962 36.0327 32.3114 35.7162 32.0582C35.558 31.9316 35.558 31.4886 35.5896 31.0772C36.6023 30.6974 37.3301 29.5898 37.3301 28.2291C37.3301 26.5835 36.2542 25.2544 34.8934 25.2544C33.5643 25.2544 32.4884 26.5835 32.4884 28.2291C32.4884 29.5898 33.2478 30.7291 34.2605 31.0772C34.2922 31.4886 34.2922 31.9 34.1339 32.0265C33.8175 32.2797 32.7732 32.5645 32.7732 32.5645C32.7732 32.5645 32.2985 32.9759 32.1403 33.4189L32.0137 33.7671L32.52 34.4C32.52 34.4 32.7099 36.9 33.2162 36.9C33.6276 36.9 34.577 36.9 34.9251 36.9C35.02 36.9 35.0516 36.9 35.0516 36.9C35.3997 36.9 36.3491 36.9 36.7605 36.9C37.2668 36.9 37.4567 34.4 37.4567 34.4L37.9314 33.9253L37.7099 33.4506Z" fill="#E74C3C"/>
</g>
</svg>
