<svg width="46" height="46" viewBox="0 0 46 46" fill="none" xmlns="http://www.w3.org/2000/svg">
<path d="M45.4975 22.6377C45.4975 35.0744 35.4342 45.1377 22.9975 45.1377C10.5608 45.1377 0.497498 35.0744 0.497498 22.6377C0.497498 10.201 10.5608 0.137695 22.9975 0.137695C35.4342 0.137695 45.4975 10.201 45.4975 22.6377Z" fill="#007689"/>
<mask id="mask0_3593_13156" style="mask-type:luminance" maskUnits="userSpaceOnUse" x="2" y="1" width="42" height="43">
<path d="M43.757 22.6692C43.757 34.1249 34.4532 43.4287 22.9975 43.4287C11.5418 43.4287 2.23798 34.1249 2.23798 22.6692C2.23798 11.2135 11.5418 1.90967 22.9975 1.90967C34.4848 1.90967 43.757 11.2135 43.757 22.6692Z" fill="white"/>
</mask>
<g mask="url(#mask0_3593_13156)">
<path fill-rule="evenodd" clip-rule="evenodd" d="M34.9595 17.1948L42.5861 29.3784L34.1683 30.7391L34.9595 17.1948Z" fill="#FFF200"/>
</g>
<mask id="mask1_3593_13156" style="mask-type:luminance" maskUnits="userSpaceOnUse" x="2" y="1" width="42" height="43">
<path d="M43.757 22.6692C43.757 34.1249 34.4532 43.4287 22.9975 43.4287C11.5418 43.4287 2.23798 34.1249 2.23798 22.6692C2.23798 11.2135 11.5418 1.90967 22.9975 1.90967C34.4848 1.90967 43.757 11.2135 43.757 22.6692Z" fill="white"/>
</mask>
<g mask="url(#mask1_3593_13156)">
<path d="M46.3203 28.9985H-2.03418V48.7137H46.3203V28.9985Z" fill="#E74C3C"/>
</g>
<mask id="mask2_3593_13156" style="mask-type:luminance" maskUnits="userSpaceOnUse" x="2" y="1" width="42" height="43">
<path d="M43.757 22.6692C43.757 34.1249 34.4532 43.4287 22.9975 43.4287C11.5418 43.4287 2.23798 34.1249 2.23798 22.6692C2.23798 11.2135 11.5418 1.90967 22.9975 1.90967C34.4848 1.90967 43.757 11.2135 43.757 22.6692Z" fill="white"/>
</mask>
<g mask="url(#mask2_3593_13156)">
<path fill-rule="evenodd" clip-rule="evenodd" d="M34.643 31.6567C34.643 32.9859 33.5671 34.0618 32.238 34.0618H14.8962C13.5671 34.0618 12.4911 32.9859 12.4911 31.6567" fill="#C93831"/>
</g>
<mask id="mask3_3593_13156" style="mask-type:luminance" maskUnits="userSpaceOnUse" x="2" y="1" width="42" height="43">
<path d="M43.757 22.6692C43.757 34.1249 34.4532 43.4287 22.9975 43.4287C11.5418 43.4287 2.23798 34.1249 2.23798 22.6692C2.23798 11.2135 11.5418 1.90967 22.9975 1.90967C34.4848 1.90967 43.757 11.2135 43.757 22.6692Z" fill="white"/>
</mask>
<g mask="url(#mask3_3593_13156)">
<path fill-rule="evenodd" clip-rule="evenodd" d="M14.3899 15.5175H18.5988V14.1568C18.5988 13.3656 18.9152 12.6694 19.4215 12.1631C19.9279 11.6568 20.6241 11.3403 21.4152 11.3403H25.6874C26.4785 11.3403 27.1747 11.6568 27.681 12.1631C28.1874 12.6694 28.5038 13.3656 28.5038 14.1568V15.5175H32.7127C34.1051 15.5175 35.276 16.6568 35.276 18.0808V29.9479C35.276 31.3403 34.1367 32.5112 32.7127 32.5112H14.3899C12.9975 32.5112 11.8266 31.372 11.8266 29.9479V18.0808C11.8266 16.6568 12.9975 15.5175 14.3899 15.5175ZM23.0608 21.1505C22.5228 21.3403 21.2253 21.277 21.0038 22.7011C20.6874 24.6315 22.7127 24.9479 23.6304 25.391C24.8962 25.9922 24.295 27.0998 20.9722 25.7074V27.3213C21.2886 27.3846 21.5734 27.5429 21.9215 27.6378L23.0291 27.796V28.7138H24.0418L24.0734 27.796C24.2 27.7327 24.5481 27.7011 24.738 27.6378C26.5101 27.0682 26.5734 24.9479 25.0545 24.1568C24.2633 23.7454 22.8709 23.4606 22.8709 22.9543C22.8709 22.4796 23.8519 22.5745 24.1684 22.6378L25.4658 23.0492L26.0038 21.6568L24.0418 21.1821L24.0101 20.5492H23.0291L23.0608 21.1505ZM20.5608 15.5175H26.5418V14.1568C26.5418 13.9036 26.4469 13.7138 26.2886 13.5555C26.1304 13.3973 25.9089 13.3024 25.6874 13.3024H21.4469C21.1937 13.3024 21.0038 13.3973 20.8456 13.5555C20.6874 13.7138 20.5924 13.9353 20.5924 14.1568V15.5175H20.5608Z" fill="white"/>
</g>
</svg>
