<svg width="46" height="46" viewBox="0 0 46 46" fill="none" xmlns="http://www.w3.org/2000/svg">
<rect x="0.272827" y="0.137695" width="45" height="45" rx="22.5" fill="#FFCB57"/>
<path d="M28.9901 16.8064C29.328 16.8064 29.4232 16.3482 29.1186 16.2098L17.2234 10.9212C16.4999 10.5967 15.6478 10.9212 15.3241 11.6515L11.1592 21.0162C10.8355 21.7417 11.1592 22.5961 11.8874 22.9207L14.2865 23.9612C14.5863 24.0948 14.9291 23.8753 14.9291 23.5459V19.57C14.9291 18.0474 16.1619 16.8112 17.6803 16.8112H28.9901V16.8064Z" fill="white"/>
<path d="M32.1029 18.1035H17.6754C16.871 18.1035 16.2189 18.7574 16.2189 19.5641V29.7832C16.2189 30.5898 16.871 31.2437 17.6754 31.2437H19.6127C19.5651 30.9573 19.5413 30.6662 19.5413 30.3702C19.5413 30.0361 19.5747 29.7116 19.6318 29.3918H18.0705V24.4994H31.7126V29.387H30.1466C30.2037 29.7068 30.237 30.0314 30.237 30.3655C30.237 30.6614 30.2132 30.9525 30.1656 31.2389H32.1029C32.9074 31.2389 33.5595 30.585 33.5595 29.7784V19.5641C33.5595 18.7574 32.9074 18.1035 32.1029 18.1035ZM31.7126 21.4876H18.0705V19.9555H31.7126V21.4876Z" fill="white"/>
<path d="M24.8916 26.6138C22.8258 26.6138 21.1503 28.2939 21.1503 30.3654C21.1503 32.4369 22.8258 34.117 24.8916 34.117C26.9574 34.117 28.633 32.4369 28.633 30.3654C28.633 28.2939 26.9574 26.6138 24.8916 26.6138ZM25.9674 31.845C25.8055 32.0455 25.5913 32.1791 25.3438 32.246C25.2343 32.2746 25.1867 32.3319 25.1915 32.4464C25.1963 32.5562 25.1915 32.666 25.1915 32.7805C25.1915 32.8808 25.1391 32.9333 25.0439 32.9333C24.9249 32.9381 24.8059 32.9381 24.6869 32.9333C24.5822 32.9333 24.5346 32.8712 24.5346 32.771V32.5276C24.5346 32.351 24.5251 32.3414 24.3537 32.3128C24.1348 32.2794 23.9206 32.2269 23.7207 32.1314C23.5636 32.055 23.5445 32.0169 23.5921 31.8498C23.6255 31.7257 23.6588 31.6016 23.6969 31.4823C23.7397 31.3391 23.7778 31.3248 23.9111 31.3916C24.1348 31.5061 24.368 31.573 24.6155 31.6016C24.7726 31.6207 24.9297 31.6064 25.0773 31.5396C25.3533 31.4202 25.3962 31.1004 25.1629 30.9095C25.082 30.8427 24.9963 30.795 24.9011 30.7568C24.6584 30.6518 24.4061 30.5706 24.1824 30.4322C23.8111 30.2126 23.5779 29.9072 23.6064 29.4537C23.635 28.943 23.9253 28.628 24.3918 28.4562C24.5822 28.3846 24.587 28.3893 24.587 28.1889V27.9836C24.5917 27.8309 24.6155 27.807 24.7679 27.8023H24.9059C25.2296 27.8023 25.2296 27.8023 25.2296 28.1268C25.2296 28.3559 25.2296 28.3559 25.4581 28.3893C25.6294 28.418 25.796 28.4657 25.9579 28.5373C26.0483 28.5755 26.0816 28.6375 26.0531 28.733C26.015 28.8714 25.9769 29.0146 25.9293 29.1483C25.8865 29.2771 25.8436 29.2962 25.7199 29.2389C25.4676 29.1148 25.2058 29.0671 24.9297 29.0814C24.8583 29.0862 24.7869 29.0958 24.7203 29.1244C24.4823 29.2294 24.4394 29.4967 24.6441 29.659C24.7488 29.7401 24.8631 29.8022 24.9868 29.8547C25.201 29.9406 25.4105 30.0265 25.6151 30.141C26.2435 30.4895 26.4196 31.2961 25.9674 31.845Z" fill="white"/>
</svg>
