<svg width="46" height="46" viewBox="0 0 46 46" fill="none" xmlns="http://www.w3.org/2000/svg">
<path d="M45.6664 22.9121C45.6664 35.3488 35.6031 45.4121 23.1664 45.4121C10.7297 45.4121 0.666382 35.3172 0.666382 22.9121C0.666382 10.4754 10.7297 0.412109 23.1664 0.412109C35.5714 0.412109 45.6664 10.4754 45.6664 22.9121Z" fill="#007689"/>
<mask id="mask0_3593_13113" style="mask-type:luminance" maskUnits="userSpaceOnUse" x="2" y="2" width="42" height="42">
<path d="M43.9259 22.9436C43.9259 34.3993 34.6221 43.7031 23.1664 43.7031C11.7107 43.7031 2.40692 34.3993 2.40692 22.9436C2.40692 11.4879 11.7107 2.18408 23.1664 2.18408C34.6221 2.18408 43.9259 11.4879 43.9259 22.9436Z" fill="white"/>
</mask>
<g mask="url(#mask0_3593_13113)">
<path d="M19.6538 35.001C19.3057 34.0516 18.293 33.1655 18.293 33.1655C18.293 33.1655 16.0778 32.5326 15.4133 31.9946C15.0652 31.7098 15.0652 30.7921 15.1601 29.9377C17.2804 29.1782 18.7994 26.7731 18.7994 23.925C18.7994 20.444 16.5209 17.6592 13.6728 17.6592C10.8563 17.6592 8.5462 20.4756 8.5462 23.925C8.5462 26.8047 10.1285 29.2415 12.2804 29.9693C12.3753 30.8237 12.3753 31.7098 12.0272 31.9946C11.331 32.5326 9.14746 33.1655 9.14746 33.1655C9.14746 33.1655 8.1348 34.0516 7.7867 35.001L7.50189 35.7288L8.57784 37.3744C8.57784 37.3744 8.98923 44.4946 10.0652 44.4946C10.9196 44.4946 12.9133 44.4946 13.6728 44.4946C13.8627 44.4946 13.9576 44.4946 13.9576 44.4946C14.7171 44.4946 16.6791 44.4946 17.5652 44.4946C18.6411 44.4946 19.0525 37.3744 19.0525 37.3744L20.0652 36.2351L19.6538 35.001Z" fill="#D8A535"/>
</g>
<mask id="mask1_3593_13113" style="mask-type:luminance" maskUnits="userSpaceOnUse" x="2" y="2" width="42" height="42">
<path d="M43.9259 22.9436C43.9259 34.3993 34.6221 43.7031 23.1664 43.7031C11.7107 43.7031 2.40692 34.3993 2.40692 22.9436C2.40692 11.4879 11.7107 2.18408 23.1664 2.18408C34.6221 2.18408 43.9259 11.4879 43.9259 22.9436Z" fill="white"/>
</mask>
<g mask="url(#mask1_3593_13113)">
<path fill-rule="evenodd" clip-rule="evenodd" d="M32.6918 15.7606C30.9513 20.3809 25.1285 21.5517 21.7741 17.9441C21.6158 17.7859 21.4892 17.7543 21.2677 17.7859C20.5715 17.9125 19.8753 18.0707 19.1475 18.1657C18.9576 18.1973 18.4513 18.3239 18.388 18.229C18.2298 18.0707 18.4196 17.8492 18.6411 17.4378C18.6728 17.4062 18.6728 17.3745 18.7044 17.3429C19.1475 16.615 19.5905 15.8872 20.0336 15.1277C20.0968 15.0011 20.1601 14.8112 20.1285 14.653C19.9703 13.6404 20.0335 12.6593 20.3184 11.6783C21.2677 8.51376 24.4956 6.55174 27.7867 7.15301C32.0272 7.9125 33.8943 12.5011 32.6918 15.7606Z" fill="#D8A535"/>
<path fill-rule="evenodd" clip-rule="evenodd" d="M33.1981 14.4312C31.5209 19.3362 25.4449 20.7603 21.8057 17.0894C21.6475 16.9312 21.4892 16.8995 21.2677 16.9312C20.5399 17.0894 19.812 17.2793 19.0525 17.4058C18.831 17.4375 18.3247 17.5957 18.2614 17.5008C18.1032 17.3426 18.293 17.121 18.5146 16.6464C18.5462 16.6147 18.5462 16.5831 18.5778 16.5198C19.0209 15.7286 19.4639 14.9691 19.907 14.178C19.9703 14.0514 20.0335 13.8299 20.0019 13.6717C19.812 12.6274 19.8437 11.5831 20.0968 10.5388C21.0146 7.15269 24.3373 5.00078 27.7867 5.53876C32.2487 6.20331 34.369 10.9818 33.1981 14.4312Z" fill="white"/>
<path fill-rule="evenodd" clip-rule="evenodd" d="M24.3689 12.5639C24.3689 13.1336 23.9259 13.5766 23.3563 13.5766C22.7867 13.5766 22.3436 13.1336 22.3436 12.5639C22.3436 11.9943 22.7867 11.5513 23.3563 11.5513C23.9259 11.5513 24.3689 11.9943 24.3689 12.5639Z" fill="#343433"/>
<path fill-rule="evenodd" clip-rule="evenodd" d="M31.2044 12.5639C31.2044 13.1336 30.7614 13.5766 30.1917 13.5766C29.6221 13.5766 29.1791 13.1336 29.1791 12.5639C29.1791 11.9943 29.6221 11.5513 30.1917 11.5513C30.7614 11.5513 31.2044 11.9943 31.2044 12.5639Z" fill="#343433"/>
<path fill-rule="evenodd" clip-rule="evenodd" d="M27.85 12.5639C27.85 13.1336 27.407 13.5766 26.8374 13.5766C26.2677 13.5766 25.8247 13.1336 25.8247 12.5639C25.8247 11.9943 26.2677 11.5513 26.8374 11.5513C27.407 11.5513 27.85 11.9943 27.85 12.5639Z" fill="#343433"/>
</g>
<mask id="mask2_3593_13113" style="mask-type:luminance" maskUnits="userSpaceOnUse" x="2" y="2" width="42" height="42">
<path d="M43.9259 22.9436C43.9259 34.3993 34.6221 43.7031 23.1664 43.7031C11.7107 43.7031 2.40692 34.3993 2.40692 22.9436C2.40692 11.4879 11.7107 2.18408 23.1664 2.18408C34.6221 2.18408 43.9259 11.4879 43.9259 22.9436Z" fill="white"/>
</mask>
<g mask="url(#mask2_3593_13113)">
<path d="M18.5462 34.463C18.1665 33.4819 17.1222 32.5642 17.1222 32.5642C17.1222 32.5642 14.8437 31.8997 14.1158 31.3617C13.7677 31.0769 13.7677 30.1275 13.8627 29.2414C16.0462 28.4503 17.6601 25.9503 17.6601 23.0073C17.6601 19.3997 15.2867 16.4883 12.3753 16.4883C9.46392 16.4883 7.09051 19.3997 7.09051 23.0073C7.09051 25.982 8.73608 28.5136 10.9513 29.2731C11.0462 30.1592 11.0462 31.0769 10.6981 31.3617C10.0019 31.8997 7.69177 32.5642 7.69177 32.5642C7.69177 32.5642 6.64747 33.4819 6.26772 34.463L5.98291 35.2225L7.12215 36.7731C7.12215 36.7731 7.56519 43.5452 8.67278 43.5452C9.55886 43.5452 11.6158 43.5452 12.407 43.5452C12.5968 43.5452 12.6918 43.5452 12.6918 43.5452C13.4513 43.5452 15.5082 43.5452 16.426 43.5452C17.5335 43.5452 17.9766 36.7731 17.9766 36.7731L19.0209 35.6655L18.5462 34.463Z" fill="white"/>
</g>
<mask id="mask3_3593_13113" style="mask-type:luminance" maskUnits="userSpaceOnUse" x="2" y="2" width="42" height="42">
<path d="M43.9259 22.9436C43.9259 34.3993 34.6221 43.7031 23.1664 43.7031C11.7107 43.7031 2.40692 34.3993 2.40692 22.9436C2.40692 11.4879 11.7107 2.18408 23.1664 2.18408C34.6221 2.18408 43.9259 11.4879 43.9259 22.9436Z" fill="white"/>
</mask>
<g mask="url(#mask3_3593_13113)">
<path d="M25.698 30.001C25.5398 29.5896 25.0968 29.2098 25.0968 29.2098C25.0968 29.2098 24.1474 28.925 23.8626 28.7035C23.7044 28.5769 23.7044 28.1972 23.7677 27.8174C24.6854 27.4693 25.3499 26.4567 25.3499 25.2225C25.3499 23.7352 24.3689 22.501 23.1348 22.501C21.9322 22.501 20.9196 23.7035 20.9196 25.2225C20.9196 26.4567 21.5841 27.501 22.5335 27.8174C22.5651 28.1655 22.5651 28.5769 22.4069 28.7035C22.1221 28.925 21.1727 29.2098 21.1727 29.2098C21.1727 29.2098 20.7297 29.5896 20.5715 30.001L20.4449 30.3174L20.9196 30.8554C20.9196 30.8554 21.1094 33.1022 21.5525 33.1022C21.9322 33.1022 22.7867 33.1022 23.1031 33.1022C23.1664 33.1022 23.2297 33.1022 23.2297 33.1022C23.5462 33.1022 24.4006 33.1022 24.7803 33.1022C25.255 33.1022 25.4132 30.8554 25.4132 30.8554L25.8563 30.444L25.698 30.001Z" fill="#C93831"/>
<path d="M33.2613 30.001C33.1031 29.5896 32.6601 29.2098 32.6601 29.2098C32.6601 29.2098 31.7107 28.925 31.4259 28.7035C31.2677 28.5769 31.2677 28.1972 31.331 27.8174C32.2487 27.4693 32.9132 26.4567 32.9132 25.2225C32.9132 23.7352 31.9322 22.501 30.6981 22.501C29.4955 22.501 28.4829 23.7035 28.4829 25.2225C28.4829 26.4567 29.1791 27.501 30.0968 27.8174C30.1284 28.1655 30.1284 28.5769 29.9702 28.7035C29.6854 28.925 28.736 29.2098 28.736 29.2098C28.736 29.2098 28.293 29.5896 28.1348 30.001L28.0082 30.3174L28.4829 30.8554C28.4829 30.8554 28.6727 33.1022 29.1158 33.1022C29.4955 33.1022 30.35 33.1022 30.6664 33.1022C30.7297 33.1022 30.793 33.1022 30.793 33.1022C31.1094 33.1022 31.9639 33.1022 32.3436 33.1022C32.7867 33.1022 32.9765 30.8554 32.9765 30.8554L33.4196 30.444L33.2613 30.001Z" fill="#C93831"/>
<path d="M40.9512 30.001C40.7929 29.5896 40.3499 29.2098 40.3499 29.2098C40.3499 29.2098 39.4005 28.925 39.1157 28.7035C38.9575 28.5769 38.9575 28.1972 39.0208 27.8174C39.9385 27.4693 40.6031 26.4567 40.6031 25.2225C40.6031 23.7352 39.622 22.501 38.3879 22.501C37.1537 22.501 36.1727 23.7035 36.1727 25.2225C36.1727 26.4567 36.8372 27.501 37.7866 27.8174C37.8183 28.1655 37.8183 28.5769 37.66 28.7035C37.3752 28.925 36.4258 29.2098 36.4258 29.2098C36.4258 29.2098 35.9828 29.5896 35.8246 30.001L35.698 30.3174L36.1727 30.8554C36.1727 30.8554 36.3626 33.1022 36.8056 33.1022C37.1853 33.1022 38.0398 33.1022 38.3562 33.1022C38.4195 33.1022 38.4828 33.1022 38.4828 33.1022C38.7993 33.1022 39.6537 33.1022 40.0334 33.1022C40.5081 33.1022 40.6664 30.8554 40.6664 30.8554L41.1094 30.444L40.9512 30.001Z" fill="#C93831"/>
<path d="M29.8436 33.4506C29.6854 33.0076 29.2107 32.5962 29.2107 32.5962C29.2107 32.5962 28.1664 32.3114 27.85 32.0582C27.6917 31.9316 27.6917 31.4886 27.7234 31.0772C28.736 30.6974 29.4639 29.5898 29.4639 28.2291C29.4639 26.5835 28.3879 25.2544 27.0588 25.2544C25.7297 25.2544 24.6538 26.5835 24.6538 28.2291C24.6538 29.5898 25.4133 30.7291 26.4259 31.0772C26.4576 31.4886 26.4576 31.9 26.2993 32.0265C25.9829 32.2797 24.9386 32.5645 24.9386 32.5645C24.9386 32.5645 24.4639 32.9759 24.3057 33.4189L24.1791 33.7671L24.6854 34.4C24.6854 34.4 24.8753 36.9 25.3816 36.9C25.793 36.9 26.7424 36.9 27.0905 36.9C27.1854 36.9 27.2171 36.9 27.2171 36.9C27.5652 36.9 28.5145 36.9 28.9259 36.9C29.4322 36.9 29.6221 34.4 29.6221 34.4L30.0968 33.9253L29.8436 33.4506Z" fill="#E74C3C"/>
<path d="M37.5335 33.4506C37.3753 33.0076 36.9006 32.5962 36.9006 32.5962C36.9006 32.5962 35.8563 32.3114 35.5398 32.0582C35.3816 31.9316 35.3816 31.4886 35.4132 31.0772C36.4259 30.6974 37.1537 29.5898 37.1537 28.2291C37.1537 26.5835 36.0778 25.2544 34.717 25.2544C33.3879 25.2544 32.312 26.5835 32.312 28.2291C32.312 29.5898 33.0715 30.7291 34.0841 31.0772C34.1158 31.4886 34.1158 31.9 33.9575 32.0265C33.6411 32.2797 32.5968 32.5645 32.5968 32.5645C32.5968 32.5645 32.1221 32.9759 31.9639 33.4189L31.8373 33.7671L32.3436 34.4C32.3436 34.4 32.5335 36.9 33.0398 36.9C33.4512 36.9 34.4006 36.9 34.7487 36.9C34.8436 36.9 34.8753 36.9 34.8753 36.9C35.2234 36.9 36.1727 36.9 36.5841 36.9C37.0904 36.9 37.2803 34.4 37.2803 34.4L37.755 33.9253L37.5335 33.4506Z" fill="#E74C3C"/>
</g>
</svg>
