<svg width="46" height="46" viewBox="0 0 46 46" fill="none" xmlns="http://www.w3.org/2000/svg">
<path d="M45.4976 22.6377C45.4976 35.0744 35.4343 45.1377 22.9976 45.1377C10.5609 45.1377 0.497559 35.0744 0.497559 22.6377C0.497559 10.201 10.5609 0.137695 22.9976 0.137695C35.4343 0.137695 45.4976 10.201 45.4976 22.6377Z" fill="#FFCB57"/>
<mask id="mask0_3593_12479" style="mask-type:luminance" maskUnits="userSpaceOnUse" x="2" y="1" width="42" height="43">
<path d="M43.757 22.6692C43.757 34.1249 34.4532 43.4287 22.9975 43.4287C11.5418 43.4287 2.23804 34.1249 2.23804 22.6692C2.23804 11.2135 11.5418 1.90967 22.9975 1.90967C34.4849 1.90967 43.757 11.2135 43.757 22.6692Z" fill="white"/>
</mask>
<g mask="url(#mask0_3593_12479)">
<path fill-rule="evenodd" clip-rule="evenodd" d="M34.9595 17.1948L42.5861 29.3784L34.1684 30.7391L34.9595 17.1948Z" fill="#D8A535"/>
</g>
<mask id="mask1_3593_12479" style="mask-type:luminance" maskUnits="userSpaceOnUse" x="2" y="1" width="42" height="43">
<path d="M43.757 22.6692C43.757 34.1249 34.4532 43.4287 22.9975 43.4287C11.5418 43.4287 2.23804 34.1249 2.23804 22.6692C2.23804 11.2135 11.5418 1.90967 22.9975 1.90967C34.4849 1.90967 43.757 11.2135 43.757 22.6692Z" fill="white"/>
</mask>
<g mask="url(#mask1_3593_12479)">
<path d="M46.3204 28.9985H-2.03406V48.7137H46.3204V28.9985Z" fill="#E74C3C"/>
</g>
<mask id="mask2_3593_12479" style="mask-type:luminance" maskUnits="userSpaceOnUse" x="2" y="1" width="42" height="43">
<path d="M43.757 22.6692C43.757 34.1249 34.4532 43.4287 22.9975 43.4287C11.5418 43.4287 2.23804 34.1249 2.23804 22.6692C2.23804 11.2135 11.5418 1.90967 22.9975 1.90967C34.4849 1.90967 43.757 11.2135 43.757 22.6692Z" fill="white"/>
</mask>
<g mask="url(#mask2_3593_12479)">
<path fill-rule="evenodd" clip-rule="evenodd" d="M34.6431 31.6567C34.6431 32.9859 33.5672 34.0618 32.2381 34.0618H14.8963C13.5672 34.0618 12.4912 32.9859 12.4912 31.6567" fill="#C93831"/>
</g>
<mask id="mask3_3593_12479" style="mask-type:luminance" maskUnits="userSpaceOnUse" x="2" y="1" width="42" height="43">
<path d="M43.757 22.6692C43.757 34.1249 34.4532 43.4287 22.9975 43.4287C11.5418 43.4287 2.23804 34.1249 2.23804 22.6692C2.23804 11.2135 11.5418 1.90967 22.9975 1.90967C34.4849 1.90967 43.757 11.2135 43.757 22.6692Z" fill="white"/>
</mask>
<g mask="url(#mask3_3593_12479)">
<path fill-rule="evenodd" clip-rule="evenodd" d="M14.39 15.5175H18.5988V14.1568C18.5988 13.3656 18.9153 12.6694 19.4216 12.1631C19.9279 11.6568 20.6241 11.3403 21.4153 11.3403H25.6874C26.4786 11.3403 27.1748 11.6568 27.6811 12.1631C28.1874 12.6694 28.5039 13.3656 28.5039 14.1568V15.5175H32.7127C34.1052 15.5175 35.276 16.6568 35.276 18.0808V29.9479C35.276 31.3403 34.1368 32.5112 32.7127 32.5112H14.39C12.9975 32.5112 11.8267 31.372 11.8267 29.9479V18.0808C11.8267 16.6568 12.9975 15.5175 14.39 15.5175ZM23.0608 21.1505C22.5229 21.3403 21.2254 21.277 21.0039 22.7011C20.6874 24.6315 22.7127 24.9479 23.6305 25.391C24.8963 25.9922 24.295 27.0998 20.9722 25.7074V27.3213C21.2887 27.3846 21.5735 27.5429 21.9216 27.6378L23.0292 27.796V28.7138H24.0418L24.0735 27.796C24.2001 27.7327 24.5482 27.7011 24.7381 27.6378C26.5102 27.0682 26.5735 24.9479 25.0545 24.1568C24.2634 23.7454 22.871 23.4606 22.871 22.9543C22.871 22.4796 23.852 22.5745 24.1684 22.6378L25.4659 23.0492L26.0039 21.6568L24.0418 21.1821L24.0102 20.5492H23.0292L23.0608 21.1505ZM20.5608 15.5175H26.5419V14.1568C26.5419 13.9036 26.4469 13.7138 26.2887 13.5555C26.1305 13.3973 25.9089 13.3024 25.6874 13.3024H21.4469C21.1938 13.3024 21.0039 13.3973 20.8456 13.5555C20.6874 13.7138 20.5925 13.9353 20.5925 14.1568V15.5175H20.5608Z" fill="white"/>
</g>
</svg>
