<svg width="26" height="26" viewBox="0 0 26 26" fill="none" xmlns="http://www.w3.org/2000/svg">
<path fill-rule="evenodd" clip-rule="evenodd" d="M17.3081 1H18.1676C19.2101 1 20.0576 1.9255 20.0561 3.0625V16.9375C20.0561 18.0745 19.2086 19 18.1661 19H17.5316H16.8071H13.1381H10.9481C9.90561 19 9.05811 18.0745 9.05811 16.9375V3.0625C9.05811 1.9255 9.90561 1 10.9481 1H11.8076H17.3081ZM17.9951 17.5C18.3746 17.5 18.6821 17.164 18.6821 16.75H18.6806V2.9995C18.6806 2.5855 18.3731 2.2495 17.9936 2.2495H17.6501C17.2706 2.2495 16.9631 2.5855 16.9631 2.9995C16.9631 3.4135 16.6556 3.7495 16.2761 3.7495H12.8381C12.4586 3.7495 12.1511 3.4135 12.1511 2.9995C12.1511 2.5855 11.8436 2.2495 11.4641 2.2495H11.1206C10.7411 2.2495 10.4336 2.5855 10.4336 2.9995V16.75C10.4336 17.164 10.7411 17.5 11.1206 17.5H17.9951Z" fill="#10C9C9"/>
<path d="M17.005 18.2769C16.9195 18.1074 16.747 18.0009 16.558 18.0009H13.0405C12.901 16.1034 11.9725 14.3619 10.4455 13.1649C10.273 13.0299 10.225 12.7794 10.33 12.5709L11.365 10.5144C11.5375 10.1709 11.6275 9.78541 11.6275 9.39991C11.6275 8.73091 11.3665 8.10091 10.891 7.62691C10.4995 7.23541 9.95048 7.09441 9.42248 7.24891C9.01898 7.36141 8.68898 7.63291 8.48948 8.01691L6.47798 12.0399C6.19898 12.6099 6.05648 13.2129 6.05648 13.8309C6.05648 14.3874 5.88848 14.9394 5.59448 15.4179L11.6425 21.4659C12.127 21.1704 12.688 21.0009 13.2565 21.0009C14.5405 21.0009 15.766 20.3874 16.537 19.3614L16.957 18.8019C17.071 18.6489 17.089 18.4464 17.005 18.2769Z" fill="white"/>
<path d="M4.41103 15.646C4.21603 15.451 3.89953 15.451 3.70453 15.646L2.181 17.0444C1.75765 17.4329 1.7481 18.0975 2.16011 18.4981L8.63599 24.7942C9.0339 25.181 9.67072 25.1699 10.0548 24.7693L11.413 23.353C11.608 23.158 11.608 22.8415 11.413 22.6465L4.41103 15.646Z" fill="white"/>
<path d="M19.3074 11.5H16.8069C15.8424 11.5 15.0564 10.7155 15.0564 9.74952C15.0564 8.78352 15.8409 7.99902 16.8069 7.99902H19.3074C19.4379 7.99902 19.5609 8.01402 19.6809 8.04552C20.4654 8.19552 21.0564 8.91552 21.0564 9.74952C21.0564 10.5835 20.4654 11.3035 19.6509 11.4595C19.5609 11.485 19.4379 11.5 19.3074 11.5Z" fill="white"/>
<path d="M19.3074 14.2495H16.8069C15.8424 14.2495 15.0564 13.465 15.0564 12.499C15.0564 11.5345 15.8409 10.7485 16.8069 10.7485H19.3074C19.4379 10.7485 19.5609 10.7635 19.6809 10.795C20.4654 10.945 21.0564 11.665 21.0564 12.499C21.0564 13.333 20.4654 14.053 19.6509 14.209C19.5609 14.2345 19.4379 14.2495 19.3074 14.2495Z" fill="white"/>
<path d="M19.3074 17.0005H17.8074C16.8429 17.0005 16.0569 16.216 16.0569 15.25C16.0569 14.284 16.8414 13.4995 17.8074 13.4995H19.3074C19.4379 13.4995 19.5609 13.5145 19.6809 13.546C20.4654 13.696 21.0564 14.416 21.0564 15.25C21.0564 16.084 20.4654 16.804 19.6509 16.96C19.5609 16.9855 19.4379 17.0005 19.3074 17.0005Z" fill="white"/>
<path d="M22.5309 4.5265C22.1289 4.1245 21.5829 3.961 21.0564 4.036V8.476L22.5369 6.9955C22.8594 6.6595 23.0364 6.22 23.0364 5.7595C23.0379 5.2915 22.8579 4.8535 22.5309 4.5265Z" fill="white"/>
</svg>
