<svg width="20" height="22" viewBox="0 0 20 22" fill="none" xmlns="http://www.w3.org/2000/svg">
<path fill-rule="evenodd" clip-rule="evenodd" d="M10.2266 1.97656C10.2266 2.33252 9.93805 2.62109 9.5821 2.62109C9.22614 2.62109 8.93756 2.33252 8.93756 1.97656V0.644531C8.93756 0.288578 9.22614 0 9.5821 0C9.93805 0 10.2266 0.288578 10.2266 0.644531V1.97656ZM15.3829 18.1328H16.0274C16.3834 18.1328 16.6719 18.4214 16.6719 18.7773V21.3555C16.6719 21.7114 16.3834 22 16.0274 22H3.13678C2.78083 22 2.49225 21.7114 2.49225 21.3555V18.7773C2.49225 18.4214 2.78083 18.1328 3.13678 18.1328H3.78131V9.71094C3.78131 6.51239 6.38354 3.91016 9.5821 3.91016C12.7806 3.91016 15.3829 6.51239 15.3829 9.71094V18.1328ZM9.5821 5.19922C7.09433 5.19922 5.07038 7.22318 5.07038 9.71094V18.1328H8.93756V12.9336H7.6485V13.5781C7.6485 13.9341 7.35992 14.2227 7.00397 14.2227C6.64802 14.2227 6.35944 13.9341 6.35944 13.5781V11C6.35944 10.644 6.64802 10.3555 7.00397 10.3555C7.35992 10.3555 7.6485 10.644 7.6485 11V11.6445H11.5157V11C11.5157 10.644 11.8043 10.3555 12.1602 10.3555C12.5162 10.3555 12.8048 10.644 12.8048 11V13.5781C12.8048 13.9341 12.5162 14.2227 12.1602 14.2227C11.8043 14.2227 11.5157 13.9341 11.5157 13.5781V12.9336H10.2266V18.1328H14.0938V9.71094C14.0938 7.22318 12.0699 5.19922 9.5821 5.19922ZM3.78131 20.7109V19.4219H15.3829V20.7109H3.78131ZM4.51221 3.50775C4.69075 3.817 5.08529 3.92111 5.39264 3.74365C5.7009 3.56568 5.80652 3.17148 5.62854 2.86322L4.98401 1.74685C4.80603 1.43859 4.41179 1.33298 4.10358 1.51095C3.79532 1.68893 3.6897 2.08313 3.86768 2.39138L4.51221 3.50775ZM0.973478 5.28559L2.08985 5.93012C2.39811 6.10809 2.50372 6.50225 2.32575 6.81055C2.14721 7.11984 1.75254 7.22382 1.44532 7.04645L0.328947 6.40191C0.0206888 6.22394 -0.0849284 5.82979 0.0930481 5.52148C0.270982 5.21323 0.665177 5.10761 0.973478 5.28559ZM13.7715 3.74365C14.0788 3.92103 14.4734 3.81709 14.652 3.50775L15.2965 2.39138C15.4745 2.08313 15.3689 1.68893 15.0606 1.51095C14.7523 1.33298 14.3581 1.43859 14.1802 1.74685L13.5357 2.86322C13.3576 3.17148 13.4632 3.56568 13.7715 3.74365ZM18.1907 5.28559C18.499 5.10761 18.8931 5.21318 19.0711 5.52148C19.2492 5.82974 19.1435 6.22394 18.8352 6.40191L17.7189 7.04644C17.4115 7.22391 17.017 7.11979 16.8385 6.81055C16.6605 6.50229 16.7661 6.10809 17.0744 5.93012L18.1907 5.28559Z" fill="#F76F5A"/>
</svg>
